<?xml version="1.0" encoding="iso-8859-1"?>
<!-- Generator: Adobe Illustrator 19.0.0, SVG Export Plug-In . SVG Version: 6.00 Build 0)  -->
<svg version="1.1" id="Capa_1" xmlns="http://www.w3.org/2000/svg" xmlns:xlink="http://www.w3.org/1999/xlink" x="0px" y="0px"
	 viewBox="0 0 512 512" style="enable-background:new 0 0 512 512;" xml:space="preserve">
<g>
	<g>
		<rect x="17.655" style="fill:#B0D3F0;" width="476.69" height="476.69"/>
		<path style="fill:#285680;" d="M17.655,476.69h476.69c9.751,0,17.655,7.904,17.655,17.655l0,0c0,9.751-7.905,17.655-17.655,17.655
			H17.655C7.904,512,0,504.095,0,494.345l0,0C0,484.594,7.904,476.69,17.655,476.69z"/>
		<polygon style="fill:#4482C3;" points="189.97,35.31 17.655,35.31 17.655,0 256,0 494.345,0 494.345,35.31 322.03,35.31 		"/>
	</g>
	<path style="fill:none;stroke:#000000;stroke-width:2;stroke-linecap:round;stroke-linejoin:round;" d="M153.688,135.239
		L65.412,95.514c-2.743-1.233-5.925-0.985-8.443,0.658c-2.519,1.643-4.027,4.456-4.003,7.463v125.881
		c0,4.875,3.952,8.828,8.828,8.828h88.276c4.875,0,8.828-3.952,8.828-8.828V143.36C158.897,139.868,156.863,136.695,153.688,135.239
		z M150.069,273.655H61.793c-4.875,0-8.828,3.952-8.828,8.828v125.881c-0.024,3.007,1.485,5.82,4.003,7.463
		c2.519,1.643,5.701,1.891,8.443,0.658l88.276-39.812c3.184-1.399,5.231-4.556,5.208-8.033v-86.157
		C158.897,277.607,154.944,273.655,150.069,273.655z"/>
	<g>
		<path style="fill:#2C3E50;" d="M182.466,109.462L17.655,35.31V476.69l166.135-74.77c6.327-2.844,10.402-9.129,10.417-16.066
			V114.759L182.466,109.462z M158.897,368.64c0.022,3.477-2.025,6.635-5.208,8.033l-88.276,39.812
			c-2.743,1.233-5.925,0.985-8.443-0.658c-2.519-1.643-4.027-4.456-4.003-7.463V282.483c0-4.875,3.952-8.828,8.828-8.828h88.276
			c4.875,0,8.828,3.952,8.828,8.828V368.64z M158.897,229.517c0,4.875-3.952,8.828-8.828,8.828H61.793
			c-4.875,0-8.828-3.952-8.828-8.828V103.636c-0.024-3.007,1.485-5.82,4.003-7.463c2.519-1.643,5.701-1.891,8.443-0.658
			l88.276,39.724c3.174,1.456,5.209,4.629,5.208,8.121V229.517z"/>
		<g>
			<path style="fill:#2FA8CC;" d="M158.897,143.325v86.193c0,4.875-3.952,8.828-8.828,8.828H61.793
				c-4.875,0-8.828-3.952-8.828-8.828V103.601c0-2.995,1.519-5.785,4.033-7.411c2.515-1.626,5.682-1.867,8.414-0.639l88.276,39.724
				C156.858,136.699,158.896,139.85,158.897,143.325z"/>
			<path style="fill:#2FA8CC;" d="M158.897,282.483v86.184c0,3.475-2.039,6.626-5.208,8.051l-88.276,39.724
				c-2.731,1.228-5.899,0.987-8.414-0.639c-2.515-1.626-4.033-4.417-4.033-7.411V282.483c0-4.875,3.952-8.828,8.828-8.828h88.276
				C154.944,273.655,158.897,277.607,158.897,282.483z"/>
		</g>
		<path style="fill:#2C3E50;" d="M329.534,109.462l-11.741,5.297v271.095c0.014,6.937,4.09,13.222,10.417,16.066l166.135,74.77
			V35.31L329.534,109.462z M459.034,408.364c0.024,3.007-1.485,5.82-4.003,7.463c-2.519,1.643-5.701,1.891-8.443,0.658
			l-88.276-39.812c-3.184-1.399-5.231-4.556-5.208-8.033v-86.157c0-4.875,3.952-8.828,8.828-8.828h88.276
			c4.875,0,8.828,3.952,8.828,8.828V408.364z M459.034,229.517c0,4.875-3.952,8.828-8.828,8.828h-88.276
			c-4.875,0-8.828-3.952-8.828-8.828V143.36c-0.001-3.492,2.034-6.665,5.208-8.121l88.276-39.724
			c2.743-1.233,5.925-0.985,8.443,0.658c2.519,1.643,4.027,4.456,4.003,7.463V229.517z"/>
		<g>
			<path style="fill:#2FA8CC;" d="M353.103,143.325v86.193c0,4.875,3.952,8.828,8.828,8.828h88.276c4.875,0,8.828-3.952,8.828-8.828
				V103.601c0-2.995-1.519-5.785-4.033-7.411c-2.515-1.626-5.682-1.867-8.414-0.639l-88.276,39.724
				C355.142,136.699,353.104,139.85,353.103,143.325z"/>
			<path style="fill:#2FA8CC;" d="M353.103,282.483v86.184c0,3.475,2.039,6.626,5.208,8.051l88.276,39.724
				c2.731,1.228,5.899,0.987,8.414-0.639c2.515-1.626,4.033-4.417,4.033-7.411V282.483c0-4.875-3.952-8.828-8.828-8.828h-88.276
				C357.056,273.655,353.103,277.607,353.103,282.483z"/>
		</g>
		<circle style="fill:#F0C419;" cx="256" cy="79.448" r="79.448"/>
		<g>
			<path style="fill:#2C3E50;" d="M256,97.103c-4.875,0-8.828-3.952-8.828-8.828V35.31c0-4.875,3.952-8.828,8.828-8.828
				s8.828,3.952,8.828,8.828v52.966C264.828,93.151,260.875,97.103,256,97.103z"/>
			<path style="fill:#2C3E50;" d="M256,132.414c-4.875,0-8.828-3.952-8.828-8.828v-8.828c0-4.875,3.952-8.828,8.828-8.828
				s8.828,3.952,8.828,8.828v8.828C264.828,128.462,260.875,132.414,256,132.414z"/>
		</g>
	</g>
</g>
<g>
</g>
<g>
</g>
<g>
</g>
<g>
</g>
<g>
</g>
<g>
</g>
<g>
</g>
<g>
</g>
<g>
</g>
<g>
</g>
<g>
</g>
<g>
</g>
<g>
</g>
<g>
</g>
<g>
</g>
</svg>
