<?xml version="1.0" encoding="iso-8859-1"?>
<!-- Generator: Adobe Illustrator 19.0.0, SVG Export Plug-In . SVG Version: 6.00 Build 0)  -->
<svg version="1.1" id="Capa_1" xmlns="http://www.w3.org/2000/svg" xmlns:xlink="http://www.w3.org/1999/xlink" x="0px" y="0px"
	 viewBox="0 0 512 512" style="enable-background:new 0 0 512 512;" xml:space="preserve">
<g>
	<path style="fill:#285680;" d="M64.738,0h298.201c12.83,0,23.231,10.401,23.231,23.231v300.657
		c0,12.83-10.401,23.231-23.231,23.231H62.282c-12.83,0-23.231-10.401-23.231-23.231V25.687c0-6.813,2.706-13.346,7.523-18.163
		S57.925,0,64.738,0z"/>
	<g>
		<path style="fill:#ECF0F1;" d="M65.085,182.237c-1.134-0.014-2.254-0.25-3.298-0.694c-1.051-0.44-2.02-1.057-2.864-1.822
			c-0.762-0.867-1.406-1.83-1.918-2.864c-0.412-1.05-0.615-2.17-0.599-3.298c-0.03-1.138,0.208-2.268,0.694-3.298
			c0.44-1.051,1.057-2.02,1.822-2.864c0.411-0.371,0.843-0.719,1.293-1.041c0.488-0.327,1.016-0.59,1.571-0.781
			c0.492-0.251,1.018-0.426,1.562-0.521c1.11-0.26,2.266-0.26,3.376,0c0.577,0.081,1.137,0.257,1.657,0.521
			c0.552,0.191,1.077,0.454,1.562,0.781c0.453,0.322,0.888,0.67,1.302,1.041c0.766,0.844,1.382,1.812,1.822,2.864
			c0.925,2.101,0.925,4.494,0,6.595c-0.789,2.18-2.506,3.897-4.686,4.686C67.339,181.988,66.219,182.224,65.085,182.237z"/>
		<path style="fill:#ECF0F1;" d="M360.136,182.237c-1.134-0.014-2.254-0.25-3.298-0.694c-1.051-0.44-2.02-1.057-2.864-1.822
			c-0.762-0.867-1.406-1.83-1.918-2.864c-0.412-1.05-0.615-2.17-0.599-3.298c-0.03-1.138,0.208-2.268,0.694-3.298
			c0.44-1.051,1.056-2.02,1.822-2.864c0.411-0.371,0.843-0.719,1.293-1.041c0.488-0.327,1.016-0.59,1.571-0.781
			c0.492-0.251,1.018-0.426,1.562-0.521c1.11-0.26,2.266-0.26,3.376,0c0.577,0.081,1.138,0.257,1.658,0.521
			c0.552,0.191,1.077,0.454,1.562,0.781c0.453,0.322,0.888,0.67,1.302,1.041c0.766,0.844,1.382,1.812,1.822,2.864
			c0.926,2.101,0.926,4.494,0,6.595c-0.789,2.18-2.506,3.897-4.686,4.686C362.39,181.988,361.27,182.224,360.136,182.237z"/>
	</g>
	<g>
		<path style="fill:#2FA8CC;" d="M203.932,78.102h17.356c4.793,0,8.678,3.885,8.678,8.678v69.424c0,4.793-3.885,8.678-8.678,8.678
			h-17.356c-4.793,0-8.678-3.885-8.678-8.678V86.78C195.254,81.987,199.139,78.102,203.932,78.102z"/>
		<path style="fill:#2FA8CC;" d="M117.153,242.983v-17.356c0-4.793,3.885-8.678,8.678-8.678h52.068c4.793,0,8.678,3.885,8.678,8.678
			v17.356c0,4.793-3.885,8.678-8.678,8.678h-52.068C121.038,251.661,117.153,247.776,117.153,242.983z"/>
		<path style="fill:#2FA8CC;" d="M238.644,242.983v-17.356c0-4.793,3.885-8.678,8.678-8.678h52.068c4.793,0,8.678,3.885,8.678,8.678
			v17.356c0,4.793-3.885,8.678-8.678,8.678h-52.068C242.529,251.661,238.644,247.776,238.644,242.983z"/>
	</g>
	<circle style="fill:#46B29D;" cx="334.102" cy="373.153" r="130.169"/>
	<path style="fill:#65DDB9;" d="M334.102,512c-76.683,0-138.847-62.164-138.847-138.847s62.164-138.847,138.847-138.847
		s138.847,62.164,138.847,138.847C472.858,449.798,410.747,511.909,334.102,512z M334.102,251.661
		c-67.098,0-121.492,54.394-121.492,121.492s54.394,121.492,121.492,121.492s121.492-54.394,121.492-121.492
		C455.521,306.084,401.17,251.733,334.102,251.661z"/>
	<g>
		<path style="fill:#FFFFFF;" d="M377.492,425.22c-2.301,0-4.508-0.915-6.135-2.543l-43.39-43.39
			c-1.628-1.627-2.542-3.834-2.543-6.135v-60.746c0-4.793,3.885-8.678,8.678-8.678c4.793,0,8.678,3.885,8.678,8.678v57.153
			l40.847,40.847c2.481,2.482,3.223,6.214,1.88,9.456S381.001,425.22,377.492,425.22z"/>
		<path style="fill:#FFFFFF;" d="M342.78,286.373h-17.356c-4.793,0-8.678-3.885-8.678-8.678s3.885-8.678,8.678-8.678h17.356
			c4.793,0,8.678,3.885,8.678,8.678S347.572,286.373,342.78,286.373z"/>
		<path style="fill:#FFFFFF;" d="M342.78,477.288h-17.356c-4.793,0-8.678-3.885-8.678-8.678s3.885-8.678,8.678-8.678h17.356
			c4.793,0,8.678,3.885,8.678,8.678S347.572,477.288,342.78,477.288z"/>
		<path style="fill:#FFFFFF;" d="M260.469,320.469c-3.509-0.001-6.673-2.115-8.016-5.357c-1.343-3.242-0.601-6.974,1.88-9.456
			l12.271-12.271c3.405-3.289,8.818-3.242,12.165,0.106s3.394,8.76,0.106,12.165l-12.271,12.271
			C264.977,319.554,262.771,320.468,260.469,320.469z"/>
		<path style="fill:#FFFFFF;" d="M395.464,455.463c-3.509-0.001-6.673-2.115-8.016-5.357c-1.343-3.242-0.601-6.974,1.88-9.456
			l12.271-12.279c3.388-3.391,8.884-3.393,12.275-0.004c3.391,3.388,3.393,8.884,0.004,12.275l-12.271,12.279
			C399.978,454.55,397.768,455.465,395.464,455.463z"/>
		<path style="fill:#FFFFFF;" d="M238.644,390.508c-4.793,0-8.678-3.885-8.678-8.678v-17.356c0-4.793,3.885-8.678,8.678-8.678
			c4.793,0,8.678,3.885,8.678,8.678v17.356C247.322,386.623,243.437,390.508,238.644,390.508z"/>
		<path style="fill:#FFFFFF;" d="M429.559,390.508c-4.793,0-8.678-3.885-8.678-8.678v-17.356c0-4.793,3.885-8.678,8.678-8.678
			s8.678,3.885,8.678,8.678v17.356C438.237,386.623,434.352,390.508,429.559,390.508z"/>
		<path style="fill:#FFFFFF;" d="M272.74,455.463c-2.304,0.002-4.515-0.913-6.144-2.543l-12.271-12.279
			c-3.388-3.391-3.386-8.887,0.004-12.275c3.391-3.388,8.887-3.386,12.275,0.004l12.271,12.279c2.481,2.482,3.223,6.214,1.88,9.456
			C279.413,453.348,276.249,455.462,272.74,455.463z"/>
		<path style="fill:#FFFFFF;" d="M407.734,320.469c-2.301-0.001-4.508-0.915-6.135-2.543l-12.271-12.271
			c-3.289-3.405-3.242-8.818,0.106-12.165c3.347-3.347,8.76-3.394,12.165-0.106l12.271,12.271c2.481,2.482,3.223,6.214,1.88,9.456
			C414.407,318.354,411.244,320.468,407.734,320.469z"/>
	</g>
</g>
<g>
</g>
<g>
</g>
<g>
</g>
<g>
</g>
<g>
</g>
<g>
</g>
<g>
</g>
<g>
</g>
<g>
</g>
<g>
</g>
<g>
</g>
<g>
</g>
<g>
</g>
<g>
</g>
<g>
</g>
</svg>
