<?xml version="1.0" encoding="iso-8859-1"?>
<!-- Generator: Adobe Illustrator 19.0.0, SVG Export Plug-In . SVG Version: 6.00 Build 0)  -->
<svg version="1.1" id="Capa_1" xmlns="http://www.w3.org/2000/svg" xmlns:xlink="http://www.w3.org/1999/xlink" x="0px" y="0px"
	 viewBox="0 0 512.001 512.001" style="enable-background:new 0 0 512.001 512.001;" xml:space="preserve">
<g>
	<path style="fill:#7D6599;" d="M321.086,140.459v232.656H43.391c-4.793,0-8.678-3.885-8.678-8.678V132.562L167.226,11.07
		c3.615-3.207,9.055-3.207,12.67,0L321.086,140.459z"/>
	<g>
		<path style="fill:#FF5364;" d="M8.679,165.096c-3.578,0-6.79-2.196-8.088-5.531s-0.416-7.124,2.222-9.543L161.359,4.666
			c6.882-6.1,17.212-6.178,24.186-0.182l149.044,136.609c2.285,2.102,3.275,5.263,2.597,8.293c-0.678,3.03-2.921,5.468-5.884,6.396
			c-2.963,0.928-6.196,0.204-8.481-1.898L174.038,17.466c-0.26-0.217-0.668-0.234-1.172,0.182L14.546,162.822
			C12.943,164.287,10.85,165.098,8.679,165.096z"/>
		<path style="fill:#FF5364;" d="M60.747,117.367c-4.793,0-8.678-3.885-8.678-8.678V52.03c0-4.793,3.885-8.678,8.678-8.678
			s8.678,3.885,8.678,8.678v56.658C69.425,113.482,65.54,117.367,60.747,117.367z"/>
	</g>
	<path style="fill:#2C3E50;" d="M312.408,147.488h173.559c14.378,0,26.034,11.656,26.034,26.034v312.407
		c0,14.378-11.656,26.034-26.034,26.034H312.408c-14.378,0-26.034-11.656-26.034-26.034V173.522
		C286.374,159.144,298.03,147.488,312.408,147.488z"/>
	<rect x="286.374" y="199.556" style="fill:#4482C3;" width="225.627" height="251.661"/>
	<g>
		<path style="fill:#FF5364;" d="M466.685,314.253c-2.301-0.001-4.508-0.915-6.135-2.543c-33.911-33.836-88.813-33.836-122.724,0
			c-3.405,3.289-8.818,3.242-12.165-0.106c-3.347-3.347-3.394-8.76-0.106-12.165c40.689-40.612,106.576-40.612,147.265,0
			c2.481,2.482,3.223,6.214,1.88,9.456C473.358,312.137,470.194,314.252,466.685,314.253z"/>
		<path style="fill:#FF5364;" d="M442.144,338.794c-2.301,0-4.508-0.915-6.135-2.543c-20.348-20.304-53.293-20.304-73.641,0
			c-2.179,2.256-5.405,3.161-8.439,2.366c-3.034-0.794-5.404-3.164-6.198-6.198c-0.794-3.034,0.111-6.261,2.366-8.439
			c27.132-27.065,71.051-27.065,98.183,0c2.481,2.482,3.223,6.214,1.88,9.456C448.816,336.679,445.653,338.793,442.144,338.794z"/>
		<path style="fill:#FF5364;" d="M417.594,363.335c-2.301,0-4.508-0.915-6.135-2.543c-6.778-6.775-17.764-6.775-24.541,0
			c-3.405,3.289-8.818,3.242-12.165-0.106c-3.347-3.347-3.394-8.76-0.106-12.165c13.555-13.551,35.528-13.551,49.083,0
			c2.481,2.482,3.223,6.214,1.88,9.456C424.266,361.22,421.103,363.334,417.594,363.335z"/>
	</g>
	<path style="fill:#F3D55B;" d="M95.459,242.946h69.424c4.793,0,8.678,3.885,8.678,8.678v121.492h-86.78V251.624
		C86.781,246.831,90.666,242.946,95.459,242.946z"/>
</g>
<g>
</g>
<g>
</g>
<g>
</g>
<g>
</g>
<g>
</g>
<g>
</g>
<g>
</g>
<g>
</g>
<g>
</g>
<g>
</g>
<g>
</g>
<g>
</g>
<g>
</g>
<g>
</g>
<g>
</g>
</svg>
