<?xml version="1.0" encoding="iso-8859-1"?>
<!-- Generator: Adobe Illustrator 19.0.0, SVG Export Plug-In . SVG Version: 6.00 Build 0)  -->
<svg version="1.1" id="Capa_1" xmlns="http://www.w3.org/2000/svg" xmlns:xlink="http://www.w3.org/1999/xlink" x="0px" y="0px"
	 viewBox="0 0 512.002 512.002" style="enable-background:new 0 0 512.002 512.002;" xml:space="preserve">
<g>
	<path style="fill:#8697CB;" d="M353.103,392.829H17.655C7.917,392.8,0.029,384.912,0,375.173V57.38
		c0.029-9.739,7.917-17.626,17.655-17.655h476.69c9.739,0.029,17.626,7.917,17.655,17.655v317.793
		c0.03,1.862-0.269,3.715-0.883,5.473v0.088"/>
	<g>
		<path style="fill:#556080;" d="M44.138,75.036L44.138,75.036c9.751,0,17.655,7.904,17.655,17.655v247.172
			c0,9.751-7.904,17.655-17.655,17.655l0,0c-9.751,0-17.655-7.905-17.655-17.655V92.691C26.483,82.94,34.387,75.036,44.138,75.036z"
			/>
		<path style="fill:#556080;" d="M114.759,75.036L114.759,75.036c9.751,0,17.655,7.904,17.655,17.655v247.172
			c0,9.751-7.904,17.655-17.655,17.655l0,0c-9.751,0-17.655-7.905-17.655-17.655V92.691C97.103,82.94,105.008,75.036,114.759,75.036
			z"/>
		<path style="fill:#556080;" d="M185.379,75.036L185.379,75.036c9.751,0,17.655,7.904,17.655,17.655v247.172
			c0,9.751-7.904,17.655-17.655,17.655l0,0c-9.751,0-17.655-7.905-17.655-17.655V92.691
			C167.724,82.94,175.629,75.036,185.379,75.036z"/>
		<path style="fill:#556080;" d="M256,75.036L256,75.036c9.751,0,17.655,7.904,17.655,17.655v247.172
			c0,9.751-7.904,17.655-17.655,17.655l0,0c-9.751,0-17.655-7.905-17.655-17.655V92.691C238.345,82.94,246.249,75.036,256,75.036z"
			/>
		<path style="fill:#556080;" d="M326.621,75.036L326.621,75.036c9.751,0,17.655,7.904,17.655,17.655v247.172
			c0,9.751-7.904,17.655-17.655,17.655l0,0c-9.751,0-17.655-7.905-17.655-17.655V92.691C308.966,82.94,316.87,75.036,326.621,75.036
			z"/>
		<path style="fill:#556080;" d="M379.586,333.684V92.691c0.029-9.739,7.917-17.626,17.655-17.655
			c9.721,0.072,17.583,7.935,17.655,17.655v222.632"/>
		<path style="fill:#556080;" d="M485.517,333.684V92.691c-0.072-9.721-7.935-17.583-17.655-17.655
			c-9.739,0.029-17.626,7.917-17.655,17.655v222.632"/>
	</g>
	<circle style="fill:#F0C419;" cx="432.552" cy="392.829" r="79.448"/>
	<g>
		<path style="fill:#2C3E50;" d="M432.552,410.484c-4.875,0-8.828-3.952-8.828-8.828v-52.966c0-4.875,3.952-8.828,8.828-8.828
			s8.828,3.952,8.828,8.828v52.966C441.379,406.532,437.427,410.484,432.552,410.484z"/>
		<path style="fill:#2C3E50;" d="M432.552,445.794c-4.875,0-8.828-3.952-8.828-8.828v-8.828c0-4.875,3.952-8.828,8.828-8.828
			s8.828,3.952,8.828,8.828v8.828C441.379,441.842,437.427,445.794,432.552,445.794z"/>
	</g>
</g>
<g>
</g>
<g>
</g>
<g>
</g>
<g>
</g>
<g>
</g>
<g>
</g>
<g>
</g>
<g>
</g>
<g>
</g>
<g>
</g>
<g>
</g>
<g>
</g>
<g>
</g>
<g>
</g>
<g>
</g>
</svg>
