<?xml version="1.0" encoding="iso-8859-1"?>
<!-- Generator: Adobe Illustrator 19.0.0, SVG Export Plug-In . SVG Version: 6.00 Build 0)  -->
<svg version="1.1" id="Capa_1" xmlns="http://www.w3.org/2000/svg" xmlns:xlink="http://www.w3.org/1999/xlink" x="0px" y="0px"
	 viewBox="0 0 512.001 512.001" style="enable-background:new 0 0 512.001 512.001;" xml:space="preserve">
<g>
	<path style="fill:#65DDB9;" d="M256.001,503.468c0,0-200.533-88.841-200.533-368.026L256.001,8.535l200.533,126.908
		C456.534,414.627,256.001,503.468,256.001,503.468z"/>
	<path style="fill:#46B29D;" d="M256.001,512.001c-1.191,0.003-2.369-0.247-3.456-0.734
		c-2.057-0.905-205.611-94.336-205.611-375.834c0-2.925,1.497-5.646,3.968-7.211L251.435,1.324c2.788-1.765,6.343-1.765,9.131,0
		l200.533,126.899c2.471,1.565,3.968,4.286,3.968,7.211c0,281.498-203.554,374.929-205.611,375.834
		C258.37,511.754,257.192,512.004,256.001,512.001z M64.001,140.119c2.074,246.443,165.931,340.454,192,353.852
		c26.069-13.397,189.926-107.409,192-353.852l-192-121.481L64.001,140.119z"/>
	<path style="fill:#FFFFFF;" d="M298.667,247.468c-4.713,0-8.533-3.821-8.533-8.533v-42.667c0-18.851-15.282-34.133-34.133-34.133
		c-18.851,0-34.133,15.282-34.133,34.133c0,4.713-3.821,8.533-8.533,8.533s-8.533-3.821-8.533-8.533c0-28.277,22.923-51.2,51.2-51.2
		c28.277,0,51.2,22.923,51.2,51.2v42.667c0,2.263-0.899,4.434-2.499,6.034C303.101,246.569,300.931,247.468,298.667,247.468z"/>
	<path style="fill:#F0C419;" d="M192.001,243.201h128c9.426,0,17.067,7.641,17.067,17.067v93.867
		c0,9.426-7.641,17.067-17.067,17.067h-128c-9.426,0-17.067-7.641-17.067-17.067v-93.867
		C174.934,250.842,182.575,243.201,192.001,243.201z"/>
	<path style="fill:#E57E25;" d="M256.001,337.068c-4.713,0-8.533-3.82-8.533-8.533v-42.667c0-4.713,3.821-8.533,8.533-8.533
		c4.713,0,8.533,3.82,8.533,8.533v42.667C264.534,333.247,260.713,337.068,256.001,337.068z"/>
</g>
<g>
</g>
<g>
</g>
<g>
</g>
<g>
</g>
<g>
</g>
<g>
</g>
<g>
</g>
<g>
</g>
<g>
</g>
<g>
</g>
<g>
</g>
<g>
</g>
<g>
</g>
<g>
</g>
<g>
</g>
</svg>
