<?xml version="1.0" encoding="iso-8859-1"?>
<!-- Generator: Adobe Illustrator 19.0.0, SVG Export Plug-In . SVG Version: 6.00 Build 0)  -->
<svg version="1.1" id="Capa_1" xmlns="http://www.w3.org/2000/svg" xmlns:xlink="http://www.w3.org/1999/xlink" x="0px" y="0px"
	 viewBox="0 0 512 512" style="enable-background:new 0 0 512 512;" xml:space="preserve">
<g>
	<path style="fill:#3D324C;" d="M52.966,0h406.069C488.287,0,512,23.713,512,52.966v406.069C512,488.287,488.287,512,459.034,512
		H52.966C23.713,512,0,488.287,0,459.034V52.966C0,23.713,23.713,0,52.966,0z"/>
	<path style="fill:#CC66A1;" d="M441.379,256c0,3.001-0.088,5.914-0.265,8.828c-1.952,43.048-18.91,84.054-47.934,115.906
		c-3.972,4.326-8.121,8.474-12.447,12.447c-31.852,29.023-72.859,45.982-115.906,47.934c-2.913,0.177-5.826,0.265-8.828,0.265
		c-3.001,0-5.914-0.088-8.828-0.265c-43.048-1.952-84.054-18.91-115.906-47.934c-4.326-3.972-8.474-8.121-12.447-12.447
		c-29.023-31.852-45.982-72.859-47.934-115.906c-0.177-2.913-0.265-5.826-0.265-8.828c0-3.001,0.088-5.914,0.265-8.828
		c1.952-43.048,18.91-84.054,47.934-115.906c3.972-4.326,8.121-8.474,12.447-12.447c31.852-29.023,72.859-45.982,115.906-47.934
		c2.913-0.177,5.826-0.265,8.828-0.265c3.001,0,5.914,0.088,8.828,0.265c43.048,1.952,84.054,18.91,115.906,47.934
		c4.326,3.972,8.474,8.121,12.447,12.447c29.023,31.852,45.982,72.859,47.934,115.906C441.291,250.086,441.379,252.999,441.379,256z
		"/>
	<path style="fill:#F0C419;" d="M318.155,247.172h-39.671c-1.487-0.004-2.872-0.756-3.685-2.001
		c-0.813-1.245-0.944-2.816-0.349-4.178l33.721-75.917c0.595-1.363,0.463-2.933-0.349-4.178s-2.198-1.997-3.685-2.001h-60.963
		c-1.751,0.004-3.334,1.043-4.034,2.648l-51.006,114.759c-0.595,1.363-0.463,2.933,0.349,4.178c0.813,1.245,2.198,1.997,3.685,2.001
		h58.536c1.306-0.002,2.546,0.575,3.385,1.575c0.84,1,1.194,2.321,0.967,3.607l-11.273,63.364c-0.344,2.028,0.758,4.025,2.658,4.814
		c1.899,0.789,4.092,0.162,5.287-1.513l69.994-100.22c0.935-1.341,1.053-3.089,0.305-4.543
		C321.279,248.114,319.79,247.192,318.155,247.172z"/>
	<g>
		<path style="fill:#955BA5;" d="M441.379,256c0,3.001-0.088,5.914-0.265,8.828h-29.749c-4.875,0-8.828-3.952-8.828-8.828
			s3.952-8.828,8.828-8.828h29.749C441.291,250.086,441.379,252.999,441.379,256z"/>
		<path style="fill:#955BA5;" d="M109.462,256c0,4.875-3.952,8.828-8.828,8.828H70.886c-0.177-2.913-0.265-5.826-0.265-8.828
			c0-3.001,0.088-5.914,0.265-8.828h29.749C105.51,247.172,109.462,251.125,109.462,256z"/>
		<path style="fill:#955BA5;" d="M264.828,411.366v29.749c-2.913,0.177-5.826,0.265-8.828,0.265c-3.001,0-5.914-0.088-8.828-0.265
			v-29.749c0-4.875,3.952-8.828,8.828-8.828S264.828,406.49,264.828,411.366z"/>
		<path style="fill:#955BA5;" d="M264.828,70.886v29.749c0,4.875-3.952,8.828-8.828,8.828s-8.828-3.952-8.828-8.828V70.886
			c2.913-0.177,5.826-0.265,8.828-0.265C259.001,70.621,261.914,70.709,264.828,70.886z"/>
		<path style="fill:#955BA5;" d="M393.181,380.734c-3.972,4.326-8.121,8.474-12.447,12.447l-21.098-21.098
			c-2.999-3.502-2.798-8.723,0.463-11.984s8.482-3.462,11.984-0.463L393.181,380.734z"/>
		<path style="fill:#955BA5;" d="M152.364,152.364c-3.443,3.423-9.004,3.423-12.447,0l-21.098-21.098
			c3.972-4.326,8.121-8.474,12.447-12.447l21.098,21.098C155.787,143.36,155.787,148.921,152.364,152.364z"/>
		<path style="fill:#955BA5;" d="M152.364,372.083l-21.098,21.098c-4.326-3.972-8.474-8.121-12.447-12.447l21.098-21.098
			c3.502-2.999,8.723-2.798,11.984,0.463C155.162,363.359,155.364,368.58,152.364,372.083z"/>
		<path style="fill:#955BA5;" d="M393.181,131.266l-21.098,21.098c-3.443,3.423-9.004,3.423-12.447,0
			c-3.423-3.443-3.423-9.004,0-12.447l21.098-21.098C385.059,122.792,389.208,126.941,393.181,131.266z"/>
	</g>
	<circle style="fill:#FF5364;" cx="450.207" cy="61.793" r="26.483"/>
</g>
<g>
</g>
<g>
</g>
<g>
</g>
<g>
</g>
<g>
</g>
<g>
</g>
<g>
</g>
<g>
</g>
<g>
</g>
<g>
</g>
<g>
</g>
<g>
</g>
<g>
</g>
<g>
</g>
<g>
</g>
</svg>
