<?xml version="1.0" encoding="iso-8859-1"?>
<!-- Generator: Adobe Illustrator 19.0.0, SVG Export Plug-In . SVG Version: 6.00 Build 0)  -->
<svg version="1.1" id="Capa_1" xmlns="http://www.w3.org/2000/svg" xmlns:xlink="http://www.w3.org/1999/xlink" x="0px" y="0px"
	 viewBox="0 0 511.968 511.968" style="enable-background:new 0 0 511.968 511.968;" xml:space="preserve">
<g>
	<path style="fill:#7D6599;" d="M426.667,164.24v331.776c0.039,3.068-1.145,6.025-3.291,8.219c-2.145,2.193-5.076,3.443-8.144,3.472
		H96.769c-3.068-0.029-5.998-1.279-8.144-3.472c-2.145-2.193-3.33-5.151-3.291-8.219V164.24L246.529,16.443
		c5.378-4.863,13.566-4.863,18.944,0L426.667,164.24z"/>
	<g>
		<path style="fill:#FF5364;" d="M503.467,243.174c-2.136,0-4.194-0.801-5.768-2.244L259.738,22.707
			c-2.196-1.934-5.504-1.875-7.629,0.137L14.303,240.93c-3.473,3.186-8.872,2.953-12.058-0.521s-2.953-8.872,0.521-12.058
			L240.726,10.12c8.626-7.763,21.704-7.818,30.396-0.128l238.08,218.359c2.589,2.374,3.458,6.092,2.191,9.368
			C510.125,240.995,506.98,243.16,503.467,243.174z"/>
		<path style="fill:#FF5364;" d="M93.867,162.107c-4.713,0-8.533-3.821-8.533-8.533v-76.8c0-4.713,3.821-8.533,8.533-8.533
			c4.713,0,8.533,3.821,8.533,8.533v76.8C102.401,158.287,98.58,162.107,93.867,162.107z"/>
	</g>
	<path style="fill:#2FA8CC;" d="M201.345,251.707h109.312c2.804,0,5.077,2.273,5.077,5.077v177.579c0,2.804-2.273,5.077-5.077,5.077
		H201.345c-2.804,0-5.077-2.273-5.077-5.077V256.784C196.267,253.98,198.541,251.707,201.345,251.707z"/>
	<g>
		<path style="fill:#B0D3F0;" d="M234.625,217.574h42.752c1.12,0,2.195,0.445,2.987,1.237c0.792,0.792,1.237,1.867,1.237,2.987
			v29.909h-51.2v-29.909c0-1.12,0.445-2.195,1.237-2.987C232.43,218.019,233.504,217.574,234.625,217.574z"/>
		<path style="fill:#B0D3F0;" d="M273.067,396.774h-34.133c-4.713,0-8.533-3.821-8.533-8.533c0-4.713,3.821-8.533,8.533-8.533
			h34.133c4.713,0,8.533,3.821,8.533,8.533C281.601,392.953,277.78,396.774,273.067,396.774z"/>
	</g>
</g>
<g>
</g>
<g>
</g>
<g>
</g>
<g>
</g>
<g>
</g>
<g>
</g>
<g>
</g>
<g>
</g>
<g>
</g>
<g>
</g>
<g>
</g>
<g>
</g>
<g>
</g>
<g>
</g>
<g>
</g>
</svg>
