<?xml version="1.0" encoding="iso-8859-1"?>
<!-- Generator: Adobe Illustrator 19.0.0, SVG Export Plug-In . SVG Version: 6.00 Build 0)  -->
<svg version="1.1" id="Capa_1" xmlns="http://www.w3.org/2000/svg" xmlns:xlink="http://www.w3.org/1999/xlink" x="0px" y="0px"
	 viewBox="0 0 512 512" style="enable-background:new 0 0 512 512;" xml:space="preserve">
<g>
	<path style="fill:#2C3E50;" d="M165.959,388.414c-23.075-0.319-42.043,18.123-42.372,41.198V512h317.793v-82.388
		c-0.239-20.356-15.185-37.543-35.31-40.607l-7.062-0.591H165.959z"/>
	<circle style="fill:#C03A2B;" cx="282.483" cy="211.862" r="211.862"/>
	<circle style="fill:#F0C419;" cx="282.483" cy="211.862" r="44.138"/>
	<path style="fill:#F29C1F;" d="M114.759,450.207c-38.365,0-70.462-30.376-77.85-70.621h21.76
		c6.599-0.005,11.948-5.353,11.953-11.953v-46.716c-0.005-6.599-5.353-11.948-11.953-11.953H26.483
		c-4.875,0-8.828,3.952-8.828,8.828v44.138c0,58.412,43.564,105.931,97.103,105.931c4.875,0,8.828-3.952,8.828-8.828
		S119.634,450.207,114.759,450.207z M52.966,361.931H35.31v-35.31h17.655V361.931z"/>
	<path style="fill:#FB7B76;" d="M105.931,220.69c-4.875,0-8.828-3.952-8.828-8.828C97.22,109.528,180.149,26.6,282.483,26.483
		c4.875,0,8.828,3.952,8.828,8.828s-3.952,8.828-8.828,8.828c-92.589,0.102-167.622,75.135-167.724,167.724
		C114.759,216.737,110.806,220.69,105.931,220.69z"/>
</g>
<g>
</g>
<g>
</g>
<g>
</g>
<g>
</g>
<g>
</g>
<g>
</g>
<g>
</g>
<g>
</g>
<g>
</g>
<g>
</g>
<g>
</g>
<g>
</g>
<g>
</g>
<g>
</g>
<g>
</g>
</svg>
