<?xml version="1.0" encoding="iso-8859-1"?>
<!-- Generator: Adobe Illustrator 19.0.0, SVG Export Plug-In . SVG Version: 6.00 Build 0)  -->
<svg version="1.1" id="Capa_1" xmlns="http://www.w3.org/2000/svg" xmlns:xlink="http://www.w3.org/1999/xlink" x="0px" y="0px"
	 viewBox="0 0 512 512" style="enable-background:new 0 0 512 512;" xml:space="preserve">
<g>
	<path style="fill:#894B9D;" d="M273.655,158.897V476.69c0,19.501-15.809,35.31-35.31,35.31H61.793
		c-19.501,0-35.31-15.809-35.31-35.31V35.31C26.483,15.809,42.292,0,61.793,0h176.552c19.501,0,35.31,15.809,35.31,35.31V158.897z"
		/>
	<g>
		<path style="fill:#3D324C;" d="M205.86,158.897c-12.385,26.109-41.211,40.149-69.403,33.801s-48.22-31.386-48.22-60.284
			s20.028-53.937,48.22-60.284s57.019,7.692,69.403,33.801"/>
		<path style="fill:#3D324C;" d="M150.069,361.931c-14.626,0-26.483-11.857-26.483-26.483s11.857-26.483,26.483-26.483
			c14.626,0,26.483,11.857,26.483,26.483S164.695,361.931,150.069,361.931z M150.069,326.621c-4.875,0-8.828,3.952-8.828,8.828
			s3.952,8.828,8.828,8.828s8.828-3.952,8.828-8.828S154.945,326.621,150.069,326.621z"/>
		<path style="fill:#3D324C;" d="M150.069,397.241c-4.875,0-8.828-3.952-8.828-8.828v-35.31c0-4.875,3.952-8.828,8.828-8.828
			s8.828,3.952,8.828,8.828v35.31C158.897,393.289,154.945,397.241,150.069,397.241z"/>
	</g>
	<g>
		<path style="fill:#2FA8CC;" d="M413.176,478.199c23.416-23.051,36.602-54.535,36.602-87.393c0-32.858-13.186-64.342-36.602-87.393
			l25.282-24.964c30.106,29.635,47.059,70.113,47.059,112.358s-16.953,82.722-47.059,112.358L413.176,478.199z"/>
		<path style="fill:#2FA8CC;" d="M362.602,428.262c10.037-9.877,15.69-23.369,15.69-37.451c0-14.082-5.653-27.574-15.69-37.451
			l25.291-24.973c16.723,16.465,26.14,38.952,26.14,62.42c0,23.468-9.417,45.955-26.14,62.42L362.602,428.262z"/>
		<circle style="fill:#2FA8CC;" cx="326.621" cy="393.216" r="17.655"/>
	</g>
	<path style="fill:#F0C419;" d="M150.069,105.931h256c14.626,0,26.483,11.857,26.483,26.483l0,0
		c0,14.626-11.857,26.483-26.483,26.483h-256c-14.626,0-26.483-11.857-26.483-26.483l0,0
		C123.587,117.788,135.443,105.931,150.069,105.931z"/>
</g>
<g>
</g>
<g>
</g>
<g>
</g>
<g>
</g>
<g>
</g>
<g>
</g>
<g>
</g>
<g>
</g>
<g>
</g>
<g>
</g>
<g>
</g>
<g>
</g>
<g>
</g>
<g>
</g>
<g>
</g>
</svg>
