<?xml version="1.0" encoding="iso-8859-1"?>
<!-- Generator: Adobe Illustrator 19.0.0, SVG Export Plug-In . SVG Version: 6.00 Build 0)  -->
<svg version="1.1" id="Capa_1" xmlns="http://www.w3.org/2000/svg" xmlns:xlink="http://www.w3.org/1999/xlink" x="0px" y="0px"
	 viewBox="0 0 512 512" style="enable-background:new 0 0 512 512;" xml:space="preserve">
<g>
	<g>
		<path style="fill:#2C3E50;" d="M392.533,499.2c-4.713,0-8.533-3.82-8.533-8.533v-59.733c0-4.713,3.82-8.533,8.533-8.533
			s8.533,3.82,8.533,8.533v59.733C401.067,495.38,397.246,499.2,392.533,499.2z"/>
		<path style="fill:#2C3E50;" d="M333.483,396.8H120.32c-2.502,0.033-4.891-1.044-6.523-2.941c-1.632-1.897-2.34-4.42-1.933-6.89
			c4.728-24.025,25.784-41.353,50.27-41.37h162.133"/>
	</g>
	<path style="fill:#547580;" d="M460.8,345.6h25.6c9.414-0.028,17.039-7.653,17.067-17.067V38.4
		c-0.028-9.414-7.653-17.039-17.067-17.067H25.6C16.186,21.361,8.561,28.986,8.533,38.4v290.133
		c0.028,9.414,7.653,17.039,17.067,17.067h298.667"/>
	<path style="fill:#35495E;" d="M486.4,354.133h-25.6c-4.713,0-8.533-3.821-8.533-8.533c0-4.713,3.82-8.533,8.533-8.533h25.6
		c4.713,0,8.533-3.82,8.533-8.533V38.4c0-4.713-3.82-8.533-8.533-8.533H25.6c-4.713,0-8.533,3.821-8.533,8.533v290.133
		c0,4.713,3.821,8.533,8.533,8.533h298.667c4.713,0,8.533,3.821,8.533,8.533c0,4.713-3.82,8.533-8.533,8.533H25.6
		c-14.138,0-25.6-11.462-25.6-25.6V38.4c0-14.138,11.462-25.6,25.6-25.6h460.8c14.138,0,25.6,11.462,25.6,25.6v290.133
		C512,342.672,500.539,354.133,486.4,354.133z"/>
	<g>
		<path style="fill:#95A5A5;" d="M76.8,64H42.667c-4.713,0-8.533-3.82-8.533-8.533s3.821-8.533,8.533-8.533H76.8
			c4.713,0,8.533,3.821,8.533,8.533S81.513,64,76.8,64z"/>
		<path style="fill:#95A5A5;" d="M469.333,64h-358.4c-4.713,0-8.533-3.82-8.533-8.533s3.821-8.533,8.533-8.533h358.4
			c4.713,0,8.533,3.821,8.533,8.533S474.046,64,469.333,64z"/>
	</g>
	<g>
		<path style="fill:#65DDB9;" d="M460.8,260.267v102.4c0.002,2.852-0.169,5.702-0.512,8.533
			c-4.214,34.217-33.279,59.921-67.755,59.921s-63.54-25.705-67.755-59.921c-0.343-2.831-0.514-5.681-0.512-8.533v-102.4
			c-0.002-2.852,0.169-5.702,0.512-8.533c4.214-34.217,33.279-59.921,67.755-59.921s63.54,25.705,67.755,59.921
			C460.631,254.565,460.802,257.414,460.8,260.267z"/>
		<path style="fill:#65DDB9;" d="M418.133,499.2h-51.2c-4.713,0-8.533-3.82-8.533-8.533s3.82-8.533,8.533-8.533h51.2
			c4.713,0,8.533,3.82,8.533,8.533S422.846,499.2,418.133,499.2z"/>
	</g>
	<g>
		<path style="fill:#14A085;" d="M366.933,260.267c0,4.713-3.82,8.533-8.533,8.533h-34.133l0-8.533
			c-0.002-2.852,0.169-5.702,0.512-8.533H358.4C363.113,251.733,366.933,255.554,366.933,260.267z"/>
		<path style="fill:#14A085;" d="M366.933,294.4c0,4.713-3.82,8.533-8.533,8.533h-34.133v-17.067H358.4
			C363.113,285.867,366.933,289.687,366.933,294.4z"/>
		<path style="fill:#14A085;" d="M366.933,328.533c0,4.713-3.82,8.533-8.533,8.533h-34.133V320H358.4
			C363.113,320,366.933,323.821,366.933,328.533z"/>
		<path style="fill:#14A085;" d="M366.933,362.667c0,4.713-3.82,8.533-8.533,8.533h-33.621c-0.343-2.831-0.514-5.681-0.512-8.533
			l0-8.533H358.4C363.113,354.133,366.933,357.954,366.933,362.667z"/>
		<path style="fill:#14A085;" d="M460.8,260.267l0,8.533h-34.133c-4.713,0-8.533-3.821-8.533-8.533c0-4.713,3.82-8.533,8.533-8.533
			h33.621C460.631,254.565,460.802,257.414,460.8,260.267z"/>
		<path style="fill:#14A085;" d="M460.8,285.867v17.067h-34.133c-4.713,0-8.533-3.82-8.533-8.533s3.82-8.533,8.533-8.533H460.8z"/>
		<path style="fill:#14A085;" d="M460.8,320v17.067h-34.133c-4.713,0-8.533-3.82-8.533-8.533s3.82-8.533,8.533-8.533H460.8z"/>
		<path style="fill:#14A085;" d="M460.8,354.133l0,8.533c0.002,2.852-0.169,5.702-0.512,8.533h-33.621
			c-4.713,0-8.533-3.82-8.533-8.533s3.82-8.533,8.533-8.533H460.8z"/>
	</g>
</g>
<g>
</g>
<g>
</g>
<g>
</g>
<g>
</g>
<g>
</g>
<g>
</g>
<g>
</g>
<g>
</g>
<g>
</g>
<g>
</g>
<g>
</g>
<g>
</g>
<g>
</g>
<g>
</g>
<g>
</g>
</svg>
