<?xml version="1.0" encoding="iso-8859-1"?>
<!-- Generator: Adobe Illustrator 19.0.0, SVG Export Plug-In . SVG Version: 6.00 Build 0)  -->
<svg version="1.1" id="Capa_1" xmlns="http://www.w3.org/2000/svg" xmlns:xlink="http://www.w3.org/1999/xlink" x="0px" y="0px"
	 viewBox="0 0 512 512" style="enable-background:new 0 0 512 512;" xml:space="preserve">
<g>
	<circle style="fill:#F0C419;" cx="413.867" cy="418.133" r="59.733"/>
	<g>
		<path style="fill:#3D324C;" d="M81.067,17.067l62.967,62.967c3.396,3.393,5.303,7.999,5.299,12.8
			c0.003,7.318-4.403,13.917-11.164,16.719c-6.76,2.802-14.543,1.255-19.718-3.919L81.067,68.267"/>
		<path style="fill:#3D324C;" d="M81.067,115.2l62.967,62.967c3.396,3.394,5.302,7.999,5.299,12.8
			c0.003,7.318-4.403,13.917-11.164,16.719c-6.76,2.802-14.543,1.255-19.718-3.919L81.067,166.4"/>
		<path style="fill:#3D324C;" d="M81.067,213.333l62.967,62.967c3.396,3.393,5.303,7.999,5.299,12.8
			c0.003,7.318-4.403,13.917-11.164,16.719c-6.76,2.802-14.543,1.255-19.718-3.919l-37.385-37.367"/>
		<path style="fill:#3D324C;" d="M81.067,311.424l62.967,62.967c3.396,3.394,5.302,7.999,5.299,12.8
			c0.003,7.318-4.403,13.917-11.164,16.719c-6.76,2.802-14.543,1.255-19.718-3.919l-37.385-37.325"/>
		<path style="fill:#3D324C;" d="M81.067,409.549l62.967,62.967c3.398,3.392,5.305,7.998,5.299,12.8
			c0.003,7.318-4.403,13.917-11.164,16.719s-14.543,1.255-19.718-3.919l-37.385-37.367"/>
	</g>
	<path style="fill:#35495E;" d="M22.699,25.6H64v460.8H22.699c-4.89,0-9.579-1.943-13.036-5.402
		c-3.457-3.459-5.398-8.149-5.396-13.039V44.032C4.267,33.852,12.519,25.6,22.699,25.6z"/>
	<g>
		<path style="fill:#8697CB;" d="M311.467,324.267c-32.974-0.038-59.696-26.759-59.733-59.733c0-4.713,3.82-8.533,8.533-8.533
			c4.713,0,8.533,3.821,8.533,8.533c0,23.564,19.103,42.667,42.667,42.667c23.564,0,42.667-19.103,42.667-42.667
			s-19.103-42.667-42.667-42.667h-102.4c-4.713,0-8.533-3.821-8.533-8.533s3.821-8.533,8.533-8.533h102.4
			c32.99,0,59.733,26.744,59.733,59.733S344.456,324.267,311.467,324.267z"/>
		<path style="fill:#8697CB;" d="M448,290.133c-32.974-0.038-59.696-26.759-59.733-59.733c0-4.713,3.82-8.533,8.533-8.533
			s8.533,3.82,8.533,8.533c0,23.564,19.103,42.667,42.667,42.667c23.564,0,42.667-19.103,42.667-42.667S471.564,187.733,448,187.733
			H209.067c-4.713,0-8.533-3.82-8.533-8.533s3.821-8.533,8.533-8.533H448c32.99,0,59.733,26.744,59.733,59.733
			S480.99,290.133,448,290.133z"/>
		<path style="fill:#8697CB;" d="M311.467,119.467h-102.4c-4.713,0-8.533-3.821-8.533-8.533c0-4.713,3.821-8.533,8.533-8.533h102.4
			c23.564,0,42.667-19.103,42.667-42.667s-19.103-42.667-42.667-42.667c-23.564,0-42.667,19.103-42.667,42.667
			c0,4.713-3.821,8.533-8.533,8.533c-4.713,0-8.533-3.821-8.533-8.533C251.733,26.744,278.477,0,311.467,0
			S371.2,26.744,371.2,59.733S344.456,119.467,311.467,119.467z"/>
		<path style="fill:#8697CB;" d="M448,153.6H209.067c-4.713,0-8.533-3.821-8.533-8.533c0-4.713,3.821-8.533,8.533-8.533H448
			c23.564,0,42.667-19.103,42.667-42.667S471.564,51.2,448,51.2c-23.564,0-42.667,19.103-42.667,42.667
			c0,4.713-3.82,8.533-8.533,8.533s-8.533-3.821-8.533-8.533c0-32.99,26.744-59.733,59.733-59.733s59.733,26.744,59.733,59.733
			S480.99,153.6,448,153.6z"/>
	</g>
	<path style="fill:#547580;" d="M64,8.533h17.067c4.713,0,8.533,3.821,8.533,8.533v477.867c0,4.713-3.821,8.533-8.533,8.533H64
		c-4.713,0-8.533-3.821-8.533-8.533V17.067C55.467,12.354,59.287,8.533,64,8.533z"/>
	<path style="fill:#F29C1F;" d="M499.2,409.6h-17.655c-0.76-6.163-2.362-12.193-4.762-17.92l15.249-8.798
		c2.642-1.524,4.269-4.342,4.27-7.392c0.001-3.05-1.626-5.869-4.267-7.394c-2.641-1.526-5.895-1.526-8.537-0.002l-15.36,8.858
		c-3.752-4.937-8.156-9.343-13.09-13.099l8.849-15.36c2.318-4.078,0.911-9.262-3.151-11.608c-4.062-2.345-9.256-0.972-11.628,3.074
		l-8.798,15.249c-5.726-2.401-11.756-4.001-17.92-4.753V332.8c0-4.713-3.82-8.533-8.533-8.533s-8.533,3.82-8.533,8.533v17.655
		c-6.164,0.752-12.194,2.352-17.92,4.753l-8.806-15.249c-1.513-2.662-4.337-4.309-7.399-4.316c-3.062-0.007-5.893,1.628-7.418,4.283
		c-1.525,2.655-1.511,5.924,0.038,8.566l8.849,15.36c-4.935,3.755-9.338,8.162-13.09,13.099l-15.36-8.858
		c-2.642-1.524-5.896-1.524-8.537,0.002c-2.641,1.526-4.267,4.344-4.267,7.394c0.001,3.05,1.629,5.868,4.27,7.392l15.258,8.798
		c-2.399,5.727-4.001,11.757-4.762,17.92h-17.655c-4.713,0-8.533,3.82-8.533,8.533s3.82,8.533,8.533,8.533h17.655
		c0.761,6.163,2.363,12.192,4.762,17.92l-15.249,8.815c-2.642,1.524-4.269,4.342-4.27,7.392c-0.001,3.05,1.626,5.869,4.267,7.394
		c2.641,1.526,5.895,1.526,8.537,0.002l15.36-8.858c3.752,4.937,8.156,9.343,13.09,13.099l-8.849,15.36
		c-1.549,2.642-1.563,5.911-0.038,8.566s4.356,4.29,7.418,4.283c3.062-0.007,5.886-1.654,7.399-4.316l8.798-15.275
		c5.727,2.4,11.757,4,17.92,4.753v17.664c0,4.713,3.821,8.533,8.533,8.533s8.533-3.82,8.533-8.533v-17.664
		c6.163-0.754,12.193-2.353,17.92-4.753l8.806,15.249c1.513,2.662,4.337,4.309,7.399,4.316c3.062,0.007,5.893-1.628,7.418-4.283
		c1.525-2.655,1.511-5.924-0.038-8.566l-8.849-15.36c4.935-3.755,9.338-8.162,13.09-13.099l15.36,8.858
		c4.084,2.356,9.304,0.956,11.661-3.127c2.356-4.084,0.956-9.304-3.127-11.661l-15.258-8.789c2.399-5.728,4.001-11.757,4.762-17.92
		H499.2c4.713,0,8.533-3.82,8.533-8.533S503.913,409.6,499.2,409.6z M413.867,469.333c-28.277,0-51.2-22.923-51.2-51.2
		c0-28.277,22.923-51.2,51.2-51.2c28.277,0,51.2,22.923,51.2,51.2C465.034,446.397,442.13,469.3,413.867,469.333z"/>
</g>
<g>
</g>
<g>
</g>
<g>
</g>
<g>
</g>
<g>
</g>
<g>
</g>
<g>
</g>
<g>
</g>
<g>
</g>
<g>
</g>
<g>
</g>
<g>
</g>
<g>
</g>
<g>
</g>
<g>
</g>
</svg>
