<?xml version="1.0" encoding="iso-8859-1"?>
<!-- Generator: Adobe Illustrator 19.0.0, SVG Export Plug-In . SVG Version: 6.00 Build 0)  -->
<svg version="1.1" id="Capa_1" xmlns="http://www.w3.org/2000/svg" xmlns:xlink="http://www.w3.org/1999/xlink" x="0px" y="0px"
	 viewBox="0 0 512 512" style="enable-background:new 0 0 512 512;" xml:space="preserve">
<g>
	<g>
		<path style="fill:#4482C3;" d="M79.275,226.099H25.6c-9.414,0.028-17.039,7.653-17.067,17.067v136.533
			c0.028,9.414,7.653,17.039,17.067,17.067h460.8c9.414-0.028,17.039-7.653,17.067-17.067V243.166
			c-0.028-9.414-7.653-17.039-17.067-17.067H79.275z"/>
		<path style="fill:#285680;" d="M356.181,142.728c76.008,45.118,112.48,135.477,89.087,220.716S344.391,507.768,256,507.768
			S90.124,448.683,66.732,363.444s13.079-175.598,89.087-220.716"/>
		<path style="fill:#B0D3F0;" d="M323.925,164.318c69.141,31.901,106.766,107.617,90.435,181.991
			C398.03,420.681,332.145,473.67,256,473.67S113.97,420.681,97.639,346.308s21.295-150.09,90.435-181.991"/>
		<g>
			<path style="fill:#285680;" d="M503.467,268.766H486.4c-4.713,0-8.533-3.82-8.533-8.533s3.82-8.533,8.533-8.533h17.067
				c4.713,0,8.533,3.821,8.533,8.533S508.18,268.766,503.467,268.766z"/>
			<path style="fill:#285680;" d="M503.467,302.899H486.4c-4.713,0-8.533-3.82-8.533-8.533s3.82-8.533,8.533-8.533h17.067
				c4.713,0,8.533,3.82,8.533,8.533S508.18,302.899,503.467,302.899z"/>
			<path style="fill:#285680;" d="M503.467,337.032H486.4c-4.713,0-8.533-3.821-8.533-8.533s3.82-8.533,8.533-8.533h17.067
				c4.713,0,8.533,3.82,8.533,8.533S508.18,337.032,503.467,337.032z"/>
			<path style="fill:#285680;" d="M503.467,371.166H486.4c-4.713,0-8.533-3.821-8.533-8.533s3.82-8.533,8.533-8.533h17.067
				c4.713,0,8.533,3.82,8.533,8.533S508.18,371.166,503.467,371.166z"/>
		</g>
	</g>
	<g>
		<path style="fill:none;stroke:#000000;stroke-width:2;stroke-linecap:round;" d="M280.661,116.787h-0.085"/>
		<path style="fill:none;stroke:#000000;stroke-width:2;stroke-linecap:round;" d="M256,149.299h-0.171"/>
	</g>
	<g>
		<g>
			<path style="fill:#285680;" d="M25.6,268.766H8.533c-4.713,0-8.533-3.82-8.533-8.533s3.821-8.533,8.533-8.533H25.6
				c4.713,0,8.533,3.821,8.533,8.533S30.313,268.766,25.6,268.766z"/>
			<path style="fill:#285680;" d="M25.6,302.899H8.533c-4.713,0-8.533-3.82-8.533-8.533s3.821-8.533,8.533-8.533H25.6
				c4.713,0,8.533,3.82,8.533,8.533S30.313,302.899,25.6,302.899z"/>
			<path style="fill:#285680;" d="M25.6,337.032H8.533c-4.713,0-8.533-3.821-8.533-8.533s3.821-8.533,8.533-8.533H25.6
				c4.713,0,8.533,3.82,8.533,8.533S30.313,337.032,25.6,337.032z"/>
			<path style="fill:#285680;" d="M25.6,371.166H8.533c-4.713,0-8.533-3.821-8.533-8.533s3.821-8.533,8.533-8.533H25.6
				c4.713,0,8.533,3.82,8.533,8.533S30.313,371.166,25.6,371.166z"/>
		</g>
		<path style="fill:#FFFFFF;" d="M162.133,234.632h187.733c4.713,0,8.533,3.821,8.533,8.533v34.133c0,4.713-3.821,8.533-8.533,8.533
			H162.133c-4.713,0-8.533-3.821-8.533-8.533v-34.133C153.6,238.453,157.421,234.632,162.133,234.632z"/>
		<g>
			<path style="fill:#2C3E50;" d="M187.733,294.366c-4.713,0-8.533-3.82-8.533-8.533v-51.2c0-4.713,3.821-8.533,8.533-8.533
				c4.713,0,8.533,3.821,8.533,8.533v51.2C196.267,290.545,192.446,294.366,187.733,294.366z"/>
			<path style="fill:#2C3E50;" d="M221.867,294.366c-4.713,0-8.533-3.82-8.533-8.533v-51.2c0-4.713,3.821-8.533,8.533-8.533
				c4.713,0,8.533,3.821,8.533,8.533v51.2C230.4,290.545,226.579,294.366,221.867,294.366z"/>
			<path style="fill:#2C3E50;" d="M256,294.366c-4.713,0-8.533-3.82-8.533-8.533v-51.2c0-4.713,3.821-8.533,8.533-8.533
				c4.713,0,8.533,3.821,8.533,8.533v51.2C264.533,290.545,260.713,294.366,256,294.366z"/>
			<path style="fill:#2C3E50;" d="M290.133,294.366c-4.713,0-8.533-3.82-8.533-8.533v-51.2c0-4.713,3.821-8.533,8.533-8.533
				c4.713,0,8.533,3.821,8.533,8.533v51.2C298.667,290.545,294.846,294.366,290.133,294.366z"/>
			<path style="fill:#2C3E50;" d="M324.267,294.366c-4.713,0-8.533-3.82-8.533-8.533v-51.2c0-4.713,3.821-8.533,8.533-8.533
				s8.533,3.821,8.533,8.533v51.2C332.8,290.545,328.98,294.366,324.267,294.366z"/>
			<path style="fill:#2C3E50;" d="M187.733,345.566h-42.667c-4.713,0-8.533-3.821-8.533-8.533c0-4.713,3.821-8.533,8.533-8.533
				h42.667c4.713,0,8.533,3.821,8.533,8.533C196.267,341.745,192.446,345.566,187.733,345.566z"/>
			<path style="fill:#2C3E50;" d="M187.733,379.699h-42.667c-4.713,0-8.533-3.82-8.533-8.533s3.821-8.533,8.533-8.533h42.667
				c4.713,0,8.533,3.821,8.533,8.533S192.446,379.699,187.733,379.699z"/>
			<path style="fill:#2C3E50;" d="M366.933,345.566h-42.667c-4.713,0-8.533-3.821-8.533-8.533c0-4.713,3.821-8.533,8.533-8.533
				h42.667c4.713,0,8.533,3.821,8.533,8.533C375.467,341.745,371.646,345.566,366.933,345.566z"/>
			<path style="fill:#2C3E50;" d="M366.933,379.699h-42.667c-4.713,0-8.533-3.82-8.533-8.533s3.821-8.533,8.533-8.533h42.667
				c4.713,0,8.533,3.821,8.533,8.533S371.646,379.699,366.933,379.699z"/>
		</g>
		<path style="fill:#E6E7E8;" d="M396.604,103.569c2.681-3.157,2.681-7.791,0-10.948C380.655,73.787,323.755,12.766,256,12.766
			S131.345,73.787,115.396,92.62c-2.681,3.157-2.681,7.791,0,10.948c15.949,18.842,72.849,79.863,140.604,79.863
			S380.655,122.41,396.604,103.569z"/>
		<circle style="fill:#46B29D;" cx="257.195" cy="98.099" r="85.333"/>
		<circle style="fill:#65DDB9;" cx="257.195" cy="98.099" r="68.267"/>
		<circle style="fill:#2C2F38;" cx="256" cy="123.699" r="25.6"/>
		<circle style="fill:#FFFFFF;" cx="234.667" cy="102.366" r="12.8"/>
		<path style="fill:#FDD7AD;" d="M256,191.966c-71.398,0-130.662-63.437-147.115-82.884c-5.402-6.328-5.402-15.645,0-21.973
			C125.338,67.669,184.61,4.232,256,4.232s130.662,63.437,147.115,82.876c5.4,6.332,5.4,15.649,0,21.982
			C386.662,128.529,327.398,191.966,256,191.966z M256,21.299c-64.051,0-118.835,58.812-134.101,76.8
			c15.266,17.92,70.042,76.8,134.101,76.8s118.75-58.726,134.059-76.8C374.741,80.017,320,21.299,256,21.299z M390.101,98.099
			l6.511,5.513L390.101,98.099z"/>
		<path style="fill:#BDC3C7;" d="M349.867,294.366H162.133c-9.426,0-17.067-7.641-17.067-17.067v-34.133
			c0-9.426,7.641-17.067,17.067-17.067h187.733c9.426,0,17.067,7.641,17.067,17.067v34.133
			C366.933,286.725,359.292,294.366,349.867,294.366z M162.133,243.166v34.133h187.733v-34.133H162.133z"/>
		<g>
			<path style="fill:#F9EAB0;" d="M230.4,354.099c-4.713,0-8.533-3.82-8.533-8.533v-25.6c0-4.713,3.82-8.533,8.533-8.533
				s8.533,3.82,8.533,8.533v25.6C238.933,350.278,235.113,354.099,230.4,354.099z"/>
			<path style="fill:#F9EAB0;" d="M281.6,354.099c-4.713,0-8.533-3.82-8.533-8.533v-25.6c0-4.713,3.82-8.533,8.533-8.533
				s8.533,3.82,8.533,8.533v25.6C290.133,350.278,286.313,354.099,281.6,354.099z"/>
		</g>
		<path style="fill:#2980BA;" d="M256,447.966c-4.713,0-8.533-3.82-8.533-8.533v-42.667c0-4.713,3.821-8.533,8.533-8.533
			c4.713,0,8.533,3.821,8.533,8.533v42.667C264.533,444.145,260.713,447.966,256,447.966z"/>
		<path style="fill:#2C3E50;" d="M221.867,345.566h68.267v25.6c0,14.138-11.462,25.6-25.6,25.6h-17.067
			c-14.138,0-25.6-11.462-25.6-25.6V345.566z"/>
	</g>
</g>
<g>
</g>
<g>
</g>
<g>
</g>
<g>
</g>
<g>
</g>
<g>
</g>
<g>
</g>
<g>
</g>
<g>
</g>
<g>
</g>
<g>
</g>
<g>
</g>
<g>
</g>
<g>
</g>
<g>
</g>
</svg>
