<?xml version="1.0" encoding="iso-8859-1"?>
<!-- Generator: Adobe Illustrator 19.0.0, SVG Export Plug-In . SVG Version: 6.00 Build 0)  -->
<svg version="1.1" id="Capa_1" xmlns="http://www.w3.org/2000/svg" xmlns:xlink="http://www.w3.org/1999/xlink" x="0px" y="0px"
	 viewBox="0 0 512 512" style="enable-background:new 0 0 512 512;" xml:space="preserve">
<g>
	<path style="fill:#46B29D;" d="M26.13,0H485.87C500.301,0,512,11.699,512,26.13V485.87c0,14.431-11.699,26.13-26.13,26.13H26.13
		C11.699,512,0,500.301,0,485.87V26.13C0,11.699,11.699,0,26.13,0z"/>
	<path style="fill:#65DDB9;" d="M50.494,35.31h411.189c8.288,0,15.007,6.719,15.007,15.007v411.189
		c0,8.386-6.798,15.183-15.183,15.183H50.494c-8.386,0-15.183-6.798-15.183-15.183V50.494C35.31,42.108,42.108,35.31,50.494,35.31z"
		/>
	<path style="fill:#2C3E50;" d="M203.034,105.931H97.103c-4.875,0-8.828-3.952-8.828-8.828s3.952-8.828,8.828-8.828h105.931
		c4.875,0,8.828,3.952,8.828,8.828S207.91,105.931,203.034,105.931z"/>
	<g>
		<circle style="fill:#FF5364;" cx="414.897" cy="97.103" r="17.655"/>
		<circle style="fill:#FF5364;" cx="335.448" cy="282.483" r="17.655"/>
	</g>
	<path style="fill:#2C3E50;" d="M353.103,344.276h-35.31c-4.875,0-8.828-3.952-8.828-8.828s3.952-8.828,8.828-8.828h35.31
		c4.875,0,8.828,3.952,8.828,8.828S357.979,344.276,353.103,344.276z"/>
	<circle style="fill:#FF5364;" cx="423.724" cy="282.483" r="17.655"/>
	<path style="fill:#2C3E50;" d="M441.379,344.276h-35.31c-4.875,0-8.828-3.952-8.828-8.828s3.952-8.828,8.828-8.828h35.31
		c4.875,0,8.828,3.952,8.828,8.828S446.255,344.276,441.379,344.276z"/>
	<circle style="fill:#FF5364;" cx="335.448" cy="388.414" r="17.655"/>
	<path style="fill:#2C3E50;" d="M353.103,450.207h-35.31c-4.875,0-8.828-3.952-8.828-8.828s3.952-8.828,8.828-8.828h35.31
		c4.875,0,8.828,3.952,8.828,8.828S357.979,450.207,353.103,450.207z"/>
	<circle style="fill:#FF5364;" cx="423.724" cy="388.414" r="17.655"/>
	<path style="fill:#2C3E50;" d="M441.379,450.207h-35.31c-4.875,0-8.828-3.952-8.828-8.828s3.952-8.828,8.828-8.828h35.31
		c4.875,0,8.828,3.952,8.828,8.828S446.255,450.207,441.379,450.207z"/>
</g>
<g>
</g>
<g>
</g>
<g>
</g>
<g>
</g>
<g>
</g>
<g>
</g>
<g>
</g>
<g>
</g>
<g>
</g>
<g>
</g>
<g>
</g>
<g>
</g>
<g>
</g>
<g>
</g>
<g>
</g>
</svg>
