<?xml version="1.0" encoding="iso-8859-1"?>
<!-- Generator: Adobe Illustrator 19.0.0, SVG Export Plug-In . SVG Version: 6.00 Build 0)  -->
<svg version="1.1" id="Capa_1" xmlns="http://www.w3.org/2000/svg" xmlns:xlink="http://www.w3.org/1999/xlink" x="0px" y="0px"
	 viewBox="0 0 512 512" style="enable-background:new 0 0 512 512;" xml:space="preserve">
<g>
	<path style="fill:#556080;" d="M26.13,0H485.87C500.301,0,512,11.699,512,26.13V485.87c0,14.431-11.699,26.13-26.13,26.13H26.13
		C11.699,512,0,500.301,0,485.87V26.13C0,11.699,11.699,0,26.13,0z"/>
	<path style="fill:#B0D3F0;" d="M50.494,35.31h411.189c8.288,0,15.007,6.719,15.007,15.007v411.189
		c0,8.386-6.798,15.183-15.183,15.183H50.494c-8.386,0-15.183-6.798-15.183-15.183V50.494C35.31,42.108,42.108,35.31,50.494,35.31z"
		/>
	<circle style="fill:#CC66A1;" cx="256" cy="264.828" r="70.621"/>
	<g>
		<path style="fill:#7D6599;" d="M141.241,264.828H70.621c-4.875,0-8.828-3.952-8.828-8.828s3.952-8.828,8.828-8.828h70.621
			c4.875,0,8.828,3.952,8.828,8.828S146.117,264.828,141.241,264.828z"/>
		<path style="fill:#7D6599;" d="M105.931,291.31h-35.31c-4.875,0-8.828-3.952-8.828-8.828s3.952-8.828,8.828-8.828h35.31
			c4.875,0,8.828,3.952,8.828,8.828S110.806,291.31,105.931,291.31z"/>
		<path style="fill:#7D6599;" d="M441.379,264.828h-70.621c-4.875,0-8.828-3.952-8.828-8.828s3.952-8.828,8.828-8.828h70.621
			c4.875,0,8.828,3.952,8.828,8.828S446.255,264.828,441.379,264.828z"/>
		<path style="fill:#7D6599;" d="M441.379,291.31h-35.31c-4.875,0-8.828-3.952-8.828-8.828s3.952-8.828,8.828-8.828h35.31
			c4.875,0,8.828,3.952,8.828,8.828S446.255,291.31,441.379,291.31z"/>
	</g>
	<g>
		<circle style="fill:#955BA5;" cx="105.931" cy="406.069" r="35.31"/>
		<circle style="fill:#955BA5;" cx="256" cy="406.069" r="35.31"/>
		<circle style="fill:#955BA5;" cx="406.069" cy="406.069" r="35.31"/>
	</g>
	<g>
		<path style="fill:#3D324C;" d="M441.379,88.276H70.621c-4.875,0-8.828-3.952-8.828-8.828c0-4.875,3.952-8.828,8.828-8.828h370.759
			c4.875,0,8.828,3.952,8.828,8.828C450.207,84.324,446.255,88.276,441.379,88.276z"/>
		<path style="fill:#3D324C;" d="M441.379,158.897H70.621c-4.875,0-8.828-3.952-8.828-8.828s3.952-8.828,8.828-8.828h370.759
			c4.875,0,8.828,3.952,8.828,8.828S446.255,158.897,441.379,158.897z"/>
		<path style="fill:#3D324C;" d="M441.379,123.586H70.621c-4.875,0-8.828-3.952-8.828-8.828s3.952-8.828,8.828-8.828h370.759
			c4.875,0,8.828,3.952,8.828,8.828S446.255,123.586,441.379,123.586z"/>
		<path style="fill:#3D324C;" d="M194.207,194.207H70.621c-4.875,0-8.828-3.952-8.828-8.828c0-4.875,3.952-8.828,8.828-8.828
			h123.586c4.875,0,8.828,3.952,8.828,8.828C203.034,190.255,199.082,194.207,194.207,194.207z"/>
		<path style="fill:#3D324C;" d="M441.379,194.207H317.793c-4.875,0-8.828-3.952-8.828-8.828c0-4.875,3.952-8.828,8.828-8.828
			h123.586c4.875,0,8.828,3.952,8.828,8.828C450.207,190.255,446.255,194.207,441.379,194.207z"/>
	</g>
</g>
<g>
</g>
<g>
</g>
<g>
</g>
<g>
</g>
<g>
</g>
<g>
</g>
<g>
</g>
<g>
</g>
<g>
</g>
<g>
</g>
<g>
</g>
<g>
</g>
<g>
</g>
<g>
</g>
<g>
</g>
</svg>
