<?xml version="1.0" encoding="iso-8859-1"?>
<!-- Generator: Adobe Illustrator 19.0.0, SVG Export Plug-In . SVG Version: 6.00 Build 0)  -->
<svg version="1.1" id="Capa_1" xmlns="http://www.w3.org/2000/svg" xmlns:xlink="http://www.w3.org/1999/xlink" x="0px" y="0px"
	 viewBox="0 0 512 512" style="enable-background:new 0 0 512 512;" xml:space="preserve">
<g>
	<polygon style="fill:#805333;" points="185.379,0 114.759,35.31 114.759,158.897 203.034,203.034 203.034,238.345 114.759,282.483 
		114.759,414.897 150.069,432.552 150.069,406.069 291.31,476.69 291.31,494.345 326.621,512 397.241,476.69 397.241,229.517 
		397.241,105.931 	"/>
	<polygon style="fill:#CBB292;" points="397.241,105.931 326.621,141.241 114.759,35.31 185.379,0 	"/>
	<path style="fill:#A5A5A4;" d="M114.759,35.31v123.586l211.862,105.931V141.241L114.759,35.31z M300.138,220.69l-158.897-79.448
		V70.621l158.897,79.448V220.69z"/>
	<g>
		<polygon style="fill:#59474E;" points="176.552,88.276 141.241,105.931 141.241,70.621 		"/>
		<polygon style="fill:#59474E;" points="176.552,123.586 141.241,141.241 141.241,105.931 		"/>
	</g>
	<polygon style="fill:#7F8C8D;" points="211.862,141.241 211.862,176.552 141.241,141.241 176.552,123.586 	"/>
	<polygon style="fill:#59474E;" points="247.172,123.586 211.862,141.241 211.862,105.931 	"/>
	<path style="fill:#A5A5A4;" d="M114.759,282.483v132.414l35.31,17.655v-26.483L291.31,476.69v17.655L326.621,512V388.414
		L114.759,282.483z M291.31,450.207l-141.241-70.621v-52.966l141.241,70.621V450.207z"/>
	<polygon style="fill:#CBB292;" points="361.931,317.793 361.931,370.759 326.621,388.414 114.759,282.483 203.034,238.345 	"/>
	<polygon style="fill:#CB8252;" points="361.931,247.172 361.931,317.793 203.034,238.345 203.034,203.034 326.621,264.828 	"/>
	<polygon style="fill:#59474E;" points="247.172,158.897 211.862,176.552 211.862,141.241 	"/>
	<g>
		<polygon style="fill:#7F8C8D;" points="300.138,185.379 300.138,220.69 211.862,176.552 247.172,158.897 		"/>
		<polygon style="fill:#7F8C8D;" points="211.862,105.931 211.862,141.241 141.241,105.931 176.552,88.276 		"/>
		<polygon style="fill:#7F8C8D;" points="300.138,150.069 300.138,185.379 211.862,141.241 247.172,123.586 		"/>
	</g>
	<g>
		<polygon style="fill:#E6E7E8;" points="291.31,397.241 291.31,450.207 220.69,414.897 220.69,361.931 		"/>
		<polygon style="fill:#E6E7E8;" points="220.69,361.931 220.69,414.897 150.069,379.586 150.069,326.621 		"/>
	</g>
	<g>
		<path style="fill:#5E5F62;" d="M194.207,384c-0.685,0.001-1.361-0.158-1.974-0.465l-17.655-8.828
			c-2.174-1.094-3.053-3.741-1.965-5.918c1.088-2.177,3.734-3.062,5.913-1.979l17.655,8.828c1.831,0.915,2.793,2.97,2.323,4.962
			C198.033,382.593,196.254,384.001,194.207,384z"/>
		<path style="fill:#5E5F62;" d="M264.828,419.31c-0.685,0.001-1.361-0.158-1.974-0.465l-17.655-8.828
			c-2.174-1.094-3.053-3.741-1.965-5.918c1.088-2.177,3.734-3.062,5.913-1.979l17.655,8.828c1.831,0.915,2.793,2.97,2.323,4.962
			C268.654,417.903,266.875,419.311,264.828,419.31z"/>
	</g>
</g>
<g>
</g>
<g>
</g>
<g>
</g>
<g>
</g>
<g>
</g>
<g>
</g>
<g>
</g>
<g>
</g>
<g>
</g>
<g>
</g>
<g>
</g>
<g>
</g>
<g>
</g>
<g>
</g>
<g>
</g>
</svg>
