<?xml version="1.0" encoding="iso-8859-1"?>
<!-- Generator: Adobe Illustrator 19.0.0, SVG Export Plug-In . SVG Version: 6.00 Build 0)  -->
<svg version="1.1" id="Capa_1" xmlns="http://www.w3.org/2000/svg" xmlns:xlink="http://www.w3.org/1999/xlink" x="0px" y="0px"
	 viewBox="0 0 512 512" style="enable-background:new 0 0 512 512;" xml:space="preserve">
<g>
	<polygon style="fill:#805333;" points="211.862,0 123.586,44.138 123.586,423.724 300.138,512 388.414,467.862 388.414,88.276 	"/>
	<path style="fill:#CB8252;" d="M123.586,44.138v379.586L300.138,512V132.414L123.586,44.138z M273.655,467.862l-123.586-61.793
		v-70.621l123.586,61.793V467.862z M273.655,370.759l-123.586-61.793v-70.621l123.586,61.793V370.759z M273.655,273.655
		l-123.586-61.793V88.276l123.586,61.793V273.655z"/>
	<polygon style="fill:#CBB292;" points="388.414,88.276 300.138,132.414 123.586,44.138 211.862,0 	"/>
	<polygon style="fill:#59474E;" points="273.655,150.069 150.069,211.862 150.069,88.276 	"/>
	<polygon style="fill:#D1D4D1;" points="273.655,397.241 273.655,467.862 150.069,406.069 150.069,335.448 	"/>
	<path style="fill:#5E5F62;" d="M220.69,401.655c-0.685,0.001-1.361-0.158-1.974-0.465l-17.655-8.828
		c-2.174-1.094-3.053-3.741-1.965-5.918c1.088-2.177,3.734-3.062,5.913-1.979l17.655,8.828c1.831,0.915,2.793,2.97,2.323,4.962
		S222.737,401.656,220.69,401.655L220.69,401.655z"/>
	<polygon style="fill:#D1D4D1;" points="273.655,300.138 273.655,370.759 150.069,308.966 150.069,238.345 	"/>
	<path style="fill:#5E5F62;" d="M220.69,304.552c-0.685,0.001-1.361-0.158-1.974-0.465l-17.655-8.828
		c-2.174-1.094-3.053-3.741-1.965-5.918c1.088-2.177,3.734-3.062,5.913-1.979l17.655,8.828c1.831,0.915,2.793,2.97,2.323,4.962
		C224.516,303.145,222.737,304.552,220.69,304.552z"/>
	<polygon style="fill:#A5A5A4;" points="273.655,150.069 273.655,273.655 150.069,211.862 	"/>
</g>
<g>
</g>
<g>
</g>
<g>
</g>
<g>
</g>
<g>
</g>
<g>
</g>
<g>
</g>
<g>
</g>
<g>
</g>
<g>
</g>
<g>
</g>
<g>
</g>
<g>
</g>
<g>
</g>
<g>
</g>
</svg>
