<?xml version="1.0" encoding="iso-8859-1"?>
<!-- Generator: Adobe Illustrator 19.0.0, SVG Export Plug-In . SVG Version: 6.00 Build 0)  -->
<svg version="1.1" id="Capa_1" xmlns="http://www.w3.org/2000/svg" xmlns:xlink="http://www.w3.org/1999/xlink" x="0px" y="0px"
	 viewBox="0 0 512 512" style="enable-background:new 0 0 512 512;" xml:space="preserve">
<g>
	<polygon style="fill:#95A5A5;" points="295.724,0 189.793,52.966 189.793,154.483 172.138,163.31 172.138,158.897 136.828,141.241 
		136.828,176.552 101.517,158.897 101.517,189.793 75.034,176.552 75.034,238.345 163.31,282.483 189.793,269.241 189.793,441.379 
		331.034,512 436.966,459.034 436.966,70.621 	"/>
	<polygon style="fill:#BDC3C7;" points="436.966,70.621 331.034,123.586 189.793,52.966 295.724,0 	"/>
	<path style="fill:#95A5A5;" d="M75.034,176.552v61.793l88.276,44.138V220.69L75.034,176.552z M136.828,247.172l-21.098-10.593
		h-0.088l-14.124-7.062v-17.655l35.31,17.655V247.172z"/>
	<g>
		<polygon style="fill:#CBB292;" points="278.069,344.276 278.069,361.931 242.759,344.276 242.759,326.621 		"/>
		<polygon style="fill:#CBB292;" points="136.828,229.517 136.828,247.172 115.73,236.579 115.641,236.579 101.517,229.517 
			101.517,211.862 		"/>
		<polygon style="fill:#CBB292;" points="278.069,225.103 278.069,238.345 264.828,231.724 		"/>
	</g>
	<polygon style="fill:#D1D4D1;" points="331.034,123.586 331.034,512 189.793,441.379 189.793,269.241 216.276,256 216.276,414.897 
		304.552,459.034 304.552,150.069 216.276,105.931 216.276,141.241 189.793,154.483 189.793,52.966 	"/>
	<polygon style="fill:#5E5F62;" points="251.586,123.586 216.276,141.241 216.276,105.931 	"/>
	<polygon style="fill:#95A5A5;" points="260.414,128 260.414,150.069 197.561,180.436 197.473,180.436 172.138,167.724 
		172.138,163.31 251.586,123.586 	"/>
	<polygon style="fill:#7F6E5D;" points="225.103,194.207 225.103,225.103 191.559,241.876 189.793,238.345 189.793,211.862 
		136.828,185.379 136.828,141.241 172.138,158.897 172.138,167.724 197.473,180.436 197.561,180.436 	"/>
	<polygon style="fill:#ECF0F1;" points="304.552,211.862 304.552,273.655 242.759,242.759 264.828,231.724 278.069,238.345 
		278.069,225.103 	"/>
	<path style="fill:#95A5A5;" d="M242.759,242.759L216.276,256v35.31l88.276,44.138v-61.793L242.759,242.759z M278.069,300.138
		l-35.31-17.655v-17.655l35.31,17.655V300.138z"/>
	<path style="fill:#ECF0F1;" d="M216.276,291.31v61.793l88.276,44.138v-61.793L216.276,291.31z M278.069,361.931l-35.31-17.655
		v-17.655l35.31,17.655V361.931z"/>
	<path style="fill:#95A5A5;" d="M216.276,353.103v61.793l88.276,44.138v-61.793L216.276,353.103z M278.069,423.724l-35.31-17.655
		v-17.655l35.31,17.655V423.724z"/>
	<g>
		<polygon style="fill:#CBB292;" points="278.069,406.069 278.069,423.724 242.759,406.069 242.759,388.414 		"/>
		<polygon style="fill:#CBB292;" points="278.069,282.483 278.069,300.138 242.759,282.483 242.759,264.828 		"/>
		<polygon style="fill:#CBB292;" points="163.31,256 163.31,220.69 101.517,189.793 101.517,158.897 136.828,176.552 
			136.828,185.379 189.793,211.862 189.793,238.345 191.559,241.876 		"/>
	</g>
	<polygon style="fill:#95A5A5;" points="304.552,185.379 304.552,211.862 163.31,282.483 163.31,256 191.559,241.876 
		225.103,225.103 	"/>
	<polygon style="fill:#BDC3C7;" points="304.552,172.138 304.552,185.379 225.103,225.103 225.103,194.207 197.561,180.436 
		260.414,150.069 	"/>
	<polygon style="fill:#464F5D;" points="304.552,150.069 304.552,172.138 260.414,150.069 260.414,128 	"/>
</g>
<g>
</g>
<g>
</g>
<g>
</g>
<g>
</g>
<g>
</g>
<g>
</g>
<g>
</g>
<g>
</g>
<g>
</g>
<g>
</g>
<g>
</g>
<g>
</g>
<g>
</g>
<g>
</g>
<g>
</g>
</svg>
