<?xml version="1.0" encoding="iso-8859-1"?>
<!-- Generator: Adobe Illustrator 19.0.0, SVG Export Plug-In . SVG Version: 6.00 Build 0)  -->
<svg version="1.1" id="Capa_1" xmlns="http://www.w3.org/2000/svg" xmlns:xlink="http://www.w3.org/1999/xlink" x="0px" y="0px"
	 viewBox="0 0 512 512" style="enable-background:new 0 0 512 512;" xml:space="preserve">
<g>
	<polygon style="fill:#95A5A5;" points="238.345,0 132.414,52.966 132.414,441.379 273.655,512 379.586,459.034 379.586,70.621 	"/>
	<path style="fill:#D1D4D1;" d="M132.414,52.966v388.414L273.655,512V123.586L132.414,52.966z M247.172,459.034l-88.276-44.138
		V105.931l88.276,44.138V459.034z"/>
	<polygon style="fill:#BDC3C7;" points="379.586,70.621 273.655,123.586 132.414,52.966 238.345,0 	"/>
	<path style="fill:#95A5A5;" d="M158.897,105.931v61.793l88.276,44.138v-61.793L158.897,105.931z M220.69,176.552l-35.31-17.655
		v-17.655l35.31,17.655V176.552z"/>
	<path style="fill:#ECF0F1;" d="M158.897,167.724v61.793l88.276,44.138v-61.793L158.897,167.724z M220.69,238.345l-35.31-17.655
		v-17.655l35.31,17.655V238.345z"/>
	<path style="fill:#95A5A5;" d="M158.897,229.517v61.793l88.276,44.138v-61.793L158.897,229.517z M220.69,300.138l-35.31-17.655
		v-17.655l35.31,17.655V300.138z"/>
	<path style="fill:#ECF0F1;" d="M158.897,291.31v61.793l88.276,44.138v-61.793L158.897,291.31z M220.69,361.931l-35.31-17.655
		v-17.655l35.31,17.655V361.931z"/>
	<path style="fill:#95A5A5;" d="M158.897,353.103v61.793l88.276,44.138v-61.793L158.897,353.103z M220.69,423.724l-35.31-17.655
		v-17.655l35.31,17.655V423.724z"/>
	<g>
		<polygon style="fill:#CBB292;" points="220.69,406.069 220.69,423.724 185.379,406.069 185.379,388.414 		"/>
		<polygon style="fill:#CBB292;" points="220.69,344.276 220.69,361.931 185.379,344.276 185.379,326.621 		"/>
		<polygon style="fill:#CBB292;" points="220.69,282.483 220.69,300.138 185.379,282.483 185.379,264.828 		"/>
		<polygon style="fill:#CBB292;" points="220.69,220.69 220.69,238.345 185.379,220.69 185.379,203.034 		"/>
		<polygon style="fill:#CBB292;" points="220.69,158.897 220.69,176.552 185.379,158.897 185.379,141.241 		"/>
	</g>
</g>
<g>
</g>
<g>
</g>
<g>
</g>
<g>
</g>
<g>
</g>
<g>
</g>
<g>
</g>
<g>
</g>
<g>
</g>
<g>
</g>
<g>
</g>
<g>
</g>
<g>
</g>
<g>
</g>
<g>
</g>
</svg>
