<?xml version="1.0" encoding="iso-8859-1"?>
<!-- Generator: Adobe Illustrator 19.0.0, SVG Export Plug-In . SVG Version: 6.00 Build 0)  -->
<svg version="1.1" id="Capa_1" xmlns="http://www.w3.org/2000/svg" xmlns:xlink="http://www.w3.org/1999/xlink" x="0px" y="0px"
	 viewBox="0 0 512 512" style="enable-background:new 0 0 512 512;" xml:space="preserve">
<g>
	<path style="fill:#804169;" d="M264.828,154.483L256,158.897l-8.828-4.414l-114.759,57.379l27.454,13.771l27.454,13.683
		l41.225,20.568l9.799,4.943l3.884,1.942L256,273.655l13.771-6.886l3.884-1.942l9.799-4.943l41.225-20.568l27.454-13.683
		l27.454-13.771L264.828,154.483z M304.022,214.334l-35.134,17.567l-11.652,5.826L256,238.345l-1.236-0.618l-11.652-5.826
		l-35.134-17.567l-4.943-2.472L256,185.379l52.966,26.483L304.022,214.334z"/>
	<polygon style="fill:#CC66A1;" points="308.966,211.862 304.022,214.334 268.888,231.901 257.236,237.727 256,238.345 
		254.764,237.727 243.112,231.901 207.978,214.334 203.034,211.862 256,185.379 	"/>
	<path style="fill:#802F34;" d="M273.655,264.828l-3.884,1.942L256,273.655l-13.771-6.886l-3.884-1.942l-105.931,52.966
		l27.454,13.771l27.454,13.683l41.225,20.568l13.683,6.886L256,379.586l13.771-6.885l13.683-6.886l41.225-20.568l27.454-13.683
		l27.454-13.771L273.655,264.828z M304.022,320.265l-35.134,17.567l-11.652,5.826L256,344.276l-1.236-0.618l-11.652-5.826
		l-35.134-17.567l-4.943-2.472L256,291.31l52.966,26.483L304.022,320.265z"/>
	<polygon style="fill:#CC4B4C;" points="308.966,317.793 304.022,320.265 268.888,337.832 257.236,343.658 256,344.276 
		254.764,343.658 243.112,337.832 207.978,320.265 203.034,317.793 256,291.31 	"/>
	<g>
		<path style="fill:#A5A5A4;" d="M132.414,450.207c-2.341,0.001-4.587-0.929-6.243-2.585c-1.656-1.656-2.585-3.901-2.585-6.243
			V88.276c0-4.875,3.952-8.828,8.828-8.828c4.875,0,8.828,3.952,8.828,8.828v353.103c0.001,2.341-0.929,4.587-2.585,6.243
			C137.001,449.278,134.755,450.207,132.414,450.207z"/>
		<path style="fill:#A5A5A4;" d="M256,512c-2.341,0.001-4.587-0.929-6.243-2.585c-1.656-1.656-2.585-3.901-2.585-6.243V150.069
			c0-4.875,3.952-8.828,8.828-8.828s8.828,3.952,8.828,8.828v353.103c0.001,2.341-0.929,4.587-2.585,6.243
			C260.587,511.071,258.341,512.001,256,512z"/>
		<path style="fill:#A5A5A4;" d="M379.586,450.207c-2.341,0.001-4.587-0.929-6.243-2.585c-1.656-1.656-2.585-3.901-2.585-6.243
			V88.276c0-4.875,3.952-8.828,8.828-8.828s8.828,3.952,8.828,8.828v353.103c0.001,2.341-0.929,4.587-2.585,6.243
			C384.173,449.278,381.928,450.207,379.586,450.207z"/>
	</g>
	<path style="fill:#894B9D;" d="M256,0L97.103,79.448L256,158.897l158.897-79.448L256,0z M279.746,116.171l-21.451,10.681L256,128
		l-2.295-1.148l-21.451-10.681L167.989,83.95l-9.092-4.502L256,30.897l97.103,48.552l-9.092,4.502L279.746,116.171z"/>
	<polygon style="fill:#955BA5;" points="353.103,79.448 344.011,83.95 279.746,116.171 258.295,126.852 256,128 253.705,126.852 
		232.254,116.171 167.989,83.95 158.897,79.448 256,30.897 	"/>
</g>
<g>
</g>
<g>
</g>
<g>
</g>
<g>
</g>
<g>
</g>
<g>
</g>
<g>
</g>
<g>
</g>
<g>
</g>
<g>
</g>
<g>
</g>
<g>
</g>
<g>
</g>
<g>
</g>
<g>
</g>
</svg>
