<?xml version="1.0" encoding="iso-8859-1"?>
<!-- Generator: Adobe Illustrator 19.0.0, SVG Export Plug-In . SVG Version: 6.00 Build 0)  -->
<svg version="1.1" id="Capa_1" xmlns="http://www.w3.org/2000/svg" xmlns:xlink="http://www.w3.org/1999/xlink" x="0px" y="0px"
	 viewBox="0 0 507.661 507.661" style="enable-background:new 0 0 507.661 507.661;" xml:space="preserve">
<g>
	<polygon style="fill:#805333;" points="245.153,0 141.017,52.068 141.017,399.186 141.017,446.915 158.373,455.593 
		175.729,446.915 175.729,417.063 175.902,416.629 245.153,451.254 245.153,498.983 262.508,507.661 279.864,498.983 
		279.864,451.775 279.691,451.341 331.932,425.22 331.932,455.593 349.288,464.271 366.644,455.593 366.644,407.864 366.644,60.746 
			"/>
	<polygon style="fill:#CBB292;" points="366.644,60.746 262.508,112.814 141.017,52.068 245.153,0 	"/>
	<path style="fill:#CB8252;" d="M141.017,52.068v347.119l17.703,8.852l17.182,8.592l86.606,43.303V112.814L141.017,52.068z
		 M236.475,416.542l-69.424-34.712V95.458l69.424,34.712V416.542z"/>
	<polygon style="fill:#59474E;" points="184.407,251.661 184.407,295.051 167.051,286.373 167.051,242.983 	"/>
	<polygon style="fill:#A5A5A4;" points="236.475,130.169 236.475,416.542 167.051,381.831 167.051,286.373 184.407,295.051 
		184.407,251.661 167.051,242.983 167.051,95.458 	"/>
	<g>
		<polygon style="fill:#CB8252;" points="262.508,459.932 262.508,507.661 245.153,498.983 245.153,451.254 		"/>
		<polygon style="fill:#CB8252;" points="158.72,408.038 158.373,408.645 158.373,455.593 141.017,446.915 141.017,399.186 		"/>
		<polygon style="fill:#CB8252;" points="349.288,416.803 349.288,464.271 331.932,455.593 331.932,425.22 349.201,416.629 		"/>
	</g>
</g>
<g>
</g>
<g>
</g>
<g>
</g>
<g>
</g>
<g>
</g>
<g>
</g>
<g>
</g>
<g>
</g>
<g>
</g>
<g>
</g>
<g>
</g>
<g>
</g>
<g>
</g>
<g>
</g>
<g>
</g>
</svg>
