<?xml version="1.0" encoding="iso-8859-1"?>
<!-- Generator: Adobe Illustrator 19.0.0, SVG Export Plug-In . SVG Version: 6.00 Build 0)  -->
<svg version="1.1" id="Capa_1" xmlns="http://www.w3.org/2000/svg" xmlns:xlink="http://www.w3.org/1999/xlink" x="0px" y="0px"
	 viewBox="0 0 512 512" style="enable-background:new 0 0 512 512;" xml:space="preserve">
<g>
	<path style="fill:#805333;" d="M105.931,26.483L0,79.448v203.034l406.069,203.034L512,432.552V229.517L105.931,26.483z M26.483,256
		l4.943,2.472l26.483,13.241l8.828,4.414l118.643,59.321L26.483,256z M203.034,344.276l49.081,24.541l8.828,4.414l26.483,13.241
		l8.828,4.414l83.332,41.666L203.034,344.276z"/>
	<path style="fill:#CB8252;" d="M0,79.448v203.034l406.069,203.034V282.483L0,79.448z M379.586,432.552L26.483,256V132.414
		l353.103,176.552V432.552z"/>
	<polygon style="fill:#CBB292;" points="512,229.517 406.069,282.483 0,79.448 105.931,26.483 	"/>
	<g>
		<polygon style="fill:#84B5CB;" points="167.724,247.172 167.724,291.31 185.379,300.138 185.379,335.448 66.737,276.127 
			31.426,258.472 26.483,256 26.483,132.414 109.815,174.08 153.953,196.149 185.379,211.862 185.379,256 		"/>
		<polygon style="fill:#84B5CB;" points="379.586,308.966 379.586,432.552 296.254,390.885 252.116,368.817 203.034,344.276 
			203.034,308.966 220.69,317.793 220.69,273.655 203.034,264.828 203.034,220.69 339.332,288.839 374.643,306.494 		"/>
	</g>
	<polygon style="fill:#CB8252;" points="203.034,220.69 203.034,344.276 185.379,335.448 185.379,211.862 	"/>
	<g>
		<polygon style="fill:#805333;" points="185.379,256 185.379,300.138 167.724,291.31 167.724,247.172 		"/>
		<polygon style="fill:#805333;" points="220.69,273.655 220.69,317.793 203.034,308.966 203.034,264.828 		"/>
	</g>
	<g>
		<path style="fill:#FFFFFF;" d="M118.643,178.494c-0.377,0.892-1.068,1.614-1.942,2.03l-35.31,17.655
			c-0.609,0.281-1.271,0.431-1.942,0.441c-2.058,0.003-3.846-1.415-4.31-3.42c-0.464-2.005,0.518-4.065,2.368-4.966l32.309-16.154
			L118.643,178.494z"/>
		<path style="fill:#FFFFFF;" d="M54.908,211.421l-26.483,13.241c-0.609,0.281-1.271,0.431-1.942,0.441v-9.357l24.541-12.27
			c1.421-0.708,3.113-0.6,4.432,0.284c1.319,0.883,2.064,2.406,1.95,3.99S56.339,210.734,54.908,211.421L54.908,211.421z"/>
		<path style="fill:#FFFFFF;" d="M97.108,260.414c-2.048,0.003-3.829-1.404-4.301-3.398c-0.472-1.993,0.49-4.049,2.322-4.965
			l52.966-26.483c1.411-0.71,3.094-0.611,4.413,0.258c1.319,0.869,2.073,2.377,1.977,3.954c-0.096,1.577-1.027,2.982-2.441,3.685
			l-52.966,26.483C98.467,260.256,97.792,260.415,97.108,260.414L97.108,260.414z"/>
		<path style="fill:#FFFFFF;" d="M74.063,272.419l-7.327,3.708l-8.828-4.414c0.402-0.875,1.086-1.589,1.942-2.03l10.24-5.12
			c2.172-1.064,4.796-0.203,5.914,1.942c0.553,1.037,0.659,2.255,0.292,3.372C75.931,270.994,75.124,271.912,74.063,272.419
			L74.063,272.419z"/>
		<path style="fill:#FFFFFF;" d="M153.953,196.149c-0.403,0.875-1.086,1.589-1.942,2.03l-26.483,13.241
			c-0.609,0.281-1.271,0.431-1.942,0.441c-2.058,0.003-3.846-1.415-4.31-3.42c-0.464-2.005,0.518-4.065,2.368-4.966l23.481-11.741
			L153.953,196.149z"/>
		<path style="fill:#FFFFFF;" d="M99.046,224.662l-67.619,33.81L26.483,256v-4.943l68.679-34.339c1.421-0.708,3.113-0.6,4.432,0.284
			c1.319,0.883,2.064,2.406,1.95,3.99C101.43,222.574,100.476,223.976,99.046,224.662L99.046,224.662z"/>
		<path style="fill:#FFFFFF;" d="M348.16,293.252c-0.377,0.892-1.068,1.614-1.942,2.03l-35.31,17.655
			c-0.609,0.281-1.271,0.431-1.942,0.441c-2.058,0.003-3.846-1.415-4.31-3.42c-0.464-2.005,0.518-4.065,2.368-4.966l32.309-16.154
			L348.16,293.252z"/>
		<path style="fill:#FFFFFF;" d="M256.004,339.862c-2.048,0.003-3.829-1.404-4.301-3.398c-0.472-1.993,0.49-4.049,2.322-4.965
			l26.487-13.241c1.411-0.71,3.094-0.611,4.413,0.258c1.319,0.869,2.073,2.377,1.977,3.954c-0.096,1.577-1.027,2.982-2.441,3.685
			l-26.487,13.241C257.363,339.704,256.688,339.863,256.004,339.862z"/>
		<path style="fill:#FFFFFF;" d="M379.586,339.862v9.357l-51.023,25.512c-0.61,0.281-1.271,0.431-1.942,0.441
			c-2.058,0.003-3.846-1.415-4.31-3.42c-0.464-2.005,0.518-4.065,2.368-4.966l52.966-26.483
			C378.254,340.022,378.915,339.872,379.586,339.862z"/>
		<path style="fill:#FFFFFF;" d="M303.581,387.178l-7.327,3.708l-8.828-4.414c0.402-0.875,1.086-1.589,1.942-2.03l10.24-5.12
			c2.172-1.064,4.796-0.203,5.914,1.942c0.553,1.037,0.659,2.255,0.292,3.372C305.448,385.752,304.641,386.671,303.581,387.178z"/>
		<path style="fill:#FFFFFF;" d="M379.586,308.966v4.943l-24.541,12.27c-0.61,0.281-1.271,0.431-1.942,0.441
			c-2.058,0.003-3.846-1.415-4.31-3.42c-0.464-2.005,0.518-4.065,2.368-4.966l23.481-11.741L379.586,308.966z"/>
		<path style="fill:#FFFFFF;" d="M328.563,339.421l-67.619,33.81l-8.828-4.414c0.377-0.892,1.068-1.614,1.942-2.03l70.621-35.31
			c1.421-0.708,3.113-0.6,4.432,0.284c1.319,0.883,2.064,2.406,1.95,3.99C330.947,337.333,329.994,338.734,328.563,339.421
			L328.563,339.421z"/>
	</g>
</g>
<g>
</g>
<g>
</g>
<g>
</g>
<g>
</g>
<g>
</g>
<g>
</g>
<g>
</g>
<g>
</g>
<g>
</g>
<g>
</g>
<g>
</g>
<g>
</g>
<g>
</g>
<g>
</g>
<g>
</g>
</svg>
