<?xml version="1.0" encoding="iso-8859-1"?>
<!-- Generator: Adobe Illustrator 19.0.0, SVG Export Plug-In . SVG Version: 6.00 Build 0)  -->
<svg version="1.1" id="Capa_1" xmlns="http://www.w3.org/2000/svg" xmlns:xlink="http://www.w3.org/1999/xlink" x="0px" y="0px"
	 viewBox="0 0 512 512" style="enable-background:new 0 0 512 512;" xml:space="preserve">
<g>
	<polygon style="fill:#A5A5A4;" points="476.69,216.276 476.69,251.586 194.207,392.828 194.207,357.517 	"/>
	<polygon style="fill:#59474E;" points="476.69,145.655 476.69,185.379 436.966,165.517 	"/>
	<polygon style="fill:#D1D4D1;" points="476.69,185.379 476.69,216.276 441.379,233.931 370.759,198.621 436.966,165.517 	"/>
	<path style="fill:#59474E;" d="M353.103,13.241L0,189.793l61.793,30.897v-30.897l30.897-15.448v77.241
		c0,2.438,1.976,4.414,4.414,4.414s4.414-1.976,4.414-4.414v-81.655L128,156.69v81.655c0,2.438,1.976,4.414,4.414,4.414
		s4.414-1.976,4.414-4.414v-86.069l26.483-13.241v78.871c0,2.438,1.976,4.414,4.414,4.414s4.414-1.976,4.414-4.414v-83.284
		l26.483-13.241v76.078c0,2.438,1.976,4.414,4.414,4.414s4.414-1.976,4.414-4.414v-80.491l26.483-13.241v73.293
		c0,2.438,1.976,4.414,4.414,4.414s4.414-1.976,4.414-4.414V99.31l26.483-13.241v70.509c0,2.438,1.976,4.414,4.414,4.414
		c2.438,0,4.414-1.976,4.414-4.414V81.655l26.483-13.241v81.655c0,2.438,1.976,4.414,4.414,4.414c2.438,0,4.414-1.976,4.414-4.414
		V64l30.897-15.448v70.621l57.379,28.69L512,92.69L353.103,13.241z"/>
	<polygon style="fill:#805333;" points="35.31,384 35.31,419.31 17.655,428.138 17.655,375.172 	"/>
	<g>
		<polygon style="fill:#CB8252;" points="494.345,278.069 494.345,331.034 476.69,322.207 476.69,286.897 		"/>
		<polygon style="fill:#CB8252;" points="0,189.793 0,366.345 0,419.31 17.655,428.138 17.655,375.172 141.241,436.966 
			141.241,489.931 158.897,498.759 158.897,445.793 158.897,269.241 		"/>
	</g>
	<g>
		<polygon style="fill:#2FA8CC;" points="441.379,233.931 194.207,357.517 194.207,286.897 370.759,198.621 		"/>
		<polygon style="fill:#2FA8CC;" points="335.448,180.966 158.897,269.241 101.517,240.552 278.069,152.276 280.717,150.952 
			282.483,154.483 		"/>
	</g>
	<polygon style="fill:#D1D4D1;" points="401.655,147.862 335.448,180.966 282.483,154.483 280.717,150.952 304.552,139.034 
		344.276,119.172 	"/>
	<path style="fill:#805333;" d="M158.897,269.241v229.517l17.655-8.828v-52.966l317.793-158.897v52.966L512,322.207V92.69
		L158.897,269.241z M225.103,377.379l-30.897,15.448V286.897l30.897-15.448V377.379z M260.414,359.724l-26.483,13.241V267.034
		l26.483-13.241V359.724z M295.724,342.069l-26.483,13.241V249.379l26.483-13.241V342.069z M331.034,324.414l-26.483,13.241V231.724
		l26.483-13.241V324.414z M366.345,306.759L339.862,320V214.069l26.483-13.241V306.759z M401.655,289.103l-26.483,13.241V196.414
		l26.483-13.241V289.103z M436.966,271.448l-26.483,13.241V178.759l26.483-13.241V271.448z M476.69,251.586l-30.897,15.448V161.103
		l30.897-15.448V251.586z"/>
</g>
<g>
</g>
<g>
</g>
<g>
</g>
<g>
</g>
<g>
</g>
<g>
</g>
<g>
</g>
<g>
</g>
<g>
</g>
<g>
</g>
<g>
</g>
<g>
</g>
<g>
</g>
<g>
</g>
<g>
</g>
</svg>
