<?xml version="1.0" encoding="iso-8859-1"?>
<!-- Generator: Adobe Illustrator 19.0.0, SVG Export Plug-In . SVG Version: 6.00 Build 0)  -->
<svg version="1.1" id="Capa_1" xmlns="http://www.w3.org/2000/svg" xmlns:xlink="http://www.w3.org/1999/xlink" x="0px" y="0px"
	 viewBox="0 0 512 512" style="enable-background:new 0 0 512 512;" xml:space="preserve">
<g>
	<g>
		<polygon style="fill:#D1D4D1;" points="344.276,282.483 344.276,326.621 273.655,291.31 273.655,247.172 		"/>
		<polygon style="fill:#D1D4D1;" points="97.103,158.897 97.103,203.034 26.483,167.724 26.483,123.586 		"/>
		<polygon style="fill:#D1D4D1;" points="247.614,203.211 247.172,204.094 247.172,264.828 123.586,203.034 123.586,141.241 		"/>
	</g>
	<polygon style="fill:#CBB292;" points="111.316,23.834 79.448,39.724 76.006,41.49 40.254,59.321 31.426,63.735 0,79.448 
		123.586,141.241 247.614,203.211 370.759,264.828 401.126,249.644 409.953,245.23 476.16,212.127 484.988,207.713 512,194.207 
		141.241,8.828 114.759,22.069 	"/>
	<path style="fill:#CB8252;" d="M0,79.448v105.931l17.655,8.828l18.097,9.004l87.834,43.961V141.241L0,79.448z M97.103,203.034
		l-70.621-35.31v-44.138l70.621,35.31V203.034z"/>
	<polygon style="fill:#805333;" points="512,194.207 512,300.138 494.257,309.054 476.513,317.881 370.759,370.759 370.759,264.828 
			"/>
	<g>
		<path style="fill:#5E5F62;" d="M52.966,163.31c-1.173,0.015-2.297-0.467-3.095-1.328c-0.87-0.786-1.352-1.914-1.319-3.086
			c-0.014-1.171,0.464-2.294,1.319-3.095c1.243-1.265,3.13-1.647,4.767-0.965c0.553,0.182,1.043,0.517,1.414,0.966
			c0.86,0.798,1.343,1.922,1.328,3.095c0.021,0.578-0.101,1.152-0.353,1.672c-0.476,1.062-1.326,1.912-2.388,2.388
			C54.118,163.21,53.544,163.331,52.966,163.31L52.966,163.31z"/>
		<path style="fill:#5E5F62;" d="M300.138,286.897c-0.581,0.021-1.158-0.1-1.681-0.353c-0.551-0.191-1.039-0.527-1.414-0.974
			c-0.449-0.371-0.783-0.861-0.965-1.414c-0.253-0.52-0.374-1.095-0.353-1.673c-0.014-1.171,0.464-2.294,1.319-3.095
			c1.721-1.672,4.46-1.672,6.181,0c0.447,0.374,0.783,0.863,0.974,1.414c0.244,0.526,0.365,1.101,0.353,1.681
			c0.021,0.578-0.101,1.152-0.353,1.672c-0.476,1.062-1.326,1.912-2.388,2.388C301.29,286.796,300.716,286.917,300.138,286.897z"/>
		<path style="fill:#5E5F62;" d="M203.034,216.276c-0.685,0.001-1.361-0.158-1.974-0.465l-35.31-17.655
			c-2.174-1.094-3.053-3.741-1.965-5.918c1.088-2.177,3.734-3.062,5.913-1.979l35.31,17.655c1.831,0.915,2.793,2.97,2.323,4.962
			C206.861,214.869,205.082,216.276,203.034,216.276z"/>
	</g>
	<polygon style="fill:#805333;" points="167.724,225.103 123.586,247.172 123.586,203.034 	"/>
	<g>
		<path style="fill:#CB8252;" d="M40.254,59.321l120.585,60.292c1.85,0.902,2.832,2.961,2.368,4.966
			c-0.464,2.005-2.252,3.423-4.31,3.42c-0.671-0.01-1.333-0.16-1.942-0.441L33.368,65.766c-0.856-0.441-1.54-1.156-1.942-2.03
			L40.254,59.321z"/>
		<path style="fill:#CB8252;" d="M282.483,189.793c-0.685,0.001-1.361-0.158-1.974-0.465l-70.621-35.31
			c-2.174-1.094-3.053-3.741-1.965-5.918c1.088-2.177,3.734-3.062,5.913-1.979l70.621,35.31c1.831,0.915,2.793,2.97,2.323,4.962
			S284.53,189.794,282.483,189.793z"/>
		<path style="fill:#CB8252;" d="M409.953,245.23c-0.377-0.892-1.068-1.614-1.942-2.03l-70.621-35.31
			c-1.42-0.697-3.104-0.583-4.416,0.299c-1.313,0.882-2.054,2.399-1.944,3.977c0.11,1.578,1.054,2.977,2.476,3.669l67.619,33.81
			L409.953,245.23z"/>
		<path style="fill:#CB8252;" d="M441.379,225.103c-0.685,0.001-1.361-0.158-1.974-0.465l-52.966-26.483
			c-1.415-0.703-2.346-2.108-2.441-3.685c-0.096-1.577,0.658-3.084,1.977-3.954c1.319-0.869,3.002-0.968,4.413-0.258l52.966,26.483
			c1.831,0.915,2.793,2.97,2.323,4.962C445.206,223.696,443.427,225.104,441.379,225.103L441.379,225.103z"/>
		<path style="fill:#CB8252;" d="M344.276,180.966c-0.685,0.001-1.361-0.158-1.974-0.465l-35.31-17.655
			c-2.174-1.094-3.053-3.741-1.965-5.918c1.088-2.177,3.734-3.062,5.913-1.979l35.31,17.655c1.831,0.915,2.793,2.97,2.323,4.962
			C348.102,179.559,346.323,180.966,344.276,180.966L344.276,180.966z"/>
		<path style="fill:#CB8252;" d="M256,136.828c-0.685,0.001-1.361-0.158-1.974-0.465L148.095,83.397
			c-2.174-1.094-3.053-3.741-1.965-5.918c1.088-2.177,3.734-3.062,5.913-1.979l105.931,52.966c1.831,0.915,2.793,2.97,2.323,4.962
			C259.826,135.421,258.047,136.828,256,136.828z"/>
		<path style="fill:#CB8252;" d="M79.448,39.724c0.671,0.01,1.333,0.16,1.942,0.441l35.31,17.655
			c1.85,0.902,2.832,2.961,2.368,4.966c-0.464,2.005-2.252,3.423-4.31,3.42c-0.671-0.01-1.333-0.16-1.942-0.441L77.506,48.11
			c-2.174-1.09-3.077-3.719-2.03-5.914c0.094-0.287,0.28-0.536,0.53-0.706L79.448,39.724z"/>
		<path style="fill:#CB8252;" d="M111.316,23.834h-0.088c-0.197,0.2-0.348,0.441-0.441,0.706c-1.047,2.195-0.144,4.825,2.03,5.914
			l88.276,44.138c0.609,0.281,1.271,0.431,1.942,0.441c2.058,0.003,3.846-1.415,4.31-3.42s-0.518-4.065-2.368-4.966L116.701,22.51
			c-0.609-0.281-1.271-0.431-1.942-0.441L111.316,23.834z"/>
		<path style="fill:#CB8252;" d="M291.31,119.172c-0.685,0.001-1.361-0.158-1.974-0.465l-35.31-17.655
			c-1.414-0.703-2.346-2.108-2.441-3.685c-0.096-1.577,0.658-3.084,1.977-3.954c1.319-0.869,3.002-0.968,4.413-0.258l35.31,17.655
			c1.831,0.915,2.793,2.97,2.323,4.962S293.358,119.173,291.31,119.172z"/>
		<path style="fill:#CB8252;" d="M484.988,207.713c-0.377-0.892-1.068-1.614-1.942-2.03l-154.483-77.241
			c-2.193-1.067-4.836-0.157-5.907,2.034c-1.071,2.191-0.166,4.836,2.023,5.911l151.481,75.741L484.988,207.713z"/>
		<polygon style="fill:#CB8252;" points="17.655,194.207 17.655,326.621 0,317.263 0,185.379 		"/>
	</g>
	<g>
		<polygon style="fill:#805333;" points="35.752,203.211 35.31,204.094 35.31,317.263 17.655,326.621 17.655,194.207 		"/>
		<polygon style="fill:#805333;" points="512,300.138 512,432.287 494.345,441.379 494.345,309.23 494.257,309.054 		"/>
	</g>
	<g>
		<polygon style="fill:#CB8252;" points="494.345,309.23 494.345,441.379 476.69,432.287 476.69,318.323 476.513,317.881 
			494.257,309.054 		"/>
		<path style="fill:#CB8252;" d="M247.614,203.211l-0.441,0.883v104.872l123.586,61.793V264.828L247.614,203.211z M344.276,326.621
			l-70.621-35.31v-44.138l70.621,35.31V326.621z"/>
		<polygon style="fill:#CB8252;" points="370.759,370.759 370.759,503.172 353.103,494.08 353.103,361.931 		"/>
	</g>
	<polygon style="fill:#805333;" points="388.414,361.931 388.414,494.08 370.759,503.172 370.759,370.759 	"/>
</g>
<g>
</g>
<g>
</g>
<g>
</g>
<g>
</g>
<g>
</g>
<g>
</g>
<g>
</g>
<g>
</g>
<g>
</g>
<g>
</g>
<g>
</g>
<g>
</g>
<g>
</g>
<g>
</g>
<g>
</g>
</svg>
