<?xml version="1.0" encoding="iso-8859-1"?>
<!-- Generator: Adobe Illustrator 19.0.0, SVG Export Plug-In . SVG Version: 6.00 Build 0)  -->
<svg version="1.1" id="Capa_1" xmlns="http://www.w3.org/2000/svg" xmlns:xlink="http://www.w3.org/1999/xlink" x="0px" y="0px"
	 viewBox="0 0 512 512" style="enable-background:new 0 0 512 512;" xml:space="preserve">
<g>
	<polygon style="fill:#805333;" points="264.828,70.621 0,203.034 79.448,242.759 79.448,361.931 114.759,379.586 203.034,423.724 
		238.345,441.379 273.655,423.724 397.241,361.931 432.552,344.276 432.552,233.931 512,194.207 	"/>
	<path style="fill:#B0D3F0;" d="M264.828,70.621L0,203.034l247.172,123.586L512,194.207L264.828,70.621z M114.759,220.69
		l-35.31-17.655l35.31-17.655l35.31,17.655L114.759,220.69z M238.345,282.483l-35.31-17.655l35.31-17.655l35.31,17.655
		L238.345,282.483z M273.655,141.241l-35.31-17.655l35.31-17.655l35.31,17.655L273.655,141.241z M397.241,203.034l-35.31-17.655
		l35.31-17.655l35.31,17.655L397.241,203.034z"/>
	<polygon style="fill:#7D6599;" points="150.069,203.034 114.759,220.69 79.448,203.034 114.759,185.379 	"/>
	<polygon style="fill:#CB8252;" points="114.759,260.414 114.759,379.586 79.448,361.931 79.448,242.759 	"/>
	<polygon style="fill:#7D6599;" points="273.655,264.828 238.345,282.483 203.034,264.828 238.345,247.172 	"/>
	<polygon style="fill:#CB8252;" points="238.345,322.207 238.345,441.379 203.034,423.724 203.034,304.552 	"/>
	<g>
		<polygon style="fill:#7D6599;" points="432.552,185.379 397.241,203.034 361.931,185.379 397.241,167.724 		"/>
		<polygon style="fill:#7D6599;" points="308.966,123.586 273.655,141.241 238.345,123.586 273.655,105.931 		"/>
	</g>
	<polygon style="fill:#CB8252;" points="203.034,370.759 203.034,423.724 114.759,379.586 114.759,326.621 	"/>
	<polygon style="fill:#CBB292;" points="203.034,304.552 203.034,370.759 114.759,326.621 150.069,308.966 150.069,278.069 	"/>
	<polygon style="fill:#CB8252;" points="397.241,251.586 397.241,308.966 361.931,291.31 361.931,269.241 	"/>
	<polygon style="fill:#CBB292;" points="397.241,308.966 273.655,370.759 273.655,313.379 361.931,269.241 361.931,291.31 	"/>
</g>
<g>
</g>
<g>
</g>
<g>
</g>
<g>
</g>
<g>
</g>
<g>
</g>
<g>
</g>
<g>
</g>
<g>
</g>
<g>
</g>
<g>
</g>
<g>
</g>
<g>
</g>
<g>
</g>
<g>
</g>
</svg>
