<?xml version="1.0" encoding="iso-8859-1"?>
<!-- Generator: Adobe Illustrator 19.0.0, SVG Export Plug-In . SVG Version: 6.00 Build 0)  -->
<svg version="1.1" id="Capa_1" xmlns="http://www.w3.org/2000/svg" xmlns:xlink="http://www.w3.org/1999/xlink" x="0px" y="0px"
	 viewBox="0 0 512 512" style="enable-background:new 0 0 512 512;" xml:space="preserve">
<g>
	<polygon style="fill:#805333;" points="282.483,0 88.276,97.103 88.276,132.414 144.772,160.662 141.241,167.724 88.276,194.207 
		88.276,229.517 158.897,264.828 88.276,300.138 88.276,335.448 158.897,370.759 88.276,406.069 88.276,441.379 229.517,512 
		388.414,432.552 423.724,414.897 423.724,70.621 	"/>
	<g>
		<polygon style="fill:#CBB292;" points="388.414,220.69 388.414,291.31 229.517,370.759 88.276,300.138 158.897,264.828 
			229.517,300.138 		"/>
		<polygon style="fill:#CBB292;" points="388.414,123.586 388.414,185.379 229.517,264.828 88.276,194.207 141.241,167.724 
			144.772,160.662 229.517,203.034 		"/>
	</g>
	<g>
		<polygon style="fill:#CB8252;" points="229.517,476.69 229.517,512 88.276,441.379 88.276,406.069 		"/>
		<polygon style="fill:#CB8252;" points="229.517,370.759 229.517,406.069 88.276,335.448 88.276,300.138 		"/>
		<polygon style="fill:#CB8252;" points="229.517,264.828 229.517,300.138 88.276,229.517 88.276,194.207 		"/>
		<polygon style="fill:#CB8252;" points="229.517,167.724 229.517,203.034 88.276,132.414 88.276,97.103 		"/>
	</g>
	<g>
		<polygon style="fill:#CBB292;" points="423.724,70.621 229.517,167.724 88.276,97.103 282.483,0 		"/>
		<polygon style="fill:#CBB292;" points="388.414,326.621 388.414,397.241 229.517,476.69 88.276,406.069 158.897,370.759 
			229.517,406.069 		"/>
	</g>
</g>
<g>
</g>
<g>
</g>
<g>
</g>
<g>
</g>
<g>
</g>
<g>
</g>
<g>
</g>
<g>
</g>
<g>
</g>
<g>
</g>
<g>
</g>
<g>
</g>
<g>
</g>
<g>
</g>
<g>
</g>
</svg>
