<?xml version="1.0" encoding="iso-8859-1"?>
<!-- Generator: Adobe Illustrator 19.0.0, SVG Export Plug-In . SVG Version: 6.00 Build 0)  -->
<svg version="1.1" id="Capa_1" xmlns="http://www.w3.org/2000/svg" xmlns:xlink="http://www.w3.org/1999/xlink" x="0px" y="0px"
	 viewBox="0 0 507.921 507.921" style="enable-background:new 0 0 507.921 507.921;" xml:space="preserve">
<g transform="translate(0 -1)">
	<g>
		<path style="fill:#805333;" d="M384.13,79.362l-19.786-29.679c-18.47-27.635-54.606-37.227-84.35-22.389L227.927,1v121.752
			L89.079,192.176v221.288l17.356,8.678l17.356-8.678V304.989l59.01,29.505l1.736,0.868l78.102,39.051v125.831l17.356,8.678
			l17.356-8.678V374.413l86.78-43.39v108.475l17.356,8.678l17.356-8.678V96.718L384.13,79.362z"/>
		<g>
			<polygon style="fill:#CB8252;" points="186.273,240.772 184.537,244.243 184.537,335.362 182.801,334.494 123.791,304.989 
				89.079,287.633 89.079,192.176 			"/>
			<polygon style="fill:#CB8252;" points="279.995,287.633 279.995,383.091 184.537,335.362 184.537,244.243 186.273,240.772 			"/>
			<polygon style="fill:#CB8252;" points="106.435,296.311 106.435,422.142 89.079,413.464 89.079,287.633 			"/>
		</g>
		<polygon style="fill:#CBB292;" points="418.842,218.209 279.995,287.633 186.273,240.772 89.079,192.176 227.927,122.752 
			252.225,134.901 391.073,204.325 		"/>
		<g>
			<path style="fill:#D1D4D1;" d="M236.6,318.006c-0.672,0.001-1.336-0.155-1.936-0.458l-17.356-8.678
				c-2.137-1.075-3.001-3.677-1.931-5.817c1.07-2.14,3.67-3.01,5.813-1.945l17.356,8.678c1.801,0.9,2.747,2.921,2.283,4.88
				C240.365,316.626,238.614,318.009,236.6,318.006L236.6,318.006z"/>
			<path style="fill:#D1D4D1;" d="M149.821,274.616c-0.672,0.001-1.336-0.155-1.936-0.458l-17.356-8.678
				c-1.391-0.691-2.306-2.073-2.4-3.623c-0.094-1.55,0.647-3.032,1.943-3.887c1.297-0.855,2.951-0.951,4.338-0.253l17.356,8.678
				c1.801,0.9,2.747,2.921,2.283,4.88C153.585,273.236,151.834,274.619,149.821,274.616L149.821,274.616z"/>
		</g>
	</g>
	<g>
		<path style="fill:none;stroke:#000000;stroke-linecap:round;stroke-linejoin:round;" d="M296.839,83.956l26.545-13.272"/>
		<path style="fill:none;stroke:#000000;stroke-linecap:round;stroke-linejoin:round;" d="M322.363,123.262l53.089-26.544"/>
	</g>
	<g>
		<path style="fill:#84B5CB;" d="M392.808,105.396v95.458l-1.736,3.471l-138.847-69.424l1.736-3.471V35.972l34.712,17.356
			c19.834-9.845,43.893-3.459,56.233,14.926l13.191,19.786L392.808,105.396z"/>
		<g>
			<path style="fill:#CB8252;" d="M418.842,96.718v121.492l-27.77-13.885l1.736-3.471v-95.458L358.096,88.04l-13.191-19.786
				c-12.34-18.385-36.4-24.771-56.233-14.926l-34.712-17.356v95.458l-1.736,3.471l-24.298-12.149V1l52.068,26.294
				c29.743-14.838,65.88-5.246,84.35,22.389l19.786,29.679L418.842,96.718z"/>
			<polygon style="fill:#CB8252;" points="401.486,322.345 401.486,448.176 384.13,439.498 384.13,331.023 			"/>
			<polygon style="fill:#CB8252;" points="279.995,383.091 279.995,508.921 262.639,500.243 262.639,374.413 			"/>
		</g>
		<g>
			<path style="fill:#FFFFFF;" d="M262.643,92.379c-2.014,0.003-3.764-1.381-4.228-3.34c-0.464-1.959,0.482-3.98,2.283-4.88
				l19.911-9.958c2.143-1.065,4.743-0.195,5.813,1.945c1.07,2.14,0.206,4.742-1.931,5.817l-19.911,9.958
				C263.979,92.224,263.315,92.38,262.643,92.379z"/>
			<path style="fill:#FFFFFF;" d="M287.91,131.811c-2.014,0.003-3.764-1.381-4.228-3.34c-0.464-1.959,0.482-3.98,2.283-4.88
				l16.593-8.297c2.143-1.065,4.743-0.195,5.813,1.945c1.07,2.14,0.206,4.742-1.931,5.817l-16.593,8.297
				C289.246,131.656,288.582,131.813,287.91,131.811z"/>
			<path style="fill:#FFFFFF;" d="M314.711,92.379c-2.014,0.003-3.764-1.381-4.228-3.34c-0.464-1.959,0.482-3.98,2.283-4.88
				l17.356-8.678c2.143-1.065,4.743-0.195,5.813,1.945c1.07,2.14,0.206,4.742-1.931,5.817l-17.356,8.678
				C316.047,92.224,315.383,92.38,314.711,92.379z"/>
			<path style="fill:#FFFFFF;" d="M279.999,109.735c-2.014,0.003-3.764-1.381-4.228-3.34c-0.464-1.959,0.482-3.98,2.283-4.88
				l17.356-8.678c2.143-1.065,4.743-0.195,5.813,1.945c1.07,2.14,0.206,4.742-1.931,5.817l-17.356,8.678
				C281.335,109.58,280.671,109.736,279.999,109.735L279.999,109.735z"/>
		</g>
	</g>
</g>
<g>
</g>
<g>
</g>
<g>
</g>
<g>
</g>
<g>
</g>
<g>
</g>
<g>
</g>
<g>
</g>
<g>
</g>
<g>
</g>
<g>
</g>
<g>
</g>
<g>
</g>
<g>
</g>
<g>
</g>
</svg>
