<?xml version="1.0" encoding="iso-8859-1"?>
<!-- Generator: Adobe Illustrator 19.0.0, SVG Export Plug-In . SVG Version: 6.00 Build 0)  -->
<svg version="1.1" id="Capa_1" xmlns="http://www.w3.org/2000/svg" xmlns:xlink="http://www.w3.org/1999/xlink" x="0px" y="0px"
	 viewBox="0 0 512 512" style="enable-background:new 0 0 512 512;" xml:space="preserve">
<g>
	<g>
		<polygon style="fill:#805333;" points="420.546,114.229 329.181,68.59 256,31.956 182.819,68.59 91.454,114.317 73.181,123.41 
			0,159.956 0,287.956 0,434.317 91.454,480.044 91.454,406.863 164.546,443.41 164.546,348.69 256,301.903 329.181,338.45 
			329.181,434.317 420.546,480.044 512,434.317 512,287.956 512,159.956 		"/>
		<polygon style="fill:#3B97D3;" points="91.454,114.317 91.454,242.229 0,287.956 0,159.956 73.181,123.41 		"/>
		<polygon style="fill:#2980BA;" points="182.819,68.59 182.819,196.59 91.454,242.229 91.454,114.317 		"/>
		<polygon style="fill:#3B97D3;" points="256,31.956 256,159.956 182.819,196.59 182.819,68.59 		"/>
		<polygon style="fill:#AF8066;" points="91.454,333.683 91.454,480.044 0,434.317 0,287.956 		"/>
		<polygon style="fill:#59474E;" points="164.546,297.137 164.546,443.41 91.454,406.863 91.454,333.683 		"/>
		<polygon style="fill:#7F6E5D;" points="256,251.41 256,301.903 164.546,348.69 164.546,297.137 		"/>
		<g>
			<polygon style="fill:#E6E7E8;" points="388.414,348.69 388.414,375.172 353.103,357.517 353.103,331.034 			"/>
			<polygon style="fill:#E6E7E8;" points="388.414,410.483 388.414,436.966 353.103,419.31 353.103,392.828 			"/>
		</g>
	</g>
	<path style="fill:none;stroke:#000000;stroke-linecap:round;stroke-linejoin:round;" d="M420.546,242.317v-0.088"/>
	<g>
		<polygon style="fill:#B0D3F0;" points="329.181,68.59 329.181,196.59 256,159.956 256,31.956 		"/>
		<polygon style="fill:#90BAE1;" points="420.546,114.229 420.546,242.229 329.181,196.59 329.181,68.59 		"/>
		<polygon style="fill:#B0D3F0;" points="512,159.956 512,287.956 420.546,242.229 420.546,114.229 		"/>
		<polygon style="fill:#CBB292;" points="512,287.956 420.546,333.683 329.181,288.044 329.181,287.956 256,251.41 91.454,333.683 
			0,287.956 91.454,242.229 182.819,196.59 256,159.956 329.181,196.59 420.546,242.229 		"/>
		<polygon style="fill:#59474E;" points="329.181,287.956 329.181,338.45 256,301.903 256,251.41 		"/>
		<path style="fill:#AF8066;" d="M329.181,288.044v146.273l91.366,45.727V333.683L329.181,288.044z M388.414,436.966l-35.31-17.655
			v-26.483l35.31,17.655V436.966z M388.414,375.172l-35.31-17.655v-26.483l35.31,17.655V375.172z"/>
	</g>
</g>
<g>
</g>
<g>
</g>
<g>
</g>
<g>
</g>
<g>
</g>
<g>
</g>
<g>
</g>
<g>
</g>
<g>
</g>
<g>
</g>
<g>
</g>
<g>
</g>
<g>
</g>
<g>
</g>
<g>
</g>
</svg>
