<?xml version="1.0" encoding="iso-8859-1"?>
<!-- Generator: Adobe Illustrator 19.0.0, SVG Export Plug-In . SVG Version: 6.00 Build 0)  -->
<svg version="1.1" id="Capa_1" xmlns="http://www.w3.org/2000/svg" xmlns:xlink="http://www.w3.org/1999/xlink" x="0px" y="0px"
	 viewBox="0 0 512 512" style="enable-background:new 0 0 512 512;" xml:space="preserve">
<g>
	<path style="fill:#FB7B76;" d="M483.31,121.732c-3.784-7.109-9.673-12.875-16.861-16.508L256.794,0L45.639,105.225
		c-13.076,6.584-21.336,19.964-21.363,34.604v256.265l57.909,28.954l57.997-28.954v-48.287l3.884-7.768l54.025,27.012v115.994
		L256,512l57.909-28.954V367.051l57.909-28.954v57.997l57.997,28.954l57.909-28.954V212.568l-227.84,113.964l-0.001-0.001
		l227.841-113.964v-72.828C487.719,133.471,486.205,127.294,483.31,121.732z"/>
	<path style="fill:#E64C3C;" d="M256,318.764l3.884,7.768L256,328.474L24.276,212.568v-72.739
		c0.005-5.908,1.364-11.736,3.972-17.037l233.931,116.966c-4.046,6.194-6.194,13.435-6.179,20.833V318.764z"/>
	<polygon style="fill:#805333;" points="487.724,212.568 487.724,396.094 429.815,425.048 429.815,309.142 371.818,338.097 
		313.909,367.051 313.909,483.046 256,512 256,328.474 259.884,326.532 	"/>
	<polygon style="fill:#CB8252;" points="256,328.474 256,512 198.091,483.046 198.091,367.051 144.066,340.039 82.185,309.142 
		82.185,425.048 24.276,396.094 24.276,212.568 	"/>
	<polygon style="fill:#805333;" points="144.066,340.039 140.182,347.807 140.182,396.094 82.185,425.048 82.185,309.142 	"/>
	<polygon style="fill:#CB8252;" points="429.815,309.142 429.815,425.048 371.818,396.094 371.818,338.097 	"/>
	<path style="fill:#C03A2B;" d="M487.724,139.741v72.828L256,328.474V260.59c-0.015-7.398,2.133-14.639,6.179-20.833
		c3.735-5.869,8.979-10.625,15.183-13.771l202.505-101.606l3.443-2.648C486.205,127.294,487.719,133.471,487.724,139.741
		L487.724,139.741z"/>
</g>
<g>
</g>
<g>
</g>
<g>
</g>
<g>
</g>
<g>
</g>
<g>
</g>
<g>
</g>
<g>
</g>
<g>
</g>
<g>
</g>
<g>
</g>
<g>
</g>
<g>
</g>
<g>
</g>
<g>
</g>
</svg>
