<?xml version="1.0" encoding="iso-8859-1"?>
<!-- Generator: Adobe Illustrator 19.0.0, SVG Export Plug-In . SVG Version: 6.00 Build 0)  -->
<svg version="1.1" id="Capa_1" xmlns="http://www.w3.org/2000/svg" xmlns:xlink="http://www.w3.org/1999/xlink" x="0px" y="0px"
	 viewBox="0 0 512.04 512.04" style="enable-background:new 0 0 512.04 512.04;" xml:space="preserve">
<g transform="translate(0 -1)">
	<path style="fill:#90BAE1;" d="M473.53,206.899c-2.056-3.321-4.686-6.25-7.767-8.651V29.553c0.038-2.77-0.63-5.505-1.942-7.945
		c-1.618-3.398-4.32-6.162-7.68-7.857l-17.214-8.739c-5.008-2.472-10.882-2.472-15.89,0l-45.903,22.775l-0.088,0.177
		C338.525,9.532,296.245,0.314,253.548,1.04C210.96,0.365,168.79,9.518,130.315,27.787L84.411,5.012
		c-5.008-2.472-10.881-2.472-15.89,0l-17.214,8.739c-3.36,1.695-6.062,4.459-7.68,7.857c-1.312,2.44-1.981,5.175-1.942,7.945
		v173.109c-1.212,1.291-2.277,2.712-3.178,4.237c-3.687,5.643-5.65,12.238-5.65,18.979v269.506l35.31,17.655l3.531-1.766
		l31.779-15.89V250.331c0.003-6.7,3.799-12.82,9.799-15.801l21.628-10.858c37.275,16.764,77.775,25.141,118.642,24.541
		c41.827,0.648,83.259-8.164,121.203-25.777l24.011,12.094c6,2.981,9.796,9.101,9.8,15.801v245.054l31.778,15.89l3.532,1.766
		l35.31-17.655V225.878C479.182,219.137,477.218,212.542,473.53,206.899z"/>
	<path style="fill:#ECF0F1;" d="M103.126,204.251l-15.448,7.68c-5.704,2.837-10.503,7.209-13.859,12.623l-35.31-17.655
		c0.901-1.525,1.966-2.946,3.178-4.237c2.949-3.497,6.584-6.351,10.681-8.386l28.072-14.036
		C86.736,189.35,94.386,197.447,103.126,204.251L103.126,204.251z"/>
	<path style="fill:#BDC3C7;" d="M68.168,504.212l3.531,7.062l-3.531,1.766l-35.31-17.655V225.878c0-6.741,1.963-13.336,5.65-18.979
		l35.31,17.655c-3.687,5.643-5.65,12.238-5.65,18.979V504.212z"/>
	<g>
		<path style="fill:#7F8C8D;" d="M134.905,223.671l-21.628,10.858c-6,2.981-9.795,9.102-9.799,15.801v245.054l-31.779,15.89
			l-3.531-7.062V243.534c0-6.741,1.963-13.336,5.65-18.979c3.356-5.415,8.156-9.786,13.859-12.623l15.448-7.68
			C112.933,211.931,123.597,218.448,134.905,223.671L134.905,223.671z"/>
		<path style="fill:#7F8C8D;" d="M443.871,243.534v260.679l-3.532,7.062l-31.778-15.89V250.331c-0.004-6.7-3.799-12.82-9.799-15.801
			l-24.011-12.094c0.53-0.265,0.972-0.441,1.412-0.706c10.439-5.156,20.27-11.463,29.308-18.803l18.891,9.004
			c5.704,2.837,10.504,7.208,13.859,12.623C441.908,230.197,443.872,236.792,443.871,243.534z"/>
	</g>
	<path style="fill:#BDC3C7;" d="M479.181,225.878v269.506l-35.31,17.655l-3.532-1.766l3.532-7.062V243.534
		c0.001-6.741-1.963-13.336-5.651-18.979l35.31-17.655C477.218,212.542,479.182,219.137,479.181,225.878L479.181,225.878z"/>
	<g>
		<path style="fill:#ECF0F1;" d="M473.53,206.899l-35.31,17.655c-3.355-5.415-8.155-9.787-13.859-12.623l-18.891-9.004l1.324-1.059
			c8.118-6.592,15.174-14.392,20.921-23.128l3.884,1.501l28.072,14.036c2.196,1.052,4.244,2.387,6.092,3.972
			C468.845,200.649,471.474,203.578,473.53,206.899L473.53,206.899z"/>
		<path style="fill:#ECF0F1;" d="M130.315,27.787c-11.558,5.757-22.352,12.933-32.132,21.363l-3.531-3.972l-51.023-23.57
			c1.618-3.398,4.32-6.162,7.681-7.857l17.214-8.739c5.008-2.472,10.882-2.472,15.89,0L130.315,27.787z"/>
	</g>
	<path style="fill:#7F8C8D;" d="M68.168,106.971v35.31c0.153,13.603,4.432,26.84,12.27,37.959l-28.072,14.036
		c-4.097,2.035-7.732,4.889-10.681,8.386V29.553c-0.038-2.77,0.63-5.505,1.942-7.945l51.023,23.57l3.531,3.972
		C80.189,63.095,69.218,84.231,68.168,106.971z"/>
	<path style="fill:#4482C3;" d="M438.927,106.971v35.31c-0.153,12.978-4.046,25.636-11.211,36.458
		c-5.747,8.736-12.804,16.536-20.921,23.128l-1.324,1.059c-9.038,7.34-18.868,13.647-29.308,18.803
		c-0.441,0.265-0.883,0.441-1.412,0.706c-37.943,17.613-79.376,26.424-121.203,25.777c-40.867,0.601-81.367-7.777-118.642-24.541
		c-11.308-5.224-21.973-11.741-31.78-19.421c-8.739-6.804-16.389-14.9-22.687-24.011c-7.839-11.119-12.118-24.355-12.27-37.959
		v-35.31c0,58.527,82.979,105.931,185.379,105.931S438.927,165.498,438.927,106.971z"/>
	<path style="fill:#ECF0F1;" d="M463.821,21.608l-51.024,23.57l-3.796,4.149c-9.702-8.448-20.44-15.627-31.956-21.363l0.088-0.177
		l45.903-22.775c5.008-2.472,10.882-2.472,15.89,0l17.214,8.739C459.501,15.446,462.203,18.21,463.821,21.608z"/>
	<path style="fill:#7F8C8D;" d="M465.763,29.553v168.695c-1.848-1.585-3.896-2.921-6.092-3.972l-28.072-14.036l-3.883-1.501
		c7.165-10.822,11.058-23.48,11.211-36.458v-35.31c-1.058-22.668-11.995-43.735-29.926-57.644l3.796-4.149l51.023-23.57
		C465.133,24.048,465.801,26.783,465.763,29.553z"/>
</g>
<g>
</g>
<g>
</g>
<g>
</g>
<g>
</g>
<g>
</g>
<g>
</g>
<g>
</g>
<g>
</g>
<g>
</g>
<g>
</g>
<g>
</g>
<g>
</g>
<g>
</g>
<g>
</g>
<g>
</g>
</svg>
