<?xml version="1.0" encoding="iso-8859-1"?>
<!-- Generator: Adobe Illustrator 19.0.0, SVG Export Plug-In . SVG Version: 6.00 Build 0)  -->
<svg version="1.1" id="Capa_1" xmlns="http://www.w3.org/2000/svg" xmlns:xlink="http://www.w3.org/1999/xlink" x="0px" y="0px"
	 viewBox="0 0 504.432 504.432" style="enable-background:new 0 0 504.432 504.432;" xml:space="preserve">
<g>
	<g>
		<path style="fill:#95A5A5;" d="M69.234,450.207c-2.342,0.002-4.588-0.928-6.244-2.584c-1.656-1.656-2.585-3.902-2.584-6.244
			v-87.112c-0.057-17.225,9.696-32.98,25.138-40.612l16.388-8.177c4.358-2.139,9.624-0.358,11.79,3.986
			c2.166,4.344,0.419,9.622-3.911,11.815l-16.388,8.177c-9.435,4.662-15.394,14.287-15.362,24.81v72.841l133.767-66.767
			c2.822-1.412,6.183-1.21,8.815,0.53c2.632,1.74,4.135,4.753,3.942,7.902c-0.193,3.149-2.053,5.956-4.878,7.361L73.173,449.276
			C71.95,449.888,70.601,450.206,69.234,450.207z"/>
		<path style="fill:#95A5A5;" d="M206.561,504.432c-2.341,0-4.587-0.93-6.242-2.585s-2.585-3.901-2.585-6.242v-87.112
			c-0.051-17.226,9.704-32.98,25.147-40.612l98.552-47.94c2.466-1.198,5.349-1.182,7.802,0.043l109.905,54.858
			c3.001,1.495,4.895,4.563,4.888,7.916c-0.007,3.353-1.915,6.412-4.922,7.894L210.466,503.519
			C209.253,504.121,207.916,504.434,206.561,504.432z M325.242,337.721l-94.56,46c-9.401,4.669-15.332,14.275-15.293,24.772v72.91
			l199.957-98.707L325.242,337.721z"/>
	</g>
	<path style="fill:#285680;" d="M418.804,73.181v219.366l-183.172,90.748V340.48c-0.004-3.943,1.265-7.783,3.619-10.946
		c1.707-2.322,3.947-4.199,6.532-5.473L382.17,256V102.753c0.036-6.944,3.956-13.283,10.152-16.419L418.804,73.181z"/>
	<path style="fill:#90BAE1;" d="M418.804,73.181l-26.483,13.153c-3.109,1.571-5.71,3.988-7.503,6.974L238.28,20.127
		c1.74-2.975,4.32-5.37,7.415-6.886L271.913,0L418.804,73.181z"/>
	<path style="fill:#4482C3;" d="M384.818,93.308c-1.724,2.85-2.64,6.115-2.648,9.446V256l-146.538-73.181V29.572
		c0.008-3.331,0.924-6.596,2.648-9.446L384.818,93.308z"/>
	<path style="fill:#90BAE1;" d="M382.17,256l-136.386,68.061c-2.585,1.274-4.826,3.151-6.533,5.473l-146.45-73.269
		c1.702-2.247,3.91-4.062,6.444-5.297l136.386-68.149L382.17,256z"/>
	<path style="fill:#4482C3;" d="M239.251,329.534c-2.354,3.164-3.623,7.003-3.619,10.946v42.814l-0.794,0.353L89.094,310.819
		v-43.608c-0.015-3.959,1.289-7.811,3.708-10.946L239.251,329.534z"/>
</g>
<g>
</g>
<g>
</g>
<g>
</g>
<g>
</g>
<g>
</g>
<g>
</g>
<g>
</g>
<g>
</g>
<g>
</g>
<g>
</g>
<g>
</g>
<g>
</g>
<g>
</g>
<g>
</g>
<g>
</g>
</svg>
