<?xml version="1.0" encoding="iso-8859-1"?>
<!-- Generator: Adobe Illustrator 19.0.0, SVG Export Plug-In . SVG Version: 6.00 Build 0)  -->
<svg version="1.1" id="Capa_1" xmlns="http://www.w3.org/2000/svg" xmlns:xlink="http://www.w3.org/1999/xlink" x="0px" y="0px"
	 viewBox="0 0 512 512" style="enable-background:new 0 0 512 512;" xml:space="preserve">
<g>
	<polygon style="fill:#285680;" points="238.345,0 8.828,114.759 8.828,379.586 273.655,512 277.363,510.058 503.172,388.414 
		503.172,132.414 	"/>
	<polygon style="fill:#4482C3;" points="277.363,510.058 273.655,512 8.828,379.586 8.828,114.759 44.138,132.414 44.138,264.828 
		26.483,273.655 26.483,308.966 185.379,388.414 238.345,361.931 238.345,229.517 273.655,247.172 273.655,503.172 	"/>
	<polygon style="fill:#90BAE1;" points="503.172,132.414 273.655,247.172 238.345,229.517 414.897,141.241 379.586,123.586 
		379.586,114.67 220.69,35.31 185.379,52.966 185.379,61.793 44.138,132.414 8.828,114.759 238.345,0 	"/>
	<polygon style="fill:#2C3E50;" points="414.897,141.241 379.586,158.897 379.586,123.586 	"/>
	<polygon style="fill:#B0D3F0;" points="379.586,114.67 379.586,114.759 344.276,132.414 185.379,52.966 220.69,35.31 	"/>
	<polygon style="fill:#556080;" points="185.379,353.103 185.379,388.414 26.483,308.966 26.483,273.655 	"/>
	<polygon style="fill:#90BAE1;" points="247.172,225.103 238.345,229.517 238.345,326.621 185.379,353.103 26.483,273.655 
		185.379,194.207 	"/>
	<polygon style="fill:#4482C3;" points="344.276,132.414 344.276,176.552 247.172,225.103 185.379,194.207 185.379,52.966 	"/>
</g>
<g>
</g>
<g>
</g>
<g>
</g>
<g>
</g>
<g>
</g>
<g>
</g>
<g>
</g>
<g>
</g>
<g>
</g>
<g>
</g>
<g>
</g>
<g>
</g>
<g>
</g>
<g>
</g>
<g>
</g>
</svg>
