<?xml version="1.0" encoding="iso-8859-1"?>
<!-- Generator: Adobe Illustrator 19.0.0, SVG Export Plug-In . SVG Version: 6.00 Build 0)  -->
<svg version="1.1" id="Capa_1" xmlns="http://www.w3.org/2000/svg" xmlns:xlink="http://www.w3.org/1999/xlink" x="0px" y="0px"
	 viewBox="0 0 512 512" style="enable-background:new 0 0 512 512;" xml:space="preserve">
<g>
	<polygon style="fill:#E4C05C;" points="459.034,176.552 414.897,198.621 414.897,154.483 441.379,141.241 441.379,105.931 
		317.793,44.138 52.966,176.552 52.966,203.034 0,229.517 0,264.828 26.483,278.069 26.483,370.759 220.69,467.862 485.517,335.448 
		485.517,251.586 512,238.345 512,203.034 	"/>
	<polygon style="fill:#B19046;" points="441.379,105.931 441.379,141.241 414.897,154.483 413.131,155.366 176.552,273.655 
		176.552,238.345 	"/>
	<polygon style="fill:#F0C419;" points="176.552,238.345 176.552,273.655 134.179,252.469 132.414,251.586 98.869,234.814 
		97.103,233.931 52.966,211.862 52.966,176.552 	"/>
	<polygon style="fill:#7F6E5D;" points="176.552,317.793 176.552,353.103 180.966,355.31 132.414,379.586 132.414,251.586 
		134.179,252.469 176.552,273.655 413.131,155.366 414.897,154.483 414.897,198.621 	"/>
	<polygon style="fill:#B19046;" points="512,203.034 512,238.345 229.517,379.586 229.517,344.276 	"/>
	<polygon style="fill:#7F6E5D;" points="485.517,251.586 485.517,335.448 220.69,467.862 220.69,375.172 229.517,379.586 	"/>
	<polygon style="fill:#59474E;" points="185.379,357.517 185.379,406.069 132.414,379.586 180.966,355.31 	"/>
	<polygon style="fill:#CBB292;" points="220.69,375.172 220.69,467.862 26.483,370.759 26.483,278.069 45.903,287.779 
		52.966,291.31 60.028,287.779 61.793,286.897 61.793,344.276 97.103,361.931 97.103,233.931 98.869,234.814 132.414,251.586 
		132.414,379.586 185.379,406.069 185.379,357.517 	"/>
	<polygon style="fill:#F0C419;" points="229.517,344.276 229.517,379.586 176.552,353.103 176.552,317.793 	"/>
	<polygon style="fill:#7F6E5D;" points="97.103,269.241 97.103,361.931 61.793,344.276 61.793,286.897 	"/>
	<polygon style="fill:#F0C419;" points="52.966,256 52.966,291.31 45.903,287.779 26.483,278.069 0,264.828 0,229.517 	"/>
	<polygon style="fill:#B19046;" points="97.103,233.931 97.103,269.241 61.793,286.897 60.028,287.779 52.966,291.31 52.966,256 	
		"/>
</g>
<g>
</g>
<g>
</g>
<g>
</g>
<g>
</g>
<g>
</g>
<g>
</g>
<g>
</g>
<g>
</g>
<g>
</g>
<g>
</g>
<g>
</g>
<g>
</g>
<g>
</g>
<g>
</g>
<g>
</g>
</svg>
