<?xml version="1.0" encoding="iso-8859-1"?>
<!-- Generator: Adobe Illustrator 19.0.0, SVG Export Plug-In . SVG Version: 6.00 Build 0)  -->
<svg version="1.1" id="Capa_1" xmlns="http://www.w3.org/2000/svg" xmlns:xlink="http://www.w3.org/1999/xlink" x="0px" y="0px"
	 viewBox="0 0 512 512" style="enable-background:new 0 0 512 512;" xml:space="preserve">
<g>
	<g>
		<path style="fill:#A5A5A4;" d="M90.298,279.404l-40.895,20.447v-48.342c0-4.961-4.022-8.982-8.982-8.982s-8.982,4.022-8.982,8.982
			v98.807c0,4.961,4.022,8.982,8.982,8.982s8.982-4.022,8.982-8.982v-30.377l48.93-24.465c4.421-2.228,6.206-7.612,3.992-12.04
			S94.733,277.204,90.298,279.404L90.298,279.404z"/>
		<path style="fill:#A5A5A4;" d="M453.614,359.298c-2.382-0.001-4.668,0.946-6.352,2.63c-1.685,1.685-2.631,3.97-2.63,6.352v39.36
			l-35.93,17.965v-30.377c0-4.961-4.022-8.982-8.982-8.982s-8.982,4.022-8.982,8.982v39.36l-35.93,17.965v-48.342
			c0-4.961-4.022-8.982-8.982-8.982c-4.961,0-8.982,4.022-8.982,8.982v98.807c0,4.961,4.022,8.982,8.982,8.982
			c4.961,0,8.982-4.022,8.982-8.982V472.64l89.825-44.912v21.395c0,4.961,4.022,8.982,8.982,8.982s8.982-4.022,8.982-8.982v-80.842
			c0.001-2.382-0.946-4.668-2.63-6.352C458.282,360.244,455.997,359.298,453.614,359.298z"/>
		<path style="fill:#A5A5A4;" d="M130.246,188.632c-4.961,0-8.982-4.022-8.982-8.982v-53.895c0-4.961,4.022-8.982,8.982-8.982
			c4.961,0,8.982,4.022,8.982,8.982v53.895C139.228,184.61,135.206,188.632,130.246,188.632z"/>
		<path style="fill:#A5A5A4;" d="M453.614,350.316c-2.382,0.001-4.668-0.946-6.352-2.63c-1.685-1.685-2.631-3.97-2.63-6.352v-53.895
			c0-4.961,4.022-8.982,8.982-8.982s8.982,4.022,8.982,8.982v53.895c0.001,2.382-0.946,4.668-2.63,6.352
			C458.282,349.37,455.997,350.316,453.614,350.316z"/>
	</g>
	<polygon style="fill:#CBB292;" points="507.509,179.649 471.579,197.614 112.281,17.965 148.211,0 	"/>
	<polygon style="fill:#E4C05C;" points="363.789,395.228 363.789,431.158 4.491,251.509 4.491,215.579 	"/>
	<polygon style="fill:#7F6E5D;" points="471.579,341.333 471.579,377.263 363.789,431.158 363.789,395.228 	"/>
	<polygon style="fill:#CBB292;" points="471.579,341.333 363.789,395.228 4.491,215.579 112.281,161.684 	"/>
	<polygon style="fill:#E4C05C;" points="471.579,197.614 471.579,305.404 112.281,125.754 112.281,17.965 	"/>
	<g>
		<polygon style="fill:#7F6E5D;" points="507.509,179.649 507.509,287.439 471.579,305.404 471.579,197.614 		"/>
		<path style="fill:#7F6E5D;" d="M45.451,195.099l86.771,43.385c1.882,0.917,2.882,3.013,2.409,5.053
			c-0.472,2.04-2.291,3.483-4.385,3.48c-0.683-0.01-1.356-0.163-1.976-0.449l-89.825-44.912c-0.889-0.423-1.593-1.159-1.976-2.066
			L45.451,195.099z"/>
		<path style="fill:#7F6E5D;" d="M238.031,300.912c-0.696-0.001-1.382-0.163-2.004-0.474l-71.86-35.93
			c-2.212-1.113-3.107-3.806-1.999-6.022c1.108-2.215,3.799-3.116,6.017-2.014l71.86,35.93c1.864,0.932,2.843,3.023,2.363,5.052
			C241.927,299.483,240.115,300.915,238.031,300.912L238.031,300.912z"/>
		<path style="fill:#7F6E5D;" d="M309.89,336.842c-0.696-0.001-1.382-0.163-2.004-0.474l-35.93-17.965
			c-2.212-1.113-3.107-3.806-1.999-6.022c1.108-2.215,3.799-3.116,6.017-2.014l35.93,17.965c1.864,0.932,2.843,3.023,2.363,5.052
			C313.787,335.413,311.975,336.845,309.89,336.842L309.89,336.842z"/>
		<path style="fill:#7F6E5D;" d="M403.672,375.287c-0.384-0.907-1.087-1.642-1.976-2.066l-53.895-26.947
			c-2.232-1.086-4.921-0.16-6.011,2.07c-1.09,2.23-0.169,4.921,2.059,6.015l50.841,25.42L403.672,375.287z"/>
		<path style="fill:#7F6E5D;" d="M439.601,357.322c-0.384-0.907-1.087-1.642-1.976-2.066l-143.719-71.86
			c-2.232-1.086-4.921-0.16-6.011,2.07c-1.09,2.23-0.169,4.921,2.059,6.015l140.665,70.333L439.601,357.322z"/>
		<path style="fill:#7F6E5D;" d="M255.996,273.965c-0.696-0.001-1.382-0.163-2.004-0.474l-35.93-17.965
			c-2.212-1.113-3.107-3.806-1.999-6.022c1.108-2.215,3.799-3.116,6.017-2.014l35.93,17.965c1.864,0.932,2.843,3.023,2.363,5.052
			S258.08,273.968,255.996,273.965L255.996,273.965z"/>
		<path style="fill:#7F6E5D;" d="M81.381,177.134l104.735,52.368c1.882,0.917,2.882,3.013,2.409,5.053
			c-0.472,2.04-2.291,3.483-4.385,3.48c-0.683-0.01-1.356-0.163-1.976-0.449L74.375,183.691c-0.871-0.449-1.567-1.176-1.976-2.066
			L81.381,177.134z"/>
	</g>
	<g>
		<path style="fill:#B19046;" d="M112.281,94.855l69.884,34.942c0.62,0.286,1.293,0.439,1.976,0.449
			c2.094,0.004,3.913-1.44,4.385-3.48c0.472-2.04-0.527-4.136-2.409-5.053l-71.86-35.93c-0.62-0.286-1.293-0.439-1.976-0.449V94.855
			z"/>
		<path style="fill:#B19046;" d="M255.996,166.175c-0.696-0.001-1.382-0.163-2.004-0.474l-35.93-17.965
			c-2.212-1.113-3.107-3.806-1.999-6.022c1.108-2.215,3.799-3.116,6.017-2.014l35.93,17.965c1.864,0.932,2.843,3.023,2.363,5.052
			S258.08,166.178,255.996,166.175L255.996,166.175z"/>
		<path style="fill:#B19046;" d="M381.75,229.053c-0.696-0.001-1.382-0.163-2.004-0.474l-89.825-44.912
			c-1.439-0.715-2.387-2.145-2.484-3.75c-0.098-1.604,0.67-3.139,2.012-4.023s3.054-0.985,4.49-0.262l89.825,44.912
			c1.864,0.932,2.843,3.023,2.363,5.052C385.646,227.624,383.834,229.055,381.75,229.053L381.75,229.053z"/>
		<path style="fill:#B19046;" d="M471.579,273.965c-0.683-0.01-1.356-0.163-1.976-0.449l-53.895-26.947
			c-1.447-0.704-2.408-2.128-2.52-3.733c-0.112-1.605,0.643-3.148,1.978-4.046c1.336-0.898,3.049-1.014,4.494-0.305l51.919,25.959
			V273.965z"/>
		<path style="fill:#B19046;" d="M112.281,58.925l33.954,16.977c0.62,0.286,1.293,0.439,1.976,0.449
			c2.094,0.004,3.913-1.44,4.385-3.48c0.472-2.04-0.527-4.136-2.409-5.053l-35.93-17.965c-0.62-0.286-1.293-0.439-1.976-0.449
			V58.925z"/>
		<path style="fill:#B19046;" d="M273.961,139.228c-0.696-0.001-1.382-0.163-2.004-0.474l-89.825-44.912
			c-1.439-0.715-2.387-2.145-2.484-3.75s0.67-3.139,2.012-4.023c1.342-0.885,3.054-0.985,4.49-0.262l89.825,44.912
			c1.864,0.932,2.843,3.023,2.363,5.052C277.857,137.799,276.045,139.231,273.961,139.228L273.961,139.228z"/>
		<path style="fill:#B19046;" d="M363.785,184.14c-0.696-0.001-1.382-0.163-2.004-0.474l-53.895-26.947
			c-2.212-1.113-3.107-3.806-1.999-6.022c1.108-2.215,3.799-3.116,6.017-2.014l53.895,26.947c1.864,0.932,2.843,3.023,2.363,5.052
			C367.682,182.711,365.869,184.143,363.785,184.14L363.785,184.14z"/>
		<path style="fill:#B19046;" d="M471.579,238.035c-0.683-0.01-1.356-0.163-1.976-0.449l-71.86-35.93
			c-1.447-0.704-2.408-2.128-2.52-3.733c-0.112-1.605,0.643-3.148,1.978-4.046c1.336-0.898,3.049-1.014,4.494-0.305l69.883,34.942
			V238.035z"/>
	</g>
</g>
<g>
</g>
<g>
</g>
<g>
</g>
<g>
</g>
<g>
</g>
<g>
</g>
<g>
</g>
<g>
</g>
<g>
</g>
<g>
</g>
<g>
</g>
<g>
</g>
<g>
</g>
<g>
</g>
<g>
</g>
</svg>
