<?xml version="1.0" encoding="iso-8859-1"?>
<!-- Generator: Adobe Illustrator 19.0.0, SVG Export Plug-In . SVG Version: 6.00 Build 0)  -->
<svg version="1.1" id="Capa_1" xmlns="http://www.w3.org/2000/svg" xmlns:xlink="http://www.w3.org/1999/xlink" x="0px" y="0px"
	 viewBox="0 0 512 512" style="enable-background:new 0 0 512 512;" xml:space="preserve">
<g>
	<polygon style="fill:#E4C05C;" points="512,150.069 194.207,308.966 114.759,269.241 111.316,267.476 111.228,267.476 
		44.138,233.931 40.695,232.166 40.607,232.166 0,211.862 317.793,52.966 352.574,70.356 471.746,129.942 	"/>
	<polygon style="fill:#CBB292;" points="61.793,326.621 61.793,344.276 79.448,353.103 79.448,388.414 61.793,397.241 
		44.138,388.414 44.138,233.931 79.448,251.586 79.448,317.793 	"/>
	<polygon style="fill:#7F6E5D;" points="450.207,180.966 450.207,326.621 432.552,335.448 414.897,326.621 414.897,291.31 
		432.552,282.483 432.552,264.828 414.897,256 414.897,198.621 	"/>
	<polygon style="fill:#CBB292;" points="203.034,304.552 203.034,450.207 185.379,459.034 167.724,450.207 167.724,295.724 
		194.207,308.966 	"/>
	<polygon style="fill:#E4C05C;" points="167.724,361.931 167.724,397.241 61.793,344.276 61.793,326.621 79.448,317.793 	"/>
	<g>
		<polygon style="fill:#B19046;" points="432.552,264.828 432.552,282.483 203.034,397.241 203.034,361.931 414.897,256 		"/>
		<path style="fill:#B19046;" d="M44.138,233.931c0.671-0.01,1.333-0.16,1.942-0.441l70.621-35.31
			c1.422-0.692,2.366-2.091,2.476-3.669c0.11-1.578-0.632-3.094-1.944-3.977c-1.313-0.882-2.997-0.997-4.416-0.299l-70.621,35.31
			c-2.174,1.09-3.077,3.719-2.03,5.914c0.094,0.265,0.244,0.506,0.441,0.706h0.088L44.138,233.931z"/>
		<path style="fill:#B19046;" d="M150.073,180.966c-2.048,0.003-3.829-1.404-4.301-3.398c-0.472-1.993,0.49-4.049,2.322-4.965
			l52.966-26.483c1.411-0.71,3.094-0.611,4.413,0.258c1.319,0.869,2.073,2.377,1.977,3.954c-0.096,1.577-1.027,2.982-2.441,3.685
			L152.043,180.5C151.431,180.805,150.757,180.965,150.073,180.966L150.073,180.966z"/>
		<path style="fill:#B19046;" d="M362.461,75.299l-122.174,61.087c-0.609,0.281-1.271,0.431-1.942,0.441
			c-2.058,0.003-3.846-1.415-4.31-3.42c-0.464-2.005,0.518-4.065,2.368-4.966l116.171-58.086L362.461,75.299z"/>
		<path style="fill:#B19046;" d="M132.418,225.103c-2.048,0.003-3.829-1.404-4.301-3.398c-0.472-1.993,0.49-4.049,2.322-4.965
			l52.965-26.483c1.411-0.71,3.094-0.611,4.413,0.258c1.319,0.869,2.073,2.377,1.977,3.954c-0.096,1.577-1.027,2.982-2.441,3.685
			l-52.966,26.483C133.776,224.943,133.102,225.103,132.418,225.103z"/>
		<path style="fill:#B19046;" d="M220.694,180.966c-2.048,0.003-3.829-1.404-4.301-3.398c-0.472-1.993,0.49-4.049,2.322-4.965
			l88.276-44.138c2.179-1.083,4.825-0.198,5.913,1.979c1.088,2.177,0.21,4.824-1.965,5.918L222.664,180.5
			C222.052,180.805,221.378,180.965,220.694,180.966L220.694,180.966z"/>
		<path style="fill:#B19046;" d="M397.771,92.954l-51.553,25.777c-0.609,0.281-1.271,0.431-1.942,0.441
			c-2.058,0.003-3.846-1.415-4.31-3.42c-0.464-2.005,0.518-4.065,2.368-4.966l45.55-22.775L397.771,92.954z"/>
		<path style="fill:#B19046;" d="M114.759,269.241c0.671-0.01,1.333-0.16,1.942-0.441l105.931-52.966
			c2.189-1.075,3.094-3.72,2.023-5.911s-3.714-3.101-5.907-2.034l-105.931,52.966c-2.174,1.09-3.077,3.719-2.03,5.914
			c0.094,0.265,0.244,0.506,0.441,0.706h0.088L114.759,269.241z"/>
		<path style="fill:#B19046;" d="M256.004,198.621c-2.048,0.003-3.829-1.404-4.301-3.398c-0.472-1.993,0.49-4.049,2.322-4.965
			l52.966-26.483c1.411-0.71,3.094-0.611,4.413,0.258c1.319,0.869,2.073,2.377,1.977,3.954c-0.096,1.577-1.027,2.982-2.441,3.685
			l-52.966,26.483C257.362,198.461,256.688,198.62,256.004,198.621z"/>
		<path style="fill:#B19046;" d="M433.081,110.61l-86.863,43.432c-0.609,0.281-1.271,0.431-1.942,0.441
			c-2.058,0.003-3.846-1.415-4.31-3.42c-0.464-2.005,0.518-4.065,2.368-4.966l80.861-40.43L433.081,110.61z"/>
		<path style="fill:#B19046;" d="M158.901,286.897c-2.048,0.003-3.829-1.404-4.301-3.398c-0.472-1.993,0.49-4.049,2.322-4.965
			l35.31-17.655c1.411-0.71,3.094-0.611,4.413,0.258c1.319,0.869,2.073,2.377,1.977,3.954c-0.096,1.577-1.027,2.982-2.441,3.685
			l-35.31,17.655C160.259,286.737,159.585,286.896,158.901,286.897z"/>
		<path style="fill:#B19046;" d="M229.522,251.586c-2.048,0.003-3.829-1.404-4.301-3.398c-0.472-1.993,0.49-4.049,2.322-4.965
			l88.276-44.138c1.411-0.71,3.094-0.611,4.413,0.258s2.073,2.377,1.977,3.954c-0.096,1.577-1.027,2.982-2.441,3.685l-88.276,44.138
			C230.88,251.426,230.205,251.586,229.522,251.586L229.522,251.586z"/>
		<path style="fill:#B19046;" d="M353.108,189.793c-2.048,0.003-3.829-1.404-4.301-3.398c-0.472-1.993,0.49-4.049,2.322-4.965
			l35.31-17.655c1.411-0.71,3.094-0.611,4.413,0.258c1.319,0.869,2.073,2.377,1.977,3.954c-0.096,1.577-1.027,2.982-2.441,3.685
			l-35.31,17.655C354.466,189.633,353.792,189.792,353.108,189.793z"/>
		<path style="fill:#B19046;" d="M471.746,129.942c-0.377,0.892-1.068,1.614-1.942,2.03l-44.138,22.069
			c-0.61,0.281-1.271,0.431-1.942,0.441c-2.058,0.003-3.846-1.415-4.31-3.42c-0.464-2.005,0.518-4.065,2.368-4.966l41.137-20.568
			L471.746,129.942z"/>
	</g>
</g>
<g>
</g>
<g>
</g>
<g>
</g>
<g>
</g>
<g>
</g>
<g>
</g>
<g>
</g>
<g>
</g>
<g>
</g>
<g>
</g>
<g>
</g>
<g>
</g>
<g>
</g>
<g>
</g>
<g>
</g>
</svg>
