<?xml version="1.0" encoding="iso-8859-1"?>
<!-- Generator: Adobe Illustrator 19.0.0, SVG Export Plug-In . SVG Version: 6.00 Build 0)  -->
<svg version="1.1" id="Capa_1" xmlns="http://www.w3.org/2000/svg" xmlns:xlink="http://www.w3.org/1999/xlink" x="0px" y="0px"
	 viewBox="0 0 512 512" style="enable-background:new 0 0 512 512;" xml:space="preserve">
<g>
	<path style="fill:#8697CB;" d="M308.966,0L256,26.483v176.552L93.837,284.16l-10.24,9.181c-1.642,4.598-3.027,9.284-4.149,14.036
		c-0.014,33.436,18.893,64.001,48.817,78.919l21.804,10.946v70.621L238.345,512l176.552-88.276V317.793l17.655-8.828V61.793
		L308.966,0z"/>
	<polygon style="fill:#B0D3F0;" points="432.552,61.793 379.586,88.276 256,26.483 308.966,0 	"/>
	<g>
		<polygon style="fill:#90BAE1;" points="379.586,88.276 379.586,264.828 256,203.034 256,26.483 		"/>
		<path style="fill:#90BAE1;" d="M238.345,406.069V512l-88.276-44.138v-70.621c27.218,13.647,58.659,16.241,87.746,7.239
			L238.345,406.069z"/>
	</g>
	<path style="fill:#556080;" d="M414.897,317.793v105.931L238.345,512V406.069l-0.53-1.589c6.251-1.906,12.334-4.327,18.185-7.239
		L414.897,317.793z"/>
	<path style="fill:#B0D3F0;" d="M256,203.034L93.837,284.16l-10.24,9.181l95.779,47.934c14.9,7.415,32.416,7.415,47.316,0
		l152.894-76.447L256,203.034z"/>
	<path style="fill:#8697CB;" d="M210.891,322.648c-4.946,2.471-10.767,2.471-15.713,0l-36.193-18.097l-10.77-5.385
		c-2.998-1.469-4.899-4.517-4.899-7.857c0-3.339,1.901-6.387,4.899-7.857L256,229.517l70.621,35.31l-26.483,13.241L210.891,322.648z
		"/>
	<path style="fill:#556080;" d="M300.138,278.069l-89.247,44.579c-4.946,2.471-10.767,2.471-15.713,0l-36.193-18.097L256,256
		L300.138,278.069z"/>
	<path style="fill:#464F5D;" d="M344.272,48.552c-0.684-0.001-1.358-0.16-1.97-0.465l-17.655-8.828
		c-2.174-1.094-3.053-3.741-1.965-5.918s3.734-3.062,5.913-1.979l17.655,8.828c1.832,0.916,2.794,2.971,2.322,4.965
		C348.101,47.147,346.32,48.554,344.272,48.552z"/>
</g>
<g>
</g>
<g>
</g>
<g>
</g>
<g>
</g>
<g>
</g>
<g>
</g>
<g>
</g>
<g>
</g>
<g>
</g>
<g>
</g>
<g>
</g>
<g>
</g>
<g>
</g>
<g>
</g>
<g>
</g>
</svg>
