<?xml version="1.0" encoding="iso-8859-1"?>
<!-- Generator: Adobe Illustrator 19.0.0, SVG Export Plug-In . SVG Version: 6.00 Build 0)  -->
<svg version="1.1" id="Capa_1" xmlns="http://www.w3.org/2000/svg" xmlns:xlink="http://www.w3.org/1999/xlink" x="0px" y="0px"
	 viewBox="0 0 512 512" style="enable-background:new 0 0 512 512;" xml:space="preserve">
<g>
	<polygon style="fill:#8697CB;" points="335.448,66.207 0,233.931 0,242.759 0,295.724 0,357.517 176.552,445.793 512,278.069 
		512,216.276 512,163.31 512,154.483 	"/>
	<path style="fill:#B0D3F0;" d="M335.448,66.207L0,233.931v8.828l176.552,88.276L512,163.31v-8.828L335.448,66.207z
		 M194.207,295.724l-35.31-17.655l-17.655,8.828l-35.31-17.655v-61.793l35.31-17.655l8.828,4.414l185.379-92.69l123.586,61.793
		L194.207,295.724z"/>
	<polygon style="fill:#90BAE1;" points="335.448,101.517 335.448,145.655 335.448,180.966 379.586,203.034 414.897,185.379 
		459.034,163.31 	"/>
	<polygon style="fill:#556080;" points="379.586,203.034 194.207,295.724 158.897,278.069 158.897,269.241 335.448,180.966 	"/>
	<polygon style="fill:#7F8C8D;" points="158.897,216.276 158.897,278.069 141.241,286.897 141.241,225.103 	"/>
	<polygon style="fill:#90BAE1;" points="0,242.759 0,295.724 0,357.517 176.552,445.793 176.552,384 176.552,331.034 	"/>
	<polygon style="fill:#BDC3C7;" points="176.552,207.448 141.241,225.103 105.931,207.448 141.241,189.793 	"/>
	<polygon style="fill:#95A5A5;" points="141.241,225.103 141.241,286.897 105.931,269.241 105.931,207.448 	"/>
</g>
<g>
</g>
<g>
</g>
<g>
</g>
<g>
</g>
<g>
</g>
<g>
</g>
<g>
</g>
<g>
</g>
<g>
</g>
<g>
</g>
<g>
</g>
<g>
</g>
<g>
</g>
<g>
</g>
<g>
</g>
</svg>
