<?xml version="1.0" encoding="iso-8859-1"?>
<!-- Generator: Adobe Illustrator 19.0.0, SVG Export Plug-In . SVG Version: 6.00 Build 0)  -->
<svg version="1.1" id="Capa_1" xmlns="http://www.w3.org/2000/svg" xmlns:xlink="http://www.w3.org/1999/xlink" x="0px" y="0px"
	 viewBox="0 0 512 512" style="enable-background:new 0 0 512 512;" xml:space="preserve">
<g>
	<path style="fill:#D1D4D1;" d="M52.966,79.448v308.966l120.055,60.028l3.531-7.062V141.241L52.966,79.448z M150.069,379.586
		l-70.621-35.31V132.414l70.621,35.31V379.586z"/>
	<g>
		<polygon style="fill:#84B5CB;" points="150.069,167.724 150.069,379.586 79.448,344.276 79.448,132.414 140.712,163.046 
			149.539,167.459 		"/>
		<polygon style="fill:#84B5CB;" points="273.655,229.517 273.655,441.379 203.034,406.069 203.034,194.207 264.298,224.839 
			273.126,229.252 		"/>
	</g>
	<g>
		<path style="fill:#FFFFFF;" d="M149.539,167.459c-0.402,0.875-1.086,1.59-1.942,2.03l-22.069,11.034
			c-0.609,0.281-1.271,0.431-1.942,0.441c-2.058,0.003-3.845-1.415-4.309-3.42c-0.464-2.005,0.518-4.064,2.367-4.966l19.067-9.534
			L149.539,167.459z"/>
		<path style="fill:#FFFFFF;" d="M99.046,193.766l-17.655,8.828c-0.609,0.281-1.271,0.431-1.942,0.441v-9.357l15.713-7.857
			c2.19-1.05,4.818-0.137,5.885,2.045C102.113,190.048,101.219,192.682,99.046,193.766L99.046,193.766z"/>
		<path style="fill:#FFFFFF;" d="M150.069,194.207v9.357l-15.713,7.857c-0.609,0.281-1.271,0.431-1.942,0.441
			c-2.058,0.003-3.845-1.415-4.309-3.42c-0.464-2.005,0.518-4.064,2.367-4.966l17.655-8.828
			C148.736,194.367,149.398,194.217,150.069,194.207L150.069,194.207z"/>
		<path style="fill:#FFFFFF;" d="M150.069,229.517v9.357l-24.541,12.27c-0.609,0.281-1.271,0.431-1.942,0.441
			c-2.058,0.003-3.845-1.415-4.309-3.42c-0.464-2.005,0.518-4.064,2.367-4.966l26.483-13.241
			C148.736,229.677,149.398,229.527,150.069,229.517z"/>
		<path style="fill:#FFFFFF;" d="M99.046,264.386l-17.655,8.828c-0.609,0.281-1.271,0.431-1.942,0.441v-9.357l15.713-7.857
			c2.19-1.05,4.818-0.137,5.885,2.045C102.113,260.669,101.219,263.303,99.046,264.386L99.046,264.386z"/>
		<path style="fill:#FFFFFF;" d="M116.701,220.248l-35.31,17.655c-0.609,0.281-1.271,0.431-1.942,0.441v-9.357l33.368-16.684
			c2.19-1.05,4.818-0.137,5.885,2.045C119.768,216.531,118.875,219.165,116.701,220.248L116.701,220.248z"/>
	</g>
	<polygon style="fill:#CBB292;" points="459.034,123.586 300.138,203.034 52.966,79.448 211.862,0 	"/>
	<polygon style="fill:#805333;" points="459.034,123.586 459.034,432.552 300.138,512 300.138,203.034 	"/>
	<path style="fill:#BDC3C7;" d="M176.552,141.241v300.138l-3.531,7.062L300.138,512V203.034L176.552,141.241z M273.655,441.379
		l-70.621-35.31V194.207l70.621,35.31V441.379z"/>
	<path style="fill:#464F5D;" d="M123.586,392.828c-0.685-0.001-1.361-0.16-1.974-0.465l-17.655-8.828
		c-1.414-0.703-2.346-2.108-2.441-3.685c-0.096-1.577,0.658-3.084,1.977-3.954c1.319-0.869,3.002-0.968,4.413-0.258l17.655,8.828
		c1.831,0.915,2.793,2.97,2.323,4.962C127.413,391.421,125.634,392.828,123.586,392.828z"/>
	<g>
		<path style="fill:#FFFFFF;" d="M273.125,229.252c-0.402,0.875-1.086,1.59-1.942,2.03l-22.069,11.034
			c-0.609,0.281-1.271,0.431-1.942,0.441c-2.058,0.003-3.845-1.415-4.309-3.42c-0.464-2.005,0.518-4.064,2.367-4.966l19.067-9.534
			L273.125,229.252z"/>
		<path style="fill:#FFFFFF;" d="M222.632,255.559l-17.655,8.828c-0.609,0.281-1.271,0.431-1.942,0.441v-9.357l15.713-7.857
			c2.19-1.05,4.818-0.137,5.885,2.045C225.699,251.841,224.806,254.476,222.632,255.559L222.632,255.559z"/>
		<path style="fill:#FFFFFF;" d="M273.655,256v9.357l-15.713,7.857c-0.609,0.281-1.271,0.431-1.942,0.441
			c-2.058,0.003-3.845-1.415-4.309-3.42c-0.464-2.005,0.518-4.064,2.367-4.966l17.655-8.828
			C272.322,256.16,272.984,256.01,273.655,256L273.655,256z"/>
		<path style="fill:#FFFFFF;" d="M273.655,291.31v9.357l-24.541,12.27c-0.609,0.281-1.271,0.431-1.942,0.441
			c-2.058,0.003-3.845-1.415-4.309-3.42s0.518-4.064,2.367-4.966l26.483-13.241C272.322,291.47,272.984,291.32,273.655,291.31
			L273.655,291.31z"/>
		<path style="fill:#FFFFFF;" d="M222.632,326.179l-17.655,8.828c-0.609,0.281-1.271,0.431-1.942,0.441v-9.357l15.713-7.857
			c2.19-1.05,4.818-0.137,5.885,2.045C225.699,322.462,224.806,325.096,222.632,326.179L222.632,326.179z"/>
		<path style="fill:#FFFFFF;" d="M240.287,282.041l-35.31,17.655c-0.609,0.281-1.271,0.431-1.942,0.441v-9.357l33.368-16.684
			c2.19-1.05,4.818-0.137,5.885,2.045C243.354,278.324,242.461,280.958,240.287,282.041L240.287,282.041z"/>
	</g>
	<path style="fill:#464F5D;" d="M247.172,454.621c-0.685-0.001-1.361-0.16-1.974-0.465l-17.655-8.828
		c-2.174-1.094-3.053-3.741-1.965-5.918c1.088-2.177,3.734-3.062,5.913-1.979l17.655,8.828c1.831,0.915,2.793,2.97,2.323,4.962
		C250.999,453.214,249.22,454.621,247.172,454.621z"/>
</g>
<g>
</g>
<g>
</g>
<g>
</g>
<g>
</g>
<g>
</g>
<g>
</g>
<g>
</g>
<g>
</g>
<g>
</g>
<g>
</g>
<g>
</g>
<g>
</g>
<g>
</g>
<g>
</g>
<g>
</g>
</svg>
