<?xml version="1.0" encoding="iso-8859-1"?>
<!-- Generator: Adobe Illustrator 19.0.0, SVG Export Plug-In . SVG Version: 6.00 Build 0)  -->
<svg version="1.1" id="Capa_1" xmlns="http://www.w3.org/2000/svg" xmlns:xlink="http://www.w3.org/1999/xlink" x="0px" y="0px"
	 viewBox="0 0 512 512" style="enable-background:new 0 0 512 512;" xml:space="preserve">
<g>
	<polygon style="fill:#CBB292;" points="494.345,220.69 459.034,238.345 17.655,17.655 52.966,0 	"/>
	<path style="fill:#CB8252;" d="M17.655,17.655V291.31L459.034,512V238.345L17.655,17.655z M423.724,459.034L52.966,273.655V70.621
		L423.724,256V459.034z"/>
	<polygon style="fill:#805333;" points="70.621,79.448 70.621,264.828 52.966,273.655 52.966,70.621 	"/>
	<path style="fill:#E4C05C;" d="M70.621,79.448v185.379l353.103,176.552V256L70.621,79.448z M150.069,282.483l-35.31-17.655V220.69
		l35.31,17.655V282.483z M158.897,220.69l-52.966-26.483v-70.621l52.966,26.483V220.69z M256,326.621l-70.621-35.31V167.724
		L256,203.034V326.621z M326.621,361.931l-35.31-17.655V291.31l35.31,17.655V361.931z M326.621,282.483l-35.31-17.655v-52.966
		l35.31,17.655V282.483z M397.241,361.931l-52.966-26.483v-70.621l52.966,26.483V361.931z"/>
	<polygon style="fill:#805333;" points="494.345,220.69 494.345,494.345 459.034,512 459.034,238.345 	"/>
	<polygon style="fill:#CBB292;" points="423.724,441.379 423.724,459.034 52.966,273.655 70.621,264.828 	"/>
	<g>
		<polygon style="fill:#FFFFFF;" points="158.897,150.069 158.897,220.69 105.931,194.207 105.931,123.586 		"/>
		<polygon style="fill:#FFFFFF;" points="397.241,291.31 397.241,361.931 344.276,335.448 344.276,264.828 		"/>
		<polygon style="fill:#FFFFFF;" points="256,203.034 256,326.621 185.379,291.31 185.379,167.724 		"/>
		<polygon style="fill:#FFFFFF;" points="326.621,229.517 326.621,282.483 291.31,264.828 291.31,211.862 		"/>
		<polygon style="fill:#FFFFFF;" points="150.069,238.345 150.069,282.483 114.759,264.828 114.759,220.69 		"/>
		<polygon style="fill:#FFFFFF;" points="326.621,308.966 326.621,361.931 291.31,344.276 291.31,291.31 		"/>
	</g>
	<g>
		<path style="fill:#464F5D;" d="M141.241,172.138c-0.685-0.001-1.361-0.16-1.974-0.465l-17.655-8.828
			c-1.414-0.703-2.346-2.108-2.441-3.685c-0.096-1.577,0.658-3.084,1.977-3.954c1.319-0.869,3.002-0.968,4.413-0.258l17.655,8.828
			c1.831,0.915,2.793,2.97,2.323,4.962C145.068,170.731,143.289,172.138,141.241,172.138z"/>
		<path style="fill:#464F5D;" d="M141.241,189.793c-0.685-0.001-1.361-0.16-1.974-0.465l-17.655-8.828
			c-1.414-0.703-2.346-2.108-2.441-3.685c-0.096-1.577,0.658-3.084,1.977-3.954c1.319-0.869,3.002-0.968,4.413-0.258l17.655,8.828
			c1.831,0.915,2.793,2.97,2.323,4.962C145.068,188.386,143.289,189.794,141.241,189.793z"/>
		<path style="fill:#464F5D;" d="M379.586,313.379c-0.685-0.001-1.361-0.16-1.974-0.465l-17.655-8.828
			c-1.415-0.703-2.346-2.108-2.441-3.685c-0.096-1.577,0.658-3.084,1.977-3.954c1.319-0.869,3.002-0.968,4.413-0.258l17.655,8.828
			c1.831,0.915,2.793,2.97,2.323,4.962C383.413,311.972,381.634,313.38,379.586,313.379z"/>
		<path style="fill:#464F5D;" d="M379.586,331.034c-0.685-0.001-1.361-0.16-1.974-0.465l-17.655-8.828
			c-1.415-0.703-2.346-2.108-2.441-3.685c-0.096-1.577,0.658-3.084,1.977-3.954c1.319-0.869,3.002-0.968,4.413-0.258l17.655,8.828
			c1.831,0.915,2.793,2.97,2.323,4.962C383.413,329.628,381.634,331.035,379.586,331.034L379.586,331.034z"/>
		<path style="fill:#464F5D;" d="M238.345,220.69c-0.685-0.001-1.361-0.16-1.974-0.465l-35.31-17.655
			c-2.174-1.094-3.053-3.741-1.965-5.918c1.088-2.177,3.734-3.062,5.913-1.979l35.31,17.655c1.831,0.915,2.793,2.97,2.323,4.962
			C242.171,219.283,240.392,220.69,238.345,220.69z"/>
		<path style="fill:#464F5D;" d="M238.345,242.759c-0.685-0.001-1.361-0.16-1.974-0.465l-35.31-17.655
			c-2.174-1.094-3.053-3.741-1.965-5.918c1.088-2.177,3.734-3.062,5.913-1.979l35.31,17.655c1.831,0.915,2.793,2.97,2.323,4.962
			S240.392,242.759,238.345,242.759z"/>
		<path style="fill:#464F5D;" d="M238.345,269.241c-0.685-0.001-1.361-0.16-1.974-0.465l-35.31-17.655
			c-2.174-1.094-3.053-3.741-1.965-5.918c1.088-2.177,3.734-3.062,5.913-1.979l35.31,17.655c1.831,0.915,2.793,2.97,2.323,4.962
			S240.392,269.242,238.345,269.241z"/>
		<path style="fill:#464F5D;" d="M238.345,295.724c-0.685-0.001-1.361-0.16-1.974-0.465l-35.31-17.655
			c-2.174-1.094-3.053-3.741-1.965-5.918c1.088-2.177,3.734-3.062,5.913-1.979l35.31,17.655c1.831,0.915,2.793,2.97,2.323,4.962
			S240.392,295.725,238.345,295.724z"/>
		<path style="fill:#464F5D;" d="M308.966,242.759c-0.58,0.01-1.154-0.111-1.681-0.353c-0.552-0.188-1.042-0.525-1.414-0.974
			c-0.856-0.796-1.335-1.918-1.319-3.087c-0.012-0.579,0.109-1.152,0.353-1.677c0.183-0.552,0.518-1.042,0.966-1.414
			c0.372-0.448,0.862-0.784,1.414-0.97c1.074-0.444,2.28-0.444,3.353,0c0.553,0.184,1.043,0.52,1.414,0.97
			c0.448,0.374,0.784,0.863,0.974,1.414c0.245,0.524,0.366,1.098,0.354,1.677c0.016,1.171-0.466,2.293-1.328,3.086
			c-0.37,0.451-0.86,0.789-1.414,0.974C310.114,242.647,309.542,242.768,308.966,242.759L308.966,242.759z"/>
		<path style="fill:#464F5D;" d="M132.414,251.586c-0.58,0.01-1.154-0.111-1.681-0.353c-0.552-0.188-1.042-0.525-1.414-0.974
			c-0.842-0.806-1.319-1.922-1.319-3.088s0.476-2.282,1.319-3.088c0.372-0.448,0.862-0.784,1.414-0.97
			c1.638-0.675,3.523-0.292,4.767,0.97c1.234,1.261,1.598,3.136,0.927,4.768C135.756,250.482,134.178,251.558,132.414,251.586z"/>
		<path style="fill:#464F5D;" d="M308.966,322.207c-0.58,0.01-1.154-0.111-1.681-0.353c-0.552-0.188-1.042-0.525-1.414-0.974
			c-0.856-0.797-1.335-1.918-1.319-3.087c-0.012-0.579,0.109-1.152,0.353-1.677c0.183-0.552,0.518-1.042,0.966-1.414
			c1.236-1.276,3.13-1.662,4.767-0.97c0.553,0.184,1.043,0.52,1.414,0.97c0.448,0.374,0.784,0.863,0.974,1.414
			c0.245,0.524,0.366,1.098,0.354,1.677c0.016,1.171-0.466,2.293-1.328,3.086c-0.37,0.451-0.86,0.789-1.414,0.974
			C310.114,322.096,309.542,322.216,308.966,322.207L308.966,322.207z"/>
	</g>
</g>
<g>
</g>
<g>
</g>
<g>
</g>
<g>
</g>
<g>
</g>
<g>
</g>
<g>
</g>
<g>
</g>
<g>
</g>
<g>
</g>
<g>
</g>
<g>
</g>
<g>
</g>
<g>
</g>
<g>
</g>
</svg>
