<?xml version="1.0" encoding="iso-8859-1"?>
<!-- Generator: Adobe Illustrator 19.0.0, SVG Export Plug-In . SVG Version: 6.00 Build 0)  -->
<svg version="1.1" id="Capa_1" xmlns="http://www.w3.org/2000/svg" xmlns:xlink="http://www.w3.org/1999/xlink" x="0px" y="0px"
	 viewBox="0 0 512 512" style="enable-background:new 0 0 512 512;" xml:space="preserve">
<g>
	<polygon style="fill:#805333;" points="105.931,13.241 0,66.207 0,295.724 406.069,498.759 512,445.793 512,216.276 	"/>
	<path style="fill:#CB8252;" d="M0,66.207v229.517l406.069,203.034V269.241L0,66.207z M97.103,313.379l-70.621-35.31v-70.621
		l70.621,35.31V313.379z M97.103,225.103l-70.621-35.31v-79.448l70.621,35.31V225.103z M194.207,361.931l-79.448-39.724v-70.621
		l79.448,39.724V361.931z M194.207,273.655l-79.448-39.724v-79.448l79.448,39.724V273.655z M282.483,406.069l-70.621-35.31v-70.621
		l70.621,35.31V406.069z M282.483,317.793l-70.621-35.31v-79.448l70.621,35.31V317.793z M379.586,454.621l-79.448-39.724v-70.621
		L379.586,384V454.621z M379.586,366.345l-79.448-39.724v-79.448l79.448,39.724V366.345z"/>
	<polygon style="fill:#A5A5A4;" points="194.207,291.31 194.207,361.931 114.759,322.207 185.379,286.897 	"/>
	<polygon style="fill:#59474E;" points="185.379,286.897 114.759,322.207 114.759,251.586 	"/>
	<polygon style="fill:#A5A5A4;" points="97.103,242.759 97.103,313.379 26.483,278.069 	"/>
	<polygon style="fill:#59474E;" points="97.103,242.759 26.483,278.069 26.483,207.448 	"/>
	<polygon style="fill:#A5A5A4;" points="97.103,154.483 97.103,225.103 26.483,189.793 	"/>
	<polygon style="fill:#59474E;" points="97.103,145.655 97.103,154.483 26.483,189.793 26.483,110.345 	"/>
	<g>
		<polygon style="fill:#A5A5A4;" points="194.207,194.207 194.207,273.655 114.759,233.931 		"/>
		<polygon style="fill:#A5A5A4;" points="282.483,335.448 282.483,406.069 211.862,370.759 		"/>
	</g>
	<polygon style="fill:#59474E;" points="282.483,335.448 211.862,370.759 211.862,300.138 	"/>
	<polygon style="fill:#A5A5A4;" points="379.586,384 379.586,454.621 300.138,414.897 370.759,379.586 	"/>
	<polygon style="fill:#59474E;" points="370.759,379.586 300.138,414.897 300.138,344.276 	"/>
	<polygon style="fill:#A5A5A4;" points="379.586,286.897 379.586,366.345 300.138,326.621 	"/>
	<polygon style="fill:#CBB292;" points="512,216.276 406.069,269.241 0,66.207 105.931,13.241 	"/>
	<polygon style="fill:#59474E;" points="282.483,238.345 282.483,247.172 211.862,282.483 211.862,203.034 	"/>
	<polygon style="fill:#A5A5A4;" points="282.483,247.172 282.483,317.793 211.862,282.483 	"/>
	<g>
		<polygon style="fill:#59474E;" points="194.207,194.207 114.759,233.931 114.759,154.483 		"/>
		<polygon style="fill:#59474E;" points="379.586,286.897 300.138,326.621 300.138,247.172 		"/>
	</g>
</g>
<g>
</g>
<g>
</g>
<g>
</g>
<g>
</g>
<g>
</g>
<g>
</g>
<g>
</g>
<g>
</g>
<g>
</g>
<g>
</g>
<g>
</g>
<g>
</g>
<g>
</g>
<g>
</g>
<g>
</g>
</svg>
