<?xml version="1.0" encoding="iso-8859-1"?>
<!-- Generator: Adobe Illustrator 19.0.0, SVG Export Plug-In . SVG Version: 6.00 Build 0)  -->
<svg version="1.1" id="Capa_1" xmlns="http://www.w3.org/2000/svg" xmlns:xlink="http://www.w3.org/1999/xlink" x="0px" y="0px"
	 viewBox="0 0 512 512" style="enable-background:new 0 0 512 512;" xml:space="preserve">
<g>
	<polygon style="fill:#805333;" points="348.69,7.724 0,182.069 0,385.103 0,424.828 17.655,433.655 35.31,424.828 35.31,402.759 
		141.241,455.724 141.241,495.448 158.897,504.276 176.552,495.448 176.552,464.552 459.034,323.31 459.034,345.379 476.69,354.207 
		494.345,345.379 494.345,305.655 512,296.828 512,93.793 512,89.379 	"/>
	<polygon style="fill:#CBB292;" points="512,89.379 512,93.793 167.724,265.931 0,182.069 348.69,7.724 	"/>
	<g>
		<polygon style="fill:#D1D4D1;" points="141.241,288 141.241,349.793 26.483,292.414 26.483,230.621 		"/>
		<polygon style="fill:#D1D4D1;" points="141.241,367.448 141.241,429.241 26.483,371.862 26.483,310.069 		"/>
	</g>
	<path style="fill:#CB8252;" d="M0,182.069v203.034l167.724,83.862V265.931L0,182.069z M141.241,429.241L26.483,371.862v-61.793
		l114.759,57.379V429.241z M141.241,349.793L26.483,292.414v-61.793L141.241,288V349.793z"/>
	<g>
		<path style="fill:#464F5D;" d="M97.099,288c-0.684-0.001-1.358-0.16-1.97-0.465l-17.655-8.828
			c-1.414-0.703-2.346-2.108-2.441-3.685c-0.096-1.577,0.658-3.084,1.977-3.954c1.319-0.869,3.002-0.968,4.413-0.258l17.655,8.828
			c1.832,0.916,2.794,2.971,2.322,4.965C100.928,286.596,99.147,288.003,97.099,288L97.099,288z"/>
		<path style="fill:#464F5D;" d="M97.099,367.448c-0.684-0.001-1.358-0.16-1.97-0.465l-17.655-8.828
			c-1.414-0.703-2.346-2.108-2.441-3.685c-0.096-1.577,0.658-3.084,1.977-3.954c1.319-0.869,3.002-0.968,4.413-0.258l17.655,8.828
			c1.832,0.916,2.794,2.971,2.322,4.965C100.928,366.044,99.147,367.451,97.099,367.448L97.099,367.448z"/>
	</g>
	<polygon style="fill:#A5A5A4;" points="17.655,393.931 17.655,433.655 0,424.828 0,385.103 	"/>
	<polygon style="fill:#5E5F62;" points="35.31,402.759 35.31,424.828 17.655,433.655 17.655,393.931 	"/>
	<polygon style="fill:#A5A5A4;" points="158.897,464.552 158.897,504.276 141.241,495.448 141.241,455.724 	"/>
	<g>
		<polygon style="fill:#5E5F62;" points="176.552,464.552 176.552,495.448 158.897,504.276 158.897,464.552 167.724,468.966 		"/>
		<polygon style="fill:#5E5F62;" points="494.345,305.655 494.345,345.379 476.69,354.207 476.69,314.483 		"/>
	</g>
	<polygon style="fill:#A5A5A4;" points="476.69,314.483 476.69,354.207 459.034,345.379 459.034,323.31 	"/>
</g>
<g>
</g>
<g>
</g>
<g>
</g>
<g>
</g>
<g>
</g>
<g>
</g>
<g>
</g>
<g>
</g>
<g>
</g>
<g>
</g>
<g>
</g>
<g>
</g>
<g>
</g>
<g>
</g>
<g>
</g>
</svg>
