<?xml version="1.0" encoding="iso-8859-1"?>
<!-- Generator: Adobe Illustrator 19.0.0, SVG Export Plug-In . SVG Version: 6.00 Build 0)  -->
<svg version="1.1" id="Capa_1" xmlns="http://www.w3.org/2000/svg" xmlns:xlink="http://www.w3.org/1999/xlink" x="0px" y="0px"
	 viewBox="0 0 512 512" style="enable-background:new 0 0 512 512;" xml:space="preserve">
<g>
	<polygon style="fill:#805333;" points="247.172,366.345 247.172,377.468 205.33,398.389 205.241,398.389 185.379,388.414 
		238.345,361.931 	"/>
	<polygon style="fill:#AF8066;" points="273.655,8.828 273.655,185.379 256,194.207 238.345,185.379 238.345,8.828 256,0 	"/>
	<polygon style="fill:#805333;" points="238.345,35.31 238.345,97.103 132.414,150.069 132.414,88.276 	"/>
	<polygon style="fill:#CBB292;" points="414.897,256 256,335.448 123.586,269.241 132.414,264.828 132.414,238.345 238.345,185.379 
		256,194.207 273.655,185.379 	"/>
	<polygon style="fill:#805333;" points="414.897,256 414.897,282.483 256,361.931 256,335.448 	"/>
	<g>
		<polygon style="fill:#AF8066;" points="414.897,282.483 414.897,432.552 397.241,441.379 379.586,432.552 379.586,300.138 		"/>
		<polygon style="fill:#AF8066;" points="256,335.448 256,361.931 249.379,358.665 238.345,353.103 123.586,295.724 
			123.586,269.241 		"/>
	</g>
	<g>
		<polygon style="fill:#CB8252;" points="273.655,353.103 273.655,503.172 256,512 238.345,503.172 238.345,353.103 
			249.379,358.665 256,361.931 		"/>
		<polygon style="fill:#CB8252;" points="132.414,79.448 132.414,264.828 123.586,269.241 123.586,295.724 132.414,300.138 
			132.414,353.103 114.759,361.931 114.759,388.414 132.414,397.241 132.414,432.552 114.759,441.379 97.103,432.552 97.103,79.448 
			114.759,70.621 		"/>
	</g>
	<g>
		<polygon style="fill:#AF8066;" points="238.345,423.724 238.345,450.207 114.759,388.414 114.759,361.931 132.414,370.759 
			163.84,386.472 189.352,399.272 		"/>
		<polygon style="fill:#AF8066;" points="379.586,353.103 379.586,379.586 300.138,339.862 326.621,326.621 		"/>
	</g>
	<g>
		<polygon style="fill:#CBB292;" points="379.586,335.448 379.586,353.103 326.621,326.621 344.276,317.793 		"/>
		<polygon style="fill:#CBB292;" points="238.345,406.069 238.345,423.724 189.352,399.272 163.84,386.472 132.414,370.759 
			114.759,361.931 132.414,353.103 176.552,375.172 196.414,385.148 196.502,385.148 		"/>
		<polygon style="fill:#CBB292;" points="238.345,353.103 238.345,364.226 196.502,385.148 196.414,385.148 176.552,375.172 
			229.517,348.69 		"/>
	</g>
</g>
<g>
</g>
<g>
</g>
<g>
</g>
<g>
</g>
<g>
</g>
<g>
</g>
<g>
</g>
<g>
</g>
<g>
</g>
<g>
</g>
<g>
</g>
<g>
</g>
<g>
</g>
<g>
</g>
<g>
</g>
</svg>
