<?xml version="1.0" encoding="iso-8859-1"?>
<!-- Generator: Adobe Illustrator 19.0.0, SVG Export Plug-In . SVG Version: 6.00 Build 0)  -->
<svg version="1.1" id="Capa_1" xmlns="http://www.w3.org/2000/svg" xmlns:xlink="http://www.w3.org/1999/xlink" x="0px" y="0px"
	 viewBox="0 0 512 512" style="enable-background:new 0 0 512 512;" xml:space="preserve">
<g>
	<polygon style="fill:#805333;" points="481.103,196.414 448.265,212.833 370.935,174.257 335.625,156.601 247.261,112.552 
		203.034,90.483 203.034,19.862 167.724,2.207 0,86.069 0,337.655 35.31,355.31 123.586,399.448 203.034,439.172 308.966,492.138 
		344.276,509.793 512,425.931 512,216.276 512,211.862 	"/>
	<polygon style="fill:#BDC3C7;" points="79.448,196.679 79.448,220.69 78.566,222.455 35.31,200.828 35.31,174.698 	"/>
	<polygon style="fill:#67B9CC;" points="448.265,212.833 308.966,282.483 308.966,311.172 295.724,304.552 295.636,304.552 
		203.034,258.383 203.034,258.207 370.935,174.257 	"/>
	<polygon style="fill:#4482C3;" points="370.935,174.257 203.034,258.207 203.034,258.383 167.724,240.728 167.724,240.552 
		335.625,156.601 	"/>
	<path style="fill:#D1D4D1;" d="M335.625,156.601l-167.901,83.95v0.177l-88.276-44.05v-0.265l27.19-13.594
		c7.021,6.004,14.907,10.914,23.392,14.566c18.891,8.298,36.811,10.152,42.461,4.59h0.088l83.067-44.756
		c2.913-6.709-11.564-19.597-32.397-28.866c-1.412-0.618-2.825-1.236-4.149-1.766l28.16-14.036L335.625,156.601z"/>
	<polygon style="fill:#CBB292;" points="203.034,19.862 35.31,103.724 0,86.069 167.724,2.207 	"/>
	<path style="fill:#41767F;" d="M173.903,200.121c-0.338,0.685-0.785,1.311-1.323,1.854h-0.088c-5.65,5.561-23.57,3.708-42.461-4.59
		c-8.486-3.651-16.372-8.562-23.392-14.566c-6.621-6.003-9.976-11.917-8.123-16.154c0.952-1.801,2.566-3.161,4.502-3.796
		c7.681-2.913,23.218-0.618,39.372,6.532C163.222,178.67,177.347,192.353,173.903,200.121z"/>
	<polygon style="fill:#285680;" points="203.034,258.383 203.034,282.483 202.152,284.248 166.841,266.593 167.724,264.828 
		167.724,240.728 	"/>
	<polygon style="fill:#A5A5A4;" points="167.724,240.728 167.724,264.828 166.841,266.593 78.566,222.455 79.448,220.69 
		79.448,196.679 	"/>
	<path style="fill:#67B9CC;" d="M255.647,157.219l-83.068,44.756c0.538-0.543,0.985-1.169,1.323-1.854
		c3.444-7.768-10.681-21.451-31.514-30.72c-16.154-7.15-31.691-9.446-39.372-6.532l-0.088-0.177l85.453-42.814
		c10.586,0.152,21.034,2.434,30.72,6.709c1.323,0.53,2.736,1.148,4.149,1.766C244.083,137.622,258.56,150.51,255.647,157.219z"/>
	<path style="fill:#ECF0F1;" d="M247.261,112.552l-28.159,14.036c-9.686-4.275-20.134-6.557-30.72-6.709l-85.453,42.814l0.088,0.177
		c-1.936,0.635-3.55,1.995-4.502,3.796c-1.854,4.237,1.502,10.152,8.123,16.154l-27.189,13.594v0.265L35.31,174.698v-0.353
		l167.724-83.862L247.261,112.552z"/>
	<polygon style="fill:#CB8252;" points="344.276,300.138 344.276,509.793 308.966,492.138 308.966,377.379 35.31,240.552 
		35.31,355.31 0,337.655 0,86.069 35.31,103.724 35.31,200.828 308.966,337.655 308.966,282.483 	"/>
	<polygon style="fill:#D1D4D1;" points="308.966,377.379 308.966,492.138 203.034,439.172 203.034,324.414 	"/>
	<polygon style="fill:#5E5F62;" points="203.034,377.379 203.034,439.172 123.586,399.448 123.586,390.621 176.552,364.138 	"/>
	<polygon style="fill:#D1D4D1;" points="123.586,284.69 123.586,399.448 35.31,355.31 35.31,240.552 	"/>
	<polygon style="fill:#41767F;" points="308.966,311.172 308.966,337.655 202.152,284.248 203.034,282.483 203.034,258.383 
		295.636,304.552 295.724,304.552 	"/>
	<polygon style="fill:#59474E;" points="176.552,364.138 123.586,390.621 123.586,337.655 	"/>
	<path style="fill:#464F5D;" d="M220.69,381.793c-1.171,0.001-2.294-0.464-3.122-1.292c-0.828-0.828-1.293-1.951-1.292-3.122
		v-17.655c0-2.438,1.976-4.414,4.414-4.414s4.414,1.976,4.414,4.414v17.655c0.001,1.171-0.464,2.294-1.292,3.122
		C222.984,381.329,221.86,381.794,220.69,381.793L220.69,381.793z"/>
	<polygon style="fill:#59474E;" points="176.552,311.172 123.586,337.655 123.586,284.69 	"/>
	<path style="fill:#464F5D;" d="M105.931,320c-1.171,0.001-2.294-0.464-3.122-1.292c-0.828-0.828-1.293-1.951-1.292-3.122v-17.655
		c0-2.438,1.976-4.414,4.414-4.414c2.438,0,4.414,1.976,4.414,4.414v17.655c0.001,1.171-0.464,2.294-1.292,3.122
		C108.225,319.536,107.102,320.001,105.931,320z"/>
	<polygon style="fill:#A5A5A4;" points="203.034,324.414 203.034,377.379 123.586,337.655 176.552,311.172 	"/>
	<polygon style="fill:#CBB292;" points="512,211.862 512,216.276 344.276,300.138 308.966,282.483 481.103,196.414 	"/>
</g>
<g>
</g>
<g>
</g>
<g>
</g>
<g>
</g>
<g>
</g>
<g>
</g>
<g>
</g>
<g>
</g>
<g>
</g>
<g>
</g>
<g>
</g>
<g>
</g>
<g>
</g>
<g>
</g>
<g>
</g>
</svg>
