<?xml version="1.0" encoding="iso-8859-1"?>
<!-- Generator: Adobe Illustrator 19.0.0, SVG Export Plug-In . SVG Version: 6.00 Build 0)  -->
<svg version="1.1" id="Capa_1" xmlns="http://www.w3.org/2000/svg" xmlns:xlink="http://www.w3.org/1999/xlink" x="0px" y="0px"
	 viewBox="0 0 512 512" style="enable-background:new 0 0 512 512;" xml:space="preserve">
<g>
	<path style="fill:#CBB292;" d="M256,0L79.448,88.276v35.31l17.655,8.828v300.138l35.31,17.655l35.31-17.655v-88.276l52.966,26.483
		v123.586L256,512l35.31-17.655V370.759l52.966-26.483v88.276l35.31,17.655l35.31-17.655V132.414l17.655-8.828v-35.31L256,0z
		 M344.276,273.655l-52.966,26.483V194.207l52.966-26.483V273.655z M220.69,300.138l-52.966-26.483V167.724l52.966,26.483V300.138z"
		/>
	<polygon style="fill:#805333;" points="432.552,88.276 432.552,123.586 256,211.862 256,176.552 	"/>
	<polygon style="fill:#CB8252;" points="256,176.552 256,211.862 79.448,123.586 79.448,88.276 	"/>
	<polygon style="fill:#AF8066;" points="132.414,150.069 132.414,450.207 97.103,432.552 97.103,132.414 	"/>
	<polygon style="fill:#59474E;" points="414.897,132.414 414.897,432.552 379.586,450.207 379.586,150.069 	"/>
	<g>
		<polygon style="fill:#AF8066;" points="379.586,150.069 379.586,291.31 344.276,273.655 344.276,167.724 		"/>
		<polygon style="fill:#AF8066;" points="256,211.862 256,512 220.69,494.345 220.69,194.207 		"/>
	</g>
	<g>
		<polygon style="fill:#59474E;" points="291.31,194.207 291.31,494.345 256,512 256,211.862 		"/>
		<polygon style="fill:#59474E;" points="167.724,167.724 167.724,273.655 132.414,291.31 132.414,150.069 		"/>
		<polygon style="fill:#59474E;" points="167.724,344.276 167.724,432.552 132.414,450.207 132.414,326.621 		"/>
	</g>
	<polygon style="fill:#CBB292;" points="220.69,300.138 220.69,335.448 132.414,291.31 167.724,273.655 	"/>
	<polygon style="fill:#CB8252;" points="220.69,335.448 220.69,370.759 132.414,326.621 132.414,291.31 	"/>
	<polygon style="fill:#AF8066;" points="379.586,326.621 379.586,450.207 344.276,432.552 344.276,344.276 	"/>
	<polygon style="fill:#805333;" points="379.586,291.31 379.586,326.621 291.31,370.759 291.31,335.448 	"/>
	<polygon style="fill:#CBB292;" points="379.586,291.31 291.31,335.448 291.31,300.138 344.276,273.655 	"/>
</g>
<g>
</g>
<g>
</g>
<g>
</g>
<g>
</g>
<g>
</g>
<g>
</g>
<g>
</g>
<g>
</g>
<g>
</g>
<g>
</g>
<g>
</g>
<g>
</g>
<g>
</g>
<g>
</g>
<g>
</g>
</svg>
