<?xml version="1.0" encoding="iso-8859-1"?>
<!-- Generator: Adobe Illustrator 19.0.0, SVG Export Plug-In . SVG Version: 6.00 Build 0)  -->
<svg version="1.1" id="Capa_1" xmlns="http://www.w3.org/2000/svg" xmlns:xlink="http://www.w3.org/1999/xlink" x="0px" y="0px"
	 viewBox="0 0 512 512" style="enable-background:new 0 0 512 512;" xml:space="preserve">
<g>
	<path style="fill:#59474E;" d="M141.241,17.66L0,88.281V273.66c0.024,12.231,6.365,23.582,16.768,30.014s23.391,7.033,34.344,1.589
		l105.931-52.966c11.936-6.019,19.477-18.235,19.509-31.603V203.04l194.207,97.103V459.04c0.024,12.231,6.365,23.582,16.768,30.014
		s23.391,7.033,34.344,1.589l70.621-35.31c11.936-6.019,19.477-18.235,19.509-31.603V203.04L141.241,17.66z"/>
	<polygon style="fill:#CBB292;" points="512,203.04 370.759,273.66 0,88.281 141.241,17.66 	"/>
	<polygon style="fill:#805333;" points="512,203.04 512,229.522 370.759,300.143 370.759,273.66 	"/>
	<polygon style="fill:#CB8252;" points="370.759,273.66 370.759,300.143 0,114.764 0,88.281 	"/>
</g>
<g>
</g>
<g>
</g>
<g>
</g>
<g>
</g>
<g>
</g>
<g>
</g>
<g>
</g>
<g>
</g>
<g>
</g>
<g>
</g>
<g>
</g>
<g>
</g>
<g>
</g>
<g>
</g>
<g>
</g>
</svg>
