<?xml version="1.0" encoding="iso-8859-1"?>
<!-- Generator: Adobe Illustrator 19.0.0, SVG Export Plug-In . SVG Version: 6.00 Build 0)  -->
<svg version="1.1" id="Capa_1" xmlns="http://www.w3.org/2000/svg" xmlns:xlink="http://www.w3.org/1999/xlink" x="0px" y="0px"
	 viewBox="0 0 512 512" style="enable-background:new 0 0 512 512;" xml:space="preserve">
<g>
	<polygon style="fill:#CBB292;" points="141.241,0 0,70.621 0,97.103 0,326.621 176.552,238.345 176.552,414.897 370.759,512 
		512,441.379 512,211.862 512,185.379 	"/>
	<g>
		<polygon style="fill:#59474E;" points="176.552,185.379 176.552,238.345 0,326.621 0,97.103 		"/>
		<polygon style="fill:#59474E;" points="512,211.862 512,441.379 370.759,512 370.759,282.483 		"/>
	</g>
	<polygon style="fill:#805333;" points="512,185.379 512,211.862 370.759,282.483 370.759,256 	"/>
	<polygon style="fill:#CB8252;" points="370.759,256 370.759,282.483 0,97.103 0,70.621 	"/>
	<polygon style="fill:#D1D4D1;" points="344.276,308.966 344.276,388.414 203.034,317.793 203.034,238.345 	"/>
	<path style="fill:#AF8066;" d="M176.552,185.379v229.517L370.759,512V282.483L176.552,185.379z M344.276,459.034l-141.241-70.621
		V238.345l141.241,70.621V459.034z"/>
	<polygon style="fill:#A5A5A4;" points="344.276,388.414 344.276,459.034 203.034,388.414 203.034,317.793 	"/>
	<g>
		<path style="fill:#464F5D;" d="M264.828,308.966c-0.592-0.02-1.183-0.079-1.767-0.177c-0.553-0.098-1.089-0.277-1.591-0.53
			c-0.562-0.195-1.095-0.463-1.586-0.797c-0.444-0.349-0.884-0.703-1.323-1.056c-0.78-0.859-1.409-1.844-1.858-2.914
			c-0.451-1.061-0.69-2.201-0.703-3.354c-0.021-3.586,2.13-6.829,5.442-8.204c3.312-1.375,7.127-0.61,9.653,1.937
			c0.353,0.44,0.707,0.879,1.056,1.323c0.334,0.491,0.603,1.025,0.797,1.586c0.253,0.501,0.432,1.037,0.53,1.591
			c0.097,0.585,0.156,1.175,0.176,1.768c0.023,2.348-0.9,4.607-2.56,6.267C269.434,308.066,267.176,308.988,264.828,308.966
			L264.828,308.966z"/>
		<path style="fill:#464F5D;" d="M264.828,388.414c-2.337-0.035-4.575-0.949-6.268-2.56c-0.78-0.859-1.409-1.844-1.858-2.914
			c-0.451-1.061-0.69-2.201-0.702-3.354c-0.021-3.586,2.13-6.829,5.442-8.204c3.312-1.375,7.127-0.61,9.653,1.937
			c0.353,0.44,0.707,0.879,1.056,1.323c0.334,0.491,0.603,1.025,0.797,1.586c0.253,0.501,0.432,1.037,0.53,1.591
			c0.097,0.585,0.156,1.175,0.176,1.768c0.023,2.348-0.9,4.607-2.56,6.267C269.434,387.514,267.176,388.437,264.828,388.414
			L264.828,388.414z"/>
	</g>
</g>
<g>
</g>
<g>
</g>
<g>
</g>
<g>
</g>
<g>
</g>
<g>
</g>
<g>
</g>
<g>
</g>
<g>
</g>
<g>
</g>
<g>
</g>
<g>
</g>
<g>
</g>
<g>
</g>
<g>
</g>
</svg>
