<?xml version="1.0" encoding="iso-8859-1"?>
<!-- Generator: Adobe Illustrator 19.0.0, SVG Export Plug-In . SVG Version: 6.00 Build 0)  -->
<svg version="1.1" id="Capa_1" xmlns="http://www.w3.org/2000/svg" xmlns:xlink="http://www.w3.org/1999/xlink" x="0px" y="0px"
	 viewBox="0 0 512 512" style="enable-background:new 0 0 512 512;" xml:space="preserve">
<g>
	<polygon style="fill:#65DDB9;" points="481.103,190.852 414.897,224.044 414.808,224.044 344.276,188.734 344.276,175.492 
		203.034,104.872 203.034,51.906 203.034,47.492 172.138,31.956 114.759,60.734 70.621,38.665 35.31,56.32 35.31,100.458 0,118.113 
		0,259.354 0,307.906 35.31,325.561 79.448,303.492 81.214,299.961 308.966,413.837 308.966,462.389 344.276,480.044 
		379.586,462.389 379.586,413.837 441.379,382.941 441.379,396.182 476.69,413.837 512,396.182 512,347.63 512,210.803 512,206.389 
			"/>
	<polygon style="fill:#46B29D;" points="512,210.803 512,347.63 344.276,431.492 344.276,294.665 	"/>
	<polygon style="fill:#7ED09E;" points="308.966,193.148 308.966,413.837 81.214,299.961 35.31,277.01 35.31,56.32 	"/>
	<g>
		<polygon style="fill:#71C285;" points="344.276,294.665 344.276,431.492 308.966,413.837 308.966,277.01 		"/>
		<polygon style="fill:#71C285;" points="35.31,135.768 35.31,277.01 0,259.354 0,118.113 		"/>
	</g>
	<polygon style="fill:#A5A5A4;" points="35.31,277.01 35.31,325.561 0,307.906 0,259.354 	"/>
	<polygon style="fill:#5E5F62;" points="81.214,299.961 79.448,303.492 35.31,325.561 35.31,277.01 	"/>
	<polygon style="fill:#A5A5A4;" points="344.276,431.492 344.276,480.044 308.966,462.389 308.966,413.837 	"/>
	<polygon style="fill:#5E5F62;" points="379.586,413.837 379.586,462.389 344.276,480.044 344.276,431.492 	"/>
	<polygon style="fill:#A5A5A4;" points="476.69,365.286 476.69,413.837 441.379,396.182 441.379,382.941 	"/>
	<polygon style="fill:#5E5F62;" points="512,347.63 512,396.182 476.69,413.837 476.69,365.286 	"/>
	<g>
		<polygon style="fill:#46B29D;" points="344.276,175.492 344.276,259.354 308.966,277.01 308.966,193.148 		"/>
		<polygon style="fill:#46B29D;" points="203.034,51.906 203.034,104.872 150.069,78.389 		"/>
	</g>
</g>
<g>
</g>
<g>
</g>
<g>
</g>
<g>
</g>
<g>
</g>
<g>
</g>
<g>
</g>
<g>
</g>
<g>
</g>
<g>
</g>
<g>
</g>
<g>
</g>
<g>
</g>
<g>
</g>
<g>
</g>
</svg>
