<?xml version="1.0" encoding="iso-8859-1"?>
<!-- Generator: Adobe Illustrator 19.0.0, SVG Export Plug-In . SVG Version: 6.00 Build 0)  -->
<svg version="1.1" id="Capa_1" xmlns="http://www.w3.org/2000/svg" xmlns:xlink="http://www.w3.org/1999/xlink" x="0px" y="0px"
	 viewBox="0 0 512 512" style="enable-background:new 0 0 512 512;" xml:space="preserve">
<g>
	<polygon style="fill:#65DDB9;" points="485.517,220.69 485.517,132.414 397.241,88.276 308.966,44.138 220.69,0 167.724,26.483 
		167.724,66.207 0,150.069 0,291.31 0,339.862 35.31,357.517 79.448,335.448 81.214,331.917 308.966,445.793 308.966,494.345 
		344.276,512 379.586,494.345 379.586,445.793 441.379,414.897 441.379,428.138 476.69,445.793 512,428.138 512,379.586 
		512,242.759 512,238.345 	"/>
	<polygon style="fill:#46B29D;" points="512,242.759 512,379.586 344.276,463.448 344.276,326.621 	"/>
	<polygon style="fill:#5E5F62;" points="81.214,331.917 79.448,335.448 35.31,357.517 35.31,308.966 	"/>
	<polygon style="fill:#527F72;" points="308.966,406.069 308.966,445.793 81.214,331.917 35.31,308.966 35.31,269.241 	"/>
	<polygon style="fill:#7ED09E;" points="35.31,167.724 35.31,308.966 0,291.31 0,150.069 	"/>
	<polygon style="fill:#A5A5A4;" points="35.31,308.966 35.31,357.517 0,339.862 0,291.31 	"/>
	<polygon style="fill:#7ED09E;" points="344.276,326.621 344.276,463.448 308.966,445.793 308.966,308.966 	"/>
	<polygon style="fill:#A5A5A4;" points="344.276,463.448 344.276,512 308.966,494.345 308.966,445.793 	"/>
	<polygon style="fill:#5E5F62;" points="379.586,445.793 379.586,494.345 344.276,512 344.276,463.448 	"/>
	<polygon style="fill:#A5A5A4;" points="476.69,397.241 476.69,445.793 441.379,428.138 441.379,414.897 	"/>
	<polygon style="fill:#5E5F62;" points="512,379.586 512,428.138 476.69,445.793 476.69,397.241 	"/>
	<polygon style="fill:#7ED09E;" points="432.552,158.897 432.552,247.172 379.586,273.655 344.276,256 344.276,114.759 	"/>
	<g>
		<polygon style="fill:#46B29D;" points="485.517,220.69 485.517,132.414 432.552,158.897 432.552,247.172 		"/>
		<polygon style="fill:#46B29D;" points="167.724,101.517 167.724,167.724 35.31,233.931 35.31,167.724 		"/>
	</g>
	<g>
		<polygon style="fill:#7ED09E;" points="256,70.621 256,211.862 167.724,167.724 167.724,26.483 		"/>
		<polygon style="fill:#7ED09E;" points="344.276,114.759 344.276,256 256,211.862 256,70.621 		"/>
	</g>
	<polygon style="fill:#46B29D;" points="308.966,370.759 308.966,406.069 35.31,269.241 35.31,233.931 	"/>
</g>
<g>
</g>
<g>
</g>
<g>
</g>
<g>
</g>
<g>
</g>
<g>
</g>
<g>
</g>
<g>
</g>
<g>
</g>
<g>
</g>
<g>
</g>
<g>
</g>
<g>
</g>
<g>
</g>
<g>
</g>
</svg>
