<?xml version="1.0" encoding="iso-8859-1"?>
<!-- Generator: Adobe Illustrator 19.0.0, SVG Export Plug-In . SVG Version: 6.00 Build 0)  -->
<svg version="1.1" id="Capa_1" xmlns="http://www.w3.org/2000/svg" xmlns:xlink="http://www.w3.org/1999/xlink" x="0px" y="0px"
	 viewBox="0 0 512 512" style="enable-background:new 0 0 512 512;" xml:space="preserve">
<g>
	<polygon style="fill:#CBB292;" points="481.103,227.31 448.265,243.73 370.935,205.153 335.625,187.498 247.261,143.448 
		203.034,121.379 203.034,50.759 167.724,33.103 0,116.966 0,258.207 0,306.759 35.31,324.414 79.448,302.345 81.214,298.814 
		308.966,412.69 308.966,461.241 344.276,478.897 379.586,461.241 379.586,412.69 441.379,381.793 441.379,395.034 476.69,412.69 
		512,395.034 512,346.483 512,247.172 512,242.759 	"/>
	<polygon style="fill:#805333;" points="512,247.172 512,346.483 344.276,430.345 344.276,331.034 	"/>
	<polygon style="fill:#BDC3C7;" points="79.448,227.575 79.448,251.586 78.566,253.352 35.31,231.724 35.31,205.594 	"/>
	<polygon style="fill:#A5A5A4;" points="167.724,271.625 167.724,295.724 166.841,297.49 78.566,253.352 79.448,251.586 
		79.448,227.575 	"/>
	<polygon style="fill:#285680;" points="203.034,289.28 203.034,313.379 202.152,315.145 166.841,297.49 167.724,295.724 
		167.724,271.625 	"/>
	<polygon style="fill:#4482C3;" points="370.935,205.153 203.034,289.103 203.034,289.28 167.724,271.625 167.724,271.448 
		335.625,187.498 	"/>
	<path style="fill:#D1D4D1;" d="M335.625,187.498l-167.901,83.95v0.177l-88.276-44.05v-0.265l27.189-13.594
		c7.021,6.004,14.907,10.914,23.393,14.566c18.891,8.298,36.811,10.152,42.461,4.59h0.088l83.068-44.756
		c2.913-6.709-11.564-19.597-32.397-28.866c-1.412-0.618-2.825-1.236-4.149-1.766l28.16-14.036L335.625,187.498z"/>
	<path style="fill:#ECF0F1;" d="M247.261,143.448l-28.16,14.036c-9.686-4.275-20.134-6.557-30.72-6.709l-85.451,42.814l0.088,0.177
		c-1.936,0.634-3.55,1.995-4.502,3.796c-1.854,4.237,1.501,10.152,8.121,16.154L79.448,227.31v0.265L35.31,205.594v-0.353
		l167.724-83.862L247.261,143.448z"/>
	<g>
		<polygon style="fill:#67B9CC;" points="448.265,243.73 308.966,313.379 308.966,342.069 203.034,289.28 203.034,289.103 
			370.935,205.153 		"/>
		<path style="fill:#67B9CC;" d="M255.647,188.116l-83.068,44.756c0.539-0.542,0.986-1.168,1.324-1.854
			c3.443-7.768-10.681-21.451-31.514-30.72c-16.154-7.15-31.691-9.446-39.371-6.532l-0.088-0.177l85.451-42.814
			c10.586,0.152,21.034,2.434,30.72,6.709c1.324,0.53,2.737,1.148,4.149,1.766C244.083,168.519,258.56,181.407,255.647,188.116z"/>
	</g>
	<polygon style="fill:#5E5F62;" points="81.214,298.814 79.448,302.345 35.31,324.414 35.31,275.862 	"/>
	<polygon style="fill:#CB8252;" points="308.966,368.552 308.966,412.69 81.214,298.814 35.31,275.862 35.31,231.724 	"/>
	<polygon style="fill:#41767F;" points="308.966,342.069 308.966,368.552 202.152,315.145 203.034,313.379 203.034,289.28 	"/>
	<polygon style="fill:#CB8252;" points="344.276,331.034 344.276,430.345 308.966,412.69 308.966,313.379 	"/>
	<polygon style="fill:#805333;" points="203.034,50.759 203.034,121.379 35.31,205.241 35.31,134.621 	"/>
	<polygon style="fill:#CB8252;" points="35.31,134.621 35.31,275.862 0,258.207 0,116.966 	"/>
	<g>
		<polygon style="fill:#A5A5A4;" points="35.31,275.862 35.31,324.414 0,306.759 0,258.207 		"/>
		<polygon style="fill:#A5A5A4;" points="344.276,430.345 344.276,478.897 308.966,461.241 308.966,412.69 		"/>
	</g>
	<polygon style="fill:#5E5F62;" points="379.586,412.69 379.586,461.241 344.276,478.897 344.276,430.345 	"/>
	<polygon style="fill:#A5A5A4;" points="476.69,364.138 476.69,412.69 441.379,395.034 441.379,381.793 	"/>
	<polygon style="fill:#5E5F62;" points="512,346.483 512,395.034 476.69,412.69 476.69,364.138 	"/>
	<path style="fill:#41767F;" d="M173.903,231.018c-0.338,0.685-0.786,1.311-1.324,1.854h-0.088c-5.65,5.561-23.57,3.708-42.461-4.59
		c-8.486-3.651-16.372-8.562-23.393-14.566c-6.621-6.003-9.975-11.917-8.121-16.154c0.952-1.801,2.566-3.161,4.502-3.796
		c7.68-2.913,23.217-0.618,39.371,6.532C163.222,209.567,177.346,223.25,173.903,231.018z"/>
</g>
<g>
</g>
<g>
</g>
<g>
</g>
<g>
</g>
<g>
</g>
<g>
</g>
<g>
</g>
<g>
</g>
<g>
</g>
<g>
</g>
<g>
</g>
<g>
</g>
<g>
</g>
<g>
</g>
<g>
</g>
</svg>
