<?xml version="1.0" encoding="iso-8859-1"?>
<!-- Generator: Adobe Illustrator 19.0.0, SVG Export Plug-In . SVG Version: 6.00 Build 0)  -->
<svg version="1.1" id="Capa_1" xmlns="http://www.w3.org/2000/svg" xmlns:xlink="http://www.w3.org/1999/xlink" x="0px" y="0px"
	 viewBox="0 0 512 512" style="enable-background:new 0 0 512 512;" xml:space="preserve">
<g>
	<polygon style="fill:#CB8252;" points="105.931,13.241 0,66.207 0,295.724 406.069,498.759 512,445.793 512,216.276 	"/>
	<polygon style="fill:#805333;" points="512,216.276 512,445.793 406.069,498.759 406.069,269.241 	"/>
	<polygon style="fill:#CBB292;" points="512,216.276 406.069,269.241 0,66.207 105.931,13.241 	"/>
	<g>
		<polygon style="fill:#D1D4D1;" points="194.207,194.207 194.207,273.655 26.483,189.793 26.483,110.345 		"/>
		<polygon style="fill:#D1D4D1;" points="379.586,384 379.586,454.621 211.862,370.759 211.862,300.138 		"/>
	</g>
	<polygon style="fill:#A5A5A4;" points="379.586,286.897 379.586,366.345 211.862,282.483 291.31,242.759 	"/>
	<polygon style="fill:#59474E;" points="291.31,242.759 211.862,282.483 211.862,203.034 	"/>
	<polygon style="fill:#A5A5A4;" points="194.207,291.31 194.207,361.931 26.483,278.069 97.103,242.759 	"/>
	<polygon style="fill:#59474E;" points="97.103,242.759 26.483,278.069 26.483,207.448 	"/>
	<g>
		<path style="fill:#464F5D;" d="M132.414,194.207c-0.685-0.001-1.361-0.16-1.974-0.465l-35.31-17.655
			c-2.174-1.094-3.053-3.741-1.965-5.918c1.088-2.177,3.734-3.062,5.913-1.979l35.31,17.655c1.831,0.915,2.793,2.97,2.323,4.962
			C136.24,192.8,134.461,194.207,132.414,194.207z"/>
		<path style="fill:#464F5D;" d="M308.966,379.586c-0.685-0.001-1.361-0.16-1.974-0.465l-35.31-17.655
			c-2.174-1.094-3.053-3.741-1.965-5.918c1.088-2.177,3.734-3.062,5.913-1.979l35.31,17.655c1.831,0.915,2.793,2.97,2.323,4.962
			C312.792,378.179,311.013,379.587,308.966,379.586z"/>
	</g>
</g>
<g>
</g>
<g>
</g>
<g>
</g>
<g>
</g>
<g>
</g>
<g>
</g>
<g>
</g>
<g>
</g>
<g>
</g>
<g>
</g>
<g>
</g>
<g>
</g>
<g>
</g>
<g>
</g>
<g>
</g>
</svg>
