<?xml version="1.0" encoding="iso-8859-1"?>
<!-- Generator: Adobe Illustrator 19.0.0, SVG Export Plug-In . SVG Version: 6.00 Build 0)  -->
<svg version="1.1" id="Capa_1" xmlns="http://www.w3.org/2000/svg" xmlns:xlink="http://www.w3.org/1999/xlink" x="0px" y="0px"
	 viewBox="0 0 512 512" style="enable-background:new 0 0 512 512;" xml:space="preserve">
<g>
	<polygon style="fill:#CB8252;" points="203.034,0 61.793,70.621 61.793,388.414 308.966,512 450.207,441.379 450.207,123.586 	"/>
	<polygon style="fill:#CBB292;" points="450.207,123.586 308.966,194.207 61.793,70.621 203.034,0 	"/>
	<polygon style="fill:#805333;" points="450.207,123.586 450.207,441.379 308.966,512 308.966,194.207 	"/>
	<g>
		<polygon style="fill:#D1D4D1;" points="282.483,216.276 88.276,119.172 88.276,185.379 282.483,282.483 		"/>
		<polygon style="fill:#D1D4D1;" points="282.483,304.552 88.276,207.448 88.276,273.655 282.483,370.759 		"/>
		<polygon style="fill:#D1D4D1;" points="282.483,392.828 88.276,295.724 88.276,361.931 282.483,459.034 		"/>
	</g>
	<g>
		<path style="fill:#464F5D;" d="M203.034,207.448c-0.685-0.001-1.361-0.16-1.974-0.465l-35.31-17.655
			c-2.174-1.094-3.053-3.741-1.965-5.918c1.088-2.177,3.734-3.062,5.913-1.979l35.31,17.655c1.831,0.915,2.793,2.97,2.323,4.962
			C206.861,206.041,205.082,207.449,203.034,207.448z"/>
		<path style="fill:#464F5D;" d="M203.034,295.724c-0.685-0.001-1.361-0.16-1.974-0.465l-35.31-17.655
			c-1.415-0.703-2.346-2.108-2.441-3.685s0.658-3.084,1.977-3.954s3.002-0.968,4.413-0.258l35.31,17.655
			c1.831,0.915,2.793,2.97,2.323,4.962C206.861,294.317,205.082,295.725,203.034,295.724z"/>
		<path style="fill:#464F5D;" d="M203.034,384c-0.685-0.001-1.361-0.16-1.974-0.465l-35.31-17.655
			c-2.174-1.094-3.053-3.741-1.965-5.918c1.088-2.177,3.734-3.062,5.913-1.979l35.31,17.655c1.831,0.915,2.793,2.97,2.323,4.962
			C206.861,382.593,205.082,384.001,203.034,384z"/>
	</g>
</g>
<g>
</g>
<g>
</g>
<g>
</g>
<g>
</g>
<g>
</g>
<g>
</g>
<g>
</g>
<g>
</g>
<g>
</g>
<g>
</g>
<g>
</g>
<g>
</g>
<g>
</g>
<g>
</g>
<g>
</g>
</svg>
