<?xml version="1.0" encoding="iso-8859-1"?>
<!-- Generator: Adobe Illustrator 19.0.0, SVG Export Plug-In . SVG Version: 6.00 Build 0)  -->
<svg version="1.1" id="Capa_1" xmlns="http://www.w3.org/2000/svg" xmlns:xlink="http://www.w3.org/1999/xlink" x="0px" y="0px"
	 viewBox="0 0 512 512" style="enable-background:new 0 0 512 512;" xml:space="preserve">
<g>
	<polygon style="fill:#805333;" points="388.414,88.276 388.414,467.862 300.138,512 300.138,132.414 	"/>
	<polygon style="fill:#CB8252;" points="300.138,132.414 300.138,512 123.586,423.724 123.586,44.138 	"/>
	<polygon style="fill:#CBB292;" points="388.414,88.276 300.138,132.414 123.586,44.138 211.862,0 	"/>
	<polygon style="fill:#59474E;" points="150.069,406.069 150.069,88.276 273.655,150.069 273.655,467.862 	"/>
	<polygon style="fill:#464F5D;" points="273.655,388.414 273.655,467.862 150.069,406.069 233.225,368.199 233.313,368.199 	"/>
	<polygon style="fill:#D1D4D1;" points="273.655,150.069 273.655,229.517 233.313,209.302 233.225,209.302 150.069,167.724 
		233.225,129.854 233.313,129.854 	"/>
	<polygon style="fill:#A5A5A4;" points="273.655,229.517 273.655,308.966 233.313,288.75 233.225,288.75 150.069,247.172 
		233.225,209.302 233.313,209.302 	"/>
	<polygon style="fill:#5E5F62;" points="273.655,308.966 273.655,388.414 233.313,368.199 233.225,368.199 150.069,326.621 
		233.225,288.75 233.313,288.75 	"/>
</g>
<g>
</g>
<g>
</g>
<g>
</g>
<g>
</g>
<g>
</g>
<g>
</g>
<g>
</g>
<g>
</g>
<g>
</g>
<g>
</g>
<g>
</g>
<g>
</g>
<g>
</g>
<g>
</g>
<g>
</g>
</svg>
