<?xml version="1.0" encoding="iso-8859-1"?>
<!-- Generator: Adobe Illustrator 19.0.0, SVG Export Plug-In . SVG Version: 6.00 Build 0)  -->
<svg version="1.1" id="Capa_1" xmlns="http://www.w3.org/2000/svg" xmlns:xlink="http://www.w3.org/1999/xlink" x="0px" y="0px"
	 viewBox="0 0 512 512" style="enable-background:new 0 0 512 512;" xml:space="preserve">
<g>
	<polygon style="fill:#CB8252;" points="211.862,0 123.586,44.138 123.586,423.724 300.138,512 388.414,467.862 388.414,88.276 	"/>
	<polygon style="fill:#805333;" points="388.414,88.276 388.414,467.862 300.138,512 300.138,132.414 	"/>
	<polygon style="fill:#CBB292;" points="388.414,88.276 300.138,132.414 123.586,44.138 211.862,0 	"/>
	<polygon style="fill:#BDC3C7;" points="273.655,150.069 273.655,467.862 211.862,436.966 211.862,119.172 	"/>
	<polygon style="fill:#D1D4D1;" points="211.862,119.172 211.862,436.966 150.069,406.069 150.069,88.276 	"/>
	<g>
		<path style="fill:#464F5D;" d="M229.517,278.069c-1.171,0.001-2.294-0.464-3.122-1.292c-0.828-0.828-1.293-1.951-1.292-3.122V256
			c0-2.438,1.976-4.414,4.414-4.414s4.414,1.976,4.414,4.414v17.655c0.001,1.171-0.464,2.294-1.292,3.122
			C231.811,277.605,230.688,278.07,229.517,278.069z"/>
		<path style="fill:#464F5D;" d="M194.207,260.414c-1.171,0.001-2.294-0.464-3.122-1.292c-0.828-0.828-1.293-1.951-1.292-3.122
			v-17.655c0-2.438,1.976-4.414,4.414-4.414s4.414,1.976,4.414,4.414V256c0.001,1.171-0.464,2.294-1.292,3.122
			C196.501,259.95,195.378,260.414,194.207,260.414z"/>
	</g>
</g>
<g>
</g>
<g>
</g>
<g>
</g>
<g>
</g>
<g>
</g>
<g>
</g>
<g>
</g>
<g>
</g>
<g>
</g>
<g>
</g>
<g>
</g>
<g>
</g>
<g>
</g>
<g>
</g>
<g>
</g>
</svg>
