<?xml version="1.0" encoding="iso-8859-1"?>
<!-- Generator: Adobe Illustrator 19.0.0, SVG Export Plug-In . SVG Version: 6.00 Build 0)  -->
<svg version="1.1" id="Capa_1" xmlns="http://www.w3.org/2000/svg" xmlns:xlink="http://www.w3.org/1999/xlink" x="0px" y="0px"
	 viewBox="0 0 512 512" style="enable-background:new 0 0 512 512;" xml:space="preserve">
<g>
	<polygon style="fill:#CB8252;" points="300.138,132.414 300.138,512 123.586,423.724 123.586,44.138 	"/>
	<polygon style="fill:#805333;" points="388.414,88.276 388.414,467.862 300.138,512 300.138,132.414 	"/>
	<polygon style="fill:#CBB292;" points="388.414,88.276 300.138,132.414 123.586,44.138 211.862,0 	"/>
	<polygon style="fill:#84B5CB;" points="150.069,88.276 273.655,150.069 273.655,361.931 150.069,300.138 	"/>
	<polygon style="fill:#D1D4D1;" points="150.069,406.069 273.655,467.862 273.655,388.414 150.069,326.621 	"/>
	<path style="fill:#464F5D;" d="M220.685,392.828c-0.684-0.001-1.358-0.16-1.97-0.465l-17.655-8.828
		c-2.174-1.094-3.053-3.741-1.965-5.918c1.088-2.177,3.734-3.062,5.913-1.979l17.655,8.828c1.832,0.916,2.794,2.971,2.322,4.965
		C224.515,391.423,222.734,392.83,220.685,392.828L220.685,392.828z"/>
	<g>
		<path style="fill:#FFFFFF;" d="M242.229,134.356c-0.377,0.892-1.068,1.614-1.942,2.03l-35.31,17.655
			c-0.609,0.281-1.271,0.431-1.942,0.441c-2.058,0.003-3.846-1.415-4.31-3.42c-0.464-2.005,0.518-4.065,2.368-4.966l32.309-16.154
			L242.229,134.356z"/>
		<path style="fill:#FFFFFF;" d="M150.069,180.966c0.671-0.01,1.333-0.16,1.942-0.441l26.483-13.241
			c2.189-1.075,3.094-3.72,2.023-5.911c-1.071-2.191-3.714-3.101-5.907-2.034l-24.541,12.27V180.966z"/>
		<path style="fill:#FFFFFF;" d="M273.655,190.323l-68.679,34.339c-0.609,0.281-1.271,0.431-1.942,0.441
			c-2.058,0.003-3.846-1.415-4.31-3.42c-0.464-2.005,0.518-4.065,2.368-4.966l70.621-35.31c0.609-0.281,1.271-0.431,1.942-0.441
			V190.323z"/>
		<path style="fill:#FFFFFF;" d="M150.069,251.586c0.671-0.01,1.333-0.16,1.942-0.441l26.483-13.241
			c2.189-1.075,3.094-3.72,2.023-5.911c-1.071-2.191-3.714-3.101-5.907-2.034l-24.541,12.27V251.586z"/>
		<path style="fill:#FFFFFF;" d="M273.655,155.012l-24.541,12.27c-0.609,0.281-1.271,0.431-1.942,0.441
			c-2.058,0.003-3.846-1.415-4.31-3.42c-0.464-2.005,0.518-4.065,2.368-4.966l23.481-11.741L273.655,155.012z"/>
		<path style="fill:#FFFFFF;" d="M150.069,216.276c0.671-0.01,1.333-0.16,1.942-0.441l70.621-35.31
			c2.189-1.075,3.094-3.72,2.023-5.911s-3.714-3.101-5.907-2.034l-68.679,34.339V216.276z"/>
	</g>
</g>
<g>
</g>
<g>
</g>
<g>
</g>
<g>
</g>
<g>
</g>
<g>
</g>
<g>
</g>
<g>
</g>
<g>
</g>
<g>
</g>
<g>
</g>
<g>
</g>
<g>
</g>
<g>
</g>
<g>
</g>
</svg>
