<?xml version="1.0" encoding="iso-8859-1"?>
<!-- Generator: Adobe Illustrator 19.0.0, SVG Export Plug-In . SVG Version: 6.00 Build 0)  -->
<svg version="1.1" id="Capa_1" xmlns="http://www.w3.org/2000/svg" xmlns:xlink="http://www.w3.org/1999/xlink" x="0px" y="0px"
	 viewBox="0 0 512 512" style="enable-background:new 0 0 512 512;" xml:space="preserve">
<g>
	<polygon style="fill:#CB8252;" points="300.138,132.414 300.138,512 123.586,423.724 123.586,44.138 	"/>
	<polygon style="fill:#805333;" points="388.414,88.276 388.414,467.862 300.138,512 300.138,132.414 	"/>
	<polygon style="fill:#CBB292;" points="388.414,88.276 300.138,132.414 123.586,44.138 211.862,0 	"/>
	<polygon style="fill:#59474E;" points="150.069,88.276 273.655,150.069 273.655,361.931 150.069,300.138 	"/>
	<polygon style="fill:#5E5F62;" points="273.655,291.31 273.655,361.931 150.069,300.138 220.69,264.828 	"/>
	<polygon style="fill:#A5A5A4;" points="273.655,220.69 273.655,291.31 150.069,229.517 220.69,194.207 	"/>
	<g>
		<polygon style="fill:#D1D4D1;" points="273.655,150.069 273.655,220.69 150.069,158.897 220.69,123.586 		"/>
		<polygon style="fill:#D1D4D1;" points="150.069,406.069 273.655,467.862 273.655,388.414 150.069,326.621 		"/>
	</g>
	<path style="fill:#464F5D;" d="M220.685,392.828c-0.684-0.001-1.358-0.16-1.97-0.465l-17.655-8.828
		c-2.174-1.094-3.053-3.741-1.965-5.918c1.088-2.177,3.734-3.062,5.913-1.979l17.655,8.828c1.832,0.916,2.794,2.971,2.322,4.965
		C224.515,391.423,222.734,392.83,220.685,392.828L220.685,392.828z"/>
</g>
<g>
</g>
<g>
</g>
<g>
</g>
<g>
</g>
<g>
</g>
<g>
</g>
<g>
</g>
<g>
</g>
<g>
</g>
<g>
</g>
<g>
</g>
<g>
</g>
<g>
</g>
<g>
</g>
<g>
</g>
</svg>
