<?xml version="1.0" encoding="iso-8859-1"?>
<!-- Generator: Adobe Illustrator 19.0.0, SVG Export Plug-In . SVG Version: 6.00 Build 0)  -->
<svg version="1.1" id="Capa_1" xmlns="http://www.w3.org/2000/svg" xmlns:xlink="http://www.w3.org/1999/xlink" x="0px" y="0px"
	 viewBox="0 0 512 512" style="enable-background:new 0 0 512 512;" xml:space="preserve">
<g>
	<polygon style="fill:#CBB292;" points="467.862,158.897 361.931,211.862 44.138,52.966 150.069,0 	"/>
	<path style="fill:#CB8252;" d="M44.138,52.966v300.138L361.931,512V211.862L44.138,52.966z M185.379,397.241L70.621,339.862V92.69
		l114.759,57.379V397.241z M335.448,472.276l-132.414-66.207V158.897l132.414,66.207V472.276z"/>
	<polygon style="fill:#805333;" points="467.862,158.897 467.862,459.034 361.931,512 361.931,211.862 	"/>
	<polygon style="fill:#D1D4D1;" points="185.379,150.069 185.379,397.241 70.621,339.862 70.621,92.69 	"/>
	<path style="fill:#464F5D;" d="M167.724,278.069c-1.171,0.001-2.294-0.464-3.122-1.292c-0.828-0.828-1.293-1.951-1.292-3.122
		v-26.483c0-2.438,1.976-4.414,4.414-4.414s4.414,1.976,4.414,4.414v26.483c0.001,1.171-0.464,2.294-1.292,3.122
		C170.018,277.605,168.895,278.07,167.724,278.069L167.724,278.069z"/>
	<g>
		<polygon style="fill:#59474E;" points="282.483,198.621 203.034,238.345 203.034,158.897 		"/>
		<polygon style="fill:#59474E;" points="282.483,366.345 203.034,406.069 203.034,326.621 		"/>
		<polygon style="fill:#59474E;" points="291.31,282.483 203.034,326.621 203.034,238.345 		"/>
	</g>
	<polygon style="fill:#A5A5A4;" points="335.448,304.552 335.448,392.828 203.034,326.621 291.31,282.483 	"/>
	<polygon style="fill:#D1D4D1;" points="335.448,225.103 335.448,304.552 203.034,238.345 282.483,198.621 	"/>
	<polygon style="fill:#5E5F62;" points="335.448,392.828 335.448,472.276 203.034,406.069 282.483,366.345 	"/>
</g>
<g>
</g>
<g>
</g>
<g>
</g>
<g>
</g>
<g>
</g>
<g>
</g>
<g>
</g>
<g>
</g>
<g>
</g>
<g>
</g>
<g>
</g>
<g>
</g>
<g>
</g>
<g>
</g>
<g>
</g>
</svg>
