<svg width="312.41" height="511.22" enable-background="new 0 0 511.219 511.219" version="1.1" viewBox="0 0 312.41 511.22" xmlns="http://www.w3.org/2000/svg">
 <path d="m43.393 224.84c-4.793 0-8.678-3.885-8.678-8.678v-94.677c0-67.097 54.394-121.49 121.49-121.49s121.49 54.394 121.49 121.49v94.677c0 4.793-3.885 8.678-8.678 8.678s-8.678-3.885-8.678-8.678v-94.677c0-57.512-46.623-104.14-104.14-104.14s-104.14 46.623-104.14 104.14v94.677c0 4.792-3.885 8.677-8.678 8.677z" fill="#9bc8c2"/>
 <path d="m17.353 216.16h277.7c9.585 0 17.356 7.771 17.356 17.356v127.57c0 82.914-67.215 150.13-150.13 150.13h-12.149c-82.914 0-150.13-67.215-150.13-150.13v-127.57c0-9.585 7.771-17.356 17.356-17.356z" fill="#f0c419"/>
 <g transform="translate(-99.407 -.005)" fill="#e57e25">
  <path d="m316.36 346.34h-121.49c-4.793 0-8.678-3.885-8.678-8.678s3.885-8.678 8.678-8.678h121.49c4.793 0 8.678 3.885 8.678 8.678-1e-3 4.792-3.886 8.678-8.679 8.678z"/>
  <path d="m316.36 398.4h-121.49c-4.793 0-8.678-3.885-8.678-8.678s3.885-8.678 8.678-8.678h121.49c4.793 0 8.678 3.885 8.678 8.678-1e-3 4.793-3.886 8.678-8.679 8.678z"/>
 </g>
</svg>
