<svg width="20" height="20" version="1.1" viewBox="0 0 20 20" xmlns="http://www.w3.org/2000/svg">
 <path d="m12.899 8.6119h-7.1747c-0.62458 0-1.1328 0.50827-1.1328 1.1328v6.0419c0 0.62458 0.50827 1.1328 1.1328 1.1328h7.5523c0.62458 0 1.1328-0.50827 1.1328-1.1328v-6.0419c0-0.62458-0.50827-1.1328-1.1328-1.1328zm-7.1747 0.75523h7.5523c0.20844 0 0.37762 0.16917 0.37762 0.37762v6.0419c0 0.20844-0.16917 0.37762-0.37762 0.37762h-7.5523c-0.20844 0-0.37762-0.16917-0.37762-0.37762v-6.0419c0-0.20844 0.16917-0.37762 0.37762-0.37762z" stroke-width=".75523"/>
 <path d="m9.5 4.0805c-1.8737 0-3.3985 1.5248-3.3985 3.3985v6.8655h0.75523v-6.8655c0-1.4576 1.1857-2.6433 2.6433-2.6433 1.4576 0 2.6433 1.1857 2.6433 2.6433v1.1328h0.75523v-1.1328c0-1.8737-1.5248-3.3985-3.3985-3.3985z" stroke-width=".75523"/>
</svg>
