<?xml version="1.0" encoding="UTF-8" standalone="no"?>
<svg
   xmlns:dc="http://purl.org/dc/elements/1.1/"
   xmlns:cc="http://creativecommons.org/ns#"
   xmlns:rdf="http://www.w3.org/1999/02/22-rdf-syntax-ns#"
   xmlns:svg="http://www.w3.org/2000/svg"
   xmlns="http://www.w3.org/2000/svg"
   xmlns:sodipodi="http://sodipodi.sourceforge.net/DTD/sodipodi-0.dtd"
   xmlns:inkscape="http://www.inkscape.org/namespaces/inkscape"
   enable-background="new 0 0 512 512"
   version="1.1"
   viewBox="0 0 512 512"
   id="svg36"
   sodipodi:docname="masterswitch-new.svg"
   inkscape:version="0.92.4 (5da689c313, 2019-01-14)">
  <metadata
     id="metadata42">
    <rdf:RDF>
      <cc:Work
         rdf:about="">
        <dc:format>image/svg+xml</dc:format>
        <dc:type
           rdf:resource="http://purl.org/dc/dcmitype/StillImage" />
        <dc:title></dc:title>
      </cc:Work>
    </rdf:RDF>
  </metadata>
  <defs
     id="defs40" />
  <sodipodi:namedview
     pagecolor="#ffffff"
     bordercolor="#666666"
     borderopacity="1"
     objecttolerance="10"
     gridtolerance="10"
     guidetolerance="10"
     inkscape:pageopacity="0"
     inkscape:pageshadow="2"
     inkscape:window-width="2560"
     inkscape:window-height="1379"
     id="namedview38"
     showgrid="false"
     inkscape:zoom="1.3037281"
     inkscape:cx="-33.988193"
     inkscape:cy="340.50322"
     inkscape:window-x="1920"
     inkscape:window-y="32"
     inkscape:window-maximized="1"
     inkscape:current-layer="svg36" />
  <path
     d="m 11.22,11.532036 h 489.56 c 6.197,0 11.22,5.273555 11.22,11.77967 V 500.22033 C 512,506.72645 506.977,512 500.78,512 H 11.22 C 5.023,512 0,506.72645 0,500.22033 V 23.311706 c 0,-6.506115 5.023,-11.77967 11.22,-11.77967 z"
     id="path2"
     inkscape:connector-curvature="0"
     style="fill:#41767f;stroke-width:1.02463722" />
  <path
     d="M 11.211,0 C 5.023,0.01 0.01,5.0229 0,11.211 v 147.69 H 512 V 11.211 h 0.002 C 511.992,5.024 506.9791,0.01 500.791,0 Z m 134.81,16.357 110.07,32.414 109.89,-32.414 v 126.19 H 306.008 V 117.934 H 320.74 V 58.653 l -42.119,11.961 v 71.934 h -45.24 V 70.614 L 191.262,58.653 v 59.281 h 14.732 v 24.613 h -59.973 z"
     id="path6"
     inkscape:connector-curvature="0"
     style="fill:#2c3e50" />
  <g
     transform="translate(3.2542,0.678)"
     id="g32">
    <circle
       cx="252.7458"
       cy="333.10001"
       r="176.58"
       id="circle24"
       style="fill:#ff5364;stroke-width:2.22259998" />
    <g
       transform="matrix(1.382,0,0,1.382,-101.06546,-130.00337)"
       id="g30"
       style="fill:#ffffff;stroke-width:1.60819995">
      <path
         d="m 256,406.08 c -25.362,0.005 -48.8,-13.524 -61.483,-35.487 -12.683,-21.963 -12.684,-49.025 -0.003,-70.989 3.9466,-6.7321 12.588,-9.0174 19.345,-5.1142 6.7578,3.9016 9.0994,12.528 5.2428,19.312 -10.304,17.901 -6.2785,40.616 9.5497,53.885 15.828,13.27 38.897,13.27 54.725,0 15.828,-13.27 19.854,-35.984 9.5497,-53.885 -3.8566,-6.7835 -1.515,-15.41 5.2428,-19.312 6.7578,-3.9016 15.399,-1.6179 19.345,5.1142 12.684,21.968 12.679,49.037 -0.01,71.002 -12.691,21.965 -36.139,35.489 -61.505,35.474 z"
         id="path26"
         inkscape:connector-curvature="0" />
      <path
         d="m 256,320.9 c -7.8401,0 -14.197,-6.3557 -14.197,-14.197 V 278.31 c 0,-7.8401 6.3557,-14.197 14.197,-14.197 7.8413,0 14.197,6.3557 14.197,14.197 v 28.393 c 0,7.8401 -6.3574,14.197 -14.197,14.197 z"
         id="path28"
         inkscape:connector-curvature="0" />
    </g>
  </g>
</svg>
