<svg enable-background="new 0 0 512 512" version="1.1" viewBox="0 0 512 512" xmlns="http://www.w3.org/2000/svg">
 <path d="m11.22 11.532h489.56c6.197 0 11.22 5.2736 11.22 11.78v476.91c0 6.5061-5.023 11.78-11.22 11.78h-489.56c-6.197 0-11.22-5.2736-11.22-11.78v-476.91c0-6.5061 5.023-11.78 11.22-11.78z" fill="#41767f" stroke-width="1.0246"/>
 <path d="m11.211 0c-6.188 0.01-11.201 5.0229-11.211 11.211v147.69h512v-147.69h2e-3c-0.01-6.187-5.0229-11.201-11.211-11.211zm134.81 16.357 110.07 32.414 109.89-32.414v126.19h-59.973v-24.613h14.732v-59.281l-42.119 11.961v71.934h-45.24v-71.934l-42.119-11.961v59.281h14.732v24.613h-59.973z" fill="#2c3e50"/>
 <g transform="translate(3.2542 .678)">
  <circle cx="252.75" cy="333.1" r="176.58" fill="#ff5364" stroke-width="2.2226"/>
  <g transform="matrix(1.382 0 0 1.382 -101.07 -130)" fill="#fff" stroke-width="1.6082">
   <path d="m256 406.08c-25.362 5e-3 -48.8-13.524-61.483-35.487s-12.684-49.025-3e-3 -70.989c3.9466-6.7321 12.588-9.0174 19.345-5.1142 6.7578 3.9016 9.0994 12.528 5.2428 19.312-10.304 17.901-6.2785 40.616 9.5497 53.885 15.828 13.27 38.897 13.27 54.725 0s19.854-35.984 9.5497-53.885c-3.8566-6.7835-1.515-15.41 5.2428-19.312 6.7578-3.9016 15.399-1.6179 19.345 5.1142 12.684 21.968 12.679 49.037-0.01 71.002-12.691 21.965-36.139 35.489-61.505 35.474z"/>
   <path d="m256 320.9c-7.8401 0-14.197-6.3557-14.197-14.197v-28.393c0-7.8401 6.3557-14.197 14.197-14.197s14.197 6.3557 14.197 14.197v28.393c0 7.8401-6.3574 14.197-14.197 14.197z"/>
  </g>
 </g>
</svg>
