<?xml version="1.0" encoding="iso-8859-1"?>
<!-- Generator: Adobe Illustrator 19.0.0, SVG Export Plug-In . SVG Version: 6.00 Build 0)  -->
<svg version="1.1" id="Capa_1" xmlns="http://www.w3.org/2000/svg" xmlns:xlink="http://www.w3.org/1999/xlink" x="0px" y="0px"
	 viewBox="0 0 512 512" style="enable-background:new 0 0 512 512;" xml:space="preserve">
<g>
	<path style="fill:#955BA5;" d="M512,194.207V35.31C512,15.809,496.191,0,476.69,0H35.31C15.809,0,0,15.809,0,35.31v158.897
		c0,19.501,15.809,35.31,35.31,35.31h247.172"/>
	<circle style="fill:#F0C419;" cx="70.621" cy="61.793" r="26.483"/>
	<path style="fill:#B49ACA;" d="M476.69,141.241v17.655H35.31v-17.655c0.029-9.739,7.917-17.626,17.655-17.655h406.069
		C468.773,123.615,476.661,131.503,476.69,141.241z"/>
	<path style="fill:#CC66A1;" d="M476.69,158.897v17.655c-0.029,9.739-7.917,17.626-17.655,17.655H52.966
		c-9.739-0.029-17.626-7.917-17.655-17.655v-17.655H476.69z"/>
	<g>
		<path style="fill:#3D324C;" d="M308.966,52.966H132.414c-4.875,0-8.828-3.952-8.828-8.828s3.952-8.828,8.828-8.828h176.552
			c4.875,0,8.828,3.952,8.828,8.828S313.841,52.966,308.966,52.966z"/>
		<path style="fill:#3D324C;" d="M308.966,88.276H132.414c-4.875,0-8.828-3.952-8.828-8.828c0-4.875,3.952-8.828,8.828-8.828
			h176.552c4.875,0,8.828,3.952,8.828,8.828C317.793,84.324,313.841,88.276,308.966,88.276z"/>
	</g>
	<g>
		<path style="fill:#8697CB;" d="M79.016,459.034c-3.117-0.005-6-1.654-7.585-4.337c-1.585-2.683-1.638-6.004-0.139-8.736
			l12.12-22.016c1.006-1.766,2.048-3.61,3.081-5.402c5.644-7.524,8.737-16.654,8.828-26.059c-0.607-7.171-4.114-13.783-9.71-18.308
			c-2.253-1.601-4.612-3.046-7.062-4.326c-5.933-2.804-11.215-6.815-15.51-11.776c-8.131-10.181-11.523-23.351-9.322-36.193
			c2.179-9.316,5.992-18.172,11.264-26.156c1.165-1.986,2.33-3.955,3.425-5.95l10.77-19.544c2.352-4.271,7.721-5.826,11.992-3.474
			c4.271,2.352,5.826,7.721,3.474,11.992l-10.778,19.527c-1.174,2.127-2.419,4.255-3.672,6.382
			c-4.206,6.232-7.306,13.142-9.163,20.427c-1.3,7.814,0.797,15.811,5.764,21.981c2.884,3.08,6.345,5.563,10.187,7.309
			c3.221,1.664,6.31,3.571,9.242,5.703c9.577,7.509,15.617,18.65,16.684,30.773c0.376,13.066-3.537,25.896-11.14,36.529
			c-0.98,1.695-1.951,3.39-2.895,5.085l-12.12,21.989C85.2,457.276,82.236,459.032,79.016,459.034z"/>
		<path style="fill:#8697CB;" d="M213.089,459.034c-3.119-0.004-6.005-1.653-7.591-4.34c-1.586-2.686-1.636-6.01-0.133-8.743
			l12.12-21.998c0.998-1.819,2.03-3.611,3.072-5.402c5.646-7.526,8.739-16.66,8.828-26.068c-0.615-7.168-4.121-13.778-9.71-18.308
			c-2.254-1.599-4.614-3.044-7.062-4.326c-5.93-2.809-11.212-6.819-15.51-11.776c-8.128-10.182-11.517-23.352-9.313-36.193
			c2.178-9.318,5.995-18.174,11.273-26.156c1.165-1.986,2.322-3.955,3.425-5.95l10.761-19.544c2.352-4.271,7.721-5.826,11.992-3.474
			c4.271,2.352,5.826,7.721,3.474,11.992l-10.77,19.544c-1.165,2.127-2.419,4.255-3.672,6.382
			c-4.202,6.234-7.302,13.143-9.163,20.427c-1.301,7.815,0.8,15.814,5.773,21.981c2.879,3.082,6.338,5.566,10.178,7.309
			c3.224,1.664,6.316,3.571,9.251,5.703c9.578,7.507,15.616,18.649,16.675,30.773c0.377,13.076-3.539,25.915-11.149,36.555
			c-0.989,1.677-1.96,3.372-2.887,5.067l-12.12,21.99C219.273,457.295,216.307,459.041,213.089,459.034z"/>
	</g>
	<path style="fill:#2C3E50;" d="M308.966,141.241h176.552c14.626,0,26.483,11.857,26.483,26.483v317.793
		C512,500.143,500.143,512,485.517,512H308.966c-14.626,0-26.483-11.857-26.483-26.483V167.724
		C282.483,153.098,294.34,141.241,308.966,141.241z"/>
	<rect x="282.483" y="194.207" style="fill:#4482C3;" width="229.517" height="256"/>
	<g>
		<path style="fill:#FF5364;" d="M465.902,310.881c-2.341-0.001-4.586-0.931-6.241-2.586c-34.496-34.42-90.344-34.42-124.84,0
			c-3.464,3.345-8.97,3.298-12.375-0.108c-3.405-3.405-3.453-8.911-0.108-12.375c41.39-41.312,108.414-41.312,149.804,0
			c2.524,2.525,3.279,6.321,1.913,9.619C472.69,308.73,469.472,310.88,465.902,310.881z"/>
		<path style="fill:#FF5364;" d="M440.938,335.845c-2.341,0-4.586-0.931-6.241-2.586c-20.699-20.654-54.212-20.654-74.911,0
			c-2.216,2.295-5.499,3.215-8.585,2.407c-3.086-0.808-5.497-3.218-6.305-6.305c-0.808-3.086,0.112-6.369,2.407-8.585
			c27.6-27.532,72.276-27.532,99.875,0c2.524,2.525,3.279,6.321,1.913,9.619S444.508,335.845,440.938,335.845z"/>
		<path style="fill:#FF5364;" d="M415.965,360.81c-2.341,0-4.586-0.931-6.241-2.586c-6.894-6.892-18.07-6.892-24.964,0
			c-3.464,3.345-8.97,3.298-12.375-0.108c-3.405-3.405-3.453-8.911-0.108-12.375c13.789-13.785,36.14-13.785,49.929,0
			c2.524,2.525,3.279,6.321,1.913,9.619C422.753,358.658,419.535,360.809,415.965,360.81z"/>
	</g>
</g>
<g>
</g>
<g>
</g>
<g>
</g>
<g>
</g>
<g>
</g>
<g>
</g>
<g>
</g>
<g>
</g>
<g>
</g>
<g>
</g>
<g>
</g>
<g>
</g>
<g>
</g>
<g>
</g>
<g>
</g>
</svg>
