<?xml version="1.0" encoding="iso-8859-1"?>
<!-- Generator: Adobe Illustrator 19.0.0, SVG Export Plug-In . SVG Version: 6.00 Build 0)  -->
<svg version="1.1" id="Capa_1" xmlns="http://www.w3.org/2000/svg" xmlns:xlink="http://www.w3.org/1999/xlink" x="0px" y="0px"
	 viewBox="0 0 512 512" style="enable-background:new 0 0 512 512;" xml:space="preserve">
<g>
	<g>
		<path style="fill:#4482C3;" d="M256,0c112.133,0,203.034,90.902,203.034,203.034v123.586H52.966V203.035
			C52.966,90.902,143.867,0,256,0z"/>
		<path style="fill:#285680;" d="M317.793,9.622v316.999H194.207V9.622C234.403-3.207,277.597-3.207,317.793,9.622z"/>
		<g>
			<path style="fill:#90BAE1;" d="M389.65,397.241h89.07c18.374-0.015,33.265-14.906,33.28-33.28v-4.061
				c-0.015-18.374-14.906-33.265-33.28-33.28H33.28C14.906,326.635,0.015,341.527,0,359.901v4.061
				c0.015,18.374,14.906,33.265,33.28,33.28H389.65z"/>
			<circle style="fill:#90BAE1;" cx="256" cy="150.069" r="88.276"/>
		</g>
		<path style="fill:#2C3E50;" d="M256,247.172c-53.629,0-97.103-43.475-97.103-97.103S202.371,52.966,256,52.966
			s97.103,43.475,97.103,97.103C353.04,203.672,309.603,247.109,256,247.172z M256,70.621c-43.878,0-79.448,35.57-79.448,79.448
			s35.57,79.448,79.448,79.448s79.448-35.57,79.448-79.448C335.4,106.211,299.858,70.669,256,70.621z"/>
		<path style="fill:#FFFFFF;" d="M256,194.207c-24.365-0.029-44.109-19.773-44.138-44.138c-0.014-1.082,0.033-2.163,0.141-3.24
			c0.221-2.339,1.377-4.489,3.204-5.964c1.828-1.475,4.173-2.151,6.506-1.875c4.845,0.518,8.354,4.865,7.839,9.71
			c-0.039,0.455-0.05,0.912-0.035,1.368c0,14.626,11.857,26.483,26.483,26.483c14.626,0,26.483-11.857,26.483-26.483
			c0-14.626-11.857-26.483-26.483-26.483c-4.083-0.014-8.112,0.936-11.758,2.772c-4.361,2.194-9.675,0.437-11.869-3.924
			c-2.194-4.361-0.437-9.675,3.924-11.869c6.114-3.066,12.863-4.653,19.703-4.634c24.377,0,44.138,19.761,44.138,44.138
			S280.377,194.207,256,194.207z"/>
		<circle style="fill:#F0C419;" cx="397.241" cy="273.655" r="17.655"/>
	</g>
	<path style="fill:none;stroke:#000000;stroke-width:2;stroke-linecap:round;" d="M281.512,395.564h-0.088"/>
	<g>
		<path style="fill:#E6E7E8;" d="M401.452,409.238c2.772,3.263,2.772,8.054,0,11.317c-16.499,19.491-75.361,82.617-145.452,82.617
			s-128.953-63.126-145.452-82.617c-2.772-3.263-2.772-8.054,0-11.317c16.499-19.491,75.361-82.617,145.452-82.617
			S384.953,389.747,401.452,409.238z"/>
		<circle style="fill:#46B29D;" cx="257.236" cy="414.897" r="88.276"/>
		<circle style="fill:#65DDB9;" cx="257.236" cy="414.897" r="70.621"/>
		<circle style="fill:#2C2F38;" cx="256" cy="388.414" r="26.483"/>
		<circle style="fill:#FFFFFF;" cx="233.931" cy="375.172" r="13.241"/>
		<path style="fill:#FDD7AD;" d="M408.188,403.527c5.589,6.547,5.589,16.184,0,22.731C391.168,446.376,329.852,512,256,512
			s-135.168-65.624-152.188-85.734c-5.586-6.551-5.586-16.189,0-22.74c17.02-20.109,78.327-85.734,152.188-85.734
			S391.168,383.417,408.188,403.527z M394.681,414.897C378.845,396.2,322.207,335.448,256,335.448s-122.933,60.84-138.725,79.448
			c15.793,18.6,72.466,79.448,138.725,79.448S378.836,433.593,394.681,414.897z M394.726,414.897l6.735-5.711L394.726,414.897z"/>
	</g>
</g>
<g>
</g>
<g>
</g>
<g>
</g>
<g>
</g>
<g>
</g>
<g>
</g>
<g>
</g>
<g>
</g>
<g>
</g>
<g>
</g>
<g>
</g>
<g>
</g>
<g>
</g>
<g>
</g>
<g>
</g>
</svg>
