<?xml version="1.0" encoding="iso-8859-1"?>
<!-- Generator: Adobe Illustrator 19.0.0, SVG Export Plug-In . SVG Version: 6.00 Build 0)  -->
<svg version="1.1" id="Capa_1" xmlns="http://www.w3.org/2000/svg" xmlns:xlink="http://www.w3.org/1999/xlink" x="0px" y="0px"
	 viewBox="0 0 512 512" style="enable-background:new 0 0 512 512;" xml:space="preserve">
<g>
	<path style="fill:#7ED09E;" d="M326.621,17.655v335.448H158.897V0h150.069C318.704,0.029,326.592,7.917,326.621,17.655z"/>
	<path style="fill:#46B29D;" d="M326.621,353.103V476.69H17.655C7.917,476.661,0.029,468.773,0,459.034V353.103H326.621z"/>
	<path style="fill:#65DDB9;" d="M158.897,0v353.103H0V17.655C0.029,7.917,7.917,0.029,17.655,0H158.897z"/>
	<path style="fill:#527F72;" d="M282.483,476.69H17.655v26.483c0,4.875,3.952,8.828,8.828,8.828h282.483"/>
	<g>
		<path style="fill:#FFFFFF;" d="M269.241,406.069H48.552c-12.188,0-22.069-9.881-22.069-22.069c0-4.875,3.952-8.828,8.828-8.828
			s8.828,3.952,8.828,8.828c0,2.438,1.976,4.414,4.414,4.414h220.69c2.438,0,4.414-1.976,4.414-4.414
			c0-4.875,3.952-8.828,8.828-8.828s8.828,3.952,8.828,8.828C291.31,396.188,281.43,406.069,269.241,406.069z"/>
		<path style="fill:#FFFFFF;" d="M123.586,273.655c-4.875,0-8.828-3.952-8.828-8.828V88.276c0-4.875,3.952-8.828,8.828-8.828
			c4.875,0,8.828,3.952,8.828,8.828v176.552C132.414,269.703,128.462,273.655,123.586,273.655z"/>
		<path style="fill:#FFFFFF;" d="M194.207,273.655c-4.875,0-8.828-3.952-8.828-8.828V88.276c0-4.875,3.952-8.828,8.828-8.828
			s8.828,3.952,8.828,8.828v176.552C203.034,269.703,199.082,273.655,194.207,273.655z"/>
	</g>
	<path style="fill:#46B29D;" d="M79.448,123.586h-35.31c-4.875,0-8.828,3.952-8.828,8.828v88.276c0,4.875,3.952,8.828,8.828,8.828
		h35.31c4.875,0,8.828-3.952,8.828-8.828v-88.276C88.276,127.538,84.324,123.586,79.448,123.586z"/>
	<path style="fill:#14A085;" d="M88.276,132.414v26.483H35.31v-26.483c0-4.875,3.952-8.828,8.828-8.828h35.31
		C84.324,123.586,88.276,127.538,88.276,132.414z"/>
	<path style="fill:#2C3E50;" d="M308.966,141.241h176.552c14.626,0,26.483,11.857,26.483,26.483v317.793
		C512,500.143,500.143,512,485.517,512H308.966c-14.626,0-26.483-11.857-26.483-26.483V167.724
		C282.483,153.098,294.34,141.241,308.966,141.241z"/>
	<rect x="282.483" y="194.207" style="fill:#4482C3;" width="229.517" height="256"/>
	<path style="fill:#FFFFFF;" d="M484.273,320.618c0.793-0.727,1.244-1.754,1.244-2.829c0-1.076-0.451-2.102-1.244-2.829
		c-9.869-9.746-45.091-41.304-87.031-41.304s-77.162,31.559-87.031,41.304c-0.793,0.727-1.244,1.754-1.244,2.829
		c0,1.076,0.451,2.102,1.244,2.829c9.869,9.746,45.091,41.313,87.031,41.313S474.403,330.364,484.273,320.618z"/>
	<circle style="fill:#46B29D;" cx="397.241" cy="317.793" r="44.138"/>
	<circle style="fill:#65DDB9;" cx="397.241" cy="317.793" r="26.483"/>
	<circle style="fill:#2C2F38;" cx="397.241" cy="317.793" r="8.828"/>
	<circle style="fill:#FFFFFF;" cx="379.586" cy="300.138" r="8.828"/>
</g>
<g>
</g>
<g>
</g>
<g>
</g>
<g>
</g>
<g>
</g>
<g>
</g>
<g>
</g>
<g>
</g>
<g>
</g>
<g>
</g>
<g>
</g>
<g>
</g>
<g>
</g>
<g>
</g>
<g>
</g>
</svg>
