<?xml version="1.0" encoding="iso-8859-1"?>
<!-- Generator: Adobe Illustrator 19.0.0, SVG Export Plug-In . SVG Version: 6.00 Build 0)  -->
<svg version="1.1" id="Capa_1" xmlns="http://www.w3.org/2000/svg" xmlns:xlink="http://www.w3.org/1999/xlink" x="0px" y="0px"
	 viewBox="0 0 512 512" style="enable-background:new 0 0 512 512;" xml:space="preserve">
<g>
	<path style="fill:#E64C3C;" d="M326.621,141.241V17.655C326.621,7.904,318.716,0,308.966,0H17.655C7.904,0,0,7.904,0,17.655v476.69
		C0,504.095,7.904,512,17.655,512h290.781L326.621,141.241z"/>
	<g>
		<path style="fill:#C03A2B;" d="M49.487,44.138h86.404c2.954,0,5.35,2.395,5.35,5.35v59.922c0,2.954-2.395,5.35-5.35,5.35H49.487
			c-2.954,0-5.35-2.395-5.35-5.35V49.487C44.138,46.533,46.533,44.138,49.487,44.138z"/>
		<path style="fill:#C03A2B;" d="M190.729,44.138h86.404c2.954,0,5.35,2.395,5.35,5.35v59.922c0,2.954-2.395,5.35-5.35,5.35h-86.404
			c-2.954,0-5.35-2.395-5.35-5.35V49.487C185.379,46.533,187.774,44.138,190.729,44.138z"/>
		<path style="fill:#C03A2B;" d="M51.209,167.724h82.962c3.905,0,7.071,3.166,7.071,7.071v109.444c0,3.905-3.166,7.071-7.071,7.071
			H51.209c-3.905,0-7.071-3.166-7.071-7.071V174.795C44.138,170.89,47.304,167.724,51.209,167.724z"/>
		<path style="fill:#C03A2B;" d="M192.45,167.724h82.962c3.905,0,7.071,3.166,7.071,7.071v109.444c0,3.905-3.166,7.071-7.071,7.071
			H192.45c-3.905,0-7.071-3.166-7.071-7.071V174.795C185.379,170.89,188.545,167.724,192.45,167.724z"/>
		<path style="fill:#C03A2B;" d="M51.456,344.276h82.467c4.042,0,7.318,3.276,7.318,7.318v117.778c0,4.042-3.276,7.318-7.318,7.318
			H51.456c-4.042,0-7.318-3.276-7.318-7.318V351.594C44.138,347.552,47.414,344.276,51.456,344.276z"/>
		<path style="fill:#C03A2B;" d="M192.697,344.276h82.467c4.042,0,7.318,3.276,7.318,7.318v117.778c0,4.042-3.276,7.318-7.318,7.318
			h-82.467c-4.042,0-7.318-3.276-7.318-7.318V351.594C185.379,347.552,188.656,344.276,192.697,344.276z"/>
	</g>
	<path style="fill:#F0C419;" d="M35.31,326.621c-1.153-0.017-2.292-0.257-3.354-0.706c-1.069-0.448-2.055-1.075-2.913-1.854
		c-2.527-2.527-3.261-6.337-1.854-9.622c0.424-1.081,1.054-2.071,1.854-2.913c3.54-3.266,8.995-3.266,12.535,0
		c0.8,0.842,1.429,1.832,1.854,2.913c1.164,2.715,0.877,5.833-0.761,8.291C41.033,325.187,38.264,326.651,35.31,326.621z"/>
	<path style="fill:#2C3E50;" d="M308.966,141.241h176.552c14.626,0,26.483,11.857,26.483,26.483v317.793
		C512,500.143,500.143,512,485.517,512H308.966c-14.626,0-26.483-11.857-26.483-26.483V167.724
		C282.483,153.098,294.34,141.241,308.966,141.241z"/>
	<rect x="282.483" y="194.207" style="fill:#4482C3;" width="229.517" height="256"/>
	<path style="fill:#FFFFFF;" d="M484.273,320.618c0.793-0.727,1.244-1.754,1.244-2.829c0-1.076-0.451-2.102-1.244-2.829
		c-9.869-9.746-45.091-41.304-87.031-41.304s-77.162,31.559-87.031,41.304c-0.793,0.727-1.244,1.754-1.244,2.829
		c0,1.076,0.451,2.102,1.244,2.829c9.869,9.746,45.091,41.313,87.031,41.313S474.403,330.364,484.273,320.618z"/>
	<circle style="fill:#46B29D;" cx="397.241" cy="317.793" r="44.138"/>
	<circle style="fill:#65DDB9;" cx="397.241" cy="317.793" r="26.483"/>
	<circle style="fill:#2C2F38;" cx="397.241" cy="317.793" r="8.828"/>
	<circle style="fill:#FFFFFF;" cx="379.586" cy="300.138" r="8.828"/>
</g>
<g>
</g>
<g>
</g>
<g>
</g>
<g>
</g>
<g>
</g>
<g>
</g>
<g>
</g>
<g>
</g>
<g>
</g>
<g>
</g>
<g>
</g>
<g>
</g>
<g>
</g>
<g>
</g>
<g>
</g>
</svg>
