<?xml version="1.0" encoding="iso-8859-1"?>
<!-- Generator: Adobe Illustrator 19.0.0, SVG Export Plug-In . SVG Version: 6.00 Build 0)  -->
<svg version="1.1" id="Capa_1" xmlns="http://www.w3.org/2000/svg" xmlns:xlink="http://www.w3.org/1999/xlink" x="0px" y="0px"
	 viewBox="0 0 512.002 512.002" style="enable-background:new 0 0 512.002 512.002;" xml:space="preserve">
<g>
	<g>
		<path style="fill:#2C3E50;" d="M220.691,344.276H88.277c-14.626,0-26.483-11.857-26.483-26.483v-79.448
			c0-4.875,3.952-8.828,8.828-8.828s8.828,3.952,8.828,8.828v79.448c0,4.875,3.952,8.828,8.828,8.828h132.414
			c4.875,0,8.828,3.952,8.828,8.828S225.566,344.276,220.691,344.276z"/>
		<path style="fill:#2C3E50;" d="M17.656,459.034c-4.875,0-8.828-3.952-8.828-8.828v-44.138c0-14.626,11.857-26.483,26.483-26.483
			h185.379c4.875,0,8.828,3.952,8.828,8.828s-3.952,8.828-8.828,8.828H35.311c-4.875,0-8.828,3.952-8.828,8.828v44.138
			C26.484,455.082,22.532,459.034,17.656,459.034z"/>
		<path style="fill:#2C3E50;" d="M141.242,485.517c-4.875,0-8.828-3.952-8.828-8.828v-17.655c0-14.626,11.857-26.483,26.483-26.483
			h61.793c4.875,0,8.828,3.952,8.828,8.828s-3.952,8.828-8.828,8.828h-61.793c-4.875,0-8.828,3.952-8.828,8.828v17.655
			c0,2.341-0.93,4.587-2.586,6.242C145.829,484.587,143.584,485.517,141.242,485.517z"/>
		<path style="fill:#2C3E50;" d="M441.38,485.517c-4.875,0-8.828-3.952-8.828-8.828v-79.448c0-4.875-3.952-8.828-8.828-8.828
			H291.311c-4.875,0-8.828-3.952-8.828-8.828s3.952-8.828,8.828-8.828h132.414c14.626,0,26.483,11.857,26.483,26.483v79.448
			C450.208,481.565,446.256,485.517,441.38,485.517z"/>
		<path style="fill:#2C3E50;" d="M476.691,335.448H291.311c-4.875,0-8.828-3.952-8.828-8.828s3.952-8.828,8.828-8.828h185.379
			c4.875,0,8.828-3.952,8.828-8.828v-44.138c0-4.875,3.952-8.828,8.828-8.828s8.828,3.952,8.828,8.828v44.138
			C503.174,323.592,491.317,335.448,476.691,335.448z"/>
		<path style="fill:#2C3E50;" d="M353.105,282.483h-61.793c-4.875,0-8.828-3.952-8.828-8.828s3.952-8.828,8.828-8.828h61.793
			c4.875,0,8.828-3.952,8.828-8.828v-17.655c0-4.875,3.952-8.828,8.828-8.828s8.828,3.952,8.828,8.828V256
			C379.587,270.626,367.731,282.483,353.105,282.483z"/>
	</g>
	<path style="fill:#F0C419;" d="M211.863,213.274v65.554c0.001,2.341,0.931,4.586,2.586,6.241l17.655,17.655
		c3.446,3.447,3.446,9.035,0,12.482l-14.001,14.001c-3.446,3.447-3.446,9.035,0,12.482l14.001,14.001
		c3.446,3.447,3.446,9.035,0,12.482l-14.001,14.001c-3.446,3.447-3.446,9.035,0,12.482l14.001,14.001
		c3.429,3.444,3.429,9.012,0,12.456l-20.242,20.268v17.037c0.003,4.262,1.475,8.393,4.167,11.697l28.849,35.354
		c2.904,3.639,7.147,5.96,11.778,6.442c4.631,0.481,9.261-0.917,12.851-3.882l24.011-19.597c4.204-3.484,6.633-8.664,6.621-14.124
		l0-264.828L211.863,213.274z"/>
	<g>
		<path style="fill:#F29C1F;" d="M251.587,0c-60.942,0-110.345,49.403-110.345,110.345S190.646,220.69,251.587,220.69
			s110.345-49.403,110.345-110.345c0-29.265-11.626-57.332-32.319-78.026C308.919,11.626,280.853,0,251.587,0z M251.587,97.103
			c-17.064,0-30.897-13.833-30.897-30.897s13.833-30.897,30.897-30.897s30.897,13.833,30.897,30.897S268.651,97.103,251.587,97.103z
			"/>
		<path style="fill:#F29C1F;" d="M264.829,291.31c-4.875,0-8.828-3.952-8.828-8.828V256c0-4.875,3.952-8.828,8.828-8.828
			s8.828,3.952,8.828,8.828v26.483C273.656,287.358,269.704,291.31,264.829,291.31z"/>
		<path style="fill:#F29C1F;" d="M264.829,353.103c-4.875,0-8.828-3.952-8.828-8.828v-17.655c0-4.875,3.952-8.828,8.828-8.828
			s8.828,3.952,8.828,8.828v17.655C273.656,349.151,269.704,353.103,264.829,353.103z"/>
		<path style="fill:#F29C1F;" d="M264.829,406.069c-4.875,0-8.828-3.952-8.828-8.828v-17.655c0-4.875,3.952-8.828,8.828-8.828
			s8.828,3.952,8.828,8.828v17.655C273.656,402.117,269.704,406.069,264.829,406.069z"/>
		<path style="fill:#F29C1F;" d="M264.829,467.862c-4.875,0-8.828-3.952-8.828-8.828v-17.655c0-4.875,3.952-8.828,8.828-8.828
			s8.828,3.952,8.828,8.828v17.655C273.656,463.91,269.704,467.862,264.829,467.862z"/>
	</g>
	<g>
		<circle style="fill:#FF5364;" cx="70.622" cy="220.69" r="17.655"/>
		<circle style="fill:#FF5364;" cx="17.656" cy="467.862" r="17.655"/>
		<circle style="fill:#FF5364;" cx="141.242" cy="494.345" r="17.655"/>
		<circle style="fill:#FF5364;" cx="441.38" cy="494.345" r="17.655"/>
		<circle style="fill:#FF5364;" cx="494.346" cy="247.172" r="17.655"/>
		<circle style="fill:#FF5364;" cx="370.76" cy="220.69" r="17.655"/>
	</g>
</g>
<g>
</g>
<g>
</g>
<g>
</g>
<g>
</g>
<g>
</g>
<g>
</g>
<g>
</g>
<g>
</g>
<g>
</g>
<g>
</g>
<g>
</g>
<g>
</g>
<g>
</g>
<g>
</g>
<g>
</g>
</svg>
