<?xml version="1.0" encoding="iso-8859-1"?>
<!-- Generator: Adobe Illustrator 19.0.0, SVG Export Plug-In . SVG Version: 6.00 Build 0)  -->
<svg version="1.1" id="Capa_1" xmlns="http://www.w3.org/2000/svg" xmlns:xlink="http://www.w3.org/1999/xlink" x="0px" y="0px"
	 viewBox="0 0 512 512" style="enable-background:new 0 0 512 512;" xml:space="preserve">
<g>
	<path style="fill:#285680;" d="M64.738,0h298.201c12.83,0,23.231,10.401,23.231,23.231v300.648
		c0.002,6.163-2.444,12.074-6.801,16.432s-10.267,6.807-16.43,6.807H62.282c-6.163,0-12.073-2.449-16.43-6.807
		s-6.803-10.27-6.801-16.432V25.687c0-6.813,2.706-13.346,7.523-18.163S57.925,0,64.738,0z"/>
	<circle style="fill:#4482C3;" cx="212.61" cy="173.559" r="112.814"/>
	<g>
		<path style="fill:#2C3E50;" d="M212.61,208.271c14.378,0,26.034,11.656,26.034,26.034v8.678h-52.068v-8.678
			C186.576,219.927,198.232,208.271,212.61,208.271z"/>
		<path style="fill:#2C3E50;" d="M169.22,112.814L169.22,112.814c9.585,0,17.356,7.771,17.356,17.356v26.034
			c0,9.585-7.771,17.356-17.356,17.356l0,0c-9.585,0-17.356-7.771-17.356-17.356v-26.034
			C151.864,120.584,159.635,112.814,169.22,112.814z"/>
		<path style="fill:#2C3E50;" d="M256,112.814L256,112.814c9.585,0,17.356,7.771,17.356,17.356v26.034
			c0,9.585-7.771,17.356-17.356,17.356l0,0c-9.585,0-17.356-7.771-17.356-17.356v-26.034
			C238.644,120.584,246.415,112.814,256,112.814z"/>
	</g>
	<g>
		<path style="fill:#ECF0F1;" d="M65.085,182.237c-1.134-0.017-2.253-0.253-3.298-0.694c-1.051-0.44-2.02-1.057-2.864-1.822
			c-0.762-0.867-1.406-1.83-1.918-2.864c-0.41-1.05-0.614-2.17-0.599-3.298c-0.03-1.138,0.208-2.268,0.694-3.298
			c0.438-1.052,1.055-2.021,1.822-2.864c0.411-0.371,0.843-0.719,1.293-1.041c0.486-0.331,1.014-0.593,1.571-0.781
			c0.493-0.25,1.019-0.428,1.562-0.529c1.111-0.252,2.265-0.252,3.376,0c0.577,0.088,1.136,0.267,1.657,0.529
			c0.554,0.188,1.079,0.451,1.562,0.781c0.453,0.322,0.888,0.67,1.302,1.041c0.768,0.843,1.384,1.811,1.822,2.864
			c0.925,2.101,0.925,4.494,0,6.595c-0.789,2.18-2.506,3.897-4.686,4.686C67.338,181.985,66.218,182.22,65.085,182.237z"/>
		<path style="fill:#ECF0F1;" d="M360.136,182.237c-1.134-0.017-2.253-0.253-3.298-0.694c-1.051-0.44-2.02-1.057-2.864-1.822
			c-0.762-0.867-1.406-1.83-1.918-2.864c-0.41-1.05-0.614-2.17-0.599-3.298c-0.03-1.138,0.208-2.268,0.694-3.298
			c0.438-1.052,1.055-2.021,1.822-2.864c0.411-0.371,0.843-0.719,1.293-1.041c0.486-0.331,1.014-0.593,1.571-0.781
			c0.493-0.25,1.019-0.428,1.562-0.529c1.111-0.252,2.265-0.252,3.376,0c0.577,0.088,1.136,0.267,1.658,0.529
			c0.554,0.188,1.079,0.451,1.562,0.781c0.453,0.322,0.888,0.67,1.302,1.041c0.768,0.843,1.384,1.811,1.822,2.864
			c0.926,2.101,0.926,4.494,0,6.595c-0.789,2.18-2.506,3.897-4.686,4.686C362.389,181.985,361.269,182.22,360.136,182.237z"/>
	</g>
	<circle style="fill:#46B29D;" cx="334.102" cy="373.153" r="130.169"/>
	<path style="fill:#65DDB9;" d="M334.102,512c-76.683,0-138.847-62.164-138.847-138.847s62.164-138.847,138.847-138.847
		s138.847,62.164,138.847,138.847C472.858,449.798,410.747,511.909,334.102,512z M334.102,251.661
		c-67.098,0-121.492,54.394-121.492,121.492s54.394,121.492,121.492,121.492s121.492-54.394,121.492-121.492
		C455.521,306.084,401.17,251.733,334.102,251.661z"/>
	<g>
		<path style="fill:#FFFFFF;" d="M377.492,425.22c-2.301,0-4.508-0.915-6.135-2.543l-43.39-43.39
			c-1.628-1.627-2.542-3.834-2.543-6.135v-60.746c0-4.793,3.885-8.678,8.678-8.678c4.793,0,8.678,3.885,8.678,8.678v57.153
			l40.847,40.847c2.481,2.482,3.223,6.214,1.88,9.456S381.001,425.22,377.492,425.22z"/>
		<path style="fill:#FFFFFF;" d="M342.78,286.373h-17.356c-4.793,0-8.678-3.885-8.678-8.678s3.885-8.678,8.678-8.678h17.356
			c4.793,0,8.678,3.885,8.678,8.678S347.572,286.373,342.78,286.373z"/>
		<path style="fill:#FFFFFF;" d="M342.78,477.288h-17.356c-4.793,0-8.678-3.885-8.678-8.678s3.885-8.678,8.678-8.678h17.356
			c4.793,0,8.678,3.885,8.678,8.678S347.572,477.288,342.78,477.288z"/>
		<path style="fill:#FFFFFF;" d="M260.469,320.469c-3.509-0.001-6.673-2.115-8.016-5.357c-1.343-3.242-0.601-6.974,1.88-9.456
			l12.271-12.271c3.405-3.289,8.818-3.242,12.165,0.106s3.394,8.76,0.106,12.165l-12.271,12.271
			C264.977,319.554,262.771,320.468,260.469,320.469z"/>
		<path style="fill:#FFFFFF;" d="M395.464,455.463c-3.509-0.001-6.673-2.115-8.016-5.357c-1.343-3.242-0.601-6.974,1.88-9.456
			l12.271-12.279c3.388-3.391,8.884-3.393,12.275-0.004c3.391,3.388,3.393,8.884,0.004,12.275l-12.271,12.279
			C399.978,454.55,397.768,455.465,395.464,455.463z"/>
		<path style="fill:#FFFFFF;" d="M238.644,390.508c-4.793,0-8.678-3.885-8.678-8.678v-17.356c0-4.793,3.885-8.678,8.678-8.678
			c4.793,0,8.678,3.885,8.678,8.678v17.356C247.322,386.623,243.437,390.508,238.644,390.508z"/>
		<path style="fill:#FFFFFF;" d="M429.559,390.508c-4.793,0-8.678-3.885-8.678-8.678v-17.356c0-4.793,3.885-8.678,8.678-8.678
			s8.678,3.885,8.678,8.678v17.356C438.237,386.623,434.352,390.508,429.559,390.508z"/>
		<path style="fill:#FFFFFF;" d="M272.74,455.463c-2.304,0.002-4.515-0.913-6.144-2.543l-12.271-12.279
			c-3.388-3.391-3.386-8.887,0.004-12.275c3.391-3.388,8.887-3.386,12.275,0.004l12.271,12.279c2.481,2.482,3.223,6.214,1.88,9.456
			C279.413,453.348,276.249,455.462,272.74,455.463z"/>
		<path style="fill:#FFFFFF;" d="M407.734,320.469c-2.301-0.001-4.508-0.915-6.135-2.543l-12.271-12.271
			c-3.289-3.405-3.242-8.818,0.106-12.165c3.347-3.347,8.76-3.394,12.165-0.106l12.271,12.271c2.481,2.482,3.223,6.214,1.88,9.456
			C414.407,318.354,411.244,320.468,407.734,320.469z"/>
	</g>
</g>
<g>
</g>
<g>
</g>
<g>
</g>
<g>
</g>
<g>
</g>
<g>
</g>
<g>
</g>
<g>
</g>
<g>
</g>
<g>
</g>
<g>
</g>
<g>
</g>
<g>
</g>
<g>
</g>
<g>
</g>
</svg>
