<?xml version="1.0" encoding="iso-8859-1"?>
<!-- Generator: Adobe Illustrator 19.0.0, SVG Export Plug-In . SVG Version: 6.00 Build 0)  -->
<svg version="1.1" id="Capa_1" xmlns="http://www.w3.org/2000/svg" xmlns:xlink="http://www.w3.org/1999/xlink" x="0px" y="0px"
	 viewBox="0 0 512 512" style="enable-background:new 0 0 512 512;" xml:space="preserve">
<g>
	<g>
		<path style="fill:#547580;" d="M132.414,423.724H52.966c-4.875,0-8.828-3.952-8.828-8.828s3.952-8.828,8.828-8.828h79.448
			c4.875,0,8.828-3.952,8.828-8.828v-44.138c0-4.875,3.952-8.828,8.828-8.828s8.828,3.952,8.828,8.828v44.138
			C158.897,411.867,147.04,423.724,132.414,423.724z"/>
		<path style="fill:#547580;" d="M459.034,423.724h-79.448c-14.626,0-26.483-11.857-26.483-26.483v-44.138
			c0-4.875,3.952-8.828,8.828-8.828s8.828,3.952,8.828,8.828v44.138c0,4.875,3.952,8.828,8.828,8.828h79.448
			c4.875,0,8.828,3.952,8.828,8.828S463.91,423.724,459.034,423.724z"/>
		<path style="fill:#547580;" d="M185.379,494.345h-26.483c-4.875,0-8.828-3.952-8.828-8.828s3.952-8.828,8.828-8.828h26.483
			c4.875,0,8.828-3.952,8.828-8.828V353.103c0-4.875,3.952-8.828,8.828-8.828s8.828,3.952,8.828,8.828v114.759
			C211.862,482.488,200.005,494.345,185.379,494.345z"/>
		<path style="fill:#547580;" d="M353.103,494.345h-26.483c-14.626,0-26.483-11.857-26.483-26.483V353.103
			c0-4.875,3.952-8.828,8.828-8.828s8.828,3.952,8.828,8.828v114.759c0,4.875,3.952,8.828,8.828,8.828h26.483
			c4.875,0,8.828,3.952,8.828,8.828S357.979,494.345,353.103,494.345z"/>
	</g>
	<path style="fill:#285680;" d="M105.578,0H408.92c13.051,0,23.631,10.58,23.631,23.631v305.832
		c0.002,6.269-2.486,12.282-6.918,16.716c-4.432,4.434-10.444,6.925-16.713,6.925H103.08c-6.269,0-12.281-2.491-16.713-6.925
		c-4.432-4.434-6.921-10.447-6.918-16.716V26.13c0-6.93,2.753-13.576,7.653-18.476C92.002,2.753,98.648,0,105.578,0z"/>
	<g>
		<path style="fill:#ECF0F1;" d="M105.931,185.379c-1.153-0.017-2.292-0.257-3.354-0.706c-1.069-0.448-2.055-1.075-2.913-1.854
			c-0.775-0.882-1.431-1.861-1.951-2.913c-0.418-1.068-0.624-2.207-0.609-3.354c-0.031-1.158,0.211-2.307,0.706-3.354
			c0.446-1.071,1.073-2.056,1.854-2.913c0.418-0.378,0.857-0.731,1.315-1.059c0.494-0.336,1.032-0.604,1.598-0.794
			c0.501-0.254,1.036-0.435,1.589-0.538c1.13-0.256,2.304-0.256,3.434,0c0.587,0.089,1.156,0.271,1.686,0.538
			c0.563,0.191,1.098,0.458,1.589,0.794c0.461,0.328,0.903,0.682,1.324,1.059c0.781,0.857,1.408,1.843,1.854,2.913
			c0.941,2.137,0.941,4.572,0,6.709c-0.803,2.218-2.549,3.964-4.767,4.767C108.223,185.122,107.084,185.362,105.931,185.379z"/>
		<path style="fill:#ECF0F1;" d="M406.069,185.379c-1.153-0.017-2.292-0.257-3.354-0.706c-1.069-0.448-2.055-1.075-2.913-1.854
			c-0.775-0.882-1.431-1.861-1.951-2.913c-0.418-1.068-0.624-2.207-0.609-3.354c-0.03-1.158,0.211-2.307,0.706-3.354
			c0.446-1.071,1.073-2.056,1.854-2.913c0.418-0.378,0.857-0.731,1.315-1.059c0.494-0.336,1.032-0.604,1.598-0.794
			c0.501-0.254,1.036-0.435,1.589-0.538c1.13-0.256,2.304-0.256,3.434,0c0.587,0.089,1.156,0.271,1.686,0.538
			c0.563,0.191,1.098,0.458,1.589,0.794c0.461,0.328,0.903,0.682,1.324,1.059c0.781,0.857,1.408,1.843,1.854,2.913
			c0.942,2.137,0.942,4.572,0,6.709c-0.803,2.218-2.549,3.964-4.767,4.767C408.361,185.122,407.222,185.362,406.069,185.379z"/>
	</g>
	<g>
		<circle style="fill:#F0C419;" cx="26.483" cy="414.897" r="26.483"/>
		<circle style="fill:#F0C419;" cx="132.414" cy="485.517" r="26.483"/>
		<circle style="fill:#F0C419;" cx="485.517" cy="414.897" r="26.483"/>
		<circle style="fill:#F0C419;" cx="379.586" cy="485.517" r="26.483"/>
	</g>
	<g>
		<path style="fill:#2FA8CC;" d="M247.172,79.448h17.655c4.875,0,8.828,3.952,8.828,8.828v70.621c0,4.875-3.952,8.828-8.828,8.828
			h-17.655c-4.875,0-8.828-3.952-8.828-8.828V88.276C238.345,83.401,242.297,79.448,247.172,79.448z"/>
		<path style="fill:#2FA8CC;" d="M158.897,247.172v-17.655c0-4.875,3.952-8.828,8.828-8.828h52.966c4.875,0,8.828,3.952,8.828,8.828
			v17.655c0,4.875-3.952,8.828-8.828,8.828h-52.966C162.849,256,158.897,252.048,158.897,247.172z"/>
		<path style="fill:#2FA8CC;" d="M282.483,247.172v-17.655c0-4.875,3.952-8.828,8.828-8.828h52.966c4.875,0,8.828,3.952,8.828,8.828
			v17.655c0,4.875-3.952,8.828-8.828,8.828H291.31C286.435,256,282.483,252.048,282.483,247.172z"/>
	</g>
</g>
<g>
</g>
<g>
</g>
<g>
</g>
<g>
</g>
<g>
</g>
<g>
</g>
<g>
</g>
<g>
</g>
<g>
</g>
<g>
</g>
<g>
</g>
<g>
</g>
<g>
</g>
<g>
</g>
<g>
</g>
</svg>
