<?xml version="1.0" encoding="iso-8859-1"?>
<!-- Generator: Adobe Illustrator 19.0.0, SVG Export Plug-In . SVG Version: 6.00 Build 0)  -->
<svg version="1.1" id="Capa_1" xmlns="http://www.w3.org/2000/svg" xmlns:xlink="http://www.w3.org/1999/xlink" x="0px" y="0px"
	 viewBox="0 0 512 512" style="enable-background:new 0 0 512 512;" xml:space="preserve">
<g>
	<path style="fill:#F0C419;" d="M108.475,182.238h295.051c9.585,0,17.356,7.771,17.356,17.356v147.525
		C420.882,438.181,347.062,512,256,512S91.119,438.181,91.119,347.119V199.594C91.119,190.008,98.889,182.238,108.475,182.238z"/>
	<path style="fill:#9BC8C2;" d="M143.187,190.916c-4.793,0-8.678-3.885-8.678-8.678v-59.965
		c-0.091-32.403,12.71-63.512,35.58-86.467C192.751,12.811,223.715-0.094,256,0.001c67.284,0.287,121.636,54.988,121.492,122.273
		c0,4.793-3.885,8.678-8.678,8.678s-8.678-3.885-8.678-8.678C360.285,64.572,313.701,17.639,256,17.356
		c-27.653-0.078-54.175,10.975-73.589,30.668c-19.636,19.713-30.626,46.425-30.546,74.249v59.965
		C151.865,187.031,147.979,190.916,143.187,190.916z"/>
	<circle style="fill:#46B29D;" cx="256" cy="347.119" r="130.169"/>
	<path style="fill:#65DDB9;" d="M256,485.967c-76.683,0-138.847-62.164-138.847-138.847S179.317,208.272,256,208.272
		s138.847,62.164,138.847,138.847C394.757,423.765,332.646,485.876,256,485.967z M256,225.628
		c-67.098,0-121.492,54.394-121.492,121.492S188.902,468.611,256,468.611s121.492-54.394,121.492-121.492
		C377.42,280.051,323.068,225.699,256,225.628z"/>
	<g>
		<path style="fill:#FFFFFF;" d="M299.39,399.187c-2.301,0-4.508-0.915-6.135-2.543l-43.39-43.39
			c-1.628-1.627-2.542-3.834-2.543-6.135v-60.746c0-4.793,3.885-8.678,8.678-8.678c4.793,0,8.678,3.885,8.678,8.678v57.153
			l40.847,40.847c2.481,2.482,3.223,6.214,1.88,9.456C306.063,397.072,302.899,399.186,299.39,399.187z"/>
		<path style="fill:#FFFFFF;" d="M264.678,260.34h-17.356c-4.793,0-8.678-3.885-8.678-8.678s3.885-8.678,8.678-8.678h17.356
			c4.793,0,8.678,3.885,8.678,8.678S269.471,260.34,264.678,260.34z"/>
		<path style="fill:#FFFFFF;" d="M264.678,451.255h-17.356c-4.793,0-8.678-3.885-8.678-8.678s3.885-8.678,8.678-8.678h17.356
			c4.793,0,8.678,3.885,8.678,8.678S269.471,451.255,264.678,451.255z"/>
		<path style="fill:#FFFFFF;" d="M182.368,294.435c-3.509-0.001-6.673-2.115-8.016-5.357c-1.343-3.242-0.601-6.974,1.88-9.456
			l12.271-12.271c2.179-2.256,5.405-3.161,8.439-2.366s5.404,3.164,6.198,6.198s-0.111,6.261-2.366,8.439l-12.271,12.271
			C186.876,293.52,184.669,294.435,182.368,294.435z"/>
		<path style="fill:#FFFFFF;" d="M317.362,429.43c-3.509-0.001-6.673-2.115-8.016-5.357c-1.343-3.242-0.601-6.974,1.88-9.456
			l12.271-12.279c3.388-3.391,8.884-3.393,12.275-0.004c3.391,3.388,3.393,8.884,0.004,12.275l-12.271,12.279
			C321.877,428.517,319.667,429.431,317.362,429.43z"/>
		<path style="fill:#FFFFFF;" d="M160.543,364.475c-4.793,0-8.678-3.885-8.678-8.678v-17.356c0-4.793,3.885-8.678,8.678-8.678
			s8.678,3.885,8.678,8.678v17.356C169.221,360.59,165.335,364.475,160.543,364.475z"/>
		<path style="fill:#FFFFFF;" d="M351.458,364.475c-4.793,0-8.678-3.885-8.678-8.678v-17.356c0-4.793,3.885-8.678,8.678-8.678
			s8.678,3.885,8.678,8.678v17.356C360.136,360.59,356.251,364.475,351.458,364.475z"/>
		<path style="fill:#FFFFFF;" d="M194.638,429.43c-2.304,0.002-4.515-0.913-6.144-2.543l-12.271-12.279
			c-3.388-3.391-3.387-8.887,0.004-12.275c3.391-3.388,8.887-3.386,12.275,0.004l12.271,12.279c2.481,2.482,3.223,6.214,1.88,9.456
			C201.311,427.315,198.148,429.429,194.638,429.43z"/>
		<path style="fill:#FFFFFF;" d="M329.633,294.435c-2.301,0-4.508-0.915-6.135-2.543l-12.271-12.271
			c-3.289-3.405-3.242-8.818,0.106-12.165s8.76-3.394,12.165-0.106l12.271,12.271c2.481,2.482,3.223,6.214,1.88,9.456
			C336.306,292.32,333.142,294.434,329.633,294.435z"/>
	</g>
</g>
<g>
</g>
<g>
</g>
<g>
</g>
<g>
</g>
<g>
</g>
<g>
</g>
<g>
</g>
<g>
</g>
<g>
</g>
<g>
</g>
<g>
</g>
<g>
</g>
<g>
</g>
<g>
</g>
<g>
</g>
</svg>
