<?xml version="1.0" encoding="iso-8859-1"?>
<!-- Generator: Adobe Illustrator 19.0.0, SVG Export Plug-In . SVG Version: 6.00 Build 0)  -->
<svg version="1.1" id="Capa_1" xmlns="http://www.w3.org/2000/svg" xmlns:xlink="http://www.w3.org/1999/xlink" x="0px" y="0px"
	 viewBox="0 0 512 512" style="enable-background:new 0 0 512 512;" xml:space="preserve">
<g transform="translate(-1)">
	<path style="fill:#F3D55B;" d="M386.174,347.119c0.698-6.514,1.045-13.061,1.041-19.612
		c0.122-52.712-23.378-102.705-64.043-136.244c-25.043-21.176-39.33-52.423-38.964-85.218V80.358
		c0.005-6.007-4.841-10.891-10.847-10.934H153.952c-6.007,0.043-10.852,4.927-10.847,10.934v26.468
		c0.499,32.214-13.484,62.952-38.096,83.742c-54.665,44.509-77.567,117.299-58.236,185.089s77.18,117.554,147.099,126.536
		c45.407,5.282,91.044-7.775,126.785-36.274"/>
	<path style="fill:#F18D46;" d="M239.69,130.169h-52.068c-4.793,0-8.678-3.885-8.678-8.678c0-4.793,3.885-8.678,8.678-8.678h52.068
		c4.793,0,8.678,3.885,8.678,8.678C248.368,126.284,244.483,130.169,239.69,130.169z"/>
	<path style="fill:#BDC3C7;" d="M187.622,0h52.068c19.171,0,34.712,15.541,34.712,34.712v34.712H152.911V34.712
		C152.911,15.541,168.452,0,187.622,0z"/>
	<path style="fill:#D1D4D1;" d="M199.607,0h28.108c16.201,0.005,29.332,13.139,29.332,29.34v40.084h-86.78V29.34
		C170.267,13.136,183.403,0,199.607,0z"/>
	<g>
		<path style="fill:#F9EAB0;" d="M100.843,303.729c-0.48-0.002-0.959-0.043-1.432-0.121c-2.271-0.378-4.298-1.643-5.636-3.517
			c-1.338-1.873-1.877-4.201-1.498-6.472c6.48-34.517,26.761-64.896,56.155-84.116c4.107-2.473,9.442-1.148,11.915,2.959
			c2.473,4.107,1.148,9.442-2.959,11.915c-24.922,16.721-42.186,42.653-47.998,72.097
			C108.695,300.655,105.081,303.723,100.843,303.729z"/>
		<path style="fill:#F9EAB0;" d="M100.843,347.119c-4.793,0-8.678-3.885-8.678-8.678v-8.678c0-4.793,3.885-8.678,8.678-8.678
			s8.678,3.885,8.678,8.678v8.678C109.521,343.233,105.636,347.119,100.843,347.119z"/>
	</g>
	<circle style="fill:#46B29D;" cx="335.148" cy="373.153" r="130.169"/>
	<path style="fill:#65DDB9;" d="M335.148,512C258.465,512,196.3,449.836,196.3,373.153s62.164-138.847,138.847-138.847
		s138.847,62.164,138.847,138.847C473.904,449.798,411.794,511.909,335.148,512z M335.148,251.661
		c-67.098,0-121.492,54.394-121.492,121.492s54.394,121.492,121.492,121.492s121.492-54.394,121.492-121.492
		C456.568,306.084,402.216,251.733,335.148,251.661z"/>
	<g>
		<path style="fill:#FFFFFF;" d="M378.538,425.22c-2.301,0-4.508-0.915-6.135-2.543l-43.39-43.39
			c-1.628-1.627-2.542-3.834-2.543-6.135v-60.746c0-4.793,3.885-8.678,8.678-8.678c4.793,0,8.678,3.885,8.678,8.678v57.153
			l40.847,40.847c2.481,2.482,3.223,6.214,1.88,9.456S382.047,425.22,378.538,425.22z"/>
		<path style="fill:#FFFFFF;" d="M343.826,286.373H326.47c-4.793,0-8.678-3.885-8.678-8.678s3.885-8.678,8.678-8.678h17.356
			c4.793,0,8.678,3.885,8.678,8.678S348.619,286.373,343.826,286.373z"/>
		<path style="fill:#FFFFFF;" d="M343.826,477.288H326.47c-4.793,0-8.678-3.885-8.678-8.678s3.885-8.678,8.678-8.678h17.356
			c4.793,0,8.678,3.885,8.678,8.678S348.619,477.288,343.826,477.288z"/>
		<path style="fill:#FFFFFF;" d="M261.515,320.469c-3.509-0.001-6.673-2.115-8.016-5.357c-1.343-3.242-0.601-6.974,1.88-9.456
			l12.271-12.271c3.405-3.289,8.818-3.242,12.165,0.106s3.394,8.76,0.106,12.165l-12.271,12.271
			C266.024,319.554,263.817,320.468,261.515,320.469z"/>
		<path style="fill:#FFFFFF;" d="M396.51,455.463c-3.509-0.001-6.673-2.115-8.016-5.357c-1.343-3.242-0.601-6.974,1.88-9.456
			l12.271-12.279c3.388-3.391,8.884-3.393,12.275-0.004c3.391,3.388,3.393,8.884,0.004,12.275l-12.271,12.279
			C401.025,454.55,398.814,455.465,396.51,455.463z"/>
		<path style="fill:#FFFFFF;" d="M239.69,390.508c-4.793,0-8.678-3.885-8.678-8.678v-17.356c0-4.793,3.885-8.678,8.678-8.678
			c4.793,0,8.678,3.885,8.678,8.678v17.356C248.368,386.623,244.483,390.508,239.69,390.508z"/>
		<path style="fill:#FFFFFF;" d="M430.606,390.508c-4.793,0-8.678-3.885-8.678-8.678v-17.356c0-4.793,3.885-8.678,8.678-8.678
			c4.793,0,8.678,3.885,8.678,8.678v17.356C439.283,386.623,435.398,390.508,430.606,390.508z"/>
		<path style="fill:#FFFFFF;" d="M273.786,455.463c-2.304,0.002-4.515-0.913-6.144-2.543l-12.271-12.279
			c-3.388-3.391-3.386-8.887,0.004-12.275c3.391-3.388,8.887-3.386,12.275,0.004l12.271,12.279c2.481,2.482,3.223,6.214,1.88,9.456
			C280.459,453.348,277.295,455.462,273.786,455.463z"/>
		<path style="fill:#FFFFFF;" d="M408.78,320.469c-2.301-0.001-4.508-0.915-6.135-2.543l-12.271-12.271
			c-3.289-3.405-3.242-8.818,0.106-12.165c3.347-3.347,8.76-3.394,12.165-0.106l12.271,12.271c2.481,2.482,3.223,6.214,1.88,9.456
			C415.453,318.354,412.29,320.468,408.78,320.469z"/>
	</g>
</g>
<g>
</g>
<g>
</g>
<g>
</g>
<g>
</g>
<g>
</g>
<g>
</g>
<g>
</g>
<g>
</g>
<g>
</g>
<g>
</g>
<g>
</g>
<g>
</g>
<g>
</g>
<g>
</g>
<g>
</g>
</svg>
