<?xml version="1.0" encoding="iso-8859-1"?>
<!-- Generator: Adobe Illustrator 19.0.0, SVG Export Plug-In . SVG Version: 6.00 Build 0)  -->
<svg version="1.1" id="Capa_1" xmlns="http://www.w3.org/2000/svg" xmlns:xlink="http://www.w3.org/1999/xlink" x="0px" y="0px"
	 viewBox="0 0 512 512" style="enable-background:new 0 0 512 512;" xml:space="preserve">
<g>
	<path style="fill:#894B9D;" d="M269.017,156.203V468.61c0,19.171-15.541,34.712-34.712,34.712H60.746
		c-19.171,0-34.712-15.541-34.712-34.712V34.712C26.034,15.541,41.575,0,60.746,0h173.559c19.171,0,34.712,15.541,34.712,34.712
		V156.203z"/>
	<g>
		<path style="fill:#3D324C;" d="M202.37,156.203c-12.175,25.667-40.513,39.468-68.227,33.228
			c-27.714-6.24-47.403-30.854-47.403-59.262s19.689-53.022,47.403-59.262s56.052,7.561,68.227,33.228"/>
		<path style="fill:#3D324C;" d="M147.525,355.797c-14.378,0-26.034-11.656-26.034-26.034s11.656-26.034,26.034-26.034
			s26.034,11.656,26.034,26.034S161.904,355.797,147.525,355.797z M147.525,321.085c-4.793,0-8.678,3.885-8.678,8.678
			c0,4.793,3.885,8.678,8.678,8.678c4.793,0,8.678-3.885,8.678-8.678C156.203,324.97,152.318,321.085,147.525,321.085z"/>
		<path style="fill:#3D324C;" d="M147.525,390.508c-4.793,0-8.678-3.885-8.678-8.678v-34.712c0-4.793,3.885-8.678,8.678-8.678
			c4.793,0,8.678,3.885,8.678,8.678v34.712C156.203,386.623,152.318,390.508,147.525,390.508z"/>
	</g>
	<path style="fill:#F0C419;" d="M147.525,104.136h251.661c14.378,0,26.034,11.656,26.034,26.034l0,0
		c0,14.378-11.656,26.034-26.034,26.034H147.525c-14.378,0-26.034-11.656-26.034-26.034l0,0
		C121.492,115.791,133.147,104.136,147.525,104.136z"/>
	<circle style="fill:#46B29D;" cx="347.119" cy="373.153" r="130.169"/>
	<path style="fill:#65DDB9;" d="M347.119,512c-76.683,0-138.847-62.164-138.847-138.847s62.164-138.847,138.847-138.847
		s138.847,62.164,138.847,138.847C485.875,449.798,423.764,511.909,347.119,512z M347.119,251.661
		c-67.098,0-121.492,54.394-121.492,121.492s54.394,121.492,121.492,121.492S468.61,440.25,468.61,373.153
		C468.538,306.084,414.187,251.733,347.119,251.661z"/>
	<g>
		<path style="fill:#FFFFFF;" d="M390.508,425.22c-2.301,0-4.508-0.915-6.135-2.543l-43.39-43.39
			c-1.628-1.627-2.542-3.834-2.543-6.135v-60.746c0-4.793,3.885-8.678,8.678-8.678c4.793,0,8.678,3.885,8.678,8.678v57.153
			l40.847,40.847c2.481,2.482,3.223,6.214,1.88,9.456C397.181,423.105,394.018,425.22,390.508,425.22z"/>
		<path style="fill:#FFFFFF;" d="M355.797,286.373h-17.356c-4.793,0-8.678-3.885-8.678-8.678s3.885-8.678,8.678-8.678h17.356
			c4.793,0,8.678,3.885,8.678,8.678S360.589,286.373,355.797,286.373z"/>
		<path style="fill:#FFFFFF;" d="M355.797,477.288h-17.356c-4.793,0-8.678-3.885-8.678-8.678s3.885-8.678,8.678-8.678h17.356
			c4.793,0,8.678,3.885,8.678,8.678S360.589,477.288,355.797,477.288z"/>
		<path style="fill:#FFFFFF;" d="M273.486,320.469c-3.509-0.001-6.673-2.115-8.016-5.357c-1.343-3.242-0.601-6.974,1.88-9.456
			l12.271-12.271c3.405-3.289,8.818-3.242,12.165,0.106c3.347,3.347,3.394,8.76,0.106,12.165l-12.271,12.271
			C277.994,319.554,275.787,320.468,273.486,320.469z"/>
		<path style="fill:#FFFFFF;" d="M408.481,455.463c-3.509-0.001-6.673-2.115-8.016-5.357c-1.343-3.242-0.601-6.974,1.88-9.456
			l12.271-12.279c3.388-3.391,8.884-3.393,12.275-0.004c3.391,3.388,3.393,8.884,0.004,12.275l-12.271,12.279
			C412.995,454.55,410.785,455.465,408.481,455.463z"/>
		<path style="fill:#FFFFFF;" d="M251.661,390.508c-4.793,0-8.678-3.885-8.678-8.678v-17.356c0-4.793,3.885-8.678,8.678-8.678
			c4.793,0,8.678,3.885,8.678,8.678v17.356C260.339,386.623,256.454,390.508,251.661,390.508z"/>
		<path style="fill:#FFFFFF;" d="M442.576,390.508c-4.793,0-8.678-3.885-8.678-8.678v-17.356c0-4.793,3.885-8.678,8.678-8.678
			c4.793,0,8.678,3.885,8.678,8.678v17.356C451.254,386.623,447.369,390.508,442.576,390.508z"/>
		<path style="fill:#FFFFFF;" d="M285.757,455.463c-2.304,0.002-4.515-0.913-6.144-2.543l-12.271-12.279
			c-3.388-3.391-3.387-8.887,0.004-12.275c3.391-3.388,8.887-3.386,12.275,0.004l12.271,12.279c2.481,2.482,3.223,6.214,1.88,9.456
			C292.43,453.348,289.266,455.462,285.757,455.463z"/>
		<path style="fill:#FFFFFF;" d="M420.751,320.469c-2.301-0.001-4.508-0.915-6.135-2.543l-12.271-12.271
			c-3.289-3.405-3.242-8.818,0.106-12.165s8.76-3.394,12.165-0.106l12.271,12.271c2.481,2.482,3.223,6.214,1.88,9.456
			C427.424,318.354,424.261,320.468,420.751,320.469z"/>
	</g>
</g>
<g>
</g>
<g>
</g>
<g>
</g>
<g>
</g>
<g>
</g>
<g>
</g>
<g>
</g>
<g>
</g>
<g>
</g>
<g>
</g>
<g>
</g>
<g>
</g>
<g>
</g>
<g>
</g>
<g>
</g>
</svg>
