<?xml version="1.0" encoding="iso-8859-1"?>
<!-- Generator: Adobe Illustrator 19.0.0, SVG Export Plug-In . SVG Version: 6.00 Build 0)  -->
<svg version="1.1" id="Capa_1" xmlns="http://www.w3.org/2000/svg" xmlns:xlink="http://www.w3.org/1999/xlink" x="0px" y="0px"
	 viewBox="0 0 512 512" style="enable-background:new 0 0 512 512;" xml:space="preserve">
<g>
	<path style="fill:#2C3E50;" d="M308.966,141.241h176.552c14.626,0,26.483,11.857,26.483,26.483v317.793
		C512,500.143,500.143,512,485.517,512H308.966c-14.626,0-26.483-11.857-26.483-26.483V167.724
		C282.483,153.098,294.34,141.241,308.966,141.241z"/>
	<rect x="282.483" y="194.207" style="fill:#4482C3;" width="229.517" height="256"/>
	<path style="fill:#FF5364;" d="M406.069,379.586h-17.655c-34.111-0.039-61.754-27.682-61.793-61.793v-17.655
		c0-4.875,3.952-8.828,8.828-8.828s8.828,3.952,8.828,8.828v17.655c0.029,24.365,19.773,44.109,44.138,44.138h17.655
		c24.365-0.029,44.109-19.773,44.138-44.138v-17.655c0-4.875,3.952-8.828,8.828-8.828s8.828,3.952,8.828,8.828v17.655
		C467.823,351.904,440.18,379.547,406.069,379.586z"/>
	<path style="fill:#F3D55B;" d="M388.414,229.517h17.655c9.751,0,17.655,7.904,17.655,17.655v70.621
		c0,9.751-7.904,17.655-17.655,17.655h-17.655c-9.751,0-17.655-7.905-17.655-17.655v-70.621
		C370.759,237.422,378.663,229.517,388.414,229.517z"/>
	<g>
		<path style="fill:#FF5364;" d="M397.241,423.724c-4.875,0-8.828-3.952-8.828-8.828v-44.138c0-4.875,3.952-8.828,8.828-8.828
			c4.875,0,8.828,3.952,8.828,8.828v44.138C406.069,419.772,402.117,423.724,397.241,423.724z"/>
		<path style="fill:#FF5364;" d="M414.897,423.724h-35.31c-4.875,0-8.828-3.952-8.828-8.828s3.952-8.828,8.828-8.828h35.31
			c4.875,0,8.828,3.952,8.828,8.828S419.772,423.724,414.897,423.724z"/>
	</g>
	<path style="fill:#556080;" d="M176.552,0C79.007,0,0,27.63,0,61.793v300.138c0,34.163,79.007,61.793,176.552,61.793
		c35.689,0.337,71.278-3.815,105.931-12.359V167.724c0-14.626,11.857-26.483,26.483-26.483h44.138V61.793
		C353.103,27.63,274.097,0,176.552,0z"/>
	<ellipse style="fill:#2C3E50;" cx="176.552" cy="61.793" rx="176.552" ry="61.793"/>
	<ellipse style="fill:#35495E;" cx="176.552" cy="61.793" rx="123.586" ry="26.483"/>
	<path style="fill:#3D324C;" d="M282.483,323.09v88.276c-34.653,8.543-70.242,12.695-105.931,12.359
		C79.007,423.724,0,396.094,0,361.931v-88.276c0,34.163,79.007,61.793,176.552,61.793
		C212.241,335.785,247.83,331.633,282.483,323.09z"/>
</g>
<g>
</g>
<g>
</g>
<g>
</g>
<g>
</g>
<g>
</g>
<g>
</g>
<g>
</g>
<g>
</g>
<g>
</g>
<g>
</g>
<g>
</g>
<g>
</g>
<g>
</g>
<g>
</g>
<g>
</g>
</svg>
