<?xml version="1.0" encoding="iso-8859-1"?>
<!-- Generator: Adobe Illustrator 19.0.0, SVG Export Plug-In . SVG Version: 6.00 Build 0)  -->
<svg version="1.1" id="Capa_1" xmlns="http://www.w3.org/2000/svg" xmlns:xlink="http://www.w3.org/1999/xlink" x="0px" y="0px"
	 viewBox="0 0 512 512" style="enable-background:new 0 0 512 512;" xml:space="preserve">
<g>
	<path style="fill:#2C3E50;" d="M360.113,165.662V26.034C360.113,11.656,348.457,0,334.079,0H56.384
		C42.006,0,30.35,11.656,30.35,26.034v407.864c0,14.378,11.656,26.034,26.034,26.034h277.695c2.964,0.018,5.906-0.511,8.678-1.562
		L360.113,165.662z"/>
	<polygon style="fill:#4482C3;" points="334.079,399.186 30.35,399.186 30.35,52.068 360.113,52.068 360.113,165.662 	"/>
	<path style="fill:#F3D55B;" d="M412.181,416.542c4.793,0,8.678-3.885,8.678-8.678v-8.678c-0.664-18.211,7.442-35.637,21.799-46.861
		c32.793-26.794,46.524-70.515,34.936-111.246s-46.276-70.678-88.262-76.198h-23.726c-41.985,5.522-76.671,35.47-88.256,76.201
		s2.146,84.451,34.939,111.243c14.354,11.225,22.457,28.651,21.79,46.861v8.678c0,4.793,3.885,8.678,8.678,8.678H412.181z"/>
	<rect x="342.757" y="416.542" style="fill:#BDC3C7;" width="69.424" height="34.712"/>
	<path style="fill:#556080;" d="M412.181,451.254v17.356c0,19.171-15.541,34.712-34.712,34.712s-34.712-15.541-34.712-34.712
		v-17.356H412.181z"/>
	<path style="fill:#BDC3C7;" d="M377.469,512c-4.793,0-8.678-3.885-8.678-8.678v-17.356c0-4.793,3.885-8.678,8.678-8.678
		s8.678,3.885,8.678,8.678v17.356C386.147,508.115,382.261,512,377.469,512z"/>
	<g>
		<path style="fill:#FF5364;" d="M444.966,262.222c-2.301,0-4.508-0.915-6.135-2.543c-33.911-33.836-88.813-33.836-122.724,0
			c-3.405,3.289-8.818,3.242-12.165-0.106c-3.347-3.347-3.394-8.76-0.106-12.165c40.689-40.612,106.576-40.612,147.265,0
			c2.481,2.482,3.223,6.214,1.88,9.456C451.639,260.107,448.475,262.221,444.966,262.222z"/>
		<path style="fill:#FF5364;" d="M420.425,286.763c-2.301,0-4.508-0.915-6.135-2.543c-20.352-20.295-53.289-20.295-73.641,0
			c-2.179,2.256-5.405,3.161-8.439,2.366c-3.034-0.794-5.404-3.164-6.198-6.198c-0.794-3.034,0.111-6.261,2.366-8.439
			c27.128-27.075,71.055-27.075,98.183,0c2.481,2.482,3.223,6.214,1.88,9.456C427.097,284.648,423.934,286.763,420.425,286.763z"/>
		<path style="fill:#FF5364;" d="M395.875,311.305c-2.301,0-4.508-0.915-6.135-2.543c-6.778-6.775-17.764-6.775-24.541,0
			c-3.405,3.289-8.818,3.242-12.165-0.106c-3.347-3.347-3.394-8.76-0.106-12.165c13.555-13.551,35.528-13.551,49.083,0
			c2.481,2.482,3.223,6.214,1.88,9.456C402.548,309.19,399.384,311.304,395.875,311.305z"/>
	</g>
	<circle style="fill:#F0C419;" cx="195.231" cy="225.627" r="52.068"/>
	<path style="fill:#F29C1F;" d="M195.231,286.373c-33.549,0-60.746-27.197-60.746-60.746s27.197-60.746,60.746-60.746
		s60.746,27.197,60.746,60.746C255.939,259.16,228.765,286.335,195.231,286.373z M195.231,182.237
		c-23.964,0-43.39,19.426-43.39,43.39s19.426,43.39,43.39,43.39s43.39-19.426,43.39-43.39
		C238.593,201.675,219.183,182.266,195.231,182.237z"/>
	<g>
		<path style="fill:#F3D55B;" d="M240.123,308.589c-3.898,0.004-7.32-2.591-8.367-6.345c-1.048-3.754,0.536-7.746,3.872-9.761
			c2.222-1.335,4.374-2.783,6.448-4.339c3.834-2.876,9.274-2.099,12.149,1.736c2.876,3.834,2.099,9.274-1.736,12.149
			c-2.544,1.917-5.186,3.702-7.914,5.346C243.227,308.173,241.689,308.593,240.123,308.589z"/>
		<path style="fill:#F3D55B;" d="M195.231,321.085c-2.248,0-4.487-0.078-6.691-0.234c-2.307-0.158-4.456-1.229-5.969-2.978
			c-1.514-1.748-2.267-4.028-2.093-6.334c0.139-2.304,1.202-4.455,2.949-5.964c1.746-1.509,4.028-2.25,6.328-2.054
			c5.306,0.361,10.635,0.186,15.907-0.521c4.75-0.645,9.122,2.683,9.767,7.433c0.645,4.75-2.683,9.122-7.433,9.767
			C203.766,320.782,199.502,321.077,195.231,321.085z M155.243,311.348c-1.389,0-2.758-0.333-3.992-0.972
			c-5.778-3.004-11.233-6.592-16.28-10.709c-3.717-3.029-4.274-8.498-1.245-12.214s8.497-4.274,12.214-1.245
			c4.125,3.367,8.586,6.302,13.312,8.756c3.557,1.842,5.391,5.878,4.439,9.769C162.739,308.623,159.249,311.357,155.243,311.348z
			 M118.215,274.302c-3.242,0.007-6.217-1.794-7.715-4.669c-3.003-5.779-5.405-11.85-7.168-18.12
			c-0.912-3.008-0.127-6.273,2.052-8.538s5.413-3.173,8.453-2.376c3.04,0.797,5.412,3.176,6.199,6.219
			c1.443,5.106,3.409,10.05,5.866,14.753c1.401,2.689,1.297,5.914-0.275,8.507c-1.571,2.593-4.382,4.178-7.414,4.18V274.302z
			 M109.233,222.703c-2.501-0.003-4.879-1.085-6.525-2.968c-1.646-1.883-2.399-4.385-2.066-6.864
			c0.868-6.453,2.392-12.8,4.547-18.944c1.029-2.925,3.541-5.079,6.589-5.65c3.048-0.571,6.169,0.527,8.188,2.881
			c2.019,2.354,2.628,5.606,1.599,8.531c-1.778,5.032-3.031,10.235-3.74,15.525C117.231,219.504,113.564,222.7,109.233,222.703z
			 M131.57,175.295c-3.45-0.001-6.572-2.045-7.952-5.208c-1.38-3.162-0.755-6.842,1.591-9.371
			c4.421-4.767,9.311-9.075,14.596-12.861c3.899-2.789,9.321-1.89,12.11,2.009c2.789,3.899,1.89,9.321-2.009,12.11
			c-4.329,3.114-8.333,6.659-11.95,10.578C136.309,174.325,133.99,175.32,131.57,175.295z M244.696,163.033
			c-1.773,0.003-3.504-0.542-4.955-1.562c-4.374-3.039-9.047-5.624-13.945-7.715c-4.409-1.884-6.457-6.985-4.573-11.394
			c1.884-4.409,6.985-6.457,11.394-4.573c5.988,2.563,11.698,5.729,17.044,9.45c3.107,2.169,4.448,6.103,3.312,9.718
			C251.835,160.572,248.485,163.032,244.696,163.033z M177.008,149.417c-4.426-0.037-8.115-3.4-8.561-7.805
			c-0.445-4.404,2.496-8.438,6.825-9.36c6.374-1.356,12.87-2.054,19.387-2.083c4.793,0,8.678,3.885,8.678,8.678
			s-3.885,8.678-8.678,8.678c-5.324,0.041-10.631,0.622-15.837,1.736c-0.571,0.113-1.153,0.166-1.736,0.156H177.008z"/>
		<path style="fill:#F3D55B;" d="M273.333,196.443c-3.326,0-6.36-1.901-7.81-4.894c-1.157-2.355-2.412-4.637-3.766-6.847
			c-2.234-4.052-0.896-9.145,3.042-11.575c3.938-2.43,9.09-1.343,11.71,2.472c1.655,2.708,3.185,5.499,4.591,8.374
			c1.307,2.69,1.137,5.864-0.451,8.398s-4.368,4.073-7.359,4.072H273.333z"/>
	</g>
</g>
<g>
</g>
<g>
</g>
<g>
</g>
<g>
</g>
<g>
</g>
<g>
</g>
<g>
</g>
<g>
</g>
<g>
</g>
<g>
</g>
<g>
</g>
<g>
</g>
<g>
</g>
<g>
</g>
<g>
</g>
</svg>
