<?xml version="1.0" encoding="iso-8859-1"?>
<!-- Generator: Adobe Illustrator 19.0.0, SVG Export Plug-In . SVG Version: 6.00 Build 0)  -->
<svg version="1.1" id="Capa_1" xmlns="http://www.w3.org/2000/svg" xmlns:xlink="http://www.w3.org/1999/xlink" x="0px" y="0px"
	 viewBox="0 0 512.018 512.018" style="enable-background:new 0 0 512.018 512.018;" xml:space="preserve">
<g transform="translate(0 -1)">
	<g>
		<path style="fill:#556080;" d="M247.181,168.743h256c2.357,0,4.615-0.942,6.273-2.617s2.578-3.943,2.554-6.299V138.64
			c0.016-3.33-1.822-6.392-4.767-7.945L260.07,1.989c-2.546-1.319-5.575-1.319-8.121,0L1.669,135.092v33.103l15.996,0.547H247.181z"
			/>
		<path style="fill:#95A5A5;" d="M247.181,168.743h247.172v335.448c0,4.875-3.952,8.828-8.828,8.828H26.492
			c-4.875,0-8.828-3.952-8.828-8.828V168.743H247.181z"/>
		<path style="fill:#7F8C8D;" d="M247.181,204.053h185.379c9.751,0,17.655,7.904,17.655,17.655v291.31H61.802V204.053H247.181z"/>
		<rect x="97.112" y="451.225" style="fill:#2C2F38;" width="317.793" height="61.793"/>
	</g>
	<path style="fill:none;stroke:#000000;stroke-width:2;stroke-linecap:round;stroke-linejoin:round;" d="M97.112,345.294h17.655"/>
	<g>
		<g>
			<rect x="97.112" y="415.915" style="fill:#C03A2B;" width="317.793" height="35.31"/>
			<rect x="97.112" y="345.294" style="fill:#C03A2B;" width="317.793" height="35.31"/>
			<rect x="97.112" y="274.674" style="fill:#C03A2B;" width="317.793" height="35.31"/>
		</g>
		<g>
			<rect x="97.112" y="380.605" style="fill:#E64C3C;" width="317.793" height="35.31"/>
			<rect x="97.112" y="239.363" style="fill:#E64C3C;" width="317.793" height="35.31"/>
			<rect x="97.112" y="309.984" style="fill:#E64C3C;" width="317.793" height="35.31"/>
		</g>
		<path style="fill:#4482C3;" d="M17.664,1.018h176.552c9.751,0,17.655,7.904,17.655,17.655v344.276
			c0,9.751-7.904,17.655-17.655,17.655H17.664c-9.751,0-17.655-7.905-17.655-17.655V18.674C0.009,8.923,7.913,1.018,17.664,1.018z"
			/>
		<path style="fill:#2C3E50;" d="M44.147,53.984h123.586c4.875,0,8.828,3.952,8.828,8.828v123.586c0,4.875-3.952,8.828-8.828,8.828
			H44.147c-4.875,0-8.828-3.952-8.828-8.828V62.811C35.319,57.936,39.272,53.984,44.147,53.984z"/>
		<g>
			<path style="fill:#65DDB9;" d="M105.94,283.501c-4.875,0-8.828-3.952-8.828-8.828v-22.828l-2.586,2.587
				c-3.464,3.345-8.97,3.298-12.375-0.108c-3.405-3.405-3.453-8.911-0.108-12.375l17.655-17.655
				c2.525-2.524,6.321-3.279,9.619-1.913c3.298,1.366,5.449,4.584,5.45,8.154v44.138
				C114.768,279.549,110.815,283.501,105.94,283.501z"/>
			<path style="fill:#65DDB9;" d="M123.595,257.018c-2.341-0.001-4.586-0.931-6.241-2.586l-17.655-17.655
				c-3.345-3.464-3.298-8.97,0.108-12.375s8.911-3.453,12.375-0.108l17.655,17.655c2.524,2.525,3.279,6.321,1.913,9.619
				C130.383,254.867,127.165,257.018,123.595,257.018z"/>
		</g>
		<path style="fill:#2C3E50;" d="M211.871,309.984v52.966c-0.029,9.739-7.917,17.626-17.655,17.655H17.664
			c-9.739-0.029-17.626-7.917-17.655-17.655v-52.966H211.871z"/>
		<path style="fill:#E64C3C;" d="M176.561,62.811v26.483H35.319V62.811c0-4.875,3.952-8.828,8.828-8.828h123.586
			C172.608,53.984,176.561,57.936,176.561,62.811z"/>
		<rect x="35.319" y="89.294" style="fill:#C03A2B;" width="141.241" height="35.31"/>
	</g>
</g>
<g>
</g>
<g>
</g>
<g>
</g>
<g>
</g>
<g>
</g>
<g>
</g>
<g>
</g>
<g>
</g>
<g>
</g>
<g>
</g>
<g>
</g>
<g>
</g>
<g>
</g>
<g>
</g>
<g>
</g>
</svg>
