<?xml version="1.0" encoding="iso-8859-1"?>
<!-- Generator: Adobe Illustrator 19.0.0, SVG Export Plug-In . SVG Version: 6.00 Build 0)  -->
<svg version="1.1" id="Capa_1" xmlns="http://www.w3.org/2000/svg" xmlns:xlink="http://www.w3.org/1999/xlink" x="0px" y="0px"
	 viewBox="0 0 511.219 511.219" style="enable-background:new 0 0 511.219 511.219;" xml:space="preserve">
<g>
	<path style="fill:#9BC8C2;" d="M142.796,224.846c-4.793,0-8.678-3.885-8.678-8.678v-94.677C134.118,54.394,188.512,0,255.609,0
		s121.492,54.394,121.492,121.492c0,4.793-3.885,8.678-8.678,8.678c-4.793,0-8.678-3.885-8.678-8.678
		c0-57.512-46.623-104.136-104.136-104.136S151.474,63.979,151.474,121.492v94.677C151.474,220.961,147.589,224.846,142.796,224.846
		z"/>
	<path style="fill:#F0C419;" d="M116.762,216.168h277.695c9.585,0,17.356,7.771,17.356,17.356V361.09
		c0,82.914-67.215,150.129-150.129,150.129h-12.149c-82.914,0-150.129-67.215-150.129-150.129V233.524
		C99.406,223.939,107.177,216.168,116.762,216.168z"/>
	<g>
		<path style="fill:#E57E25;" d="M316.355,346.338H194.864c-4.793,0-8.678-3.885-8.678-8.678c0-4.793,3.885-8.678,8.678-8.678
			h121.492c4.793,0,8.678,3.885,8.678,8.678C325.033,342.452,321.148,346.338,316.355,346.338z"/>
		<path style="fill:#E57E25;" d="M316.355,398.405H194.864c-4.793,0-8.678-3.885-8.678-8.678c0-4.793,3.885-8.678,8.678-8.678
			h121.492c4.793,0,8.678,3.885,8.678,8.678C325.033,394.52,321.148,398.405,316.355,398.405z"/>
	</g>
</g>
<g>
</g>
<g>
</g>
<g>
</g>
<g>
</g>
<g>
</g>
<g>
</g>
<g>
</g>
<g>
</g>
<g>
</g>
<g>
</g>
<g>
</g>
<g>
</g>
<g>
</g>
<g>
</g>
<g>
</g>
</svg>
