<?xml version="1.0" encoding="iso-8859-1"?>
<!-- Generator: Adobe Illustrator 19.0.0, SVG Export Plug-In . SVG Version: 6.00 Build 0)  -->
<svg version="1.1" id="Capa_1" xmlns="http://www.w3.org/2000/svg" xmlns:xlink="http://www.w3.org/1999/xlink" x="0px" y="0px"
	 viewBox="0 0 512.015 512.015" style="enable-background:new 0 0 512.015 512.015;" xml:space="preserve">
<g transform="translate(-1)">
	<path style="fill:#7D6599;" d="M402.081,148.21v301.653c0.014,2.886-1.121,5.659-3.154,7.708c-2.033,2.049-4.797,3.205-7.683,3.214
		H88.652c-2.886-0.009-5.65-1.165-7.683-3.214c-2.033-2.049-3.168-4.822-3.154-7.708V169.714l158.464-140.8
		c5.246-4.438,12.93-4.438,18.176,0L402.081,148.21z"/>
	<g>
		<path style="fill:#FF5364;" d="M504.481,239.457c-1.95-0.001-3.842-0.669-5.359-1.894L249.053,35.588
			c-2.024-1.905-5.164-1.961-7.253-0.128L15.214,236.769c-3.535,3.129-8.937,2.801-12.066-0.734
			c-3.129-3.535-2.801-8.937,0.734-12.066L230.621,22.566c8.406-7.242,20.83-7.3,29.303-0.137l249.907,201.847
			c2.819,2.269,3.901,6.07,2.698,9.484C511.326,237.174,508.101,239.457,504.481,239.457z"/>
		<path style="fill:#FF5364;" d="M86.348,162.12c-4.713,0-8.533-3.821-8.533-8.533V85.32c0-4.713,3.821-8.533,8.533-8.533
			c4.713,0,8.533,3.821,8.533,8.533v68.267C94.881,158.299,91.061,162.12,86.348,162.12z"/>
	</g>
	<path style="fill:#4FBA6F;" d="M367.24,415.56l80.128-58.539c31.115-22.299,51.457-56.62,56.081-94.62
		c4.624-38-6.893-76.198-31.752-105.308L360.268,25.988c-0.224-0.256-0.547-0.404-0.887-0.404c-0.34,0-0.664,0.147-0.887,0.404
		l-111.36,131.123c-24.859,29.11-36.376,67.308-31.752,105.308c4.624,38,24.966,72.321,56.081,94.62l80.128,58.539
		C356.26,418.959,362.577,418.953,367.24,415.56z"/>
	<g>
		<path style="fill:#59474E;" d="M359.415,494.92c-4.713,0-8.533-3.82-8.533-8.533v-358.4c0-4.713,3.821-8.533,8.533-8.533
			c4.713,0,8.533,3.821,8.533,8.533v358.4C367.948,491.099,364.127,494.92,359.415,494.92z"/>
		<path style="fill:#59474E;" d="M359.415,247.453c-3.451-0.001-6.562-2.08-7.882-5.268c-1.32-3.188-0.591-6.858,1.849-9.298
			l51.2-51.2c3.348-3.234,8.671-3.188,11.962,0.104c3.292,3.292,3.338,8.614,0.104,11.962l-51.2,51.2
			C363.848,246.553,361.678,247.453,359.415,247.453z"/>
		<path style="fill:#59474E;" d="M359.415,341.32c-3.451-0.001-6.562-2.08-7.882-5.268c-1.32-3.188-0.591-6.858,1.849-9.298
			l68.267-68.267c3.348-3.234,8.671-3.188,11.962,0.104c3.292,3.292,3.338,8.614,0.104,11.962l-68.267,68.267
			C363.848,340.42,361.678,341.319,359.415,341.32z"/>
		<path style="fill:#59474E;" d="M359.415,247.453c-2.263,0-4.433-0.9-6.033-2.5l-51.2-51.2c-3.234-3.348-3.188-8.671,0.104-11.962
			c3.292-3.292,8.614-3.338,11.962-0.104l51.2,51.2c2.44,2.44,3.169,6.11,1.849,9.298
			C365.976,245.373,362.865,247.452,359.415,247.453z"/>
		<path style="fill:#59474E;" d="M359.415,341.32c-2.263,0-4.433-0.9-6.033-2.5l-68.267-68.267
			c-3.234-3.348-3.188-8.671,0.104-11.962c3.292-3.292,8.614-3.338,11.962-0.104l68.267,68.267c2.44,2.44,3.169,6.11,1.849,9.298
			C365.976,339.24,362.865,341.319,359.415,341.32z"/>
	</g>
</g>
<g>
</g>
<g>
</g>
<g>
</g>
<g>
</g>
<g>
</g>
<g>
</g>
<g>
</g>
<g>
</g>
<g>
</g>
<g>
</g>
<g>
</g>
<g>
</g>
<g>
</g>
<g>
</g>
<g>
</g>
</svg>
