<?xml version="1.0" encoding="iso-8859-1"?>
<!-- Generator: Adobe Illustrator 19.0.0, SVG Export Plug-In . SVG Version: 6.00 Build 0)  -->
<svg version="1.1" id="Capa_1" xmlns="http://www.w3.org/2000/svg" xmlns:xlink="http://www.w3.org/1999/xlink" x="0px" y="0px"
	 viewBox="0 0 512 512" style="enable-background:new 0 0 512 512;" xml:space="preserve">
<g>
	<path style="fill:#46B29D;" d="M437.053,437.054c-100.02,99.928-262.087,99.928-362.108,0l81.126-81.125
		c55.231,55.086,144.625,55.086,199.857,0L437.053,437.054z"/>
	<g>
		<path style="fill:#65DDB9;" d="M511.999,256c0.109,67.92-26.864,133.082-74.946,181.054l-81.125-81.125
			c55.086-55.231,55.086-144.625,0-199.857l81.125-81.126C485.135,122.918,512.108,188.08,511.999,256z"/>
		<path style="fill:#65DDB9;" d="M114.758,256c-0.042,37.473,14.821,73.425,41.313,99.928l-81.126,81.125
			c-99.928-100.02-99.928-262.087,0-362.108l81.126,81.126C129.579,182.575,114.716,218.527,114.758,256z"/>
	</g>
	<path style="fill:#46B29D;" d="M437.053,74.946l-81.125,81.126c-55.231-55.086-144.625-55.086-199.857,0L74.946,74.946
		C174.966-24.981,337.033-24.981,437.053,74.946z"/>
	<path style="fill:#894B9D;" d="M397.241,256c-0.09,67.277-47.679,125.126-113.676,138.185
		c-65.997,13.059-132.031-22.308-157.735-84.481s-3.923-133.845,52.028-171.203s130.498-30.002,178.069,17.57
		C382.42,182.575,397.283,218.527,397.241,256z"/>
	<g>
		<path style="fill:#FF5364;" d="M255.999,300.138c-15.77,0.003-30.344-8.409-38.23-22.066c-7.886-13.657-7.887-30.484-0.002-44.141
			c1.566-2.754,4.487-4.458,7.655-4.464c3.168-0.007,6.096,1.684,7.674,4.431c1.578,2.747,1.563,6.129-0.039,8.861
			c-6.407,11.131-3.904,25.255,5.938,33.506c9.842,8.251,24.186,8.251,34.028,0c9.842-8.251,12.345-22.375,5.938-33.506
			c-1.74-2.736-1.839-6.206-0.259-9.038c1.58-2.831,4.586-4.569,7.828-4.525c3.242,0.044,6.199,1.862,7.703,4.735
			c7.885,13.658,7.884,30.484-0.002,44.141S271.77,300.141,255.999,300.138z"/>
		<path style="fill:#FF5364;" d="M255.999,247.172c-4.875,0-8.828-3.952-8.828-8.828V220.69c0-4.875,3.952-8.828,8.828-8.828
			s8.828,3.952,8.828,8.828v17.655C264.827,243.22,260.875,247.172,255.999,247.172z"/>
	</g>
	<g>
		<path style="fill:#46B29D;" d="M441.723,282.483c-3.602,0-6.844-2.189-8.189-5.53c-1.346-3.342-0.526-7.166,2.072-9.662
			L447.399,256l-12.023-11.185c-3.471-3.336-3.629-8.839-0.355-12.368c3.274-3.53,8.773-3.785,12.36-0.573l16.772,15.528
			c2.349,2.143,3.703,5.165,3.74,8.344s-1.247,6.231-3.545,8.428l-16.499,15.89C446.196,281.63,444.001,282.497,441.723,282.483z"/>
		<path style="fill:#46B29D;" d="M70.276,282.483c-2.281,0-4.473-0.882-6.118-2.463l-16.49-15.828
			c-2.302-2.193-3.59-5.243-3.559-8.423c0.032-3.179,1.381-6.203,3.726-8.35l16.772-15.528c2.301-2.211,5.615-3.008,8.67-2.086
			c3.055,0.923,5.373,3.422,6.065,6.537c0.691,3.115-0.352,6.361-2.729,8.489L64.6,256l11.794,11.335
			c2.565,2.501,3.364,6.304,2.023,9.626C77.075,280.283,73.858,282.464,70.276,282.483z"/>
	</g>
	<g>
		<path style="fill:#65DDB9;" d="M255.999,476.69c-14.626,0-26.483-11.857-26.483-26.483c0-14.626,11.857-26.483,26.483-26.483
			c14.626,0,26.483,11.857,26.483,26.483C282.482,464.833,270.626,476.69,255.999,476.69z M255.999,441.379
			c-4.875,0-8.828,3.952-8.828,8.828s3.952,8.828,8.828,8.828s8.828-3.952,8.828-8.828S260.875,441.379,255.999,441.379z"/>
		<path style="fill:#65DDB9;" d="M255.999,88.276c-14.626,0-26.483-11.857-26.483-26.483s11.857-26.483,26.483-26.483
			c14.626,0,26.483,11.857,26.483,26.483S270.626,88.276,255.999,88.276z M255.999,52.965c-4.875,0-8.828,3.952-8.828,8.828
			s3.952,8.828,8.828,8.828s8.828-3.952,8.828-8.828S260.875,52.965,255.999,52.965z"/>
	</g>
</g>
<g>
</g>
<g>
</g>
<g>
</g>
<g>
</g>
<g>
</g>
<g>
</g>
<g>
</g>
<g>
</g>
<g>
</g>
<g>
</g>
<g>
</g>
<g>
</g>
<g>
</g>
<g>
</g>
<g>
</g>
</svg>
