<?xml version="1.0" encoding="iso-8859-1"?>
<!-- Generator: Adobe Illustrator 19.0.0, SVG Export Plug-In . SVG Version: 6.00 Build 0)  -->
<svg version="1.1" id="Capa_1" xmlns="http://www.w3.org/2000/svg" xmlns:xlink="http://www.w3.org/1999/xlink" x="0px" y="0px"
	 viewBox="0 0 512 512" style="enable-background:new 0 0 512 512;" xml:space="preserve">
<g>
	<path style="fill:#8697CB;" d="M512,335.448l0,53.76c0.023,6.805-2.663,13.339-7.467,18.159c-4.803,4.82-11.328,7.529-18.133,7.529
		H25.6c-6.805,0-13.33-2.709-18.133-7.529c-4.803-4.82-7.49-11.354-7.467-18.159l0-53.76H512z"/>
	<path style="fill:#3D324C;" d="M512,52.083v283.366H0V52.083c0-14.138,11.462-25.6,25.6-25.6h460.8
		C500.539,26.483,512,37.944,512,52.083z"/>
	<path style="fill:#556080;" d="M292.617,414.897c6.993,20.324,17.194,39.397,30.217,56.497c2.001,2.669,2.328,6.237,0.844,9.225
		c-1.484,2.987-4.526,4.883-7.861,4.899H196.184c-3.344,0-6.4-1.889-7.896-4.88c-1.495-2.991-1.173-6.569,0.834-9.244
		c13.038-17.096,23.254-36.17,30.261-56.497H292.617z"/>
	<path style="fill:#2C3E50;" d="M273.655,388.414h-35.31c-4.875,0-8.828-3.952-8.828-8.828s3.952-8.828,8.828-8.828h35.31
		c4.875,0,8.828,3.952,8.828,8.828S278.531,388.414,273.655,388.414z"/>
	<g>
		<path style="fill:#FF5364;" d="M158.897,194.207H61.793c-4.875,0-8.828-3.952-8.828-8.828v-70.621
			c0-4.875,3.952-8.828,8.828-8.828s8.828,3.952,8.828,8.828v61.793h88.276c4.875,0,8.828,3.952,8.828,8.828
			S163.772,194.207,158.897,194.207z"/>
		<path style="fill:#FF5364;" d="M97.104,256c-4.875,0-8.828-3.952-8.828-8.828V220.69c0-4.875,3.952-8.828,8.828-8.828h70.621
			c4.875,0,8.828,3.952,8.828,8.828s-3.952,8.828-8.828,8.828h-61.793v17.655C105.931,252.048,101.979,256,97.104,256z"/>
		<path style="fill:#FF5364;" d="M450.207,194.207h-97.103c-4.875,0-8.828-3.952-8.828-8.828s3.952-8.828,8.828-8.828h88.276
			v-61.793c0-4.875,3.952-8.828,8.828-8.828c4.875,0,8.828,3.952,8.828,8.828v70.621
			C459.035,190.255,455.082,194.207,450.207,194.207z"/>
		<path style="fill:#FF5364;" d="M414.897,256c-4.875,0-8.828-3.952-8.828-8.828v-17.655h-61.793c-4.875,0-8.828-3.952-8.828-8.828
			s3.952-8.828,8.828-8.828h70.621c4.875,0,8.828,3.952,8.828,8.828v26.483C423.724,252.048,419.772,256,414.897,256z"/>
	</g>
	<g>
		<circle style="fill:#F0C419;" cx="61.793" cy="88.276" r="26.483"/>
		<circle style="fill:#F0C419;" cx="97.104" cy="273.655" r="26.483"/>
		<circle style="fill:#F0C419;" cx="450.207" cy="88.276" r="26.483"/>
		<circle style="fill:#F0C419;" cx="414.897" cy="273.655" r="26.483"/>
	</g>
	<path style="fill:#7D6599;" d="M308.966,151.923v109.639c-0.091,1.869-1.661,3.321-3.531,3.266h-98.869
		c-1.852,0.095-3.431-1.326-3.531-3.178V151.923l50.229-45.021c1.584-1.325,3.889-1.325,5.473,0L308.966,151.923z"/>
	<g>
		<path style="fill:#FF5364;" d="M326.621,176.552c-2.173,0-4.269-0.802-5.888-2.251L256,116.357l-64.733,57.944
			c-3.638,3.197-9.173,2.866-12.404-0.743c-3.231-3.608-2.951-9.146,0.628-12.41l67.902-60.787
			c4.861-4.279,12.128-4.336,17.055-0.132l68.061,60.91c2.733,2.44,3.675,6.314,2.368,9.736S330.284,176.556,326.621,176.552z"/>
		<path style="fill:#FF5364;" d="M203.035,160.751c-4.875,0-8.828-3.952-8.828-8.828V128c0-4.875,3.952-8.828,8.828-8.828
			s8.828,3.952,8.828,8.828v23.923C211.862,156.798,207.91,160.751,203.035,160.751z"/>
	</g>
</g>
<g>
</g>
<g>
</g>
<g>
</g>
<g>
</g>
<g>
</g>
<g>
</g>
<g>
</g>
<g>
</g>
<g>
</g>
<g>
</g>
<g>
</g>
<g>
</g>
<g>
</g>
<g>
</g>
<g>
</g>
</svg>
