<?xml version="1.0" encoding="iso-8859-1"?>
<!-- Generator: Adobe Illustrator 19.0.0, SVG Export Plug-In . SVG Version: 6.00 Build 0)  -->
<svg version="1.1" id="Capa_1" xmlns="http://www.w3.org/2000/svg" xmlns:xlink="http://www.w3.org/1999/xlink" x="0px" y="0px"
	 viewBox="0 0 512.015 512.015" style="enable-background:new 0 0 512.015 512.015;" xml:space="preserve">
<g transform="translate(-1)">
	<path style="fill:#7D6599;" d="M402.081,165.277v301.653c0.014,2.886-1.121,5.659-3.154,7.708
		c-2.033,2.049-4.797,3.205-7.683,3.214H88.652c-2.886-0.009-5.65-1.165-7.683-3.214c-2.033-2.049-3.168-4.822-3.154-7.708V186.781
		l158.464-140.8c5.246-4.438,12.93-4.438,18.176,0L402.081,165.277z"/>
	<g>
		<path style="fill:#FF5364;" d="M504.481,256.524c-1.95-0.001-3.842-0.669-5.359-1.894L249.053,52.654
			c-2.024-1.905-5.164-1.961-7.253-0.128L15.214,253.836c-3.535,3.129-8.937,2.801-12.066-0.734
			c-3.129-3.535-2.801-8.937,0.734-12.066L230.621,39.632c8.406-7.242,20.83-7.3,29.303-0.137l249.907,201.847
			c2.819,2.269,3.901,6.07,2.698,9.484C511.326,254.241,508.101,256.524,504.481,256.524z"/>
		<path style="fill:#FF5364;" d="M86.348,179.186c-4.713,0-8.533-3.821-8.533-8.533v-68.267c0-4.713,3.821-8.533,8.533-8.533
			c4.713,0,8.533,3.821,8.533,8.533v68.267C94.881,175.366,91.061,179.186,86.348,179.186z"/>
	</g>
	<g>
		<path style="fill:#F0C419;" d="M393.548,298.653c-65.98,0-119.467-53.487-119.467-119.467S327.568,59.72,393.548,59.72
			s119.467,53.487,119.467,119.467C512.944,245.137,459.498,298.583,393.548,298.653z M393.548,76.786
			c-56.554,0-102.4,45.846-102.4,102.4s45.846,102.4,102.4,102.4s102.4-45.846,102.4-102.4
			C495.887,122.658,450.077,76.848,393.548,76.786z"/>
		<path style="fill:#F0C419;" d="M367.453,294.386c-2.736,0.001-5.306-1.309-6.912-3.524c-23.11-32.509-35.442-71.448-35.26-111.334
			c-0.196-40.194,12.332-79.42,35.789-112.06c1.805-2.457,4.783-3.765,7.814-3.431c3.03,0.334,5.652,2.26,6.878,5.052
			c1.226,2.792,0.869,6.025-0.936,8.482c-21.311,29.708-32.679,65.396-32.478,101.956c-0.189,36.288,11.006,71.723,32.009,101.316
			c1.882,2.596,2.15,6.028,0.694,8.885C373.594,292.585,370.659,294.385,367.453,294.386z"/>
		<path style="fill:#F0C419;" d="M411.11,294.386c-3.206-0.002-6.141-1.801-7.598-4.658s-1.188-6.289,0.694-8.885
			c21.003-29.594,32.197-65.028,32.009-101.316c0.201-36.561-11.167-72.248-32.478-101.956c-1.805-2.457-2.162-5.691-0.936-8.482
			c1.226-2.792,3.847-4.717,6.878-5.052c3.03-0.334,6.009,0.973,7.814,3.431c23.457,32.64,35.985,71.866,35.789,112.06
			c0.182,39.886-12.15,78.825-35.26,111.334C416.416,293.077,413.845,294.388,411.11,294.386z"/>
		<path style="fill:#F0C419;" d="M504.481,187.72H282.615c-4.713,0-8.533-3.821-8.533-8.533s3.82-8.533,8.533-8.533h221.867
			c4.713,0,8.533,3.82,8.533,8.533S509.194,187.72,504.481,187.72z"/>
	</g>
</g>
<g>
</g>
<g>
</g>
<g>
</g>
<g>
</g>
<g>
</g>
<g>
</g>
<g>
</g>
<g>
</g>
<g>
</g>
<g>
</g>
<g>
</g>
<g>
</g>
<g>
</g>
<g>
</g>
<g>
</g>
</svg>
