<?xml version="1.0" encoding="iso-8859-1"?>
<!-- Generator: Adobe Illustrator 19.0.0, SVG Export Plug-In . SVG Version: 6.00 Build 0)  -->
<svg version="1.1" id="Capa_1" xmlns="http://www.w3.org/2000/svg" xmlns:xlink="http://www.w3.org/1999/xlink" x="0px" y="0px"
	 viewBox="0 0 511.968 511.968" style="enable-background:new 0 0 511.968 511.968;" xml:space="preserve">
<g>
	<path style="fill:#7D6599;" d="M426.667,164.24v331.776c0.039,3.068-1.145,6.025-3.291,8.219c-2.145,2.193-5.076,3.443-8.144,3.472
		H96.769c-3.068-0.029-5.998-1.279-8.144-3.472c-2.145-2.193-3.33-5.151-3.291-8.219V164.24L246.529,16.443
		c5.378-4.863,13.566-4.863,18.944,0L426.667,164.24z"/>
	<g>
		<path style="fill:#FF5364;" d="M503.467,243.174c-2.136,0-4.194-0.801-5.768-2.244L259.738,22.707
			c-2.196-1.934-5.504-1.875-7.629,0.137L14.303,240.93c-3.473,3.186-8.872,2.953-12.058-0.521s-2.953-8.872,0.521-12.058
			L240.726,10.12c8.626-7.763,21.704-7.818,30.396-0.128l238.08,218.359c2.589,2.374,3.458,6.092,2.191,9.368
			C510.125,240.995,506.98,243.16,503.467,243.174z"/>
		<path style="fill:#FF5364;" d="M93.867,162.107c-4.713,0-8.533-3.821-8.533-8.533v-76.8c0-4.713,3.821-8.533,8.533-8.533
			c4.713,0,8.533,3.821,8.533,8.533v76.8C102.401,158.287,98.58,162.107,93.867,162.107z"/>
	</g>
	<rect x="187.734" y="243.174" style="fill:#F0C419;" width="136.533" height="162.133"/>
	<g>
		<path style="fill:#FF5364;" d="M324.267,413.84H187.734c-4.713,0-8.533-3.82-8.533-8.533V243.174c0-4.713,3.82-8.533,8.533-8.533
			h136.533c4.713,0,8.533,3.821,8.533,8.533v162.133C332.801,410.02,328.98,413.84,324.267,413.84z M196.267,396.774h119.467
			V251.707H196.267V396.774z"/>
		<path style="fill:#FF5364;" d="M315.734,311.44H196.267c-4.713,0-8.533-3.821-8.533-8.533c0-4.713,3.821-8.533,8.533-8.533
			h119.467c4.713,0,8.533,3.821,8.533,8.533C324.267,307.62,320.447,311.44,315.734,311.44z"/>
		<path style="fill:#FF5364;" d="M221.867,413.84c-4.713,0-8.533-3.82-8.533-8.533V311.44c0-4.713,3.821-8.533,8.533-8.533
			c4.713,0,8.533,3.82,8.533,8.533v93.867C230.401,410.02,226.58,413.84,221.867,413.84z"/>
		<path style="fill:#FF5364;" d="M256.001,413.84c-4.713,0-8.533-3.82-8.533-8.533V311.44c0-4.713,3.821-8.533,8.533-8.533
			c4.713,0,8.533,3.82,8.533,8.533v93.867C264.534,410.02,260.714,413.84,256.001,413.84z"/>
		<path style="fill:#FF5364;" d="M315.734,345.574H196.267c-4.713,0-8.533-3.82-8.533-8.533s3.821-8.533,8.533-8.533h119.467
			c4.713,0,8.533,3.821,8.533,8.533S320.447,345.574,315.734,345.574z"/>
		<path style="fill:#FF5364;" d="M315.734,379.707H196.267c-4.713,0-8.533-3.82-8.533-8.533s3.821-8.533,8.533-8.533h119.467
			c4.713,0,8.533,3.82,8.533,8.533S320.447,379.707,315.734,379.707z"/>
		<path style="fill:#FF5364;" d="M290.134,413.84c-4.713,0-8.533-3.82-8.533-8.533V311.44c0-4.713,3.821-8.533,8.533-8.533
			c4.713,0,8.533,3.82,8.533,8.533v93.867C298.667,410.02,294.847,413.84,290.134,413.84z"/>
	</g>
</g>
<g>
</g>
<g>
</g>
<g>
</g>
<g>
</g>
<g>
</g>
<g>
</g>
<g>
</g>
<g>
</g>
<g>
</g>
<g>
</g>
<g>
</g>
<g>
</g>
<g>
</g>
<g>
</g>
<g>
</g>
</svg>
