<?xml version="1.0" encoding="iso-8859-1"?>
<!-- Generator: Adobe Illustrator 19.0.0, SVG Export Plug-In . SVG Version: 6.00 Build 0)  -->
<svg version="1.1" id="Capa_1" xmlns="http://www.w3.org/2000/svg" xmlns:xlink="http://www.w3.org/1999/xlink" x="0px" y="0px"
	 viewBox="0 0 511.968 511.968" style="enable-background:new 0 0 511.968 511.968;" xml:space="preserve">
<g>
	<path style="fill:#7D6599;" d="M426.667,164.24v331.776c0.039,3.068-1.145,6.025-3.291,8.219c-2.145,2.193-5.076,3.443-8.144,3.472
		H96.769c-3.068-0.029-5.998-1.279-8.144-3.472c-2.145-2.193-3.33-5.151-3.291-8.219V164.24L246.529,16.443
		c5.378-4.863,13.566-4.863,18.944,0L426.667,164.24z"/>
	<g>
		<path style="fill:#FF5364;" d="M503.467,243.174c-2.136,0-4.194-0.801-5.768-2.244L259.738,22.707
			c-2.196-1.934-5.504-1.875-7.629,0.137L14.303,240.93c-3.473,3.186-8.872,2.953-12.058-0.521s-2.953-8.872,0.521-12.058
			L240.726,10.12c8.626-7.763,21.704-7.818,30.396-0.128l238.08,218.359c2.589,2.374,3.458,6.092,2.191,9.368
			C510.125,240.995,506.98,243.16,503.467,243.174z"/>
		<path style="fill:#FF5364;" d="M93.867,162.107c-4.713,0-8.533-3.821-8.533-8.533v-76.8c0-4.713,3.821-8.533,8.533-8.533
			c4.713,0,8.533,3.821,8.533,8.533v76.8C102.401,158.287,98.58,162.107,93.867,162.107z"/>
		<path style="fill:#FF5364;" d="M213.334,405.307c-16.284,0.003-30.303-11.497-33.483-27.468
			c-3.18-15.971,5.365-31.964,20.408-38.198c15.044-6.234,32.396-0.974,41.446,12.565s7.275,31.584-4.238,43.1
			C231.082,401.731,222.391,405.333,213.334,405.307z M213.334,354.107c-6.902,0.001-13.123,4.16-15.764,10.536
			c-2.641,6.376-1.182,13.716,3.698,18.597c6.751,6.45,17.381,6.45,24.132,0c4.879-4.881,6.339-12.22,3.698-18.597
			C226.457,358.267,220.236,354.109,213.334,354.107z"/>
		<path style="fill:#FF5364;" d="M280.218,405.307c-0.529-0.003-1.058-0.051-1.579-0.145c-2.226-0.414-4.197-1.697-5.477-3.564
			c-1.28-1.868-1.766-4.168-1.35-6.394c4.362-22.865-2.564-46.431-18.603-63.3c-16.213-17.212-40.476-24.295-63.403-18.509
			c-2.984,0.825-6.18-0.031-8.353-2.237c-2.172-2.205-2.98-5.414-2.11-8.385s3.28-5.238,6.299-5.924
			c28.864-7.322,59.429,1.568,79.863,23.228c19.862,20.842,28.456,49.983,23.083,78.268
			C287.835,402.375,284.319,405.299,280.218,405.307z"/>
		<path style="fill:#FF5364;" d="M323.457,405.307c-0.325,0.001-0.65-0.019-0.973-0.06c-4.678-0.535-8.039-4.759-7.509-9.438
			c4.128-34.445-7.468-68.918-31.573-93.867c-24.409-25.322-59.594-37.216-94.362-31.898c-4.656,0.73-9.023-2.452-9.754-7.108
			s2.452-9.023,7.108-9.754c40.233-6.136,80.945,7.607,109.227,36.873c27.698,28.598,41.041,68.15,36.326,107.682
			C331.456,402.055,327.801,405.313,323.457,405.307z"/>
	</g>
</g>
<g>
</g>
<g>
</g>
<g>
</g>
<g>
</g>
<g>
</g>
<g>
</g>
<g>
</g>
<g>
</g>
<g>
</g>
<g>
</g>
<g>
</g>
<g>
</g>
<g>
</g>
<g>
</g>
<g>
</g>
</svg>
