<?xml version="1.0" encoding="iso-8859-1"?>
<!-- Generator: Adobe Illustrator 19.0.0, SVG Export Plug-In . SVG Version: 6.00 Build 0)  -->
<svg version="1.1" id="Capa_1" xmlns="http://www.w3.org/2000/svg" xmlns:xlink="http://www.w3.org/1999/xlink" x="0px" y="0px"
	 viewBox="0 0 511.968 511.968" style="enable-background:new 0 0 511.968 511.968;" xml:space="preserve">
<g>
	<path style="fill:#7D6599;" d="M426.667,164.24v331.776c0.039,3.068-1.145,6.025-3.291,8.219c-2.145,2.193-5.076,3.443-8.144,3.472
		H96.769c-3.068-0.029-5.998-1.279-8.144-3.472c-2.145-2.193-3.33-5.151-3.291-8.219V164.24L246.529,16.443
		c5.378-4.863,13.566-4.863,18.944,0L426.667,164.24z"/>
	<g>
		<path style="fill:#FF5364;" d="M503.467,243.174c-2.136,0-4.194-0.801-5.768-2.244L259.738,22.707
			c-2.196-1.934-5.504-1.875-7.629,0.137L14.303,240.93c-3.473,3.186-8.872,2.953-12.058-0.521s-2.953-8.872,0.521-12.058
			L240.726,10.12c8.626-7.763,21.704-7.818,30.396-0.128l238.08,218.359c2.589,2.374,3.458,6.092,2.191,9.368
			C510.125,240.995,506.98,243.16,503.467,243.174z"/>
		<path style="fill:#FF5364;" d="M93.867,162.107c-4.713,0-8.533-3.821-8.533-8.533v-76.8c0-4.713,3.821-8.533,8.533-8.533
			c4.713,0,8.533,3.821,8.533,8.533v76.8C102.401,158.287,98.58,162.107,93.867,162.107z"/>
	</g>
	<path style="fill:#F0C419;" d="M341.334,294.374h-62.123c-0.725-0.001-1.4-0.368-1.794-0.976c-0.394-0.608-0.455-1.374-0.16-2.036
		l47.087-104.917c0.295-0.661,0.235-1.427-0.159-2.034c-0.395-0.607-1.071-0.972-1.795-0.97h-84.898
		c-0.851-0.003-1.621,0.505-1.954,1.289l-67.857,157.867c-0.285,0.66-0.218,1.419,0.178,2.019s1.066,0.961,1.785,0.959h83.721
		c0.641,0,1.248,0.288,1.653,0.784c0.405,0.496,0.566,1.148,0.438,1.776l-17.374,81.92c-0.192,0.973,0.313,1.95,1.217,2.357
		c0.904,0.407,1.97,0.138,2.572-0.651l101.171-133.973c0.485-0.646,0.563-1.511,0.201-2.234
		C342.881,294.83,342.142,294.374,341.334,294.374z"/>
</g>
<g>
</g>
<g>
</g>
<g>
</g>
<g>
</g>
<g>
</g>
<g>
</g>
<g>
</g>
<g>
</g>
<g>
</g>
<g>
</g>
<g>
</g>
<g>
</g>
<g>
</g>
<g>
</g>
<g>
</g>
</svg>
