<?xml version="1.0" encoding="iso-8859-1"?>
<!-- Generator: Adobe Illustrator 19.0.0, SVG Export Plug-In . SVG Version: 6.00 Build 0)  -->
<svg version="1.1" id="Capa_1" xmlns="http://www.w3.org/2000/svg" xmlns:xlink="http://www.w3.org/1999/xlink" x="0px" y="0px"
	 viewBox="0 0 512.009 512.009" style="enable-background:new 0 0 512.009 512.009;" xml:space="preserve">
<g>
	<g>
		<path style="fill:#2FA8CC;" d="M263.19,0h3.293c18.588,0.005,33.655,15.072,33.66,33.66v110.874
			c0,37.184-30.144,67.328-67.328,67.328h-3.293V33.66C229.527,15.068,244.599,0,263.19,0z"/>
		<path style="fill:#2FA8CC;" d="M512.004,263.186v3.293c-0.005,18.588-15.072,33.655-33.66,33.66H367.47
			c-17.856,0-34.982-7.093-47.608-19.72c-12.626-12.626-19.72-29.752-19.72-47.608v-3.293h178.202
			C496.936,229.522,512.004,244.595,512.004,263.186z"/>
		<path style="fill:#2FA8CC;" d="M248.819,512.009h-3.293c-18.588-0.005-33.655-15.072-33.66-33.66V367.475
			c0-37.184,30.144-67.328,67.328-67.328h3.293v178.202C282.482,496.94,267.41,512.009,248.819,512.009z"/>
		<path style="fill:#2FA8CC;" d="M0.004,248.814v-3.293c0.005-18.588,15.072-33.655,33.66-33.66h110.874
			c17.856,0,34.982,7.093,47.608,19.72s19.72,29.752,19.72,47.608v3.293H33.664C15.073,282.478,0.004,267.405,0.004,248.814z"/>
	</g>
	<g>
		<path style="fill:#285680;" d="M203.039,256H97.108c-4.875,0-8.828-3.952-8.828-8.828s3.952-8.828,8.828-8.828h105.931
			c4.875,0,8.828,3.952,8.828,8.828S207.914,256,203.039,256z"/>
		<path style="fill:#285680;" d="M264.832,211.862c-4.875,0-8.828-3.952-8.828-8.828V97.103c0-4.875,3.952-8.828,8.828-8.828
			s8.828,3.952,8.828,8.828v105.931C273.66,207.91,269.707,211.862,264.832,211.862z"/>
		<path style="fill:#285680;" d="M414.901,273.655H308.97c-4.875,0-8.828-3.952-8.828-8.828S304.095,256,308.97,256h105.931
			c4.875,0,8.828,3.952,8.828,8.828S419.776,273.655,414.901,273.655z"/>
		<path style="fill:#285680;" d="M247.177,423.724c-4.875,0-8.828-3.952-8.828-8.828V308.966c0-4.875,3.952-8.828,8.828-8.828
			s8.828,3.952,8.828,8.828v105.931C256.004,419.772,252.052,423.724,247.177,423.724z"/>
	</g>
	<circle style="fill:#2980BA;" cx="256.004" cy="256" r="52.966"/>
	<circle style="fill:#24AE5F;" cx="423.729" cy="423.724" r="88.276"/>
	<g>
		<path style="fill:#BBD1B5;" d="M461.175,395.07c-2.342,0.006-4.59-0.925-6.241-2.586c-17.25-17.197-45.161-17.197-62.411,0
			c-3.464,3.345-8.97,3.298-12.375-0.108c-3.405-3.405-3.453-8.911-0.108-12.375c24.144-24.105,63.249-24.105,87.393,0
			c2.524,2.525,3.279,6.321,1.913,9.619s-4.584,5.449-8.154,5.45H461.175z"/>
		<path style="fill:#BBD1B5;" d="M436.211,420.043c-2.341,0-4.586-0.931-6.241-2.586c-1.656-1.652-3.903-2.573-6.241-2.56
			c-2.341-0.009-4.588,0.919-6.241,2.578c-3.464,3.345-8.97,3.298-12.375-0.108c-3.405-3.405-3.453-8.911-0.108-12.375
			c4.955-4.981,11.697-7.772,18.723-7.751c7.024-0.023,13.764,2.768,18.714,7.751c2.524,2.525,3.279,6.321,1.913,9.619
			c-1.366,3.298-4.584,5.449-8.154,5.45L436.211,420.043z"/>
		<circle style="fill:#BBD1B5;" cx="423.729" cy="459.034" r="17.655"/>
	</g>
</g>
<g>
</g>
<g>
</g>
<g>
</g>
<g>
</g>
<g>
</g>
<g>
</g>
<g>
</g>
<g>
</g>
<g>
</g>
<g>
</g>
<g>
</g>
<g>
</g>
<g>
</g>
<g>
</g>
<g>
</g>
</svg>
