<?xml version="1.0" encoding="iso-8859-1"?>
<!-- Generator: Adobe Illustrator 19.0.0, SVG Export Plug-In . SVG Version: 6.00 Build 0)  -->
<svg version="1.1" id="Capa_1" xmlns="http://www.w3.org/2000/svg" xmlns:xlink="http://www.w3.org/1999/xlink" x="0px" y="0px"
	 viewBox="0 0 512 512" style="enable-background:new 0 0 512 512;" xml:space="preserve">
<g>
	<path style="fill:#3D324C;" d="M52.966,0h406.069C488.287,0,512,23.713,512,52.966v406.069C512,488.287,488.287,512,459.034,512
		H52.966C23.713,512,0,488.287,0,459.034V52.966C0,23.713,23.713,0,52.966,0z"/>
	<path style="fill:#7D6599;" d="M476.69,52.966v406.069c0,9.751-7.905,17.655-17.655,17.655H52.966
		c-9.751,0-17.655-7.905-17.655-17.655V52.966c0-9.751,7.904-17.655,17.655-17.655h406.069
		C468.785,35.31,476.69,43.215,476.69,52.966z"/>
	<path style="fill:#3B97D3;" d="M131.302,105.931h249.397c9.136,0,16.543,7.407,16.543,16.543v267.052
		c0,9.136-7.406,16.543-16.543,16.543H131.302c-9.136,0-16.543-7.407-16.543-16.543V122.474
		C114.759,113.338,122.165,105.931,131.302,105.931z"/>
	<path style="fill:#FF5364;" d="M317.793,450.207H194.207c-4.875,0-8.828-3.952-8.828-8.828s3.952-8.828,8.828-8.828h123.586
		c4.875,0,8.828,3.952,8.828,8.828S322.668,450.207,317.793,450.207z"/>
	<g>
		<path style="fill:#2C3E50;" d="M308.966,150.069H203.034c-4.875,0-8.828-3.952-8.828-8.828s3.952-8.828,8.828-8.828h105.931
			c4.875,0,8.828,3.952,8.828,8.828S313.841,150.069,308.966,150.069z"/>
		<path style="fill:#2C3E50;" d="M308.966,194.207H203.034c-4.875,0-8.828-3.952-8.828-8.828c0-4.875,3.952-8.828,8.828-8.828
			h105.931c4.875,0,8.828,3.952,8.828,8.828C317.793,190.255,313.841,194.207,308.966,194.207z"/>
	</g>
	<circle style="fill:#F0C419;" cx="207.448" cy="295.724" r="39.724"/>
	<path style="fill:#FFFFFF;" d="M344.276,358.718c-0.468-10.555-8.783-19.079-19.324-19.809l0.088-0.327
		c4.363-20.809-6.898-41.735-26.668-49.558c-39.194-17.911-78.098,3.302-85.283,35.054c-3.271-0.939-6.652-1.435-10.055-1.474
		c-18.602-0.844-34.387,13.508-35.31,32.106v16.049h176.552V358.718z"/>
</g>
<g>
</g>
<g>
</g>
<g>
</g>
<g>
</g>
<g>
</g>
<g>
</g>
<g>
</g>
<g>
</g>
<g>
</g>
<g>
</g>
<g>
</g>
<g>
</g>
<g>
</g>
<g>
</g>
<g>
</g>
</svg>
