<?xml version="1.0" encoding="iso-8859-1"?>
<!-- Generator: Adobe Illustrator 19.0.0, SVG Export Plug-In . SVG Version: 6.00 Build 0)  -->
<svg version="1.1" id="Capa_1" xmlns="http://www.w3.org/2000/svg" xmlns:xlink="http://www.w3.org/1999/xlink" x="0px" y="0px"
	 viewBox="0 0 512.024 512.024" style="enable-background:new 0 0 512.024 512.024;" xml:space="preserve">
<g transform="translate(0 -1)">
	<g>
		<path style="fill:#F3D55B;" d="M195.266,122.515V24.81c-0.647-13.745-12.286-24.38-26.034-23.786
			c-13.748-0.594-25.387,10.041-26.034,23.786v97.705"/>
		<path style="fill:#F3D55B;" d="M368.825,122.515V24.81c-0.647-13.745-12.286-24.38-26.034-23.786
			c-13.748-0.594-25.387,10.041-26.034,23.786v97.705"/>
	</g>
	<path style="fill:#4482C3;" d="M325.436,513.024c-45.256,0-78.102-35.58-78.102-84.61c0-4.793,3.885-8.678,8.678-8.678
		c4.793,0,8.678,3.885,8.678,8.678c0,39.598,24.975,67.254,60.746,67.254c4.793,0,8.678,3.885,8.678,8.678
		C334.114,509.138,330.228,513.024,325.436,513.024z"/>
	<path style="fill:#285680;" d="M117.164,174.583v175.989c0.633,13.619,12.151,24.168,25.774,23.604h61.006
		c0,28.756,23.312,52.068,52.068,52.068s52.068-23.312,52.068-52.068h61.006c13.622,0.564,25.141-9.985,25.774-23.604V174.583
		H117.164z"/>
	<path style="fill:#4482C3;" d="M116.47,113.837h279.083c4.409,0,7.984,3.574,7.984,7.984v53.456c0,4.409-3.574,7.984-7.984,7.984
		H116.47c-4.409,0-7.984-3.574-7.984-7.984v-53.456C108.486,117.412,112.061,113.837,116.47,113.837z"/>
	<g>
		<path style="fill:#FF5364;" d="M341.924,288.195c-47.474-47.384-124.35-47.384-171.824,0l-24.55-24.55
			c61.043-60.902,159.863-60.902,220.906,0L341.924,288.195z"/>
		<path style="fill:#FF5364;" d="M292.832,337.286c-20.348-20.304-53.293-20.304-73.641,0l-24.541-24.55
			c33.911-33.836,88.813-33.836,122.724,0L292.832,337.286z"/>
		<circle style="fill:#FF5364;" cx="256.012" cy="374.176" r="17.356"/>
	</g>
</g>
<g>
</g>
<g>
</g>
<g>
</g>
<g>
</g>
<g>
</g>
<g>
</g>
<g>
</g>
<g>
</g>
<g>
</g>
<g>
</g>
<g>
</g>
<g>
</g>
<g>
</g>
<g>
</g>
<g>
</g>
</svg>
