<?xml version="1.0" encoding="iso-8859-1"?>
<!-- Generator: Adobe Illustrator 19.0.0, SVG Export Plug-In . SVG Version: 6.00 Build 0)  -->
<svg version="1.1" id="Capa_1" xmlns="http://www.w3.org/2000/svg" xmlns:xlink="http://www.w3.org/1999/xlink" x="0px" y="0px"
	 viewBox="0 0 512 512" style="enable-background:new 0 0 512 512;" xml:space="preserve">
<g>
	<path style="fill:#4482C3;" d="M256,512c-4.793,0-8.678-3.885-8.678-8.678V468.61c0-4.793,3.885-8.678,8.678-8.678
		c4.793,0,8.678,3.885,8.678,8.678v34.712C264.678,508.115,260.793,512,256,512z"/>
	<g>
		<path style="fill:#F3D55B;" d="M377.492,130.169V6.075c0.044-3.302-2.591-6.018-5.892-6.075h-40.283
			c-3.302,0.057-5.936,2.773-5.892,6.075v124.095"/>
		<path style="fill:#F3D55B;" d="M195.254,130.169V6.075c0.043-3.302-2.591-6.018-5.892-6.075h-40.283
			c-3.302,0.057-5.936,2.773-5.892,6.075v124.095"/>
	</g>
	<path style="fill:#285680;" d="M290.712,416.542v41.845c-0.784,6.31-6.455,10.845-12.783,10.223h-43.858
		c-6.328,0.623-11.999-3.913-12.783-10.223v-41.845H290.712z"/>
	<path style="fill:#4482C3;" d="M368.814,225.627v175.989c0.697,12.281-8.647,22.823-20.923,23.604H164.109
		c-12.276-0.781-21.62-11.323-20.923-23.604V225.627H368.814z"/>
	<path style="fill:#285680;" d="M420.881,173.559l-18.831,43.937c-3.683,9.795-12.886,16.422-23.344,16.809H133.294
		c-10.458-0.387-19.661-7.014-23.344-16.809l-18.831-43.937H420.881z"/>
	<path style="fill:#4482C3;" d="M64.391,112.814h383.219c4.409,0,7.984,3.574,7.984,7.984v53.456c0,4.409-3.574,7.984-7.984,7.984
		H64.391c-4.409,0-7.984-3.574-7.984-7.984v-53.456C56.407,116.388,59.981,112.814,64.391,112.814z"/>
	<g>
		<path style="fill:#FF5364;" d="M341.912,287.171c-47.474-47.384-124.35-47.384-171.824,0l-24.55-24.55
			c61.043-60.902,159.863-60.902,220.906,0L341.912,287.171z"/>
		<path style="fill:#FF5364;" d="M292.821,336.263c-20.348-20.304-53.293-20.304-73.641,0l-24.541-24.55
			c33.911-33.836,88.813-33.836,122.724,0L292.821,336.263z"/>
		<circle style="fill:#FF5364;" cx="256" cy="370.974" r="17.356"/>
	</g>
</g>
<g>
</g>
<g>
</g>
<g>
</g>
<g>
</g>
<g>
</g>
<g>
</g>
<g>
</g>
<g>
</g>
<g>
</g>
<g>
</g>
<g>
</g>
<g>
</g>
<g>
</g>
<g>
</g>
<g>
</g>
</svg>
