<?xml version="1.0" encoding="iso-8859-1"?>
<!-- Generator: Adobe Illustrator 19.0.0, SVG Export Plug-In . SVG Version: 6.00 Build 0)  -->
<svg version="1.1" id="Capa_1" xmlns="http://www.w3.org/2000/svg" xmlns:xlink="http://www.w3.org/1999/xlink" x="0px" y="0px"
	 viewBox="0 0 512 512" style="enable-background:new 0 0 512 512;" xml:space="preserve">
<g>
	<path style="fill:#9BC8C2;" d="M353.103,379.586c-4.875,0-8.828-3.952-8.828-8.828v-71.353c0-36.565,29.642-66.207,66.207-66.207
		s66.207,29.642,66.207,66.207v9.56c0,4.875-3.952,8.828-8.828,8.828s-8.828-3.952-8.828-8.828v-9.56
		c0-26.814-21.737-48.552-48.552-48.552s-48.552,21.737-48.552,48.552v71.353C361.931,375.634,357.979,379.586,353.103,379.586z"/>
	<path style="fill:#F0C419;" d="M344.276,370.759H476.69c4.875,0,8.828,3.952,8.828,8.828v88.276
		c0,24.377-19.761,44.138-44.138,44.138h-61.793c-24.377,0-44.138-19.761-44.138-44.138v-88.276
		C335.448,374.711,339.401,370.759,344.276,370.759z"/>
	<g>
		<path style="fill:#F9EAB0;" d="M440.964,423.724h-60.963c-4.875,0-8.828-3.952-8.828-8.828s3.952-8.828,8.828-8.828h60.963
			c4.875,0,8.828,3.952,8.828,8.828S445.84,423.724,440.964,423.724z"/>
		<path style="fill:#F9EAB0;" d="M440.964,467.862h-60.963c-4.875,0-8.828-3.952-8.828-8.828s3.952-8.828,8.828-8.828h60.963
			c4.875,0,8.828,3.952,8.828,8.828S445.84,467.862,440.964,467.862z"/>
	</g>
	<path style="fill:#894B9D;" d="M273.655,158.897V476.69c0,19.501-15.809,35.31-35.31,35.31H61.793
		c-19.501,0-35.31-15.809-35.31-35.31V35.31C26.483,15.809,42.292,0,61.793,0h176.552c19.501,0,35.31,15.809,35.31,35.31V158.897z"
		/>
	<g>
		<path style="fill:#3D324C;" d="M205.859,158.897c-12.385,26.109-41.211,40.149-69.403,33.801s-48.22-31.386-48.22-60.284
			s20.028-53.937,48.22-60.284s57.019,7.692,69.403,33.801"/>
		<path style="fill:#3D324C;" d="M150.069,361.931c-14.626,0-26.483-11.857-26.483-26.483s11.857-26.483,26.483-26.483
			c14.626,0,26.483,11.857,26.483,26.483S164.695,361.931,150.069,361.931z M150.069,326.621c-4.875,0-8.828,3.952-8.828,8.828
			s3.952,8.828,8.828,8.828s8.828-3.952,8.828-8.828S154.944,326.621,150.069,326.621z"/>
		<path style="fill:#3D324C;" d="M150.069,397.241c-4.875,0-8.828-3.952-8.828-8.828v-35.31c0-4.875,3.952-8.828,8.828-8.828
			s8.828,3.952,8.828,8.828v35.31C158.897,393.289,154.944,397.241,150.069,397.241z"/>
	</g>
	<path style="fill:#F0C419;" d="M150.069,105.931h256c14.626,0,26.483,11.857,26.483,26.483l0,0
		c0,14.626-11.857,26.483-26.483,26.483h-256c-14.626,0-26.483-11.857-26.483-26.483l0,0
		C123.586,117.788,135.443,105.931,150.069,105.931z"/>
</g>
<g>
</g>
<g>
</g>
<g>
</g>
<g>
</g>
<g>
</g>
<g>
</g>
<g>
</g>
<g>
</g>
<g>
</g>
<g>
</g>
<g>
</g>
<g>
</g>
<g>
</g>
<g>
</g>
<g>
</g>
</svg>
