<?xml version="1.0" encoding="iso-8859-1"?>
<!-- Generator: Adobe Illustrator 19.0.0, SVG Export Plug-In . SVG Version: 6.00 Build 0)  -->
<svg version="1.1" id="Capa_1" xmlns="http://www.w3.org/2000/svg" xmlns:xlink="http://www.w3.org/1999/xlink" x="0px" y="0px"
	 viewBox="0 0 512 512" style="enable-background:new 0 0 512 512;" xml:space="preserve">
<g>
	<path style="fill:#556080;" d="M123.983,0h264.033c5.095,0,9.225,4.13,9.225,9.225v493.55c0,5.095-4.13,9.225-9.225,9.225H123.983
		c-5.095,0-9.225-4.13-9.225-9.225V9.225C114.759,4.13,118.889,0,123.983,0z"/>
	<rect x="114.759" y="70.621" style="fill:#90BAE1;" width="282.483" height="141.241"/>
	<circle style="fill:#FF5364;" cx="256" cy="335.448" r="61.793"/>
	<g>
		<path style="fill:#2C3E50;" d="M300.138,459.034h-88.276c-4.875,0-8.828-3.952-8.828-8.828c0-4.875,3.952-8.828,8.828-8.828
			h88.276c4.875,0,8.828,3.952,8.828,8.828C308.966,455.082,305.013,459.034,300.138,459.034z"/>
		<path style="fill:#2C3E50;" d="M185.379,141.241c-0.002,11.441,2.795,22.709,8.148,32.821c0.84,1.54,2.456,2.496,4.211,2.489
			h116.524c1.757,0.01,3.378-0.946,4.22-2.489c10.864-20.532,10.864-45.11,0-65.642c-0.838-1.546-2.461-2.503-4.22-2.489H197.738
			c-1.758-0.014-3.381,0.944-4.22,2.489C188.169,118.533,185.374,129.801,185.379,141.241z"/>
	</g>
	<circle style="fill:#2FA8CC;" cx="256" cy="141.241" r="35.31"/>
</g>
<g>
</g>
<g>
</g>
<g>
</g>
<g>
</g>
<g>
</g>
<g>
</g>
<g>
</g>
<g>
</g>
<g>
</g>
<g>
</g>
<g>
</g>
<g>
</g>
<g>
</g>
<g>
</g>
<g>
</g>
</svg>
