<?xml version="1.0" encoding="iso-8859-1"?>
<!-- Generator: Adobe Illustrator 19.0.0, SVG Export Plug-In . SVG Version: 6.00 Build 0)  -->
<svg version="1.1" id="Capa_1" xmlns="http://www.w3.org/2000/svg" xmlns:xlink="http://www.w3.org/1999/xlink" x="0px" y="0px"
	 viewBox="0 0 512 512" style="enable-background:new 0 0 512 512;" xml:space="preserve">
<g>
	<rect x="35.31" y="88.276" style="fill:#F9EAB0;" width="432.552" height="247.172"/>
	<g>
		<path style="fill:#F0C419;" d="M256,158.897c-4.875,0-8.828-3.952-8.828-8.828v-44.138c0-4.875,3.952-8.828,8.828-8.828
			s8.828,3.952,8.828,8.828v44.138C264.828,154.944,260.875,158.897,256,158.897z"/>
		<path style="fill:#F0C419;" d="M344.276,185.379c-1.367,0-2.716-0.32-3.937-0.936c-2.096-1.046-3.691-2.882-4.432-5.104
			c-0.742-2.222-0.57-4.648,0.478-6.743l17.655-35.31c2.182-4.363,7.488-6.132,11.851-3.95c4.363,2.182,6.132,7.488,3.95,11.851
			l-17.655,35.31C350.688,183.494,347.625,185.384,344.276,185.379z"/>
		<path style="fill:#F0C419;" d="M414.897,247.172c-3.897,0.011-7.34-2.536-8.472-6.265c-1.131-3.729,0.317-7.76,3.564-9.916
			l44.138-29.396c2.626-1.75,5.985-1.967,8.814-0.568c2.829,1.399,4.696,4.2,4.899,7.349c0.203,3.149-1.289,6.167-3.915,7.917
			l-44.138,29.396C418.339,246.655,416.637,247.171,414.897,247.172z"/>
		<path style="fill:#F0C419;" d="M167.724,185.379c-3.362,0.018-6.442-1.874-7.945-4.882l-17.655-35.31
			c-2.182-4.363-0.413-9.669,3.95-11.851s9.669-0.413,11.851,3.95l17.655,35.31c1.048,2.095,1.219,4.521,0.478,6.743
			c-0.742,2.222-2.336,4.058-4.432,5.104C170.415,185.054,169.08,185.374,167.724,185.379z"/>
		<path style="fill:#F0C419;" d="M97.103,247.172c-1.741-0.001-3.442-0.517-4.89-1.483l-44.138-29.396
			c-4.059-2.706-5.155-8.19-2.45-12.248s8.19-5.155,12.248-2.45l44.138,29.396c3.246,2.156,4.695,6.186,3.564,9.916
			C104.444,244.637,101.001,247.183,97.103,247.172z"/>
	</g>
	<rect x="35.31" y="326.621" style="fill:#2FA8CC;" width="432.552" height="150.069"/>
	<g>
		<rect x="44.138" style="fill:#F29C1F;" width="423.724" height="35.31"/>
		<polygon style="fill:#F29C1F;" points="44.138,70.621 44.138,70.621 44.138,105.931 467.862,105.931 467.862,70.621 
			467.862,70.621 467.862,35.31 44.138,35.31 		"/>
	</g>
	<rect x="44.138" y="35.31" style="fill:#E57E25;" width="423.724" height="35.31"/>
	<rect x="35.31" y="467.862" style="fill:#C03A2B;" width="432.552" height="44.138"/>
	<path style="fill:#F3D55B;" d="M397.241,326.621c0-78.005-63.236-141.241-141.241-141.241s-141.241,63.236-141.241,141.241H397.241
		z"/>
	<g>
		<path style="fill:#285680;" d="M423.724,370.759H88.276c-4.875,0-8.828-3.952-8.828-8.828s3.952-8.828,8.828-8.828h335.448
			c4.875,0,8.828,3.952,8.828,8.828S428.599,370.759,423.724,370.759z"/>
		<path style="fill:#285680;" d="M397.241,406.069H114.759c-4.875,0-8.828-3.952-8.828-8.828c0-4.875,3.952-8.828,8.828-8.828
			h282.483c4.875,0,8.828,3.952,8.828,8.828C406.069,402.117,402.117,406.069,397.241,406.069z"/>
		<path style="fill:#285680;" d="M353.103,441.379H158.897c-4.875,0-8.828-3.952-8.828-8.828s3.952-8.828,8.828-8.828h194.207
			c4.875,0,8.828,3.952,8.828,8.828S357.979,441.379,353.103,441.379z"/>
	</g>
	<g>
		<path style="fill:#D25627;" d="M8.828,0h44.138v512H8.828C3.952,512,0,508.048,0,503.172V8.828C0,3.952,3.952,0,8.828,0z"/>
		<path style="fill:#D25627;" d="M459.034,0h44.138C508.048,0,512,3.952,512,8.828v494.345c0,4.875-3.952,8.828-8.828,8.828h-44.138
			V0z"/>
	</g>
</g>
<g>
</g>
<g>
</g>
<g>
</g>
<g>
</g>
<g>
</g>
<g>
</g>
<g>
</g>
<g>
</g>
<g>
</g>
<g>
</g>
<g>
</g>
<g>
</g>
<g>
</g>
<g>
</g>
<g>
</g>
</svg>
