<?xml version="1.0" encoding="iso-8859-1"?>
<!-- Generator: Adobe Illustrator 19.0.0, SVG Export Plug-In . SVG Version: 6.00 Build 0)  -->
<svg version="1.1" id="Capa_1" xmlns="http://www.w3.org/2000/svg" xmlns:xlink="http://www.w3.org/1999/xlink" x="0px" y="0px"
	 viewBox="0 0 512 512" style="enable-background:new 0 0 512 512;" xml:space="preserve">
<g transform="translate(-1)">
	<path style="fill:#BDC3C7;" d="M230.517,0h52.966c19.501,0,35.31,15.809,35.31,35.31v44.138H195.207V35.31
		C195.207,15.809,211.016,0,230.517,0z"/>
	<path style="fill:#D1D4D1;" d="M242.708,0h28.593c16.48,0.005,29.837,13.366,29.837,29.846v49.602h-88.276V29.846
		C212.862,13.363,226.225,0,242.708,0z"/>
	<path style="fill:#F3D55B;" d="M317.725,70.621c6.12,0.053,11.049,5.038,11.034,11.158v26.995
		c-0.523,32.843,13.697,64.193,38.753,85.433c55.595,45.425,78.873,119.547,59.231,188.601
		C407.102,451.861,348.297,502.635,277.118,512h-40.236c-71.179-9.365-129.984-60.139-149.626-129.193s3.636-143.175,59.231-188.601
		c25.049-21.234,39.268-52.573,38.753-85.407V81.779c-0.015-6.12,4.914-11.105,11.034-11.158H317.725z"/>
	<path style="fill:#F18D46;" d="M283.483,132.414h-52.966c-4.875,0-8.828-3.952-8.828-8.828c0-4.875,3.952-8.828,8.828-8.828h52.966
		c4.875,0,8.828,3.952,8.828,8.828C292.31,128.462,288.358,132.414,283.483,132.414z"/>
	<path style="fill:#4482C3;" d="M257,167.724L257,167.724c39.003,0,70.621,31.618,70.621,70.621v105.931
		c0,39.003-31.618,70.621-70.621,70.621l0,0c-39.003,0-70.621-31.618-70.621-70.621V238.345
		C186.379,199.342,217.997,167.724,257,167.724z"/>
	<g>
		<path style="fill:#285680;" d="M221.69,247.172h-35.31c-4.875,0-8.828-3.952-8.828-8.828c0-4.875,3.952-8.828,8.828-8.828h35.31
			c4.875,0,8.828,3.952,8.828,8.828C230.517,243.22,226.565,247.172,221.69,247.172z"/>
		<path style="fill:#285680;" d="M221.69,282.483h-35.31c-4.875,0-8.828-3.952-8.828-8.828s3.952-8.828,8.828-8.828h35.31
			c4.875,0,8.828,3.952,8.828,8.828S226.565,282.483,221.69,282.483z"/>
		<path style="fill:#285680;" d="M221.69,317.793h-35.31c-4.875,0-8.828-3.952-8.828-8.828s3.952-8.828,8.828-8.828h35.31
			c4.875,0,8.828,3.952,8.828,8.828S226.565,317.793,221.69,317.793z"/>
		<path style="fill:#285680;" d="M221.69,353.103h-35.31c-4.875,0-8.828-3.952-8.828-8.828s3.952-8.828,8.828-8.828h35.31
			c4.875,0,8.828,3.952,8.828,8.828S226.565,353.103,221.69,353.103z"/>
		<path style="fill:#285680;" d="M327.621,247.172h-35.31c-4.875,0-8.828-3.952-8.828-8.828c0-4.875,3.952-8.828,8.828-8.828h35.31
			c4.875,0,8.828,3.952,8.828,8.828C336.448,243.22,332.496,247.172,327.621,247.172z"/>
		<path style="fill:#285680;" d="M327.621,282.483h-35.31c-4.875,0-8.828-3.952-8.828-8.828s3.952-8.828,8.828-8.828h35.31
			c4.875,0,8.828,3.952,8.828,8.828S332.496,282.483,327.621,282.483z"/>
		<path style="fill:#285680;" d="M327.621,317.793h-35.31c-4.875,0-8.828-3.952-8.828-8.828s3.952-8.828,8.828-8.828h35.31
			c4.875,0,8.828,3.952,8.828,8.828S332.496,317.793,327.621,317.793z"/>
		<path style="fill:#285680;" d="M327.621,353.103h-35.31c-4.875,0-8.828-3.952-8.828-8.828s3.952-8.828,8.828-8.828h35.31
			c4.875,0,8.828,3.952,8.828,8.828S332.496,353.103,327.621,353.103z"/>
		<path style="fill:#285680;" d="M257,485.517c-4.875,0-8.828-3.952-8.828-8.828v-61.793c0-4.875,3.952-8.828,8.828-8.828
			s8.828,3.952,8.828,8.828v61.793C265.828,481.565,261.875,485.517,257,485.517z"/>
	</g>
	<path style="fill:#4482C3;" d="M283.483,485.517h-52.966c-4.875,0-8.828-3.952-8.828-8.828s3.952-8.828,8.828-8.828h52.966
		c4.875,0,8.828,3.952,8.828,8.828S288.358,485.517,283.483,485.517z"/>
</g>
<g>
</g>
<g>
</g>
<g>
</g>
<g>
</g>
<g>
</g>
<g>
</g>
<g>
</g>
<g>
</g>
<g>
</g>
<g>
</g>
<g>
</g>
<g>
</g>
<g>
</g>
<g>
</g>
<g>
</g>
</svg>
