<?xml version="1.0" encoding="iso-8859-1"?>
<!-- Generator: Adobe Illustrator 19.0.0, SVG Export Plug-In . SVG Version: 6.00 Build 0)  -->
<svg version="1.1" id="Capa_1" xmlns="http://www.w3.org/2000/svg" xmlns:xlink="http://www.w3.org/1999/xlink" x="0px" y="0px"
	 viewBox="0 0 512 512" style="enable-background:new 0 0 512 512;" xml:space="preserve">
<g>
	<path style="fill:#41767F;" d="M11.22,17.655h489.56c6.197,0,11.22,5.023,11.22,11.22v454.25c0,6.197-5.023,11.22-11.22,11.22
		H11.22c-6.197,0-11.22-5.023-11.22-11.22V28.875C0,22.678,5.023,17.655,11.22,17.655z"/>
	<path style="fill:#2C3E50;" d="M512,28.866v147.686H0V28.866c0.01-6.188,5.023-11.201,11.211-11.211h489.578
		C506.977,17.665,511.99,22.679,512,28.866z"/>
	<path style="fill:#65DDB9;" d="M85.169,52.966h341.663c3.159,0,5.72,2.561,5.72,5.72v76.835c0,3.159-2.561,5.72-5.72,5.72H85.169
		c-3.159,0-5.72-2.561-5.72-5.72V58.686C79.448,55.527,82.009,52.966,85.169,52.966z"/>
	<g>
		<circle style="fill:#FF5364;" cx="256" cy="238.345" r="26.483"/>
		<circle style="fill:#FF5364;" cx="256" cy="379.586" r="79.448"/>
	</g>
	<g>
		<path style="fill:#FFFFFF;" d="M256,423.724c-15.77,0.003-30.344-8.409-38.23-22.066c-7.886-13.657-7.887-30.484-0.002-44.141
			c2.454-4.186,7.827-5.607,12.029-3.18c4.202,2.426,5.658,7.79,3.26,12.008c-6.407,11.131-3.904,25.255,5.938,33.506
			c9.842,8.251,24.186,8.251,34.028,0c9.842-8.251,12.345-22.375,5.938-33.506c-2.398-4.218-0.942-9.582,3.26-12.008
			c4.202-2.426,9.575-1.006,12.029,3.18c7.887,13.66,7.884,30.491-0.006,44.149C286.353,415.324,271.773,423.733,256,423.724z"/>
		<path style="fill:#FFFFFF;" d="M256,370.759c-4.875,0-8.828-3.952-8.828-8.828v-17.655c0-4.875,3.952-8.828,8.828-8.828
			s8.828,3.952,8.828,8.828v17.655C264.828,366.806,260.875,370.759,256,370.759z"/>
	</g>
</g>
<g>
</g>
<g>
</g>
<g>
</g>
<g>
</g>
<g>
</g>
<g>
</g>
<g>
</g>
<g>
</g>
<g>
</g>
<g>
</g>
<g>
</g>
<g>
</g>
<g>
</g>
<g>
</g>
<g>
</g>
</svg>
