<?xml version="1.0" encoding="iso-8859-1"?>
<!-- Generator: Adobe Illustrator 19.0.0, SVG Export Plug-In . SVG Version: 6.00 Build 0)  -->
<svg version="1.1" id="Capa_1" xmlns="http://www.w3.org/2000/svg" xmlns:xlink="http://www.w3.org/1999/xlink" x="0px" y="0px"
	 viewBox="0 0 512 512" style="enable-background:new 0 0 512 512;" xml:space="preserve">
<g>
	<path style="fill:#67B9CC;" d="M406.069,176.552V26.13C406.04,11.711,394.358,0.029,379.939,0H132.061
		c-14.419,0.029-26.101,11.711-26.13,26.13V485.87c0.029,14.419,11.711,26.1,26.13,26.13h247.879
		c14.419-0.029,26.1-11.711,26.13-26.13V176.552z"/>
	<g>
		<path style="fill:#2C3E50;" d="M30.102,367.139c-3.575,0.01-6.802-2.137-8.175-5.437s-0.62-7.103,1.908-9.631l58.174-58.174
			c1.662-1.662,3.917-2.593,6.268-2.586h52.966c4.875,0,8.828,3.952,8.828,8.828s-3.952,8.828-8.828,8.828H91.93l-55.614,55.614
			C34.664,366.219,32.43,367.139,30.102,367.139z"/>
		<path style="fill:#2C3E50;" d="M141.241,220.69H88.276c-2.341-0.001-4.586-0.931-6.241-2.586l-58.2-58.174
			c-3.454-3.454-3.454-9.055,0-12.509c3.454-3.454,9.055-3.454,12.509,0l55.614,55.614h49.284c4.875,0,8.828,3.952,8.828,8.828
			C150.069,216.737,146.117,220.69,141.241,220.69z"/>
		<path style="fill:#2C3E50;" d="M141.241,264.828H35.31c-4.875,0-8.828-3.952-8.828-8.828s3.952-8.828,8.828-8.828h105.931
			c4.875,0,8.828,3.952,8.828,8.828S146.117,264.828,141.241,264.828z"/>
		<path style="fill:#2C3E50;" d="M481.898,367.139c-2.341-0.001-4.586-0.931-6.241-2.586l-55.614-55.614h-49.284
			c-4.875,0-8.828-3.952-8.828-8.828c0-4.875,3.952-8.828,8.828-8.828h52.966c2.341,0,4.586,0.931,6.241,2.586l58.174,58.174
			c2.524,2.525,3.279,6.321,1.913,9.619c-1.366,3.298-4.584,5.449-8.154,5.45V367.139z"/>
		<path style="fill:#2C3E50;" d="M423.724,220.69h-52.966c-4.875,0-8.828-3.952-8.828-8.828c0-4.875,3.952-8.828,8.828-8.828h49.311
			l55.614-55.614c2.234-2.23,5.489-3.098,8.537-2.278c3.048,0.82,5.427,3.204,6.241,6.254c0.814,3.05-0.061,6.302-2.296,8.532
			l-58.174,58.174C428.33,219.765,426.074,220.696,423.724,220.69z"/>
		<path style="fill:#2C3E50;" d="M476.69,264.828H370.759c-4.875,0-8.828-3.952-8.828-8.828s3.952-8.828,8.828-8.828H476.69
			c4.875,0,8.828,3.952,8.828,8.828S481.565,264.828,476.69,264.828z"/>
	</g>
	<path style="fill:#41767F;" d="M156.425,35.31h199.15c8.386,0,15.183,6.798,15.183,15.183v411.012
		c0,8.386-6.798,15.183-15.183,15.183h-199.15c-8.386,0-15.183-6.798-15.183-15.183V50.494
		C141.241,42.108,148.039,35.31,156.425,35.31z"/>
	<circle style="fill:#DF4D60;" cx="256" cy="150.069" r="79.448"/>
	<path style="fill:#FB7B76;" d="M256,203.034c-29.252,0-52.966-23.713-52.966-52.966S226.748,97.103,256,97.103
		c4.875,0,8.828,3.952,8.828,8.828c0,4.875-3.952,8.828-8.828,8.828c-19.501,0-35.31,15.809-35.31,35.31s15.809,35.31,35.31,35.31
		s35.31-15.809,35.31-35.31c0-4.875,3.952-8.828,8.828-8.828s8.828,3.952,8.828,8.828C308.931,179.307,285.238,203,256,203.034z"/>
	<g>
		<circle style="fill:#FF5364;" cx="17.655" cy="370.759" r="17.655"/>
		<circle style="fill:#FF5364;" cx="17.655" cy="141.241" r="17.655"/>
		<circle style="fill:#FF5364;" cx="17.655" cy="256" r="17.655"/>
		<circle style="fill:#FF5364;" cx="494.345" cy="370.759" r="17.655"/>
		<circle style="fill:#FF5364;" cx="494.345" cy="141.241" r="17.655"/>
		<circle style="fill:#FF5364;" cx="494.345" cy="256" r="17.655"/>
	</g>
	<g>
		<path style="fill:#2C3E50;" d="M220.69,344.276c-4.875,0-8.828-3.952-8.828-8.828v-35.31c0-4.875,3.952-8.828,8.828-8.828
			s8.828,3.952,8.828,8.828v35.31C229.517,340.324,225.565,344.276,220.69,344.276z"/>
		<path style="fill:#2C3E50;" d="M291.31,344.276c-4.875,0-8.828-3.952-8.828-8.828v-35.31c0-4.875,3.952-8.828,8.828-8.828
			s8.828,3.952,8.828,8.828v35.31C300.138,340.324,296.186,344.276,291.31,344.276z"/>
		<path style="fill:#2C3E50;" d="M256,379.586c14.626,0,26.483,11.857,26.483,26.483v17.655h-52.966v-17.655
			C229.517,391.443,241.374,379.586,256,379.586z"/>
	</g>
</g>
<g>
</g>
<g>
</g>
<g>
</g>
<g>
</g>
<g>
</g>
<g>
</g>
<g>
</g>
<g>
</g>
<g>
</g>
<g>
</g>
<g>
</g>
<g>
</g>
<g>
</g>
<g>
</g>
<g>
</g>
</svg>
