<?xml version="1.0" encoding="iso-8859-1"?>
<!-- Generator: Adobe Illustrator 19.0.0, SVG Export Plug-In . SVG Version: 6.00 Build 0)  -->
<svg version="1.1" id="Capa_1" xmlns="http://www.w3.org/2000/svg" xmlns:xlink="http://www.w3.org/1999/xlink" x="0px" y="0px"
	 viewBox="0 0 512 512" style="enable-background:new 0 0 512 512;" xml:space="preserve">
<g>
	<path style="fill:#894B9D;" d="M26.13,0H485.87C500.301,0,512,11.699,512,26.13V485.87c0,14.431-11.699,26.13-26.13,26.13H26.13
		C11.699,512,0,500.301,0,485.87V26.13C0,11.699,11.699,0,26.13,0z"/>
	<path style="fill:#CC66A1;" d="M50.494,35.31h411.189c8.288,0,15.007,6.719,15.007,15.007v411.189
		c0,8.386-6.798,15.183-15.183,15.183H50.494c-8.386,0-15.183-6.798-15.183-15.183V50.494C35.31,42.108,42.108,35.31,50.494,35.31z"
		/>
	<path style="fill:#3D324C;" d="M124.972,105.931h262.056c10.516,0,19.041,8.525,19.041,19.041v262.056
		c0,10.516-8.525,19.041-19.041,19.041H124.972c-10.516,0-19.041-8.525-19.041-19.041V124.972
		C105.931,114.456,114.456,105.931,124.972,105.931z"/>
	<path style="fill:#894B9D;" d="M191.462,441.379h129.077c3.359,0,6.082,2.723,6.082,6.082v38.056H185.379v-38.065
		C185.384,444.097,188.106,441.379,191.462,441.379z"/>
	<g>
		<path style="fill:#F0C419;" d="M343.393,240.26c-48.297-48.191-126.49-48.191-174.786,0l-24.973-24.964
			c62.095-61.952,162.62-61.952,224.715,0L343.393,240.26z"/>
		<path style="fill:#F0C419;" d="M293.455,290.198c-20.701-20.65-54.21-20.65-74.911,0l-24.964-24.964
			c34.496-34.42,90.344-34.42,124.84,0L293.455,290.198z"/>
		<circle style="fill:#F0C419;" cx="256" cy="325.508" r="17.655"/>
	</g>
</g>
<g>
</g>
<g>
</g>
<g>
</g>
<g>
</g>
<g>
</g>
<g>
</g>
<g>
</g>
<g>
</g>
<g>
</g>
<g>
</g>
<g>
</g>
<g>
</g>
<g>
</g>
<g>
</g>
<g>
</g>
</svg>
