<?xml version="1.0" encoding="iso-8859-1"?>
<!-- Generator: Adobe Illustrator 19.0.0, SVG Export Plug-In . SVG Version: 6.00 Build 0)  -->
<svg version="1.1" id="Capa_1" xmlns="http://www.w3.org/2000/svg" xmlns:xlink="http://www.w3.org/1999/xlink" x="0px" y="0px"
	 viewBox="0 0 512 512" style="enable-background:new 0 0 512 512;" xml:space="preserve">
<g>
	<path style="fill:#2C3E50;" d="M132.061,0h247.879c14.431,0,26.13,11.699,26.13,26.13V485.87c0,14.431-11.699,26.13-26.13,26.13
		H132.061c-14.431,0-26.13-11.699-26.13-26.13V26.13C105.931,11.699,117.63,0,132.061,0z"/>
	<rect x="105.931" y="70.621" style="fill:#4482C3;" width="300.138" height="370.759"/>
	<path style="fill:#556080;" d="M291.31,485.517H220.69c-4.875,0-8.828-3.952-8.828-8.828s3.952-8.828,8.828-8.828h70.621
		c4.875,0,8.828,3.952,8.828,8.828S296.186,485.517,291.31,485.517z"/>
	<path style="fill:#B0D3F0;" d="M319.929,211.279c-3.187-6.321-6.912-12.482-10.673-18.706l-23.455-38.841
		c-9.481-15.69-18.959-31.379-28.434-47.069c-0.292-0.475-0.81-0.765-1.368-0.765c-0.558,0-1.076,0.289-1.368,0.765l-5.226,8.642
		l-15.616,25.935l-18.467,30.552l-15.104,25c-4.811,7.158-8.982,14.726-12.465,22.616c-3.183,8.258-4.814,17.032-4.811,25.882
		c0.075,19.679,8.112,38.49,22.281,52.148c14.168,13.658,33.261,21,52.93,20.353c33.062-1.425,61.178-24.584,68.908-56.761
		C331.116,244.145,328.564,226.347,319.929,211.279z"/>
	<g>
		<path style="fill:#FFFFFF;" d="M194.207,406.069h-26.483c-4.875,0-8.828-3.952-8.828-8.828c0-4.875,3.952-8.828,8.828-8.828
			h26.483c4.875,0,8.828,3.952,8.828,8.828C203.034,402.117,199.082,406.069,194.207,406.069z"/>
		<path style="fill:#FFFFFF;" d="M256,406.069h-26.483c-4.875,0-8.828-3.952-8.828-8.828c0-4.875,3.952-8.828,8.828-8.828H256
			c4.875,0,8.828,3.952,8.828,8.828C264.828,402.117,260.875,406.069,256,406.069z"/>
	</g>
	<g>
		<path style="fill:#FF5364;" d="M291.31,406.069c-3.57-0.001-6.788-2.152-8.154-5.45s-0.611-7.094,1.913-9.619l44.138-44.138
			c3.493-3.035,8.737-2.858,12.017,0.406c3.28,3.264,3.483,8.507,0.465,12.015l-44.138,44.138
			C295.906,405.099,293.66,406.052,291.31,406.069z"/>
		<path style="fill:#FF5364;" d="M291.31,361.931c-0.592-0.019-1.182-0.078-1.766-0.177c-0.553-0.096-1.089-0.275-1.589-0.53
			c-0.565-0.195-1.102-0.462-1.598-0.794l-1.315-1.059c-3.414-3.481-3.414-9.054,0-12.535l1.315-1.059
			c0.496-0.333,1.033-0.6,1.598-0.794c0.5-0.255,1.036-0.434,1.589-0.53c1.129-0.265,2.305-0.265,3.434,0
			c0.587,0.082,1.157,0.261,1.686,0.53c0.542,0.178,1.049,0.446,1.501,0.794c0.521,0.353,0.971,0.706,1.412,1.059
			c2.546,2.525,3.312,6.341,1.937,9.653C298.139,359.801,294.897,361.952,291.31,361.931z"/>
		<path style="fill:#FF5364;" d="M335.448,406.069c-0.592-0.023-1.181-0.082-1.766-0.177c-0.551-0.104-1.086-0.282-1.589-0.53
			c-0.565-0.198-1.102-0.468-1.598-0.803l-1.315-1.051c-3.414-3.481-3.414-9.054,0-12.535l1.315-1.059
			c0.496-0.335,1.033-0.605,1.598-0.803c0.501-0.252,1.036-0.428,1.589-0.521c1.128-0.274,2.306-0.274,3.434,0
			c0.587,0.079,1.157,0.255,1.686,0.521c0.542,0.181,1.05,0.452,1.501,0.803c0.521,0.353,0.971,0.706,1.412,1.059
			c2.546,2.526,3.312,6.341,1.937,9.653C342.277,403.939,339.035,406.09,335.448,406.069z"/>
	</g>
</g>
<g>
</g>
<g>
</g>
<g>
</g>
<g>
</g>
<g>
</g>
<g>
</g>
<g>
</g>
<g>
</g>
<g>
</g>
<g>
</g>
<g>
</g>
<g>
</g>
<g>
</g>
<g>
</g>
<g>
</g>
</svg>
