<?xml version="1.0" encoding="iso-8859-1"?>
<!-- Generator: Adobe Illustrator 19.0.0, SVG Export Plug-In . SVG Version: 6.00 Build 0)  -->
<svg version="1.1" id="Capa_1" xmlns="http://www.w3.org/2000/svg" xmlns:xlink="http://www.w3.org/1999/xlink" x="0px" y="0px"
	 viewBox="0 0 512 512" style="enable-background:new 0 0 512 512;" xml:space="preserve">
<g>
	<path style="fill:#547580;" d="M341.428,474.074H16.308C7.301,474.074,0,466.773,0,457.766V16.308C0,7.301,7.301,0,16.308,0
		h441.647c8.902,0,16.118,7.217,16.118,16.119v325.31"/>
	<circle style="fill:#24AE5F;" cx="417.185" cy="417.185" r="94.815"/>
	<g>
		<path style="fill:#BBD1B5;" d="M457.406,386.408c-2.516,0.007-4.93-0.994-6.703-2.778c-18.528-18.47-48.506-18.47-67.034,0
			c-3.72,3.593-9.634,3.542-13.291-0.116c-3.657-3.657-3.709-9.571-0.116-13.291c25.933-25.891,67.934-25.891,93.867,0
			c2.711,2.712,3.522,6.789,2.054,10.332c-1.467,3.542-4.924,5.853-8.758,5.853H457.406z"/>
		<path style="fill:#BBD1B5;" d="M430.592,413.231c-2.514-0.001-4.926-1-6.703-2.778c-1.778-1.774-4.192-2.764-6.703-2.75
			c-2.515-0.009-4.928,0.988-6.703,2.769c-3.72,3.593-9.634,3.542-13.291-0.115c-3.657-3.657-3.709-9.571-0.115-13.291
			c5.322-5.35,12.564-8.348,20.11-8.325c7.544-0.025,14.783,2.974,20.101,8.325c2.711,2.712,3.522,6.789,2.054,10.332
			c-1.467,3.542-4.924,5.853-8.758,5.853L430.592,413.231z"/>
		<circle style="fill:#BBD1B5;" cx="417.185" cy="455.111" r="18.963"/>
	</g>
	<path style="fill:#35495E;" d="M189.63,208.593V104.296c-0.539-9.919,7.054-18.402,16.972-18.963h60.871
		c9.918,0.561,17.511,9.044,16.972,18.963v104.296"/>
	<path style="fill:#556080;" d="M283.857,350.815h-93.639c-5.146-0.308-9.926-2.764-13.173-6.769
		c-3.246-4.005-4.659-9.191-3.894-14.289l15.057-121.164h97.659l15.066,121.164c0.765,5.1-0.649,10.287-3.897,14.292
		C293.787,348.054,289.005,350.51,283.857,350.815z"/>
	<g>
		<circle style="fill:#95A5A5;" cx="56.889" cy="237.037" r="18.963"/>
		<circle style="fill:#95A5A5;" cx="417.185" cy="237.037" r="18.963"/>
	</g>
	<path style="fill:#8697CB;" d="M283.876,350.815h-93.677c-5.144-0.308-9.923-2.763-13.169-6.766
		c-3.246-4.003-4.66-9.186-3.898-14.283l4.077-32.996c3.024,4.107,7.795,6.563,12.895,6.637h93.867
		c5.1-0.074,9.871-2.53,12.895-6.637l4.077,32.996c0.762,5.097-0.652,10.28-3.898,14.283
		C293.798,348.052,289.02,350.507,283.876,350.815z"/>
</g>
<g>
</g>
<g>
</g>
<g>
</g>
<g>
</g>
<g>
</g>
<g>
</g>
<g>
</g>
<g>
</g>
<g>
</g>
<g>
</g>
<g>
</g>
<g>
</g>
<g>
</g>
<g>
</g>
<g>
</g>
</svg>
