<?xml version="1.0" encoding="iso-8859-1"?>
<!-- Generator: Adobe Illustrator 19.0.0, SVG Export Plug-In . SVG Version: 6.00 Build 0)  -->
<svg version="1.1" id="Capa_1" xmlns="http://www.w3.org/2000/svg" xmlns:xlink="http://www.w3.org/1999/xlink" x="0px" y="0px"
	 viewBox="0 0 512 512" style="enable-background:new 0 0 512 512;" xml:space="preserve">
<g>
	<path style="fill:#F0C419;" d="M341.428,474.074H16.308C7.301,474.074,0,466.773,0,457.766V16.308C0,7.301,7.301,0,16.308,0
		h441.647c8.902,0,16.118,7.217,16.118,16.119v325.31"/>
	<path style="fill:#F29C1F;" d="M322.37,417.185H134.827c-6.378-0.026-11.541-5.19-11.567-11.567V68.456
		c0.026-6.378,5.19-11.541,11.567-11.567h204.421c6.378,0.026,11.541,5.19,11.567,11.567v281.031"/>
	<path style="fill:#D25627;" d="M187.079,94.815h99.916c3.828,0,6.931,3.103,6.931,6.931v109.397c0,3.828-3.103,6.931-6.931,6.931
		h-99.916c-3.828,0-6.931-3.103-6.931-6.931V101.746C180.148,97.918,183.251,94.815,187.079,94.815z"/>
	<path style="fill:#F3D55B;" d="M265.481,180.148c-2.984,0-5.795-1.405-7.585-3.793l-20.859-27.819l-20.859,27.819
		c-2.032,2.71-5.356,4.13-8.719,3.725s-6.255-2.574-7.585-5.689c-1.331-3.115-0.898-6.703,1.134-9.413l28.444-37.926
		c1.868-2.265,4.65-3.576,7.585-3.576c2.935,0,5.717,1.312,7.585,3.576l28.444,37.926c3.142,4.189,2.293,10.132-1.896,13.274
		C269.533,179.49,267.534,180.156,265.481,180.148z"/>
	<path style="fill:#D25627;" d="M187.079,256h99.916c3.828,0,6.931,3.103,6.931,6.931v109.397c0,3.828-3.103,6.931-6.931,6.931
		h-99.916c-3.828,0-6.931-3.103-6.931-6.931V262.931C180.148,259.103,183.251,256,187.079,256z"/>
	<path style="fill:#F3D55B;" d="M237.037,350.815c-2.984,0-5.795-1.405-7.585-3.793l-28.444-37.926
		c-3.142-4.189-2.293-10.132,1.896-13.274c4.189-3.142,10.132-2.293,13.274,1.896l20.859,27.809l20.859-27.809
		c3.142-4.189,9.085-5.038,13.274-1.896c4.189,3.142,5.038,9.085,1.896,13.274l-28.444,37.926
		C242.832,349.41,240.021,350.815,237.037,350.815z"/>
	<circle style="fill:#24AE5F;" cx="417.185" cy="417.185" r="94.815"/>
	<g>
		<path style="fill:#BBD1B5;" d="M457.406,386.408c-2.516,0.007-4.93-0.994-6.703-2.778c-18.528-18.47-48.506-18.47-67.034,0
			c-3.72,3.593-9.634,3.542-13.291-0.116c-3.657-3.657-3.709-9.571-0.116-13.291c25.933-25.891,67.934-25.891,93.867,0
			c2.711,2.712,3.522,6.789,2.054,10.332c-1.467,3.542-4.924,5.853-8.758,5.853H457.406z"/>
		<path style="fill:#BBD1B5;" d="M430.592,413.231c-2.514-0.001-4.926-1-6.703-2.778c-1.778-1.774-4.192-2.764-6.703-2.75
			c-2.515-0.009-4.928,0.988-6.703,2.769c-3.72,3.593-9.634,3.542-13.291-0.115c-3.657-3.657-3.709-9.571-0.115-13.291
			c5.322-5.35,12.564-8.348,20.11-8.325c7.544-0.025,14.783,2.974,20.101,8.325c2.711,2.712,3.522,6.789,2.054,10.332
			c-1.467,3.542-4.924,5.853-8.758,5.853L430.592,413.231z"/>
		<circle style="fill:#BBD1B5;" cx="417.185" cy="455.111" r="18.963"/>
	</g>
</g>
<g>
</g>
<g>
</g>
<g>
</g>
<g>
</g>
<g>
</g>
<g>
</g>
<g>
</g>
<g>
</g>
<g>
</g>
<g>
</g>
<g>
</g>
<g>
</g>
<g>
</g>
<g>
</g>
<g>
</g>
</svg>
