<?xml version="1.0" encoding="iso-8859-1"?>
<!-- Generator: Adobe Illustrator 19.0.0, SVG Export Plug-In . SVG Version: 6.00 Build 0)  -->
<svg version="1.1" id="Capa_1" xmlns="http://www.w3.org/2000/svg" xmlns:xlink="http://www.w3.org/1999/xlink" x="0px" y="0px"
	 viewBox="0 0 512 512" style="enable-background:new 0 0 512 512;" xml:space="preserve">
<g>
	<g>
		<path style="fill:#2C3E50;" d="M256,123.729c-4.713,0-8.533-3.821-8.533-8.533v-25.6c0-4.713,3.821-8.533,8.533-8.533
			c4.713,0,8.533,3.821,8.533,8.533v25.6C264.533,119.909,260.713,123.729,256,123.729z"/>
		<path style="fill:#2C3E50;" d="M264.533,123.729h-17.067c-4.713,0-8.533-3.821-8.533-8.533c0-4.713,3.821-8.533,8.533-8.533
			h17.067c4.713,0,8.533,3.821,8.533,8.533C273.067,119.909,269.246,123.729,264.533,123.729z"/>
	</g>
	<path style="fill:#B0D3F0;" d="M187.733,38.396h136.533v23.151c0.002,7.438-2.951,14.573-8.21,19.833s-12.392,8.216-19.831,8.216
		h-80.452c-7.438,0-14.572-2.955-19.831-8.216s-8.212-12.395-8.21-19.833V38.396z"/>
	<path style="fill:#F0C419;" d="M375.262,410.057c0.296-5.401,0.267-10.815-0.085-16.213c-0.735-23.363-6.965-46.225-18.185-66.731
		c-13.302-20.528-29.13-39.303-47.113-55.885c-20.659-20.779-36.147-56.414-9.387-78.831c-0.23,0.196-16.418-5.598-17.655-5.897
		c-13.089-3.548-26.83-3.957-40.107-1.195c-43.699,10.522-54.903,52.685-45.628,88.533c-31.983-6.647-49.843,3.499-58.658,11.878
		c-1.613,1.53-2.218,3.843-1.558,5.967c0.659,2.123,2.468,3.688,4.664,4.034c6.605,1.596,14.114,4.036,15.138,4.471
		c13.005,5.547,23.893,16.717,21.666,29.585c-2.261,7.448-6.724,14.037-12.8,18.901c-15.665,16.285-24.567,37.908-24.909,60.501
		c-0.06,54.434,52.574,98.551,117.504,98.551c31.944,0.356,62.888-11.125,86.869-32.23
		C363.538,458.674,374.448,435.064,375.262,410.057z"/>
	<path style="fill:#90BAE1;" d="M170.667,12.796h170.667v25.6c0,4.713-3.82,8.533-8.533,8.533H179.2
		c-4.713,0-8.533-3.821-8.533-8.533V12.796z"/>
	<path style="fill:#2C3E50;" d="M503.467,21.329H8.533C3.821,21.329,0,17.509,0,12.796s3.821-8.533,8.533-8.533h494.933
		c4.713,0,8.533,3.821,8.533,8.533S508.18,21.329,503.467,21.329z"/>
	<path style="fill:#E57E25;" d="M300.8,500.988c-13.786,4.449-28.181,6.723-42.667,6.741c-4.779,0-9.472-0.256-14.08-0.683v-0.341
		c-26.795-11.605-55.381-32.256-55.723-59.648c0.38-14.261,7.225-27.575,18.603-36.181c8.619-6.997,19.115-11.947,27.819-19.029
		c8.265-6.119,14.291-14.784,17.152-24.661c1.749-11.116,2.264-22.392,1.536-33.621c0,0.768,4.096,2.645,4.693,3.072
		c14.302,9.024,24.735,23.047,29.269,39.339c0.78,2.931,1.266,5.933,1.451,8.96c0.065,0.068,0.097,0.162,0.085,0.256
		c1.195,15.445-7.339,29.269-16.299,42.325c-0.427,0.597,7.595,3.584,8.277,3.84c9.313,2.47,19.214,1.342,27.733-3.157
		c2.834-1.538,5.285-3.697,7.168-6.315c1.523-2.805,2.698-5.785,3.499-8.875c0,0.171,3.584,3.925,3.84,4.352
		c1.53,2.127,2.872,4.382,4.011,6.741c2.015,4.088,3.588,8.379,4.693,12.8C338.944,463.185,324.352,485.543,300.8,500.988z"/>
</g>
<g>
</g>
<g>
</g>
<g>
</g>
<g>
</g>
<g>
</g>
<g>
</g>
<g>
</g>
<g>
</g>
<g>
</g>
<g>
</g>
<g>
</g>
<g>
</g>
<g>
</g>
<g>
</g>
<g>
</g>
</svg>
