<?xml version="1.0" encoding="iso-8859-1"?>
<!-- Generator: Adobe Illustrator 19.0.0, SVG Export Plug-In . SVG Version: 6.00 Build 0)  -->
<svg version="1.1" id="Capa_1" xmlns="http://www.w3.org/2000/svg" xmlns:xlink="http://www.w3.org/1999/xlink" x="0px" y="0px"
	 viewBox="0 0 512.065 512.065" style="enable-background:new 0 0 512.065 512.065;" xml:space="preserve">
<g>
	<g>
		<path style="fill:#E64C3C;" d="M52.998,44.138V11.034C52.458,5.57,56.376,0.673,61.826,0h97.103
			c5.45,0.673,9.367,5.57,8.828,11.034v33.103"/>
		<path style="fill:#E64C3C;" d="M441.412,344.276h33.103c5.464-0.54,10.362,3.378,11.034,8.828v97.103
			c-0.677,5.447-5.572,9.362-11.034,8.828h-33.103"/>
		<path style="fill:#E64C3C;" d="M335.481,344.276v114.759l-145.655,0c-15.61,0.035-31.109-2.623-45.815-7.857
			c-5.802-2.108-11.463-4.585-16.949-7.415c-11.665-6.016-22.399-13.687-31.868-22.775c-4.252-4.118-8.261-8.481-12.006-13.065
			c-19.57-24.278-30.226-54.532-30.19-85.716l0-163.31h114.759v163.31c-0.013,0.737,0.017,1.474,0.088,2.207
			c0.616,5.966,3.646,11.42,8.386,15.095c3.851,3.1,8.651,4.782,13.594,4.767H335.481z"/>
	</g>
	<g>
		<path style="fill:#C03A2B;" d="M35.343,141.241v26.483c0,4.875,3.952,8.828,8.828,8.828h132.414c4.875,0,8.828-3.952,8.828-8.828
			V44.138c0-4.875-3.952-8.828-8.828-8.828H44.171c-4.875,0-8.828,3.952-8.828,8.828v26.483"/>
		<path style="fill:#C03A2B;" d="M414.929,476.69h26.483c4.875,0,8.828-3.952,8.828-8.828V335.448c0-4.875-3.952-8.828-8.828-8.828
			H317.826c-4.875,0-8.828,3.952-8.828,8.828v132.414c0,4.875,3.952,8.828,8.828,8.828h26.483"/>
	</g>
	<g>
		<path style="fill:#802D40;" d="M174.024,421.164l-30.014,30.014c-5.802-2.108-11.463-4.585-16.949-7.415
			c0.455-0.911,1.051-1.746,1.766-2.472l26.483-26.395l-11.476-11.388c-1.612-1.693-2.526-3.931-2.56-6.268v-31.073l-24.276,9.71
			l6.179,18.538c1.242,3.773-0.162,7.913-3.443,10.152l-24.541,16.419c-4.252-4.118-8.261-8.481-12.006-13.065
			c0.218-0.283,0.488-0.522,0.794-0.706l20.303-13.594l-6.709-20.039c-1.504-4.455,0.747-9.307,5.12-11.034L145.07,345.6
			l1.766-0.706c2.721-1.084,5.801-0.747,8.224,0.897s3.872,4.384,3.87,7.312v40.519l15.095,15.007
			C177.467,412.098,177.467,417.695,174.024,421.164z"/>
		<path style="fill:#802D40;" d="M176.231,339.509l-19.862,19.862c-3.481,3.414-9.054,3.414-12.535,0
			c-3.443-3.469-3.443-9.066,0-12.535l1.236-1.236l19.068-19.068c1.017-1.035,2.3-1.768,3.708-2.119
			C168.461,330.38,171.491,335.834,176.231,339.509z"/>
	</g>
	<path style="fill:#2FA8CC;" d="M93.826,476.495c-1.156-2.11-2.507-4.167-3.866-6.241l-8.501-12.932
		c-3.431-5.232-6.868-10.461-10.311-15.687c-0.112-0.163-0.297-0.26-0.494-0.26s-0.382,0.097-0.494,0.26l-1.898,2.878l-5.658,8.625
		l-6.691,10.178l-5.482,8.333c-1.729,2.372-3.242,4.895-4.52,7.539c-1.153,2.733-1.753,5.667-1.766,8.633
		c0.336,6.853,3.421,13.28,8.556,17.831c5.135,4.55,11.887,6.839,18.73,6.348c11.567-0.175,21.682-7.838,24.982-18.926
		C97.879,487.428,96.943,481.426,93.826,476.495z"/>
	<g>
		<path style="fill:#802D40;" d="M35.343,70.621h150.069c4.875,0,8.828,3.952,8.828,8.828v52.966c0,4.875-3.952,8.828-8.828,8.828
			H35.343c-4.875,0-8.828-3.952-8.828-8.828V79.448C26.515,74.573,30.468,70.621,35.343,70.621z"/>
		<path style="fill:#802D40;" d="M344.309,476.69V326.621c0-4.875,3.952-8.828,8.828-8.828h52.966c4.875,0,8.828,3.952,8.828,8.828
			V476.69c0,4.875-3.952,8.828-8.828,8.828h-52.966C348.261,485.517,344.309,481.565,344.309,476.69z"/>
	</g>
	<circle style="fill:#F0C419;" cx="406.102" cy="79.448" r="79.448"/>
	<g>
		<path style="fill:#2C3E50;" d="M406.102,97.103c-4.875,0-8.828-3.952-8.828-8.828V35.31c0-4.875,3.952-8.828,8.828-8.828
			s8.828,3.952,8.828,8.828v52.966C414.929,93.151,410.977,97.103,406.102,97.103z"/>
		<path style="fill:#2C3E50;" d="M406.102,132.414c-4.875,0-8.828-3.952-8.828-8.828v-8.828c0-4.875,3.952-8.828,8.828-8.828
			s8.828,3.952,8.828,8.828v8.828C414.929,128.462,410.977,132.414,406.102,132.414z"/>
	</g>
</g>
<g>
</g>
<g>
</g>
<g>
</g>
<g>
</g>
<g>
</g>
<g>
</g>
<g>
</g>
<g>
</g>
<g>
</g>
<g>
</g>
<g>
</g>
<g>
</g>
<g>
</g>
<g>
</g>
<g>
</g>
</svg>
