<?xml version="1.0" encoding="iso-8859-1"?>
<!-- Generator: Adobe Illustrator 19.0.0, SVG Export Plug-In . SVG Version: 6.00 Build 0)  -->
<svg version="1.1" id="Capa_1" xmlns="http://www.w3.org/2000/svg" xmlns:xlink="http://www.w3.org/1999/xlink" x="0px" y="0px"
	 viewBox="0 0 512 512" style="enable-background:new 0 0 512 512;" xml:space="preserve">
<g>
	<circle style="fill:#7D6599;" cx="256" cy="256" r="256"/>
	<circle style="fill:#3D324C;" cx="256" cy="256" r="220.69"/>
	<circle style="fill:#7D6599;" cx="256" cy="256" r="185.379"/>
	<circle style="fill:#3D324C;" cx="256" cy="256" r="150.069"/>
	<circle style="fill:#7D6599;" cx="256" cy="256" r="114.759"/>
	<g>
		<path style="fill:#FF5364;" d="M303.969,256h111.925c39.739,0,71.954,32.215,71.954,71.954v15.987
			c0,39.739-32.215,71.954-71.954,71.954s-71.954-32.215-71.954-71.954v-7.998c0-26.493-21.477-47.969-47.969-47.969h-7.989"/>
		<path style="fill:#FF5364;" d="M259.001,303.969v111.925c0,39.739-32.215,71.954-71.954,71.954h-15.996
			c-39.739,0-71.954-32.215-71.954-71.954s32.215-71.954,71.954-71.954h7.998c26.493,0,47.969-21.477,47.969-47.969"/>
		<path style="fill:#FF5364;" d="M208.031,256H96.106c-39.739,0-71.954-32.215-71.954-71.954v-15.996
			c0-19.082,7.581-37.383,21.075-50.876s31.796-21.071,50.878-21.069c39.735,0,71.949,32.209,71.954,71.945v7.998
			c0,26.493,21.477,47.969,47.969,47.969"/>
		<path style="fill:#FF5364;" d="M256,208.031V96.097c0-19.082,7.581-37.383,21.075-50.876
			c13.494-13.493,31.796-21.071,50.878-21.069h15.987c19.082-0.002,37.384,7.577,50.878,21.069s21.075,31.793,21.075,50.876
			s-7.581,37.383-21.075,50.876c-13.494,13.493-31.796,21.071-50.878,21.069h-7.989c-26.493,0-47.969,21.477-47.969,47.969v7.998"/>
	</g>
	<circle style="fill:#F0C419;" cx="256" cy="256" r="52.966"/>
</g>
<g>
</g>
<g>
</g>
<g>
</g>
<g>
</g>
<g>
</g>
<g>
</g>
<g>
</g>
<g>
</g>
<g>
</g>
<g>
</g>
<g>
</g>
<g>
</g>
<g>
</g>
<g>
</g>
<g>
</g>
</svg>
