<?xml version="1.0" encoding="iso-8859-1"?>
<!-- Generator: Adobe Illustrator 19.0.0, SVG Export Plug-In . SVG Version: 6.00 Build 0)  -->
<svg version="1.1" id="Capa_1" xmlns="http://www.w3.org/2000/svg" xmlns:xlink="http://www.w3.org/1999/xlink" x="0px" y="0px"
	 viewBox="0 0 512 512" style="enable-background:new 0 0 512 512;" xml:space="preserve">
<g>
	<g>
		<path style="fill:#3D324C;" d="M81.067,17.067l62.967,62.967c3.396,3.393,5.303,7.999,5.299,12.8
			c0.003,7.318-4.403,13.917-11.164,16.719c-6.76,2.802-14.543,1.255-19.718-3.919L81.067,68.267"/>
		<path style="fill:#3D324C;" d="M81.067,115.2l62.967,62.967c3.396,3.394,5.302,7.999,5.299,12.8
			c0.003,7.318-4.403,13.917-11.164,16.719c-6.76,2.802-14.543,1.255-19.718-3.919L81.067,166.4"/>
		<path style="fill:#3D324C;" d="M81.067,213.333l62.967,62.967c3.396,3.393,5.303,7.999,5.299,12.8
			c0.003,7.318-4.403,13.917-11.164,16.719c-6.76,2.802-14.543,1.255-19.718-3.919l-37.385-37.367"/>
		<path style="fill:#3D324C;" d="M81.067,311.424l62.967,62.967c3.396,3.394,5.302,7.999,5.299,12.8
			c0.003,7.318-4.403,13.917-11.164,16.719c-6.76,2.802-14.543,1.255-19.718-3.919l-37.385-37.325"/>
		<path style="fill:#3D324C;" d="M81.067,409.549l62.967,62.967c3.398,3.392,5.305,7.998,5.299,12.8
			c0.003,7.318-4.403,13.917-11.164,16.719s-14.543,1.255-19.718-3.919l-37.385-37.367"/>
	</g>
	<path style="fill:#35495E;" d="M22.699,25.6H64v460.8H22.699c-4.89,0-9.579-1.943-13.036-5.402
		c-3.457-3.459-5.398-8.149-5.396-13.039V44.032C4.267,33.852,12.519,25.6,22.699,25.6z"/>
	<g>
		<path style="fill:#8697CB;" d="M311.467,324.267c-32.974-0.038-59.696-26.759-59.733-59.733c0-4.713,3.82-8.533,8.533-8.533
			c4.713,0,8.533,3.821,8.533,8.533c0,23.564,19.103,42.667,42.667,42.667c23.564,0,42.667-19.103,42.667-42.667
			s-19.103-42.667-42.667-42.667h-102.4c-4.713,0-8.533-3.821-8.533-8.533s3.821-8.533,8.533-8.533h102.4
			c32.99,0,59.733,26.744,59.733,59.733S344.456,324.267,311.467,324.267z"/>
		<path style="fill:#8697CB;" d="M448,290.133c-32.974-0.038-59.696-26.759-59.733-59.733c0-4.713,3.82-8.533,8.533-8.533
			s8.533,3.82,8.533,8.533c0,23.564,19.103,42.667,42.667,42.667c23.564,0,42.667-19.103,42.667-42.667S471.564,187.733,448,187.733
			H209.067c-4.713,0-8.533-3.82-8.533-8.533s3.821-8.533,8.533-8.533H448c32.99,0,59.733,26.744,59.733,59.733
			S480.99,290.133,448,290.133z"/>
		<path style="fill:#8697CB;" d="M311.467,119.467h-102.4c-4.713,0-8.533-3.821-8.533-8.533c0-4.713,3.821-8.533,8.533-8.533h102.4
			c23.564,0,42.667-19.103,42.667-42.667s-19.103-42.667-42.667-42.667c-23.564,0-42.667,19.103-42.667,42.667
			c0,4.713-3.821,8.533-8.533,8.533c-4.713,0-8.533-3.821-8.533-8.533C251.733,26.744,278.477,0,311.467,0
			S371.2,26.744,371.2,59.733S344.456,119.467,311.467,119.467z"/>
		<path style="fill:#8697CB;" d="M448,153.6H209.067c-4.713,0-8.533-3.821-8.533-8.533c0-4.713,3.821-8.533,8.533-8.533H448
			c23.564,0,42.667-19.103,42.667-42.667S471.564,51.2,448,51.2c-23.564,0-42.667,19.103-42.667,42.667
			c0,4.713-3.82,8.533-8.533,8.533s-8.533-3.821-8.533-8.533c0-32.99,26.744-59.733,59.733-59.733s59.733,26.744,59.733,59.733
			S480.99,153.6,448,153.6z"/>
	</g>
	<path style="fill:#547580;" d="M64,8.533h17.067c4.713,0,8.533,3.821,8.533,8.533v477.867c0,4.713-3.821,8.533-8.533,8.533H64
		c-4.713,0-8.533-3.821-8.533-8.533V17.067C55.467,12.354,59.287,8.533,64,8.533z"/>
	<g>
		<path style="fill:#2FA8CC;" d="M422.4,512c-4.713,0-8.533-3.82-8.533-8.533V332.8c0-4.713,3.82-8.533,8.533-8.533
			s8.533,3.82,8.533,8.533v170.667C430.933,508.18,427.113,512,422.4,512z"/>
		<path style="fill:#2FA8CC;" d="M439.467,358.4h-34.133c-4.713,0-8.533-3.821-8.533-8.533c0-4.713,3.821-8.533,8.533-8.533h34.133
			c4.713,0,8.533,3.821,8.533,8.533C448,354.579,444.18,358.4,439.467,358.4z"/>
		<path style="fill:#2FA8CC;" d="M439.467,494.933h-34.133c-4.713,0-8.533-3.82-8.533-8.533s3.821-8.533,8.533-8.533h34.133
			c4.713,0,8.533,3.82,8.533,8.533S444.18,494.933,439.467,494.933z"/>
		<path style="fill:#2FA8CC;" d="M496.29,469.333c-1.498,0-2.969-0.394-4.267-1.143l-147.797-85.333
			c-4.084-2.356-5.484-7.577-3.127-11.661c2.356-4.084,7.577-5.484,11.661-3.128l147.797,85.333c3.354,1.927,4.991,5.87,3.991,9.606
			C503.547,466.744,500.158,469.34,496.29,469.333z"/>
		<path style="fill:#2FA8CC;" d="M354.739,407.313c-3.047-0.003-5.861-1.631-7.384-4.27s-1.521-5.891,0.002-8.53l17.067-29.559
			c1.513-2.662,4.337-4.309,7.399-4.316c3.062-0.007,5.893,1.628,7.418,4.283c1.525,2.655,1.511,5.924-0.038,8.566l-17.067,29.559
			C360.612,405.689,357.791,407.316,354.739,407.313z"/>
		<path style="fill:#2FA8CC;" d="M472.977,475.58c-3.047-0.003-5.861-1.631-7.384-4.27c-1.522-2.64-1.521-5.891,0.002-8.53
			l17.067-29.559c1.513-2.662,4.337-4.309,7.399-4.316c3.062-0.007,5.893,1.628,7.418,4.283c1.525,2.655,1.511,5.924-0.038,8.566
			l-17.067,29.559C478.85,473.956,476.029,475.583,472.977,475.58z"/>
		<path style="fill:#2FA8CC;" d="M348.51,469.333c-3.868,0.007-7.257-2.589-8.257-6.326c-1.001-3.736,0.637-7.678,3.991-9.606
			l147.797-85.333c2.642-1.524,5.896-1.524,8.537,0.002c2.641,1.526,4.267,4.344,4.267,7.394c-0.001,3.05-1.629,5.868-4.27,7.392
			L352.777,468.19C351.479,468.939,350.008,469.333,348.51,469.333z"/>
		<path style="fill:#2FA8CC;" d="M371.823,475.58c-3.052,0.003-5.873-1.624-7.398-4.267l-17.067-29.559
			c-1.549-2.642-1.563-5.911-0.038-8.566c1.525-2.655,4.356-4.29,7.418-4.283c3.062,0.007,5.886,1.654,7.399,4.316l17.067,29.559
			c1.524,2.639,1.524,5.89,0.002,8.53C377.684,473.949,374.87,475.577,371.823,475.58z"/>
		<path style="fill:#2FA8CC;" d="M490.061,407.313c-3.052,0.003-5.873-1.624-7.398-4.267l-17.067-29.559
			c-1.549-2.642-1.563-5.911-0.038-8.566c1.525-2.655,4.356-4.29,7.418-4.283c3.062,0.007,5.886,1.654,7.399,4.316l17.067,29.559
			c1.524,2.639,1.524,5.89,0.002,8.53C495.922,405.682,493.108,407.31,490.061,407.313z"/>
	</g>
</g>
<g>
</g>
<g>
</g>
<g>
</g>
<g>
</g>
<g>
</g>
<g>
</g>
<g>
</g>
<g>
</g>
<g>
</g>
<g>
</g>
<g>
</g>
<g>
</g>
<g>
</g>
<g>
</g>
<g>
</g>
</svg>
