<?xml version="1.0" encoding="iso-8859-1"?>
<!-- Generator: Adobe Illustrator 19.0.0, SVG Export Plug-In . SVG Version: 6.00 Build 0)  -->
<svg version="1.1" id="Capa_1" xmlns="http://www.w3.org/2000/svg" xmlns:xlink="http://www.w3.org/1999/xlink" x="0px" y="0px"
	 viewBox="0 0 512.022 512.022" style="enable-background:new 0 0 512.022 512.022;" xml:space="preserve">
<g transform="translate(-1)">
	<path style="fill:#F3D55B;" d="M392.826,353.103c0.71-6.626,1.063-13.286,1.059-19.95c0.124-53.62-23.781-104.476-65.148-138.593
		c-25.475-21.542-40.008-53.327-39.636-86.687v-26.13c0.005-6.111-4.924-11.079-11.034-11.123H156.6
		c-6.11,0.044-11.039,5.012-11.034,11.123v26.924c0.508,32.77-13.717,64.037-38.753,85.186
		c-55.607,45.276-78.905,119.321-59.24,188.28s78.511,119.58,149.635,128.718c46.189,5.373,92.613-7.909,128.971-36.899"/>
	<path style="fill:#F18D46;" d="M243.817,132.414h-52.966c-4.875,0-8.828-3.952-8.828-8.828c0-4.875,3.952-8.828,8.828-8.828h52.966
		c4.875,0,8.828,3.952,8.828,8.828C252.644,128.462,248.692,132.414,243.817,132.414z"/>
	<path style="fill:#BDC3C7;" d="M190.851,0h52.966c19.501,0,35.31,15.809,35.31,35.31v35.31H155.541V35.31
		C155.541,15.809,171.35,0,190.851,0z"/>
	<path style="fill:#D1D4D1;" d="M203.042,0h28.593c16.477,0.005,29.832,13.361,29.837,29.837v40.783h-88.276V29.837
		C173.201,13.357,186.562,0,203.042,0z"/>
	<g>
		<path style="fill:#F9EAB0;" d="M102.575,308.966c-0.488-0.002-0.975-0.043-1.457-0.124c-2.31-0.385-4.372-1.672-5.733-3.577
			c-1.361-1.906-1.909-4.274-1.523-6.583c6.588-35.114,27.219-66.018,57.123-85.566c4.178-2.516,9.605-1.168,12.12,3.01
			c2.516,4.178,1.168,9.605-3.01,12.12c-25.352,17.009-42.914,43.388-48.825,73.34C110.563,305.839,106.887,308.959,102.575,308.966
			z"/>
		<path style="fill:#F9EAB0;" d="M102.575,353.103c-4.875,0-8.828-3.952-8.828-8.828v-8.828c0-4.875,3.952-8.828,8.828-8.828
			c4.875,0,8.828,3.952,8.828,8.828v8.828C111.403,349.151,107.451,353.103,102.575,353.103z"/>
	</g>
	<circle style="fill:#D25627;" cx="393.886" cy="432.552" r="79.448"/>
	<g>
		<path style="fill:#FFFFFF;" d="M393.886,450.207c-4.875,0-8.828-3.952-8.828-8.828v-52.966c0-4.875,3.952-8.828,8.828-8.828
			s8.828,3.952,8.828,8.828v52.966C402.713,446.255,398.761,450.207,393.886,450.207z"/>
		<path style="fill:#FFFFFF;" d="M393.886,485.517c-4.875,0-8.828-3.952-8.828-8.828v-8.828c0-4.875,3.952-8.828,8.828-8.828
			s8.828,3.952,8.828,8.828v8.828C402.713,481.565,398.761,485.517,393.886,485.517z"/>
	</g>
</g>
<g>
</g>
<g>
</g>
<g>
</g>
<g>
</g>
<g>
</g>
<g>
</g>
<g>
</g>
<g>
</g>
<g>
</g>
<g>
</g>
<g>
</g>
<g>
</g>
<g>
</g>
<g>
</g>
<g>
</g>
</svg>
