<?xml version="1.0" encoding="iso-8859-1"?>
<!-- Generator: Adobe Illustrator 19.0.0, SVG Export Plug-In . SVG Version: 6.00 Build 0)  -->
<svg version="1.1" id="Capa_1" xmlns="http://www.w3.org/2000/svg" xmlns:xlink="http://www.w3.org/1999/xlink" x="0px" y="0px"
	 viewBox="0 0 512 512" style="enable-background:new 0 0 512 512;" xml:space="preserve">
<g>
	<g>
		<path style="fill:#F29C1F;" d="M203.034,0c9.751,0,17.655,7.904,17.655,17.655v44.138h-35.31V17.655
			C185.379,7.904,193.284,0,203.034,0z"/>
		<path style="fill:#F29C1F;" d="M308.966,0c9.751,0,17.655,7.904,17.655,17.655v44.138h-35.31V17.655
			C291.31,7.904,299.215,0,308.966,0z"/>
	</g>
	<path style="fill:#F0C419;" d="M490.019,441.379c-8.102-77.994-43.234-150.696-99.31-205.506c-1.766-1.766-3.531-3.354-5.385-5.032
		c-6.224-5.561-11.659-11.947-16.155-18.979c-3.705-5.512-6.757-11.437-9.092-17.655c-4.616-11.6-6.982-23.973-6.974-36.458V74.063
		c0.01-11.622-9.388-21.059-21.01-21.098H179.906c-11.622,0.039-21.019,9.476-21.01,21.098v83.686
		c0.103,27.829-11.608,54.395-32.221,73.092c-1.766,1.589-3.531,3.266-5.297,5.032c-56.076,54.811-91.209,127.512-99.31,205.506
		H9.799c-5.404,0.019-9.779,4.395-9.799,9.799v43.167h382.764l-29.131-52.966H490.019z"/>
	<path style="fill:#84B5CB;" d="M382.764,494.345H0v-43.167c0.019-5.404,4.395-9.779,9.799-9.799h343.835L382.764,494.345z"/>
	<path style="fill:#B0D3F0;" d="M490.019,441.379c-8.102-77.994-43.234-150.696-99.31-205.506h-269.33
		c-56.076,54.811-91.209,127.512-99.31,205.506H490.019z"/>
	<g>
		<path style="fill:#FFFFFF;" d="M291.31,370.759H220.69c-4.875,0-8.828-3.952-8.828-8.828s3.952-8.828,8.828-8.828h70.621
			c4.875,0,8.828,3.952,8.828,8.828S296.186,370.759,291.31,370.759z"/>
		<path style="fill:#FFFFFF;" d="M291.31,406.069H220.69c-4.875,0-8.828-3.952-8.828-8.828c0-4.875,3.952-8.828,8.828-8.828h70.621
			c4.875,0,8.828,3.952,8.828,8.828C300.138,402.117,296.186,406.069,291.31,406.069z"/>
	</g>
	<path style="fill:#F9EAB0;" d="M369.17,211.862H203.034c-4.875,0-8.828-3.952-8.828-8.828s3.952-8.828,8.828-8.828h157.043
		C362.413,200.425,365.464,206.35,369.17,211.862z"/>
	<circle style="fill:#F0C419;" cx="432.552" cy="432.552" r="79.448"/>
	<g>
		<path style="fill:#2C3E50;" d="M432.552,450.207c-4.875,0-8.828-3.952-8.828-8.828v-52.966c0-4.875,3.952-8.828,8.828-8.828
			s8.828,3.952,8.828,8.828v52.966C441.379,446.255,437.427,450.207,432.552,450.207z"/>
		<path style="fill:#2C3E50;" d="M432.552,485.517c-4.875,0-8.828-3.952-8.828-8.828v-8.828c0-4.875,3.952-8.828,8.828-8.828
			s8.828,3.952,8.828,8.828v8.828C441.379,481.565,437.427,485.517,432.552,485.517z"/>
	</g>
</g>
<g>
</g>
<g>
</g>
<g>
</g>
<g>
</g>
<g>
</g>
<g>
</g>
<g>
</g>
<g>
</g>
<g>
</g>
<g>
</g>
<g>
</g>
<g>
</g>
<g>
</g>
<g>
</g>
<g>
</g>
</svg>
