<?xml version="1.0" encoding="iso-8859-1"?>
<!-- Generator: Adobe Illustrator 19.0.0, SVG Export Plug-In . SVG Version: 6.00 Build 0)  -->
<svg version="1.1" id="Capa_1" xmlns="http://www.w3.org/2000/svg" xmlns:xlink="http://www.w3.org/1999/xlink" x="0px" y="0px"
	 viewBox="0 0 512 512" style="enable-background:new 0 0 512 512;" xml:space="preserve">
<g>
	<g>
		<path style="fill:#285680;" d="M169.22,199.593h-60.746V95.458h60.746V199.593z M125.831,182.237h26.034v-69.424h-26.034V182.237z
			"/>
		<path style="fill:#285680;" d="M316.746,451.254H212.61V338.441h82.623c11.875,0.014,21.498,9.638,21.513,21.513V451.254z"/>
	</g>
	<path style="fill:#4482C3;" d="M160.542,442.576h190.915c33.549,0,60.746,27.197,60.746,60.746c0,4.793-3.885,8.678-8.678,8.678
		H108.475c-4.793,0-8.678-3.885-8.678-8.678C99.797,469.773,126.993,442.576,160.542,442.576z"/>
	<path style="fill:#2C3E50;" d="M221.288,355.797c-1.119-0.002-2.227-0.22-3.263-0.642l-90.086-36.508
		c-11.384-2.902-19.379-13.115-19.465-24.862V8.678c0-4.793,3.885-8.678,8.678-8.678s8.678,3.885,8.678,8.678v285.106
		c0.114,3.98,2.948,7.359,6.847,8.166l1.241,0.391l90.633,36.734c3.852,1.558,6.058,5.628,5.263,9.706
		C229.018,352.859,225.443,355.801,221.288,355.797z"/>
	<path style="fill:#4482C3;" d="M175.468,8.678h195.775c8.243,0,14.926,6.683,14.926,14.926v230.487
		c0,8.243-6.683,14.926-14.926,14.926H175.468c-8.243,0-14.926-6.683-14.926-14.926V23.604
		C160.542,15.361,167.225,8.678,175.468,8.678z"/>
	<circle style="fill:#285680;" cx="273.356" cy="138.847" r="73.763"/>
	<circle style="fill:#B0D3F0;" cx="273.356" cy="138.847" r="56.407"/>
	<circle style="fill:#FFFFFF;" cx="273.356" cy="138.847" r="17.356"/>
	<g>
		<path style="fill:#B0D3F0;" d="M360.136,8.678v26.034c0,4.793-3.885,8.678-8.678,8.678c-4.793,0-8.678-3.885-8.678-8.678V8.678
			H360.136z"/>
		<path style="fill:#B0D3F0;" d="M351.458,86.78c-4.793,0-8.678-3.885-8.678-8.678v-8.678c0-4.793,3.885-8.678,8.678-8.678
			c4.793,0,8.678,3.885,8.678,8.678v8.678C360.136,82.894,356.25,86.78,351.458,86.78z"/>
		<path style="fill:#B0D3F0;" d="M203.932,242.983v26.034h-17.356v-26.034c0-4.793,3.885-8.678,8.678-8.678
			C200.047,234.305,203.932,238.19,203.932,242.983z"/>
		<path style="fill:#B0D3F0;" d="M195.254,216.949c-4.793,0-8.678-3.885-8.678-8.678v-8.678c0-4.793,3.885-8.678,8.678-8.678
			c4.793,0,8.678,3.885,8.678,8.678v8.678C203.932,213.064,200.047,216.949,195.254,216.949z"/>
	</g>
</g>
<g>
</g>
<g>
</g>
<g>
</g>
<g>
</g>
<g>
</g>
<g>
</g>
<g>
</g>
<g>
</g>
<g>
</g>
<g>
</g>
<g>
</g>
<g>
</g>
<g>
</g>
<g>
</g>
<g>
</g>
</svg>
