<?xml version="1.0" encoding="iso-8859-1"?>
<!-- Generator: Adobe Illustrator 19.0.0, SVG Export Plug-In . SVG Version: 6.00 Build 0)  -->
<svg version="1.1" id="Capa_1" xmlns="http://www.w3.org/2000/svg" xmlns:xlink="http://www.w3.org/1999/xlink" x="0px" y="0px"
	 viewBox="0 0 512.143 512.143" style="enable-background:new 0 0 512.143 512.143;" xml:space="preserve">
<g transform="translate(0 -1)">
	<path style="fill:#FF5364;" d="M290.783,356.939h34.712c14.36,0.043,25.991,11.674,26.034,26.034v69.424
		c0,33.549,27.197,60.746,60.746,60.746s60.746-27.197,60.746-60.746V209.414h-34.712v242.983c0,14.378-11.656,26.034-26.034,26.034
		s-26.034-11.656-26.034-26.034v-69.424c-0.038-33.533-27.213-60.708-60.746-60.746h-34.712V356.939z"/>
	<path style="fill:#2C3E50;" d="M30.097,9.821h243.677c14.186,0,25.687,11.5,25.687,25.687v451.948
		c0,14.186-11.5,25.687-25.687,25.687H30.097c-14.186,0-25.687-11.5-25.687-25.687V35.508C4.41,21.321,15.911,9.821,30.097,9.821z"
		/>
	<rect x="4.41" y="79.244" style="fill:#4482C3;" width="295.051" height="364.475"/>
	<path style="fill:#556080;" d="M186.648,487.109h-69.424c-4.793,0-8.678-3.885-8.678-8.678s3.885-8.678,8.678-8.678h69.424
		c4.793,0,8.678,3.885,8.678,8.678S191.44,487.109,186.648,487.109z"/>
	<g>
		<path style="fill:#F0C419;" d="M239.679,245.861c-48.656-47.981-126.83-47.981-175.486,0l-25.071-24.906
			c62.565-61.674,163.062-61.674,225.627,0L239.679,245.861z"/>
		<path style="fill:#F0C419;" d="M189.537,295.525c-20.853-20.557-54.35-20.557-75.203,0l-25.071-24.854
			c34.755-34.269,90.59-34.269,125.345,0L189.537,295.525z"/>
		<ellipse style="fill:#F0C419;" cx="151.936" cy="330.905" rx="17.356" ry="17.208"/>
	</g>
	<g>
		<path style="fill:#BDC3C7;" d="M412.275,139.99c-4.793,0-8.678-3.885-8.678-8.678V79.244c0-4.793,3.885-8.678,8.678-8.678
			s8.678,3.885,8.678,8.678v52.068C420.953,136.105,417.067,139.99,412.275,139.99z"/>
		<path style="fill:#BDC3C7;" d="M499.054,139.99c-4.793,0-8.678-3.885-8.678-8.678V79.244c0-4.793,3.885-8.678,8.678-8.678
			s8.678,3.885,8.678,8.678v52.068C507.732,136.105,503.847,139.99,499.054,139.99z"/>
	</g>
	<path style="fill:#F0C419;" d="M446.987,105.278c-3.359-0.003-6.415-1.944-7.845-4.984c-1.43-3.04-0.977-6.632,1.163-9.222
		l19.959-24.22l-26.85-18.311c-2.012-1.376-3.353-3.534-3.695-5.948c-0.342-2.414,0.347-4.859,1.899-6.74l26.034-31.562
		c1.951-2.465,5.081-3.682,8.184-3.182c3.103,0.5,5.694,2.638,6.772,5.59s0.476,6.257-1.575,8.639l-19.959,24.22l26.85,18.311
		c2.014,1.377,3.355,3.538,3.695,5.953c0.34,2.416-0.352,4.863-1.907,6.742l-26.034,31.553
		C452.03,104.118,449.576,105.277,446.987,105.278z"/>
	<path style="fill:#3D324C;" d="M403.597,131.312h104.136v52.068c0,19.171-15.541,34.712-34.712,34.712h-34.712
		c-19.171,0-34.712-15.541-34.712-34.712V131.312z"/>
</g>
<g>
</g>
<g>
</g>
<g>
</g>
<g>
</g>
<g>
</g>
<g>
</g>
<g>
</g>
<g>
</g>
<g>
</g>
<g>
</g>
<g>
</g>
<g>
</g>
<g>
</g>
<g>
</g>
<g>
</g>
</svg>
