<?xml version="1.0" encoding="iso-8859-1"?>
<!-- Generator: Adobe Illustrator 19.0.0, SVG Export Plug-In . SVG Version: 6.00 Build 0)  -->
<svg version="1.1" id="Capa_1" xmlns="http://www.w3.org/2000/svg" xmlns:xlink="http://www.w3.org/1999/xlink" x="0px" y="0px"
	 viewBox="0 0 512.015 512.015" style="enable-background:new 0 0 512.015 512.015;" xml:space="preserve">
<g transform="translate(-1 -1)">
	<path style="fill:#FDD7AD;" d="M468.855,357.86c53.913-108.313,21.38-239.736-76.835-310.391S158.858-12.246,73.306,73.306
		S-23.185,293.805,47.469,392.02s202.078,130.747,310.391,76.835"/>
	<g>
		<path style="fill:#2C3E50;" d="M247.872,284.443c-20.198,0-36.571-16.374-36.571-36.571s16.374-36.571,36.571-36.571
			s36.571,16.374,36.571,36.571S268.07,284.443,247.872,284.443z M247.872,229.586c-10.099,0-18.286,8.187-18.286,18.286
			s8.187,18.286,18.286,18.286s18.286-8.187,18.286-18.286S257.971,229.586,247.872,229.586z"/>
		<path style="fill:#2C3E50;" d="M229.586,392.877c-0.407,0-0.813-0.028-1.216-0.082c-38.19-5.032-72.817-25.028-96.265-55.589
			c-2.967-3.999-2.189-9.637,1.75-12.682s9.592-2.379,12.714,1.5c20.511,26.741,50.803,44.241,84.215,48.649
			c4.763,0.643,8.215,4.865,7.9,9.661C238.368,389.131,234.392,392.864,229.586,392.877z"/>
		<path style="fill:#2C3E50;" d="M139.337,173.266c-3.487-0.003-6.668-1.989-8.202-5.119s-1.154-6.862,0.979-9.619
			c23.446-30.563,58.074-50.559,96.265-55.589c3.239-0.431,6.461,0.898,8.454,3.487c1.993,2.589,2.453,6.045,1.207,9.065
			c-1.246,3.02-4.009,5.147-7.247,5.578c-33.412,4.409-63.704,21.908-84.215,48.649C144.844,171.959,142.17,173.269,139.337,173.266
			z"/>
		<path style="fill:#2C3E50;" d="M121.06,309.129c-3.692-0.001-7.021-2.223-8.439-5.632c-14.713-35.627-14.713-75.632,0-111.259
			c1.944-4.661,7.298-6.863,11.959-4.919s6.863,7.298,4.919,11.959c-12.837,31.125-12.837,66.064,0,97.189
			c1.177,2.822,0.866,6.046-0.83,8.59C126.973,307.601,124.118,309.129,121.06,309.129z"/>
		<path style="fill:#2C3E50;" d="M229.586,355.94c-0.564-0.002-1.127-0.054-1.682-0.155c-24.728-4.644-47.132-17.587-63.506-36.69
			c-3.282-3.838-2.832-9.609,1.006-12.891c3.838-3.282,9.609-2.832,12.891,1.006c13.653,15.937,32.339,26.733,52.965,30.601
			c4.642,0.867,7.859,5.126,7.425,9.828C238.251,352.339,234.308,355.937,229.586,355.94z"/>
		<path style="fill:#2C3E50;" d="M171.346,191.735c-3.573,0.003-6.82-2.075-8.314-5.32s-0.961-7.063,1.365-9.775
			c16.389-19.084,38.792-32.012,63.515-36.654c4.966-0.924,9.741,2.353,10.665,7.319c0.924,4.966-2.353,9.741-7.319,10.665
			c-20.619,3.862-39.304,14.644-52.965,30.565C176.557,190.566,174.019,191.735,171.346,191.735z"/>
		<path style="fill:#2C3E50;" d="M153.06,290.66c-3.866,0.001-7.314-2.43-8.613-6.071c-8.387-23.76-8.387-49.675,0-73.435
			c1.035-3.158,3.702-5.506,6.966-6.132c3.264-0.626,6.61,0.568,8.74,3.119c2.13,2.551,2.708,6.057,1.51,9.157
			c-6.961,19.788-6.961,41.359,0,61.147c1.698,4.754-0.778,9.985-5.531,11.685C155.145,290.478,154.107,290.657,153.06,290.66z"/>
		<path style="fill:#2C3E50;" d="M229.586,318.363c-0.867,0.001-1.73-0.125-2.56-0.375c-11.041-3.212-21.126-9.078-29.376-17.088
			c-3.638-3.502-3.749-9.29-0.247-12.928c3.502-3.638,9.29-3.749,12.928-0.247c6.127,5.954,13.616,10.32,21.815,12.718
			c4.368,1.274,7.134,5.566,6.491,10.07C237.993,315.017,234.136,318.363,229.586,318.363z"/>
		<path style="fill:#2C3E50;" d="M203.986,210.569c-3.731,0-7.088-2.267-8.482-5.728c-1.394-3.461-0.544-7.422,2.146-10.007
			c8.252-8.002,18.333-13.868,29.367-17.088c4.847-1.419,9.927,1.361,11.346,6.208c1.419,4.847-1.361,9.927-6.208,11.346
			c-8.205,2.392-15.698,6.759-21.824,12.718C208.626,209.657,206.351,210.571,203.986,210.569z"/>
		<path style="fill:#2C3E50;" d="M185.6,271.826c-4.252-0.006-7.939-2.942-8.896-7.086c-2.633-11.092-2.633-22.646,0-33.737
			c1.136-4.921,6.046-7.989,10.967-6.853c4.921,1.136,7.989,6.046,6.853,10.967c-0.982,4.181-1.488,8.46-1.509,12.754
			c0.012,4.295,0.518,8.575,1.509,12.754c0.547,2.364,0.132,4.849-1.154,6.907c-1.286,2.058-3.338,3.52-5.703,4.064
			C186.988,271.75,186.295,271.827,185.6,271.826z"/>
		<path style="fill:#2C3E50;" d="M266.157,392.877c-4.806-0.014-8.782-3.746-9.097-8.543c-0.316-4.796,3.136-9.018,7.9-9.661
			c33.412-4.409,63.704-21.908,84.215-48.649c3.122-3.879,8.774-4.546,12.714-1.5s4.717,8.683,1.75,12.682
			c-23.448,30.561-58.075,50.556-96.265,55.589C266.97,392.85,266.564,392.877,266.157,392.877z"/>
		<path style="fill:#2C3E50;" d="M356.407,173.266c-2.833,0.003-5.507-1.307-7.241-3.547
			c-20.511-26.741-50.803-44.241-84.215-48.649c-3.239-0.431-6.001-2.557-7.247-5.578c-1.246-3.02-0.786-6.476,1.207-9.065
			c1.993-2.589,5.215-3.919,8.454-3.487c38.191,5.029,72.819,25.025,96.265,55.589c2.134,2.757,2.514,6.488,0.979,9.619
			S359.893,173.263,356.407,173.266z"/>
		<path style="fill:#2C3E50;" d="M374.683,309.129c-3.058,0-5.913-1.528-7.609-4.073c-1.696-2.544-2.007-5.768-0.83-8.59
			c12.837-31.125,12.837-66.064,0-97.189c-1.944-4.661,0.258-10.015,4.919-11.959s10.015,0.258,11.959,4.919
			c14.713,35.627,14.713,75.632,0,111.259C381.704,306.906,378.375,309.128,374.683,309.129z"/>
		<path style="fill:#2C3E50;" d="M266.157,355.94c-4.739,0.018-8.707-3.588-9.14-8.308c-0.433-4.72,2.812-8.988,7.476-9.832
			c20.626-3.868,39.312-14.664,52.965-30.601c3.282-3.838,9.054-4.288,12.891-1.006c3.838,3.282,4.288,9.054,1.006,12.891
			c-16.382,19.1-38.792,32.037-63.525,36.672C267.279,355.867,266.719,355.928,266.157,355.94z"/>
		<path style="fill:#2C3E50;" d="M324.397,191.735c-2.673,0-5.211-1.169-6.949-3.2c-13.655-15.934-32.34-26.73-52.965-30.601
			c-4.966-0.924-8.243-5.699-7.319-10.665c0.924-4.966,5.699-8.243,10.665-7.319c24.728,4.651,47.132,17.593,63.515,36.69
			c2.326,2.712,2.859,6.53,1.365,9.775S327.97,191.738,324.397,191.735z"/>
		<path style="fill:#2C3E50;" d="M342.683,290.66c-1.047-0.003-2.085-0.182-3.072-0.53c-4.735-1.719-7.188-6.944-5.486-11.685
			c6.961-19.788,6.961-41.359,0-61.147c-1.198-3.1-0.62-6.606,1.51-9.157c2.13-2.551,5.477-3.745,8.74-3.119
			c3.264,0.626,5.931,2.974,6.966,6.132c8.387,23.76,8.387,49.675,0,73.435C350.037,288.246,346.565,290.68,342.683,290.66z"/>
		<path style="fill:#2C3E50;" d="M266.157,318.363c-4.55,0-8.408-3.346-9.051-7.85s2.123-8.796,6.491-10.07
			c8.199-2.398,15.688-6.764,21.815-12.718c3.638-3.502,9.426-3.391,12.928,0.247c3.502,3.638,3.391,9.426-0.247,12.928
			c-8.25,8.009-18.335,13.876-29.376,17.088C267.887,318.238,267.025,318.364,266.157,318.363z"/>
		<path style="fill:#2C3E50;" d="M291.757,210.569c-2.365,0.003-4.64-0.912-6.345-2.551c-6.126-5.959-13.619-10.325-21.824-12.718
			c-3.136-0.918-5.544-3.439-6.317-6.613c-0.773-3.175,0.206-6.52,2.569-8.777c2.363-2.257,5.75-3.081,8.886-2.164
			c11.035,3.222,21.116,9.092,29.367,17.097c2.683,2.586,3.528,6.543,2.135,10S295.484,210.565,291.757,210.569z"/>
		<path style="fill:#2C3E50;" d="M310.144,271.826c-0.695-0.002-1.388-0.082-2.066-0.238c-2.365-0.544-4.417-2.006-5.703-4.064
			c-1.286-2.058-1.701-4.543-1.154-6.907c0.989-4.177,1.496-8.453,1.509-12.745c-0.02-4.295-0.526-8.573-1.509-12.754
			c-1.136-4.921,1.932-9.831,6.853-10.967s9.831,1.932,10.967,6.853c2.633,11.092,2.633,22.646,0,33.737
			C318.083,268.884,314.396,271.82,310.144,271.826z"/>
	</g>
	<circle style="fill:#FF5364;" cx="439.872" cy="247.872" r="18.286"/>
	<circle style="fill:#F0C419;" cx="430.729" cy="430.729" r="82.286"/>
	<g>
		<path style="fill:#2C3E50;" d="M430.729,449.015c-5.049,0-9.143-4.093-9.143-9.143v-54.857c0-5.049,4.093-9.143,9.143-9.143
			s9.143,4.093,9.143,9.143v54.857C439.872,444.921,435.778,449.015,430.729,449.015z"/>
		<path style="fill:#2C3E50;" d="M430.729,485.586c-5.049,0-9.143-4.093-9.143-9.143V467.3c0-5.049,4.093-9.143,9.143-9.143
			s9.143,4.093,9.143,9.143v9.143C439.872,481.493,435.778,485.586,430.729,485.586z"/>
	</g>
</g>
<g>
</g>
<g>
</g>
<g>
</g>
<g>
</g>
<g>
</g>
<g>
</g>
<g>
</g>
<g>
</g>
<g>
</g>
<g>
</g>
<g>
</g>
<g>
</g>
<g>
</g>
<g>
</g>
<g>
</g>
</svg>
