<?xml version="1.0" encoding="iso-8859-1"?>
<!-- Generator: Adobe Illustrator 19.0.0, SVG Export Plug-In . SVG Version: 6.00 Build 0)  -->
<svg version="1.1" id="Capa_1" xmlns="http://www.w3.org/2000/svg" xmlns:xlink="http://www.w3.org/1999/xlink" x="0px" y="0px"
	 viewBox="0 0 512 512" style="enable-background:new 0 0 512 512;" xml:space="preserve">
<g>
	<g>
		<path style="fill:#2C3E50;" d="M30.102,455.407c-3.575,0.01-6.802-2.137-8.175-5.437c-1.373-3.301-0.62-7.103,1.908-9.631
			l58.174-58.183c1.663-1.659,3.919-2.587,6.268-2.578h52.966c4.875,0,8.828,3.952,8.828,8.828s-3.952,8.828-8.828,8.828H91.93
			l-55.614,55.614C34.664,454.486,32.43,455.406,30.102,455.407z"/>
		<path style="fill:#2C3E50;" d="M141.241,308.957H88.276c-2.341,0-4.586-0.931-6.241-2.586l-58.2-58.174
			c-3.454-3.454-3.454-9.055,0-12.509c3.454-3.454,9.055-3.454,12.509,0l55.614,55.614h49.284c4.875,0,8.828,3.952,8.828,8.828
			S146.117,308.957,141.241,308.957z"/>
		<path style="fill:#2C3E50;" d="M141.241,353.095H35.31c-4.875,0-8.828-3.952-8.828-8.828s3.952-8.828,8.828-8.828h105.931
			c4.875,0,8.828,3.952,8.828,8.828S146.117,353.095,141.241,353.095z"/>
		<path style="fill:#2C3E50;" d="M481.898,455.407c-2.341-0.001-4.586-0.931-6.241-2.586l-55.614-55.614h-49.284
			c-4.875,0-8.828-3.952-8.828-8.828c0-4.875,3.952-8.828,8.828-8.828h52.966c2.34-0.002,4.585,0.925,6.241,2.578l58.174,58.183
			c2.524,2.525,3.279,6.321,1.913,9.619c-1.366,3.298-4.584,5.449-8.154,5.45V455.407z"/>
		<path style="fill:#2C3E50;" d="M423.724,308.957h-52.966c-4.875,0-8.828-3.952-8.828-8.828s3.952-8.828,8.828-8.828h49.311
			l55.614-55.614c3.454-3.447,9.049-3.441,12.495,0.013c3.447,3.454,3.441,9.049-0.013,12.495l-58.174,58.174
			C428.33,308.033,426.074,308.964,423.724,308.957z"/>
		<path style="fill:#2C3E50;" d="M476.69,353.095H370.759c-4.875,0-8.828-3.952-8.828-8.828s3.952-8.828,8.828-8.828H476.69
			c4.875,0,8.828,3.952,8.828,8.828S481.565,353.095,476.69,353.095z"/>
	</g>
	<path style="fill:#7D6599;" d="M370.759,145.912v252.204c0.038,2.073-0.751,4.075-2.192,5.566
		c-1.441,1.491-3.416,2.346-5.488,2.379H148.921c-2.073-0.033-4.048-0.888-5.488-2.379c-1.441-1.491-2.229-3.493-2.192-5.566
		V145.912l108.314-99.31c3.677-3.262,9.211-3.262,12.888,0L370.759,145.912z"/>
	<g>
		<path style="fill:#DF4D60;" d="M423.724,203.326c-2.21,0-4.339-0.828-5.967-2.322L256.477,53.098
			c-0.35-0.26-0.844-0.194-1.112,0.15L94.243,201.005c-3.616,3.032-8.978,2.684-12.172-0.79c-3.194-3.475-3.089-8.847,0.237-12.195
			l161.28-147.933c6.993-6.303,17.6-6.364,24.664-0.141l161.439,148.074c2.663,2.464,3.547,6.306,2.229,9.686
			C430.603,201.085,427.352,203.315,423.724,203.326z"/>
		<path style="fill:#DF4D60;" d="M141.241,154.739c-4.875,0-8.828-3.952-8.828-8.828V88.268c0-4.875,3.952-8.828,8.828-8.828
			s8.828,3.952,8.828,8.828v57.644C150.069,150.787,146.117,154.739,141.241,154.739z"/>
	</g>
	<g>
		<path style="fill:#F0C419;" d="M343.393,232.537c-48.293-48.201-126.494-48.201-174.786,0l-24.973-24.973
			c62.095-61.952,162.62-61.952,224.715,0L343.393,232.537z"/>
		<path style="fill:#F0C419;" d="M293.455,282.474c-20.699-20.654-54.212-20.654-74.911,0l-24.964-24.973
			c34.496-34.42,90.344-34.42,124.84,0L293.455,282.474z"/>
		<circle style="fill:#F0C419;" cx="256" cy="317.785" r="17.655"/>
	</g>
	<g>
		<circle style="fill:#DF4D60;" cx="17.655" cy="459.026" r="17.655"/>
		<circle style="fill:#DF4D60;" cx="17.655" cy="229.509" r="17.655"/>
		<circle style="fill:#DF4D60;" cx="17.655" cy="344.268" r="17.655"/>
		<circle style="fill:#DF4D60;" cx="494.345" cy="459.026" r="17.655"/>
		<circle style="fill:#DF4D60;" cx="494.345" cy="229.509" r="17.655"/>
		<circle style="fill:#DF4D60;" cx="494.345" cy="344.268" r="17.655"/>
	</g>
</g>
<g>
</g>
<g>
</g>
<g>
</g>
<g>
</g>
<g>
</g>
<g>
</g>
<g>
</g>
<g>
</g>
<g>
</g>
<g>
</g>
<g>
</g>
<g>
</g>
<g>
</g>
<g>
</g>
<g>
</g>
</svg>
