<?xml version="1.0" encoding="iso-8859-1"?>
<!-- Generator: Adobe Illustrator 19.0.0, SVG Export Plug-In . SVG Version: 6.00 Build 0)  -->
<svg version="1.1" id="Capa_1" xmlns="http://www.w3.org/2000/svg" xmlns:xlink="http://www.w3.org/1999/xlink" x="0px" y="0px"
	 viewBox="0 0 512 512" style="enable-background:new 0 0 512 512;" xml:space="preserve">
<g>
	<path style="fill:#3D324C;" d="M26.13,0H485.87C500.301,0,512,11.699,512,26.13V485.87c0,14.431-11.699,26.13-26.13,26.13H26.13
		C11.699,512,0,500.301,0,485.87V26.13C0,11.699,11.699,0,26.13,0z"/>
	<path style="fill:#CC66A1;" d="M50.494,35.31h411.189c8.288,0,15.007,6.719,15.007,15.007v411.189
		c0,8.386-6.798,15.183-15.183,15.183H50.494c-8.386,0-15.183-6.798-15.183-15.183V50.494C35.31,42.108,42.108,35.31,50.494,35.31z"
		/>
	<path style="fill:#7D6599;" d="M282.368,397.241c71.578-13.632,121.038-79.477,114.191-152.019s-67.752-127.97-140.617-127.97
		s-133.77,55.428-140.616,127.97c-6.846,72.542,42.614,138.386,114.191,152.019"/>
	<circle style="fill:#2FA8CC;" cx="256" cy="256" r="70.621"/>
	<path style="fill:#2C3E50;" d="M291.31,264.828H220.69c-4.875,0-8.828-3.952-8.828-8.828s3.952-8.828,8.828-8.828h70.621
		c4.875,0,8.828,3.952,8.828,8.828S296.186,264.828,291.31,264.828z"/>
	<path style="fill:#3D324C;" d="M282.359,406.069c-4.564,0.011-8.384-3.459-8.81-8.003c-0.426-4.544,2.682-8.664,7.168-9.502
		c67.105-12.779,113.476-74.508,107.058-142.516c-6.418-68.009-63.517-119.974-131.828-119.974s-125.41,51.965-131.828,119.974
		c-6.418,68.009,39.953,129.738,107.058,142.516c3.146,0.543,5.753,2.742,6.819,5.751c1.066,3.009,0.425,6.359-1.677,8.761
		c-2.102,2.402-5.337,3.483-8.461,2.825c-76.05-14.486-128.6-84.446-121.324-161.521c7.275-77.075,71.987-135.966,149.405-135.966
		s142.13,58.891,149.405,135.966s-45.274,147.035-121.324,161.521C283.472,406.009,282.916,406.066,282.359,406.069z"/>
	<circle style="fill:#2FA8CC;" cx="256" cy="397.241" r="26.483"/>
</g>
<g>
</g>
<g>
</g>
<g>
</g>
<g>
</g>
<g>
</g>
<g>
</g>
<g>
</g>
<g>
</g>
<g>
</g>
<g>
</g>
<g>
</g>
<g>
</g>
<g>
</g>
<g>
</g>
<g>
</g>
</svg>
