<?xml version="1.0" encoding="iso-8859-1"?>
<!-- Generator: Adobe Illustrator 19.0.0, SVG Export Plug-In . SVG Version: 6.00 Build 0)  -->
<svg version="1.1" id="Capa_1" xmlns="http://www.w3.org/2000/svg" xmlns:xlink="http://www.w3.org/1999/xlink" x="0px" y="0px"
	 viewBox="0 0 512 512" style="enable-background:new 0 0 512 512;" xml:space="preserve">
<g>
	<path style="fill:#46B29D;" d="M26.13,0H485.87C500.301,0,512,11.699,512,26.13V485.87c0,14.431-11.699,26.13-26.13,26.13H26.13
		C11.699,512,0,500.301,0,485.87V26.13C0,11.699,11.699,0,26.13,0z"/>
	<path style="fill:#65DDB9;" d="M50.494,35.31h411.189c8.288,0,15.007,6.719,15.007,15.007v411.189
		c0,8.386-6.798,15.183-15.183,15.183H50.494c-8.386,0-15.183-6.798-15.183-15.183V50.494C35.31,42.108,42.108,35.31,50.494,35.31z"
		/>
	<g>
		<path style="fill:#2C3E50;" d="M308.966,194.207H203.034c-4.875,0-8.828-3.952-8.828-8.828c0-4.875,3.952-8.828,8.828-8.828
			h105.931c4.875,0,8.828,3.952,8.828,8.828C317.793,190.255,313.841,194.207,308.966,194.207z"/>
		<path style="fill:#2C3E50;" d="M326.621,229.517H185.379c-4.875,0-8.828-3.952-8.828-8.828s3.952-8.828,8.828-8.828h141.241
			c4.875,0,8.828,3.952,8.828,8.828S331.496,229.517,326.621,229.517z"/>
		<path style="fill:#2C3E50;" d="M335.448,264.828H176.552c-4.875,0-8.828-3.952-8.828-8.828s3.952-8.828,8.828-8.828h158.897
			c4.875,0,8.828,3.952,8.828,8.828S340.324,264.828,335.448,264.828z"/>
		<path style="fill:#2C3E50;" d="M326.621,300.138H185.379c-4.875,0-8.828-3.952-8.828-8.828s3.952-8.828,8.828-8.828h141.241
			c4.875,0,8.828,3.952,8.828,8.828S331.496,300.138,326.621,300.138z"/>
		<path style="fill:#2C3E50;" d="M308.966,335.448H203.034c-4.875,0-8.828-3.952-8.828-8.828s3.952-8.828,8.828-8.828h105.931
			c4.875,0,8.828,3.952,8.828,8.828S313.841,335.448,308.966,335.448z"/>
	</g>
	<circle style="fill:#FF5364;" cx="414.897" cy="97.103" r="17.655"/>
</g>
<g>
</g>
<g>
</g>
<g>
</g>
<g>
</g>
<g>
</g>
<g>
</g>
<g>
</g>
<g>
</g>
<g>
</g>
<g>
</g>
<g>
</g>
<g>
</g>
<g>
</g>
<g>
</g>
<g>
</g>
</svg>
