<?xml version="1.0" encoding="iso-8859-1"?>
<!-- Generator: Adobe Illustrator 19.0.0, SVG Export Plug-In . SVG Version: 6.00 Build 0)  -->
<svg version="1.1" id="Capa_1" xmlns="http://www.w3.org/2000/svg" xmlns:xlink="http://www.w3.org/1999/xlink" x="0px" y="0px"
	 viewBox="0 0 512 512" style="enable-background:new 0 0 512 512;" xml:space="preserve">
<g>
	<path style="fill:#2C3E50;" d="M132.061,0h247.879c14.431,0,26.13,11.699,26.13,26.13V485.87c0,14.431-11.699,26.13-26.13,26.13
		H132.061c-14.431,0-26.13-11.699-26.13-26.13V26.13C105.931,11.699,117.63,0,132.061,0z"/>
	<rect x="105.931" y="70.621" style="fill:#4482C3;" width="300.138" height="370.759"/>
	<path style="fill:#F3D55B;" d="M308.966,168.607v84.215c-0.005,6.628-5.377,12.001-12.006,12.006h-81.92
		c-6.628-0.005-12.001-5.377-12.006-12.006v-84.215l42.284-40.872c6.036-5.56,15.327-5.56,21.363,0L308.966,168.607z"/>
	<path style="fill:#FF5364;" d="M335.448,203.034c-2.305,0.011-4.522-0.879-6.179-2.481l-68.767-66.463
		c-2.636-2.304-6.58-2.266-9.172,0.088l-68.599,66.375c-3.508,3.388-9.098,3.292-12.487-0.216
		c-3.388-3.508-3.292-9.098,0.216-12.487l68.767-66.454c9.465-8.733,24.039-8.768,33.545-0.079l68.855,66.534
		c2.599,2.505,3.411,6.34,2.05,9.684C342.317,200.878,339.058,203.056,335.448,203.034z"/>
	<path style="fill:#556080;" d="M291.31,485.517H220.69c-4.875,0-8.828-3.952-8.828-8.828s3.952-8.828,8.828-8.828h70.621
		c4.875,0,8.828,3.952,8.828,8.828S296.186,485.517,291.31,485.517z"/>
	<path style="fill:#C03A2B;" d="M282.483,220.69v44.138h-17.655V220.69c0-4.875,3.952-8.828,8.828-8.828
		S282.483,215.814,282.483,220.69z"/>
	<path style="fill:#FFFFFF;" d="M353.103,353.103c0,0-43.476,52.966-97.103,52.966s-97.103-52.966-97.103-52.966
		s43.476-52.966,97.103-52.966S353.103,353.103,353.103,353.103z"/>
	<circle style="fill:#46B29D;" cx="256" cy="353.103" r="52.966"/>
	<circle style="fill:#65DDB9;" cx="256" cy="353.103" r="35.31"/>
	<circle style="fill:#2C2F38;" cx="256" cy="344.276" r="17.655"/>
	<circle style="fill:#FFFFFF;" cx="247.172" cy="326.621" r="8.828"/>
</g>
<g>
</g>
<g>
</g>
<g>
</g>
<g>
</g>
<g>
</g>
<g>
</g>
<g>
</g>
<g>
</g>
<g>
</g>
<g>
</g>
<g>
</g>
<g>
</g>
<g>
</g>
<g>
</g>
<g>
</g>
</svg>
