<?xml version="1.0" encoding="iso-8859-1"?>
<!-- Generator: Adobe Illustrator 19.0.0, SVG Export Plug-In . SVG Version: 6.00 Build 0)  -->
<svg version="1.1" id="Capa_1" xmlns="http://www.w3.org/2000/svg" xmlns:xlink="http://www.w3.org/1999/xlink" x="0px" y="0px"
	 viewBox="0 0 509.395 509.395" style="enable-background:new 0 0 509.395 509.395;" xml:space="preserve">
<g transform="translate(0 -1)">
	<path style="fill:#3D324C;" d="M490.991,292.263c-0.457,3.048-0.972,6.095-1.545,9.143
		c-23.764,126.111-140.193,212.981-267.85,199.849C93.939,488.122-2.365,379.367,0.044,251.059S102.772,17.688,230.832,9.357
		s241.145,82.849,260.158,209.763"/>
	<path style="fill:#7D6599;" d="M454.172,291.486C435.662,398.637,338.514,474.003,230.125,465.3
		c-108.389-8.703-192.266-98.605-193.443-207.337S117.419,57.537,225.595,46.491s206.931,62.201,227.755,168.927"/>
	<path style="fill:#F0C419;" d="M395.777,248.551l-37.559-26.441c-16.693-56.684-72.492-92.496-130.978-84.063
		s-101.895,58.55-101.895,117.641s43.409,109.208,101.895,117.641c58.486,8.433,114.285-27.38,130.978-84.063l37.559-26.432
		c2.432-1.561,3.902-4.251,3.902-7.141S398.209,250.112,395.777,248.551z"/>
	<g>
		<path style="fill:#3D324C;" d="M244.252,100.263c-5.049,0-9.143-4.093-9.143-9.143V45.406c0-5.049,4.093-9.143,9.143-9.143
			s9.143,4.093,9.143,9.143v45.714C253.395,96.17,249.302,100.263,244.252,100.263z"/>
		<path style="fill:#3D324C;" d="M244.252,475.121c-5.049,0-9.143-4.093-9.143-9.143v-45.714c0-5.049,4.093-9.143,9.143-9.143
			s9.143,4.093,9.143,9.143v45.714C253.395,471.027,249.302,475.121,244.252,475.121z"/>
		<path style="fill:#3D324C;" d="M127.882,148.465c-2.425-0.001-4.75-0.964-6.464-2.679l-32.329-32.329
			c-3.465-3.587-3.415-9.29,0.111-12.817s9.229-3.576,12.817-0.111l32.329,32.329c2.614,2.615,3.396,6.547,1.981,9.963
			C134.912,146.236,131.579,148.464,127.882,148.465z"/>
		<path style="fill:#3D324C;" d="M392.952,413.525c-2.426,0.007-4.754-0.958-6.464-2.679l-32.329-32.32
			c-3.465-3.587-3.415-9.29,0.111-12.817c3.527-3.527,9.229-3.576,12.817-0.111l32.329,32.32c2.614,2.615,3.396,6.547,1.981,9.963
			C399.982,411.297,396.649,413.524,392.952,413.525z"/>
		<path style="fill:#3D324C;" d="M79.681,264.835H33.967c-5.049,0-9.143-4.093-9.143-9.143c0-5.049,4.093-9.143,9.143-9.143h45.714
			c5.049,0,9.143,4.093,9.143,9.143C88.824,260.741,84.73,264.835,79.681,264.835z"/>
		<path style="fill:#3D324C;" d="M95.553,413.525c-3.697-0.001-7.03-2.228-8.445-5.644c-1.415-3.416-0.633-7.348,1.981-9.963
			l32.329-32.32c3.587-3.465,9.29-3.415,12.817,0.111c3.527,3.527,3.576,9.229,0.111,12.817l-32.329,32.32
			C100.307,412.567,97.979,413.532,95.553,413.525z"/>
		<path style="fill:#3D324C;" d="M360.623,148.465c-3.697-0.001-7.03-2.228-8.445-5.644c-1.415-3.416-0.633-7.348,1.981-9.963
			l32.329-32.329c3.587-3.465,9.29-3.415,12.817,0.111c3.527,3.527,3.576,9.229,0.111,12.817l-32.329,32.329
			C365.373,147.5,363.047,148.464,360.623,148.465z"/>
	</g>
	<circle style="fill:#DF4D60;" cx="244.252" cy="255.692" r="82.286"/>
	<path style="fill:#FF5364;" d="M509.395,255.692c0-20.198-16.374-36.571-36.571-36.571c-20.198,0-36.571,16.374-36.571,36.571
		s16.374,36.571,36.571,36.571C493.022,292.263,509.395,275.89,509.395,255.692z"/>
</g>
<g>
</g>
<g>
</g>
<g>
</g>
<g>
</g>
<g>
</g>
<g>
</g>
<g>
</g>
<g>
</g>
<g>
</g>
<g>
</g>
<g>
</g>
<g>
</g>
<g>
</g>
<g>
</g>
<g>
</g>
</svg>
