<?xml version="1.0" encoding="iso-8859-1"?>
<!-- Generator: Adobe Illustrator 19.0.0, SVG Export Plug-In . SVG Version: 6.00 Build 0)  -->
<svg version="1.1" id="Capa_1" xmlns="http://www.w3.org/2000/svg" xmlns:xlink="http://www.w3.org/1999/xlink" x="0px" y="0px"
	 viewBox="0 0 512.107 512.107" style="enable-background:new 0 0 512.107 512.107;" xml:space="preserve">
<g>
	<path style="fill:#B0D3F0;" d="M358.72,303.243V44.882c0.304-18.247-13.192-33.79-31.301-36.048
		c-9.754-0.963-19.461,2.243-26.723,8.825c-7.262,6.583-11.403,15.929-11.399,25.73v259.853c-0.049,3.922-2.442,7.433-6.075,8.912
		c-45.536,19.383-71.139,68.138-61.248,116.629c9.891,48.491,52.545,83.322,102.034,83.322s92.143-34.831,102.034-83.322
		c9.891-48.491-15.712-97.246-61.248-116.629C361.162,310.676,358.769,307.165,358.72,303.243z"/>
	<circle style="fill:#C03A2B;" cx="324.008" cy="407.864" r="52.068"/>
	<path style="fill:#E64C3C;" d="M324.008,364.475c-4.793,0-8.678-3.885-8.678-8.678v-78.102c0-4.793,3.885-8.678,8.678-8.678
		c4.793,0,8.678,3.885,8.678,8.678v78.102C332.686,360.589,328.801,364.475,324.008,364.475z"/>
	<g>
		<path style="fill:#2C3E50;" d="M428.143,295.051h-34.712c-4.793,0-8.678-3.885-8.678-8.678c0-4.793,3.885-8.678,8.678-8.678
			h34.712c4.793,0,8.678,3.885,8.678,8.678C436.821,291.166,432.936,295.051,428.143,295.051z"/>
		<path style="fill:#2C3E50;" d="M410.788,260.339h-17.356c-4.793,0-8.678-3.885-8.678-8.678c0-4.793,3.885-8.678,8.678-8.678
			h17.356c4.793,0,8.678,3.885,8.678,8.678C419.466,256.454,415.58,260.339,410.788,260.339z"/>
		<path style="fill:#2C3E50;" d="M410.788,225.627h-17.356c-4.793,0-8.678-3.885-8.678-8.678c0-4.793,3.885-8.678,8.678-8.678
			h17.356c4.793,0,8.678,3.885,8.678,8.678C419.466,221.742,415.58,225.627,410.788,225.627z"/>
		<path style="fill:#2C3E50;" d="M428.143,190.915h-34.712c-4.793,0-8.678-3.885-8.678-8.678s3.885-8.678,8.678-8.678h34.712
			c4.793,0,8.678,3.885,8.678,8.678S432.936,190.915,428.143,190.915z"/>
		<path style="fill:#2C3E50;" d="M410.788,156.203h-17.356c-4.793,0-8.678-3.885-8.678-8.678c0-4.793,3.885-8.678,8.678-8.678
			h17.356c4.793,0,8.678,3.885,8.678,8.678C419.466,152.318,415.58,156.203,410.788,156.203z"/>
		<path style="fill:#2C3E50;" d="M410.788,121.492h-17.356c-4.793,0-8.678-3.885-8.678-8.678s3.885-8.678,8.678-8.678h17.356
			c4.793,0,8.678,3.885,8.678,8.678S415.58,121.492,410.788,121.492z"/>
		<path style="fill:#2C3E50;" d="M428.143,86.78h-34.712c-4.793,0-8.678-3.885-8.678-8.678c0-4.793,3.885-8.678,8.678-8.678h34.712
			c4.793,0,8.678,3.885,8.678,8.678C436.821,82.894,432.936,86.78,428.143,86.78z"/>
		<path style="fill:#2C3E50;" d="M410.788,52.068h-17.356c-4.793,0-8.678-3.885-8.678-8.678s3.885-8.678,8.678-8.678h17.356
			c4.793,0,8.678,3.885,8.678,8.678S415.58,52.068,410.788,52.068z"/>
	</g>
	<g>
		<path style="fill:#2FA8CC;" d="M159.127,190.915c-4.793,0-8.678-3.885-8.678-8.678V8.678c0-4.793,3.885-8.678,8.678-8.678
			s8.678,3.885,8.678,8.678v173.559C167.805,187.03,163.919,190.915,159.127,190.915z"/>
		<path style="fill:#2FA8CC;" d="M176.482,34.712h-34.712c-4.793,0-8.678-3.885-8.678-8.678s3.885-8.678,8.678-8.678h34.712
			c4.793,0,8.678,3.885,8.678,8.678S181.275,34.712,176.482,34.712z"/>
		<path style="fill:#2FA8CC;" d="M176.482,173.559h-34.712c-4.793,0-8.678-3.885-8.678-8.678c0-4.793,3.885-8.678,8.678-8.678
			h34.712c4.793,0,8.678,3.885,8.678,8.678C185.16,169.674,181.275,173.559,176.482,173.559z"/>
		<path style="fill:#2FA8CC;" d="M234.269,147.525c-1.524,0.003-3.021-0.398-4.339-1.163L79.628,59.583
			c-2.686-1.55-4.342-4.416-4.343-7.517c-0.001-3.102,1.653-5.968,4.339-7.519c2.686-1.551,5.995-1.552,8.682-0.002l150.302,86.78
			c3.41,1.96,5.076,5.969,4.058,9.769C241.649,144.892,238.203,147.532,234.269,147.525z"/>
		<path style="fill:#2FA8CC;" d="M90.319,84.454c-3.099-0.003-5.961-1.658-7.509-4.343c-1.548-2.684-1.547-5.991,0.002-8.674
			l17.356-30.06c1.539-2.707,4.411-4.382,7.525-4.389c3.114-0.007,5.993,1.655,7.544,4.356c1.551,2.7,1.536,6.025-0.039,8.711
			l-17.356,30.06C96.291,82.803,93.422,84.457,90.319,84.454z"/>
		<path style="fill:#2FA8CC;" d="M210.561,153.878c-3.099-0.003-5.961-1.658-7.509-4.343c-1.548-2.684-1.547-5.991,0.002-8.674
			l17.356-30.06c1.539-2.707,4.411-4.382,7.525-4.389c3.114-0.007,5.993,1.655,7.544,4.356c1.551,2.7,1.536,6.025-0.039,8.711
			l-17.356,30.06C216.533,152.226,213.664,153.881,210.561,153.878z"/>
		<path style="fill:#2FA8CC;" d="M83.984,147.525c-3.934,0.007-7.38-2.633-8.397-6.433c-1.018-3.8,0.648-7.809,4.058-9.769
			l150.302-86.78c4.153-2.396,9.462-0.972,11.858,3.18s0.972,9.462-3.18,11.858l-150.302,86.78
			C87.005,147.127,85.508,147.529,83.984,147.525z"/>
		<path style="fill:#2FA8CC;" d="M107.692,153.878c-3.103,0.003-5.972-1.651-7.524-4.339l-17.356-30.06
			c-1.575-2.686-1.59-6.011-0.039-8.711c1.551-2.7,4.43-4.363,7.544-4.356c3.114,0.007,5.986,1.682,7.525,4.389l17.356,30.06
			c1.549,2.684,1.55,5.99,0.002,8.674C113.653,152.219,110.791,153.875,107.692,153.878z"/>
		<path style="fill:#2FA8CC;" d="M227.934,84.454c-3.103,0.003-5.972-1.651-7.524-4.339l-17.356-30.06
			c-1.575-2.686-1.59-6.011-0.039-8.711c1.551-2.7,4.43-4.363,7.544-4.356c3.114,0.007,5.986,1.682,7.525,4.389l17.356,30.06
			c1.549,2.684,1.55,5.99,0.002,8.674C233.895,82.796,231.033,84.451,227.934,84.454z"/>
	</g>
</g>
<g>
</g>
<g>
</g>
<g>
</g>
<g>
</g>
<g>
</g>
<g>
</g>
<g>
</g>
<g>
</g>
<g>
</g>
<g>
</g>
<g>
</g>
<g>
</g>
<g>
</g>
<g>
</g>
<g>
</g>
</svg>
