<?xml version="1.0" encoding="iso-8859-1"?>
<!-- Generator: Adobe Illustrator 19.0.0, SVG Export Plug-In . SVG Version: 6.00 Build 0)  -->
<svg version="1.1" id="Capa_1" xmlns="http://www.w3.org/2000/svg" xmlns:xlink="http://www.w3.org/1999/xlink" x="0px" y="0px"
	 viewBox="0 0 512.107 512.107" style="enable-background:new 0 0 512.107 512.107;" xml:space="preserve">
<g>
	<circle style="fill:#F0C419;" cx="164.935" cy="95.458" r="60.746"/>
	<path style="fill:#B0D3F0;" d="M364.528,303.243V44.882c0.304-18.247-13.192-33.79-31.301-36.048
		c-9.754-0.963-19.461,2.243-26.723,8.825s-11.403,15.929-11.399,25.73v259.853c-0.049,3.922-2.442,7.433-6.075,8.912
		c-45.536,19.383-71.139,68.138-61.248,116.629c9.891,48.491,52.545,83.322,102.034,83.322c49.49,0,92.143-34.831,102.034-83.322
		c9.891-48.491-15.712-97.246-61.248-116.629C366.97,310.676,364.577,307.165,364.528,303.243z"/>
	<path style="fill:#E64C3C;" d="M329.816,364.475c-4.793,0-8.678-3.885-8.678-8.678V121.492c0-4.793,3.885-8.678,8.678-8.678
		c4.793,0,8.678,3.885,8.678,8.678v234.305C338.494,360.589,334.609,364.475,329.816,364.475z"/>
	<g>
		<path style="fill:#2C3E50;" d="M433.952,295.051H399.24c-4.793,0-8.678-3.885-8.678-8.678c0-4.793,3.885-8.678,8.678-8.678h34.712
			c4.793,0,8.678,3.885,8.678,8.678C442.63,291.166,438.744,295.051,433.952,295.051z"/>
		<path style="fill:#2C3E50;" d="M416.596,260.339H399.24c-4.793,0-8.678-3.885-8.678-8.678c0-4.793,3.885-8.678,8.678-8.678h17.356
			c4.793,0,8.678,3.885,8.678,8.678C425.274,256.454,421.388,260.339,416.596,260.339z"/>
		<path style="fill:#2C3E50;" d="M416.596,225.627H399.24c-4.793,0-8.678-3.885-8.678-8.678c0-4.793,3.885-8.678,8.678-8.678h17.356
			c4.793,0,8.678,3.885,8.678,8.678C425.274,221.742,421.388,225.627,416.596,225.627z"/>
		<path style="fill:#2C3E50;" d="M433.952,190.915H399.24c-4.793,0-8.678-3.885-8.678-8.678s3.885-8.678,8.678-8.678h34.712
			c4.793,0,8.678,3.885,8.678,8.678S438.744,190.915,433.952,190.915z"/>
		<path style="fill:#2C3E50;" d="M416.596,156.203H399.24c-4.793,0-8.678-3.885-8.678-8.678c0-4.793,3.885-8.678,8.678-8.678h17.356
			c4.793,0,8.678,3.885,8.678,8.678C425.274,152.318,421.388,156.203,416.596,156.203z"/>
		<path style="fill:#2C3E50;" d="M416.596,121.492H399.24c-4.793,0-8.678-3.885-8.678-8.678s3.885-8.678,8.678-8.678h17.356
			c4.793,0,8.678,3.885,8.678,8.678S421.388,121.492,416.596,121.492z"/>
		<path style="fill:#2C3E50;" d="M433.952,86.78H399.24c-4.793,0-8.678-3.885-8.678-8.678c0-4.793,3.885-8.678,8.678-8.678h34.712
			c4.793,0,8.678,3.885,8.678,8.678C442.63,82.894,438.744,86.78,433.952,86.78z"/>
		<path style="fill:#2C3E50;" d="M416.596,52.068H399.24c-4.793,0-8.678-3.885-8.678-8.678s3.885-8.678,8.678-8.678h17.356
			c4.793,0,8.678,3.885,8.678,8.678S421.388,52.068,416.596,52.068z"/>
	</g>
	<path style="fill:#F29C1F;" d="M251.714,86.78H233.76c-0.773-6.267-2.402-12.399-4.842-18.224l15.508-8.973
		c4.153-2.396,5.577-7.706,3.18-11.858s-7.706-5.577-11.858-3.18l-15.62,9.008c-3.816-5.021-8.294-9.502-13.312-13.321l8.999-15.62
		c1.575-2.686,1.59-6.011,0.039-8.711s-4.43-4.363-7.544-4.356c-3.114,0.007-5.986,1.682-7.525,4.389l-8.947,15.534
		c-5.823-2.442-11.956-4.068-18.224-4.834V8.678c0-4.793-3.885-8.678-8.678-8.678c-4.793,0-8.678,3.885-8.678,8.678v17.955
		c-6.268,0.765-12.4,2.392-18.224,4.834l-8.973-15.508c-1.539-2.707-4.411-4.382-7.525-4.389c-3.114-0.007-5.993,1.655-7.544,4.356
		s-1.536,6.025,0.039,8.711l8.999,15.62c-5.016,3.811-9.494,8.283-13.312,13.295l-15.594-9.008
		c-4.153-2.396-9.462-0.972-11.858,3.18s-0.972,9.462,3.18,11.858l15.508,8.973c-2.44,5.825-4.069,11.956-4.842,18.224H78.155
		c-4.793,0-8.678,3.885-8.678,8.678s3.885,8.678,8.678,8.678H96.11c0.773,6.267,2.403,12.399,4.842,18.224l-15.508,8.964
		c-2.686,1.55-4.342,4.416-4.343,7.517c-0.001,3.102,1.653,5.968,4.339,7.519c2.686,1.551,5.995,1.552,8.682,0.002l15.62-9.008
		c3.816,5.021,8.294,9.502,13.312,13.321l-8.999,15.62c-1.575,2.686-1.59,6.011-0.039,8.711s4.43,4.363,7.544,4.356
		c3.114-0.007,5.986-1.682,7.525-4.389l8.947-15.534c5.824,2.441,11.956,4.067,18.224,4.834v17.963c0,4.793,3.885,8.678,8.678,8.678
		c4.793,0,8.678-3.885,8.678-8.678v-17.963c6.268-0.766,12.4-2.393,18.224-4.834l8.956,15.508c1.539,2.707,4.411,4.382,7.525,4.389
		c3.114,0.007,5.993-1.655,7.544-4.356c1.551-2.7,1.536-6.025-0.039-8.711l-8.999-15.62c5.018-3.819,9.496-8.3,13.312-13.321
		l15.62,9.008c2.686,1.55,5.996,1.549,8.682-0.002c2.686-1.551,4.34-4.418,4.339-7.519c-0.001-3.102-1.656-5.967-4.343-7.517
		l-15.516-8.938c2.44-5.825,4.069-11.956,4.842-18.224h17.955c4.793,0,8.678-3.885,8.678-8.678S256.507,86.78,251.714,86.78z
		 M164.935,147.525c-28.756,0-52.068-23.312-52.068-52.068s23.312-52.068,52.068-52.068s52.068,23.312,52.068,52.068
		C216.969,124.2,193.677,147.492,164.935,147.525z"/>
	<circle style="fill:#C03A2B;" cx="329.816" cy="407.864" r="52.068"/>
</g>
<g>
</g>
<g>
</g>
<g>
</g>
<g>
</g>
<g>
</g>
<g>
</g>
<g>
</g>
<g>
</g>
<g>
</g>
<g>
</g>
<g>
</g>
<g>
</g>
<g>
</g>
<g>
</g>
<g>
</g>
</svg>
