<?xml version="1.0" encoding="iso-8859-1"?>
<!-- Generator: Adobe Illustrator 19.0.0, SVG Export Plug-In . SVG Version: 6.00 Build 0)  -->
<svg version="1.1" id="Capa_1" xmlns="http://www.w3.org/2000/svg" xmlns:xlink="http://www.w3.org/1999/xlink" x="0px" y="0px"
	 viewBox="0 0 512 512" style="enable-background:new 0 0 512 512;" xml:space="preserve">
<g transform="translate(0 -1)">
	<path style="fill:#46B29D;" d="M364.629,54.524C320.699,10.58,254.621-2.569,197.215,21.212s-94.829,79.805-94.815,141.941v187.733
		c0,84.831,68.769,153.6,153.6,153.6s153.6-68.769,153.6-153.6V163.153C409.625,122.409,393.446,83.328,364.629,54.524z"/>
	<path style="fill:#FF5364;" d="M409.6,163.153v42.667h-59.733c0,51.841-42.026,93.867-93.867,93.867s-93.867-42.026-93.867-93.867
		H102.4v-42.667c0-84.831,68.769-153.6,153.6-153.6S409.6,78.322,409.6,163.153z"/>
	<circle style="fill:#65DDB9;" cx="256" cy="393.553" r="59.733"/>
	<path style="fill:#81CCB8;" d="M256,461.82c-37.703,0-68.267-30.564-68.267-68.267s30.564-68.267,68.267-68.267
		c37.703,0,68.267,30.564,68.267,68.267C324.224,431.238,293.685,461.778,256,461.82z M256,342.353c-28.277,0-51.2,22.923-51.2,51.2
		c0,28.277,22.923,51.2,51.2,51.2c28.277,0,51.2-22.923,51.2-51.2C307.172,365.288,284.265,342.382,256,342.353z"/>
	<circle style="fill:#B0D3F0;" cx="256" cy="205.82" r="59.733"/>
	<path style="fill:#955BA5;" d="M256,274.087c-37.703,0-68.267-30.564-68.267-68.267s30.564-68.267,68.267-68.267
		c37.703,0,68.267,30.564,68.267,68.267C324.224,243.505,293.685,274.044,256,274.087z M256,154.62c-28.277,0-51.2,22.923-51.2,51.2
		s22.923,51.2,51.2,51.2c28.277,0,51.2-22.923,51.2-51.2C307.172,177.555,284.265,154.648,256,154.62z"/>
	<g>
		<circle style="fill:#FFFFFF;" cx="256" cy="205.82" r="25.6"/>
		<path style="fill:#FFFFFF;" d="M256,427.687c-4.713,0-8.533-3.821-8.533-8.533c0-4.713,3.821-8.533,8.533-8.533
			c9.426,0,17.067-7.641,17.067-17.067c0-9.426-7.641-17.067-17.067-17.067c-9.426,0-17.067,7.641-17.067,17.067
			c0,4.713-3.821,8.533-8.533,8.533s-8.533-3.82-8.533-8.533c0-18.851,15.282-34.133,34.133-34.133
			c18.851,0,34.133,15.282,34.133,34.133C290.133,412.405,274.851,427.687,256,427.687z"/>
	</g>
	<g>
		<path style="fill:#DF4D60;" d="M68.267,350.887C30.582,350.844,0.042,320.305,0,282.62c0-4.713,3.821-8.533,8.533-8.533
			s8.533,3.82,8.533,8.533c0.033,28.263,22.937,51.167,51.2,51.2c4.713,0,8.533,3.82,8.533,8.533S72.98,350.887,68.267,350.887z"/>
		<path style="fill:#DF4D60;" d="M68.267,316.753c-18.851,0-34.133-15.282-34.133-34.133c0-4.713,3.821-8.533,8.533-8.533
			s8.533,3.82,8.533,8.533c0,9.426,7.641,17.067,17.067,17.067c4.713,0,8.533,3.82,8.533,8.533S72.98,316.753,68.267,316.753z"/>
		<path style="fill:#DF4D60;" d="M8.533,163.153c-4.713,0-8.533-3.821-8.533-8.533c0.042-37.685,30.582-68.224,68.267-68.267
			c4.713,0,8.533,3.821,8.533,8.533c0,4.713-3.82,8.533-8.533,8.533c-28.265,0.028-51.172,22.935-51.2,51.2
			c0,2.263-0.899,4.434-2.499,6.034S10.797,163.153,8.533,163.153z"/>
		<path style="fill:#DF4D60;" d="M42.667,163.153c-4.713,0-8.533-3.821-8.533-8.533c0-18.851,15.282-34.133,34.133-34.133
			c4.713,0,8.533,3.821,8.533,8.533c0,4.713-3.82,8.533-8.533,8.533c-9.426,0-17.067,7.641-17.067,17.067
			C51.2,159.333,47.379,163.153,42.667,163.153z"/>
		<path style="fill:#DF4D60;" d="M443.733,350.887c-4.713,0-8.533-3.82-8.533-8.533s3.821-8.533,8.533-8.533
			c28.263-0.033,51.167-22.937,51.2-51.2c0-4.713,3.821-8.533,8.533-8.533c4.713,0,8.533,3.82,8.533,8.533
			C511.958,320.305,481.418,350.844,443.733,350.887z"/>
		<path style="fill:#DF4D60;" d="M443.733,316.753c-4.713,0-8.533-3.82-8.533-8.533s3.821-8.533,8.533-8.533
			c9.426,0,17.067-7.641,17.067-17.067c0-4.713,3.821-8.533,8.533-8.533c4.713,0,8.533,3.82,8.533,8.533
			C477.867,301.471,462.585,316.753,443.733,316.753z"/>
		<path style="fill:#DF4D60;" d="M503.467,163.153c-4.713,0-8.533-3.821-8.533-8.533c-0.028-28.265-22.935-51.172-51.2-51.2
			c-4.713,0-8.533-3.821-8.533-8.533c0-4.713,3.821-8.533,8.533-8.533c37.685,0.042,68.224,30.582,68.267,68.267
			C512,159.333,508.18,163.153,503.467,163.153z"/>
		<path style="fill:#DF4D60;" d="M469.333,163.153c-4.713,0-8.533-3.821-8.533-8.533c0-9.426-7.641-17.067-17.067-17.067
			c-4.713,0-8.533-3.821-8.533-8.533c0-4.713,3.821-8.533,8.533-8.533c18.851,0,34.133,15.282,34.133,34.133
			C477.867,159.333,474.046,163.153,469.333,163.153z"/>
	</g>
</g>
<g>
</g>
<g>
</g>
<g>
</g>
<g>
</g>
<g>
</g>
<g>
</g>
<g>
</g>
<g>
</g>
<g>
</g>
<g>
</g>
<g>
</g>
<g>
</g>
<g>
</g>
<g>
</g>
<g>
</g>
</svg>
