<?xml version="1.0" encoding="iso-8859-1"?>
<!-- Generator: Adobe Illustrator 19.0.0, SVG Export Plug-In . SVG Version: 6.00 Build 0)  -->
<svg version="1.1" id="Capa_1" xmlns="http://www.w3.org/2000/svg" xmlns:xlink="http://www.w3.org/1999/xlink" x="0px" y="0px"
	 viewBox="0 0 504.764 504.764" style="enable-background:new 0 0 504.764 504.764;" xml:space="preserve">
<g>
	<rect x="235.011" y="339.214" style="fill:#4482C3;" width="33.574" height="83.934"/>
	<g>
		<path style="fill:#2FA8CC;" d="M69.753,361.683c-2.227,0.006-4.364-0.88-5.934-2.459c-85.091-85.277-85.091-223.341,0-308.618
			c2.107-2.182,5.228-3.057,8.163-2.289c2.935,0.768,5.226,3.06,5.995,5.995c0.768,2.935-0.107,6.055-2.289,8.163
			c-78.547,78.718-78.547,206.164,0,284.882c2.4,2.4,3.118,6.01,1.819,9.146C76.207,359.637,73.147,361.682,69.753,361.683z"/>
		<path style="fill:#2FA8CC;" d="M435.018,361.683c-3.394-0.001-6.454-2.046-7.753-5.182s-0.581-6.745,1.819-9.146
			c78.538-78.722,78.538-206.16,0-284.882c-2.182-2.107-3.057-5.228-2.289-8.163c0.768-2.935,3.06-5.226,5.995-5.995
			c2.935-0.768,6.055,0.107,8.163,2.289c85.082,85.281,85.082,223.338,0,308.618C439.379,360.798,437.244,361.682,435.018,361.683z"
			/>
		<path style="fill:#2FA8CC;" d="M93.489,337.946c-2.226,0-4.36-0.885-5.934-2.459c-71.999-72.161-71.999-188.984,0-261.145
			c3.293-3.181,8.528-3.135,11.766,0.102s3.283,8.473,0.102,11.766c-65.45,65.604-65.45,171.805,0,237.408
			c2.4,2.401,3.118,6.01,1.819,9.146C99.943,335.9,96.884,337.945,93.489,337.946z"/>
		<path style="fill:#2FA8CC;" d="M411.273,337.946c-3.394-0.001-6.454-2.046-7.753-5.182c-1.299-3.136-0.581-6.745,1.819-9.146
			c65.445-65.605,65.445-171.803,0-237.408c-2.182-2.107-3.057-5.228-2.289-8.163s3.06-5.226,5.995-5.995
			c2.935-0.768,6.055,0.107,8.163,2.289c71.999,72.161,71.999,188.984,0,261.145C415.634,337.061,413.499,337.946,411.273,337.946z"
			/>
	</g>
	<circle style="fill:#285680;" cx="251.798" cy="204.918" r="142.689"/>
	<circle style="fill:#2FA8CC;" cx="251.798" cy="204.918" r="109.115"/>
	<path style="fill:#285680;" d="M366.016,406.361H137.58c-4.072,0.317-7.421,3.335-8.158,7.353l-11.474,28.848
		c-1.855,6.967,2.291,14.16,8.167,14.16h251.367c5.875,0,10.022-7.193,8.167-14.16l-11.474-28.848
		C373.437,409.696,370.088,406.678,366.016,406.361z"/>
	<circle style="fill:#4482C3;" cx="251.798" cy="204.918" r="58.754"/>
	<circle style="fill:#FFFFFF;" cx="251.798" cy="204.918" r="25.18"/>
	<path style="fill:#C03A2B;" d="M251.798,120.984c-4.636,0-8.393-3.758-8.393-8.393V95.804c0-4.636,3.758-8.393,8.393-8.393
		s8.393,3.758,8.393,8.393v16.787C260.191,117.226,256.434,120.984,251.798,120.984z"/>
</g>
<g>
</g>
<g>
</g>
<g>
</g>
<g>
</g>
<g>
</g>
<g>
</g>
<g>
</g>
<g>
</g>
<g>
</g>
<g>
</g>
<g>
</g>
<g>
</g>
<g>
</g>
<g>
</g>
<g>
</g>
</svg>
