<?xml version="1.0" encoding="iso-8859-1"?>
<!-- Generator: Adobe Illustrator 19.0.0, SVG Export Plug-In . SVG Version: 6.00 Build 0)  -->
<svg version="1.1" id="Capa_1" xmlns="http://www.w3.org/2000/svg" xmlns:xlink="http://www.w3.org/1999/xlink" x="0px" y="0px"
	 viewBox="0 0 512 512" style="enable-background:new 0 0 512 512;" xml:space="preserve">
<g>
	<circle style="fill:#556080;" cx="256" cy="256" r="256"/>
	<circle style="fill:#CC66A1;" cx="256" cy="256" r="229.517"/>
	<circle style="fill:#7D6599;" cx="256" cy="256" r="211.862"/>
	<circle style="fill:#2FA8CC;" cx="256" cy="256" r="123.586"/>
	<path style="fill:#285680;" d="M344.276,264.828c-4.875,0-8.828-3.952-8.828-8.828c0-43.878-35.57-79.448-79.448-79.448
		s-79.448,35.57-79.448,79.448c0,4.875-3.952,8.828-8.828,8.828s-8.828-3.952-8.828-8.828c0-53.629,43.475-97.103,97.103-97.103
		s97.103,43.475,97.103,97.103c0,2.341-0.93,4.587-2.586,6.242C348.862,263.898,346.617,264.828,344.276,264.828z"/>
	<path style="fill:#FF5364;" d="M273.655,97.103h-35.31c-4.875,0-8.828-3.952-8.828-8.828c0-4.875,3.952-8.828,8.828-8.828h35.31
		c4.875,0,8.828,3.952,8.828,8.828C282.483,93.151,278.531,97.103,273.655,97.103z"/>
	<g>
		<path style="fill:#285680;" d="M229.517,326.621h-17.655c-14.626,0-26.483-11.857-26.483-26.483v-35.31
			c0-14.626,11.857-26.483,26.483-26.483h17.655c14.626,0,26.483,11.857,26.483,26.483v35.31
			C256,314.764,244.143,326.621,229.517,326.621z M211.862,256c-4.875,0-8.828,3.952-8.828,8.828v35.31
			c0,4.875,3.952,8.828,8.828,8.828h17.655c4.875,0,8.828-3.952,8.828-8.828v-35.31c0-4.875-3.952-8.828-8.828-8.828H211.862z"/>
		<path style="fill:#285680;" d="M195.796,316.204c-3.57-0.001-6.788-2.152-8.154-5.45c-1.366-3.298-0.611-7.094,1.913-9.619
			l49.788-49.788c3.464-3.345,8.97-3.298,12.375,0.108c3.405,3.405,3.453,8.911,0.108,12.375l-49.788,49.788
			C200.382,315.273,198.137,316.204,195.796,316.204z"/>
		<path style="fill:#285680;" d="M317.793,326.621h-8.828c-14.626,0-26.483-11.857-26.483-26.483v-8.828
			c0-14.626,11.857-26.483,26.483-26.483h8.828c4.875,0,8.828,3.952,8.828,8.828s-3.952,8.828-8.828,8.828h-8.828
			c-4.875,0-8.828,3.952-8.828,8.828v8.828c0,4.875,3.952,8.828,8.828,8.828h8.828c4.875,0,8.828,3.952,8.828,8.828
			S322.668,326.621,317.793,326.621z"/>
	</g>
	<g>
		<path style="fill:#3D324C;" d="M238.345,414.897h-8.828c-4.875,0-8.828-3.952-8.828-8.828s3.952-8.828,8.828-8.828h8.828
			c4.875,0,8.828,3.952,8.828,8.828S243.22,414.897,238.345,414.897z"/>
		<path style="fill:#3D324C;" d="M282.483,414.897h-8.828c-4.875,0-8.828-3.952-8.828-8.828s3.952-8.828,8.828-8.828h8.828
			c4.875,0,8.828,3.952,8.828,8.828S287.358,414.897,282.483,414.897z"/>
		<path style="fill:#3D324C;" d="M238.345,441.379h-8.828c-4.875,0-8.828-3.952-8.828-8.828s3.952-8.828,8.828-8.828h8.828
			c4.875,0,8.828,3.952,8.828,8.828S243.22,441.379,238.345,441.379z"/>
		<path style="fill:#3D324C;" d="M282.483,441.379h-8.828c-4.875,0-8.828-3.952-8.828-8.828s3.952-8.828,8.828-8.828h8.828
			c4.875,0,8.828,3.952,8.828,8.828S287.358,441.379,282.483,441.379z"/>
	</g>
	<path style="fill:#285680;" d="M282.483,264.828c-1.158,0.03-2.307-0.211-3.354-0.706c-1.068-0.451-2.052-1.078-2.913-1.854
		c-0.798-0.844-1.427-1.833-1.854-2.913c-0.941-2.14-0.941-4.577,0-6.718c0.427-1.078,1.056-2.063,1.854-2.904
		c0.86-0.779,1.845-1.408,2.913-1.863c2.151-0.873,4.558-0.873,6.709,0c1.068,0.454,2.053,1.084,2.913,1.863
		c0.798,0.841,1.427,1.827,1.854,2.904c0.941,2.14,0.941,4.577,0,6.718c-0.427,1.08-1.056,2.069-1.854,2.913
		C287.056,263.876,284.819,264.79,282.483,264.828z"/>
</g>
<g>
</g>
<g>
</g>
<g>
</g>
<g>
</g>
<g>
</g>
<g>
</g>
<g>
</g>
<g>
</g>
<g>
</g>
<g>
</g>
<g>
</g>
<g>
</g>
<g>
</g>
<g>
</g>
<g>
</g>
</svg>
