<svg enable-background="new 0 0 512 512" version="1.1" viewBox="0 0 512 512" xmlns="http://www.w3.org/2000/svg">
 <path d="m11.22 17.655h489.56c6.197 0 11.22 5.023 11.22 11.22v454.25c0 6.197-5.023 11.22-11.22 11.22h-489.56c-6.197 0-11.22-5.023-11.22-11.22v-454.25c0-6.197 5.023-11.22 11.22-11.22z" fill="#41767F"/>
 <path d="m512 28.866v147.69h-512v-147.69c0.01-6.188 5.023-11.201 11.211-11.211h489.58c6.188 0.01 11.201 5.024 11.211 11.211z" fill="#2C3E50"/>
 <path d="m85.168 52.966h341.66c3.159 0 5.72 2.561 5.72 5.72v76.835c0 3.159-2.561 5.72-5.72 5.72h-341.66c-3.159 0-5.72-2.561-5.72-5.72v-76.835c-1e-3 -3.159 2.56-5.72 5.72-5.72z" fill="#65ddb9"/>
 <circle cx="256" cy="335.1" r="127.77" fill="#ff5364" stroke-width="1.6082"/>
 <g fill="#fff" stroke-width="1.6082">
  <path d="m256 406.08c-25.362 5e-3 -48.8-13.524-61.483-35.487s-12.684-49.025-3e-3 -70.989c3.9466-6.7321 12.588-9.0174 19.345-5.1142 6.7578 3.9016 9.0994 12.528 5.2428 19.312-10.304 17.901-6.2785 40.616 9.5497 53.885 15.828 13.27 38.897 13.27 54.725 0 15.828-13.27 19.854-35.984 9.5497-53.885-3.8566-6.7835-1.515-15.41 5.2428-19.312 6.7578-3.9016 15.399-1.6179 19.345 5.1142 12.684 21.968 12.679 49.037-0.01 71.002-12.691 21.965-36.139 35.489-61.505 35.474z"/>
  <path d="m256 320.9c-7.8401 0-14.197-6.3557-14.197-14.197v-28.393c0-7.8401 6.3557-14.197 14.197-14.197s14.197 6.3557 14.197 14.197v28.393c0 7.8401-6.3574 14.197-14.197 14.197z"/>
 </g>
 <text x="255.75586" y="112.01561" fill="#000000" font-family="sans-serif" font-size="40px" letter-spacing="0px" text-align="center" text-anchor="middle" word-spacing="0px" style="line-height:1.25" xml:space="preserve"><tspan x="255.75586" y="112.01561">Masterswitch</tspan></text>
</svg>
