<?xml version="1.0" encoding="iso-8859-1"?>
<!-- Generator: Adobe Illustrator 19.0.0, SVG Export Plug-In . SVG Version: 6.00 Build 0)  -->
<svg version="1.1" id="Capa_1" xmlns="http://www.w3.org/2000/svg" xmlns:xlink="http://www.w3.org/1999/xlink" x="0px" y="0px"
	 viewBox="0 0 512 512" style="enable-background:new 0 0 512 512;" xml:space="preserve">
<g>
	<polygon style="fill:#805333;" points="176.552,0 123.586,26.483 123.586,406.069 335.448,512 388.414,485.517 388.414,105.931 	
		"/>
	<polygon style="fill:#CBB292;" points="388.414,105.931 335.448,132.414 123.586,26.483 176.552,0 	"/>
	<path style="fill:#CB8252;" d="M123.586,26.483v379.586L335.448,512V132.414L123.586,26.483z M308.966,467.862l-158.897-79.448
		V70.621l158.897,79.448V467.862z"/>
	<polygon style="fill:#59474E;" points="203.034,97.103 203.034,123.586 150.069,150.069 150.069,70.621 	"/>
	<polygon style="fill:#A5A5A4;" points="308.966,176.552 308.966,229.517 150.069,150.069 203.034,123.586 	"/>
	<polygon style="fill:#D1D4D1;" points="308.966,229.517 308.966,256 150.069,176.552 150.069,150.069 	"/>
	<polygon style="fill:#59474E;" points="203.034,203.034 203.034,229.517 150.069,256 150.069,176.552 	"/>
	<polygon style="fill:#464F5D;" points="308.966,256 308.966,282.483 203.034,229.517 203.034,203.034 	"/>
	<polygon style="fill:#A5A5A4;" points="308.966,282.483 308.966,335.448 150.069,256 203.034,229.517 	"/>
	<polygon style="fill:#D1D4D1;" points="308.966,335.448 308.966,361.931 150.069,282.483 150.069,256 	"/>
	<polygon style="fill:#59474E;" points="203.034,308.966 203.034,335.448 150.069,361.931 150.069,282.483 	"/>
	<polygon style="fill:#464F5D;" points="308.966,361.931 308.966,388.414 203.034,335.448 203.034,308.966 	"/>
	<polygon style="fill:#A5A5A4;" points="308.966,388.414 308.966,441.379 150.069,361.931 203.034,335.448 	"/>
	<polygon style="fill:#D1D4D1;" points="308.966,441.379 308.966,467.862 150.069,388.414 150.069,361.931 	"/>
	<polygon style="fill:#464F5D;" points="308.966,150.069 308.966,176.552 203.034,123.586 203.034,97.103 	"/>
</g>
<g>
</g>
<g>
</g>
<g>
</g>
<g>
</g>
<g>
</g>
<g>
</g>
<g>
</g>
<g>
</g>
<g>
</g>
<g>
</g>
<g>
</g>
<g>
</g>
<g>
</g>
<g>
</g>
<g>
</g>
</svg>
