<?xml version="1.0" encoding="iso-8859-1"?>
<!-- Generator: Adobe Illustrator 19.0.0, SVG Export Plug-In . SVG Version: 6.00 Build 0)  -->
<svg version="1.1" id="Capa_1" xmlns="http://www.w3.org/2000/svg" xmlns:xlink="http://www.w3.org/1999/xlink" x="0px" y="0px"
	 viewBox="0 0 512 512" style="enable-background:new 0 0 512 512;" xml:space="preserve">
<g>
	<path style="fill:#46B29D;" d="M397.241,61.793L273.655,0l-20.657,10.328c-4.282,2.12-7.889,5.39-10.417,9.446
		c-2.772,4.221-4.245,9.163-4.237,14.212v107.255l-108.932,54.466c-8.907,4.544-14.553,13.659-14.654,23.658v18.979l123.586,61.793
		v56.055c-46.698,8.21-81.126,32.397-83.686,61.44v0.265c-0.088,1.059-0.177,2.119-0.177,3.266v22.775
		c0,37.605,53.319,68.061,119.172,68.061s119.172-30.455,119.172-68.061v-22.775c0-1.148-0.088-2.207-0.177-3.266
		c-2.383-29.131-36.811-53.495-83.686-61.705v-86.43l43.095,21.547l-9.759,4.879c-1.832,0.916-2.794,2.971-2.322,4.965
		c0.472,1.993,2.253,3.4,4.301,3.398c0.684,0.001,1.359-0.158,1.97-0.465l17.655-8.828c1.495-0.748,2.44-2.276,2.44-3.948
		c0-1.672-0.944-3.2-2.44-3.948l-50.004-25.002l83.341-41.67V61.793z"/>
	<path style="fill:#A5A5A4;" d="M392.651,417.898c-2.648,36.193-54.908,65.059-118.996,65.059h-0.618
		c-63.823-0.177-115.73-28.954-118.378-65.059v-0.265c2.56-29.043,36.988-53.23,83.686-61.44v61.793l23.481,11.741
		c3.56,1.803,7.485,2.769,11.476,2.825h0.353c4.109-0.012,8.158-0.979,11.829-2.825l23.481-11.741v-61.793
		C355.84,364.403,390.268,388.767,392.651,417.898z"/>
	<path style="fill:#5E5F62;" d="M392.828,421.164v22.775c0,37.605-53.319,68.061-119.172,68.061s-119.172-30.455-119.172-68.061
		v-22.775c0-1.148,0.088-2.207,0.177-3.266c2.648,36.105,54.554,64.883,118.378,65.059h0.618
		c64.088,0,116.348-28.866,118.996-65.059C392.739,418.957,392.828,420.017,392.828,421.164z"/>
	<path style="fill:#95A5A5;" d="M308.966,264.828v153.159l-23.481,11.741c-3.671,1.846-7.72,2.813-11.829,2.825V282.483
		L308.966,264.828z"/>
	<path style="fill:#BDC3C7;" d="M273.655,282.483v150.069h-0.353c-3.99-0.056-7.915-1.022-11.476-2.825l-23.481-11.741V300.138
		L273.655,282.483z"/>
	<path style="fill:#527F72;" d="M397.241,61.793V220.69l-158.897,79.448v-18.979c0.101-9.999,5.747-19.114,14.654-23.658
		l108.932-54.466V95.779c0.053-10.013,5.713-19.151,14.654-23.658L397.241,61.793z"/>
	<g>
		<path style="fill:#65DDB9;" d="M361.931,203.034l-108.932,54.466c-4.282,2.12-7.889,5.39-10.417,9.445l-123.586-61.793
			c2.527-4.055,6.134-7.326,10.417-9.446l108.932-54.466L361.931,203.034z"/>
		<path style="fill:#65DDB9;" d="M397.241,61.793l-20.657,10.328c-4.416,2.189-8.12,5.587-10.681,9.799l-3.972-2.472L242.582,19.774
			c2.527-4.055,6.134-7.326,10.417-9.446L273.655,0L397.241,61.793z"/>
	</g>
	<path style="fill:#5E5F62;" d="M344.28,304.552c-2.048,0.003-3.829-1.404-4.301-3.398c-0.472-1.993,0.49-4.049,2.322-4.965
		l9.759-4.879l-45.069-22.534c-1.414-0.703-2.346-2.108-2.441-3.685c-0.096-1.577,0.658-3.084,1.977-3.954
		c1.319-0.869,3.002-0.968,4.413-0.258l52.966,26.483c1.495,0.748,2.44,2.276,2.44,3.948c0,1.672-0.944,3.2-2.44,3.948
		l-17.655,8.828C345.639,304.394,344.964,304.553,344.28,304.552z"/>
</g>
<g>
</g>
<g>
</g>
<g>
</g>
<g>
</g>
<g>
</g>
<g>
</g>
<g>
</g>
<g>
</g>
<g>
</g>
<g>
</g>
<g>
</g>
<g>
</g>
<g>
</g>
<g>
</g>
<g>
</g>
</svg>
