<?xml version="1.0" encoding="iso-8859-1"?>
<!-- Generator: Adobe Illustrator 19.0.0, SVG Export Plug-In . SVG Version: 6.00 Build 0)  -->
<svg version="1.1" id="Capa_1" xmlns="http://www.w3.org/2000/svg" xmlns:xlink="http://www.w3.org/1999/xlink" x="0px" y="0px"
	 viewBox="0 0 511.978 511.978" style="enable-background:new 0 0 511.978 511.978;" xml:space="preserve">
<g>
	<g>
		<path style="fill:#285680;" d="M273.114,0l-24.805,12.359c-2.771,1.309-5.101,3.394-6.709,6.003
			c-1.8,2.722-2.752,5.917-2.736,9.181v91.63c-0.004,6.47,3.655,12.385,9.445,15.272l42.019,20.833v33.986l-51.465-25.512
			l-127.912,63.47c-2.705,1.33-4.995,3.376-6.621,5.914c-1.867,2.728-2.852,5.963-2.825,9.269v40.607l103.017,51.023v25.6
			l-34.339-17.037l-34.339,17.037v34.074h-0.088c-5.43,1.593-9.632,5.91-11.077,11.382c-1.445,5.472,0.079,11.3,4.015,15.366
			l7.15,7.239v34.163c-6.487,3.199-10.594,9.805-10.594,17.037s4.107,13.838,10.594,17.037l30.72,15.183
			c2.276,1.148,4.962,1.148,7.238,0l3.091-1.501c7.022-3.41,12.21-9.709,14.211-17.254c2.001-7.545,0.615-15.588-3.795-22.029
			l51.554-25.6l51.465,25.6c-4.384,6.434-5.754,14.455-3.754,21.979c2,7.524,7.172,13.807,14.171,17.215l3.177,1.589
			c2.287,1.104,4.952,1.104,7.239,0l30.72-15.272c6.487-3.199,10.594-9.805,10.594-17.037s-4.107-13.838-10.594-17.037h-0.088
			v-34.074l-2.119-1.059l6.091-6.179c3.751-3.793,5.364-9.206,4.301-14.434c-1.063-5.227-4.662-9.581-9.596-11.608l1.323-0.706
			v-34.074l-34.338-17.037l-34.341,17.037v-25.6l103.018-51.023v-51.112l-27.453-13.594l1.677-3.443v-25.512l1.678-3.443
			l16.419,8.121c4.849,2.354,10.511,2.354,15.36,0l26.659-13.241V68.149L273.114,0z"/>
		<path style="fill:#90BAE1;" d="M410.472,68.149l-24.806,12.27c-2.742,1.386-5.083,3.453-6.797,6.003L241.6,18.361
			c1.608-2.609,3.938-4.694,6.709-6.003L273.114,0L410.472,68.149z"/>
		<g>
			<path style="fill:#4482C3;" d="M378.869,86.422c-1.789,2.76-2.739,5.98-2.736,9.269v100.105c-2.663,0.026-5.295-0.579-7.68-1.766
				l-16.419-8.121l-27.365-13.594l-34.339-17.037l-42.019-20.833c-5.79-2.887-9.449-8.802-9.445-15.272v-91.63
				c-0.016-3.263,0.936-6.458,2.736-9.181L378.869,86.422z"/>
			<path style="fill:#4482C3;" d="M241.336,301.639c-1.615,2.694-2.47,5.775-2.472,8.916v40.519l-34.341-17.037l-103.017-51.023
				v-40.607c-0.027-3.306,0.959-6.541,2.825-9.269L241.336,301.639z"/>
		</g>
		<polygon style="fill:#5E5F62;" points="352.033,185.909 350.356,189.352 350.356,214.863 348.679,218.306 324.668,206.389 
			324.668,172.314 		"/>
		<polygon style="fill:#A5A5A4;" points="324.668,172.314 324.668,206.389 290.329,189.352 290.329,155.277 		"/>
		<path style="fill:#90BAE1;" d="M376.133,231.901l-127.823,63.382c-2.849,1.46-5.256,3.654-6.973,6.356l-137.004-68.502
			c1.626-2.539,3.915-4.584,6.621-5.914l127.912-63.47l51.465,25.512v0.088l34.339,17.037l24.011,11.917L376.133,231.901z"/>
	</g>
	<g>
		<path style="fill:none;stroke:#000000;stroke-linecap:round;stroke-linejoin:round;" d="M238.864,410.748l-0.088-0.088"/>
		<path style="fill:none;stroke:#000000;stroke-linecap:round;stroke-linejoin:round;" d="M204.495,393.677l0.025,0.012"/>
	</g>
	<g>
		<polygon style="fill:#95A5A5;" points="238.864,410.748 238.864,444.734 187.311,470.334 170.185,478.808 135.846,461.771 
			135.846,427.697 170.185,444.734 		"/>
		<polygon style="fill:#D1D4D1;" points="341.793,359.636 273.115,393.71 273.115,359.636 307.454,342.599 		"/>
		<polygon style="fill:#95A5A5;" points="341.793,359.636 341.793,393.71 340.469,394.417 307.454,410.748 273.115,393.71 		"/>
		<polygon style="fill:#BDC3C7;" points="341.793,427.697 307.454,444.734 238.864,410.748 238.864,351.073 273.115,334.124 
			273.115,393.71 307.454,410.748 339.675,426.637 		"/>
		<polygon style="fill:#A5A5A4;" points="341.793,427.697 341.793,461.771 307.542,478.808 307.454,478.808 290.329,470.334 
			238.864,444.734 238.864,410.748 307.454,444.734 		"/>
		<polygon style="fill:#BDC3C7;" points="204.524,359.636 204.524,393.71 135.846,359.636 170.185,342.599 		"/>
		<path style="fill:#7F8C8D;" d="M176.894,509.617l-3.091,1.501c-2.276,1.148-4.962,1.148-7.238,0
			c-5.832-2.832-9.534-8.745-9.534-15.228s3.702-12.396,9.534-15.228l3.619-1.766v-0.088l17.126-8.475
			c4.41,6.441,5.796,14.483,3.795,22.029C189.105,499.908,183.916,506.207,176.894,509.617L176.894,509.617z"/>
		<path style="fill:#2C2F38;" d="M170.185,478.808v0.088l-3.619,1.766c-5.832,2.832-9.534,8.745-9.534,15.228
			s3.702,12.396,9.534,15.228l-30.72-15.183c-6.487-3.199-10.594-9.805-10.594-17.037s4.107-13.838,10.594-17.037v-0.088
			L170.185,478.808z"/>
		<path style="fill:#7F8C8D;" d="M341.882,495.845l-30.72,15.272c5.786-2.869,9.447-8.769,9.447-15.228
			c0-6.458-3.66-12.359-9.447-15.228l-3.619-1.854l34.25-17.037h0.088c6.487,3.199,10.594,9.805,10.594,17.037
			S348.368,492.646,341.882,495.845L341.882,495.845z"/>
		<path style="fill:#2C2F38;" d="M320.608,495.934c0.006,6.449-3.659,12.339-9.446,15.183c-2.287,1.104-4.952,1.104-7.239,0
			l-3.177-1.589c-7-3.408-12.172-9.691-14.171-17.215c-2-7.524-0.63-15.546,3.754-21.979l17.126,8.475h0.088l3.618,1.854
			C316.988,483.509,320.662,489.449,320.608,495.934L320.608,495.934z"/>
		<polygon style="fill:#D1D4D1;" points="238.864,351.073 238.864,410.748 170.185,444.734 135.846,427.697 170.097,410.748 
			170.185,410.748 204.524,393.71 204.524,334.036 		"/>
		<polygon style="fill:#A5A5A4;" points="204.524,393.71 170.185,410.748 170.097,410.748 135.846,393.71 135.846,359.636 		"/>
		<path style="fill:#2C2F38;" d="M170.097,410.748l-34.251,16.949l-7.15-7.239c-3.937-4.066-5.46-9.894-4.015-15.366
			c1.445-5.472,5.646-9.789,11.077-11.382h0.088L170.097,410.748z"/>
		<path style="fill:#7F8C8D;" d="M345.765,420.458l-6.09,6.179l-32.22-15.89l33.015-16.331c4.934,2.027,8.533,6.38,9.596,11.608
			C351.129,411.252,349.516,416.665,345.765,420.458L345.765,420.458z"/>
	</g>
</g>
<g>
</g>
<g>
</g>
<g>
</g>
<g>
</g>
<g>
</g>
<g>
</g>
<g>
</g>
<g>
</g>
<g>
</g>
<g>
</g>
<g>
</g>
<g>
</g>
<g>
</g>
<g>
</g>
<g>
</g>
</svg>
