<?xml version="1.0" encoding="iso-8859-1"?>
<!-- Generator: Adobe Illustrator 19.0.0, SVG Export Plug-In . SVG Version: 6.00 Build 0)  -->
<svg version="1.1" id="Capa_1" xmlns="http://www.w3.org/2000/svg" xmlns:xlink="http://www.w3.org/1999/xlink" x="0px" y="0px"
	 viewBox="0 0 512 512" style="enable-background:new 0 0 512 512;" xml:space="preserve">
<g>
	<g>
		<polygon style="fill:#3F5C6C;" points="384,61.793 348.69,79.448 260.414,35.31 260.414,0 		"/>
		<path style="fill:#ECF0F1;" d="M260.414,507.586v-384l-88.276-44.138L140.8,63.823L128,70.621v375.172L260.414,512l1.766-0.883
			L260.414,507.586z M233.931,467.862l-79.448-39.724V105.931l79.448,39.724V467.862z"/>
		<path style="fill:#BDC3C7;" d="M260.414,123.586v384l1.766,3.531L384,450.207V61.793L260.414,123.586z M361.931,428.138
			l-79.448,39.724V145.655l79.448-39.724V428.138z"/>
	</g>
	<polygon style="fill:none;stroke:#000000;stroke-width:2;stroke-linecap:round;stroke-linejoin:round;" points="348.69,220.69 
		348.69,264.828 331.034,273.655 331.034,229.517 	"/>
	<g>
		<polygon style="fill:#547580;" points="348.69,79.448 260.414,123.586 260.414,35.31 		"/>
		<g>
			<polygon style="fill:#67B9CC;" points="260.414,35.31 260.414,123.586 172.138,79.448 			"/>
			<polygon style="fill:#67B9CC;" points="233.931,145.655 233.931,467.862 154.483,428.138 154.483,105.931 193.677,125.528 
				228.988,143.183 			"/>
		</g>
		<path style="fill:#547580;" d="M331.034,121.379l-26.483,13.241l-22.069,11.034v322.207l22.069-11.034l26.483-13.241
			l30.897-15.448V105.931L331.034,121.379z M348.69,264.828l-17.655,8.828v-44.138l17.655-8.828V264.828z"/>
		<polygon style="fill:#464F5D;" points="348.69,220.69 348.69,264.828 331.034,273.655 331.034,229.517 		"/>
		<polygon style="fill:#7F8C8D;" points="260.414,0 260.414,35.31 172.138,79.448 140.8,63.823 		"/>
		<g>
			<path style="fill:#FFFFFF;" d="M202.505,129.942c-0.377,0.892-1.068,1.614-1.942,2.03l-8.828,4.414
				c-0.609,0.281-1.271,0.431-1.942,0.441c-2.058,0.003-3.846-1.415-4.31-3.42c-0.464-2.005,0.518-4.065,2.368-4.966l5.826-2.913
				L202.505,129.942z"/>
			<path style="fill:#FFFFFF;" d="M174.08,149.628l-17.655,8.828c-0.609,0.281-1.271,0.431-1.942,0.441v-9.357l15.713-7.857
				c1.421-0.708,3.113-0.6,4.432,0.284c1.319,0.883,2.064,2.406,1.95,3.99C176.465,147.54,175.511,148.941,174.08,149.628
				L174.08,149.628z"/>
			<path style="fill:#FFFFFF;" d="M233.931,176.552v9.357l-24.541,12.27c-0.609,0.281-1.271,0.431-1.942,0.441
				c-2.058,0.003-3.846-1.415-4.31-3.42c-0.464-2.005,0.518-4.065,2.368-4.966l26.483-13.241
				C232.598,176.712,233.26,176.562,233.931,176.552L233.931,176.552z"/>
			<path style="fill:#FFFFFF;" d="M182.908,211.421l-26.483,13.241c-0.609,0.281-1.271,0.431-1.942,0.441v-9.357l24.541-12.27
				c1.421-0.708,3.113-0.6,4.432,0.284c1.319,0.883,2.064,2.406,1.95,3.99S184.339,210.734,182.908,211.421L182.908,211.421z"/>
			<path style="fill:#FFFFFF;" d="M233.931,145.655v4.943l-15.713,7.857c-0.609,0.281-1.271,0.431-1.942,0.441
				c-2.058,0.003-3.846-1.415-4.31-3.42s0.518-4.065,2.368-4.966l14.654-7.327L233.931,145.655z"/>
			<path style="fill:#FFFFFF;" d="M191.735,171.697l-35.31,17.655c-0.609,0.281-1.271,0.431-1.942,0.441v-9.357l33.368-16.684
				c1.421-0.708,3.113-0.6,4.432,0.284c1.319,0.883,2.064,2.406,1.95,3.99S193.166,171.01,191.735,171.697L191.735,171.697z"/>
			<path style="fill:#FFFFFF;" d="M233.931,216.276v9.357l-33.368,16.684c-0.609,0.281-1.271,0.431-1.942,0.441
				c-2.058,0.003-3.846-1.415-4.31-3.42c-0.464-2.005,0.518-4.065,2.368-4.966l35.31-17.655
				C232.598,216.436,233.26,216.286,233.931,216.276z"/>
			<path style="fill:#FFFFFF;" d="M174.08,255.559l-17.655,8.828c-0.609,0.281-1.271,0.431-1.942,0.441v-9.357l15.713-7.857
				c1.421-0.708,3.113-0.6,4.432,0.284c1.319,0.883,2.064,2.406,1.95,3.99C176.465,253.471,175.511,254.872,174.08,255.559
				L174.08,255.559z"/>
			<path style="fill:#FFFFFF;" d="M233.931,286.897v9.357l-33.368,16.684c-0.609,0.281-1.271,0.431-1.942,0.441
				c-2.058,0.003-3.846-1.415-4.31-3.42c-0.464-2.005,0.518-4.065,2.368-4.966l35.31-17.655
				C232.598,287.057,233.26,286.906,233.931,286.897L233.931,286.897z"/>
			<path style="fill:#FFFFFF;" d="M174.08,326.179l-17.655,8.828c-0.609,0.281-1.271,0.431-1.942,0.441v-9.357l15.713-7.857
				c1.421-0.708,3.113-0.6,4.432,0.284c1.319,0.883,2.064,2.406,1.95,3.99C176.465,324.091,175.511,325.493,174.08,326.179
				L174.08,326.179z"/>
			<path style="fill:#FFFFFF;" d="M218.218,268.8l-61.793,30.897c-0.609,0.281-1.271,0.431-1.942,0.441v-9.357l59.851-29.926
				c1.421-0.708,3.113-0.6,4.432,0.284s2.064,2.406,1.95,3.99S219.649,268.113,218.218,268.8L218.218,268.8z"/>
		</g>
	</g>
</g>
<g>
</g>
<g>
</g>
<g>
</g>
<g>
</g>
<g>
</g>
<g>
</g>
<g>
</g>
<g>
</g>
<g>
</g>
<g>
</g>
<g>
</g>
<g>
</g>
<g>
</g>
<g>
</g>
<g>
</g>
</svg>
