<?xml version="1.0" encoding="iso-8859-1"?>
<!-- Generator: Adobe Illustrator 19.0.0, SVG Export Plug-In . SVG Version: 6.00 Build 0)  -->
<svg version="1.1" id="Capa_1" xmlns="http://www.w3.org/2000/svg" xmlns:xlink="http://www.w3.org/1999/xlink" x="0px" y="0px"
	 viewBox="0 0 512 512" style="enable-background:new 0 0 512 512;" xml:space="preserve">
<g>
	<path style="fill:#8697CB;" d="M229.517,317.793v88.276l-35.31,17.655v35.31L300.138,512l70.621-35.31v-35.31l-35.31-17.655
		V264.828l123.586-61.793V79.448L299.079,0l-34.251,17.655l-17.655,61.793L52.966,176.552v70.621l158.897,79.448L229.517,317.793z
		 M282.483,79.448l17.655,17.655l-11.741-11.741L282.483,79.448z"/>
	<polygon style="fill:#90BAE1;" points="211.862,256 211.862,326.621 459.034,203.034 459.034,79.448 423.724,97.103 
		406.069,158.897 	"/>
	<polygon style="fill:#B0D3F0;" points="264.828,17.655 423.724,97.103 459.034,79.448 299.079,0 	"/>
	<polygon style="fill:#90BAE1;" points="300.138,476.69 300.138,512 370.759,476.69 370.759,441.379 	"/>
	<g>
		<polygon style="fill:#B0D3F0;" points="300.138,441.379 300.138,476.69 370.759,441.379 335.448,423.724 		"/>
		<polygon style="fill:#B0D3F0;" points="194.207,423.724 300.138,476.69 300.138,441.379 229.517,406.069 		"/>
		<path style="fill:#B0D3F0;" d="M52.966,176.552L211.862,256l194.207-97.103l-88.276-44.138v35.31l-17.655,8.828l-17.655-8.828
			v-26.483l-17.655,8.828l-17.655-8.828v-17.655l26.483-13.241l-26.483-13.241L52.966,176.552z M203.034,229.517l-88.276-44.138
			l88.276-44.138l88.276,44.138L203.034,229.517z"/>
	</g>
	<polygon style="fill:#556080;" points="114.759,185.379 203.034,229.517 291.31,185.379 203.034,141.241 	"/>
	<path style="fill:#464F5D;" d="M207.864,203.567c11.907-3.969,3.969-11.907,3.969-11.907c-5.628-5.375-13.672-7.386-21.167-5.292
		c-11.907,3.969-3.969,11.907-3.969,11.907C192.324,203.65,200.368,205.661,207.864,203.567L207.864,203.567z"/>
	<polygon style="fill:#7F8C8D;" points="282.483,123.586 282.483,150.069 300.138,158.897 300.138,114.759 	"/>
	<polygon style="fill:#95A5A5;" points="264.828,114.759 264.828,132.414 300.138,114.759 300.138,158.897 317.793,150.069 
		317.793,61.793 282.483,79.448 300.138,97.103 	"/>
	<polygon style="fill:#7F8C8D;" points="247.172,105.931 247.172,123.586 264.828,132.414 264.828,114.759 	"/>
	<g>
		<polygon style="fill:#BDC3C7;" points="247.172,105.931 264.828,114.759 300.138,97.103 288.397,85.363 273.655,92.69 		"/>
		<polygon style="fill:#BDC3C7;" points="264.828,70.621 282.483,79.448 317.793,61.793 300.138,52.966 		"/>
	</g>
</g>
<g>
</g>
<g>
</g>
<g>
</g>
<g>
</g>
<g>
</g>
<g>
</g>
<g>
</g>
<g>
</g>
<g>
</g>
<g>
</g>
<g>
</g>
<g>
</g>
<g>
</g>
<g>
</g>
<g>
</g>
</svg>
