<?xml version="1.0" encoding="iso-8859-1"?>
<!-- Generator: Adobe Illustrator 19.0.0, SVG Export Plug-In . SVG Version: 6.00 Build 0)  -->
<svg version="1.1" id="Capa_1" xmlns="http://www.w3.org/2000/svg" xmlns:xlink="http://www.w3.org/1999/xlink" x="0px" y="0px"
	 viewBox="0 0 512 512" style="enable-background:new 0 0 512 512;" xml:space="preserve">
<g>
	<polygon style="fill:#59474E;" points="256,52.966 256,17.655 220.69,0 44.138,88.276 44.138,423.724 79.448,441.379 220.69,512 
		361.931,512 467.862,459.034 467.862,423.724 467.862,326.621 467.862,291.31 467.862,194.207 467.862,158.897 	"/>
	<polygon style="fill:#805333;" points="467.862,158.897 467.862,194.207 361.931,247.172 361.931,211.862 	"/>
	<polygon style="fill:#CB8252;" points="220.69,344.276 220.69,379.586 79.448,308.966 79.448,273.655 	"/>
	<polygon style="fill:#805333;" points="467.862,291.31 467.862,326.621 371.553,374.731 361.931,379.586 361.931,344.276 	"/>
	<polygon style="fill:#CB8252;" points="220.69,476.69 220.69,512 79.448,441.379 79.448,406.069 	"/>
	<polygon style="fill:#805333;" points="467.862,423.724 467.862,459.034 361.931,512 361.931,476.69 	"/>
	<rect x="220.69" y="476.69" style="fill:#AF8066;" width="141.241" height="35.31"/>
	<polygon style="fill:#CBB292;" points="467.862,158.897 361.931,211.862 220.69,211.862 79.448,141.241 256,52.966 	"/>
	<polygon style="fill:#805333;" points="256,17.655 256,52.966 79.448,141.241 79.448,105.931 	"/>
	<g>
		<polygon style="fill:#CBB292;" points="467.862,423.724 361.931,476.69 220.69,476.69 79.448,406.069 176.552,357.517 
			220.69,379.586 361.931,379.586 371.553,374.731 		"/>
		<polygon style="fill:#CBB292;" points="467.862,291.31 361.931,344.276 220.69,344.276 79.448,273.655 79.448,264.828 
			167.724,220.69 220.69,247.172 361.931,247.172 370.759,242.759 		"/>
	</g>
	<g>
		<rect x="220.69" y="344.276" style="fill:#AF8066;" width="141.241" height="35.31"/>
		<rect x="220.69" y="211.862" style="fill:#AF8066;" width="141.241" height="35.31"/>
	</g>
	<polygon style="fill:#CB8252;" points="220.69,211.862 220.69,247.172 79.448,176.552 79.448,141.241 	"/>
	<polygon style="fill:#CBB292;" points="256,17.655 79.448,105.931 44.138,88.276 220.69,0 	"/>
	<polygon style="fill:#CB8252;" points="79.448,105.931 79.448,441.379 44.138,423.724 44.138,88.276 	"/>
</g>
<g>
</g>
<g>
</g>
<g>
</g>
<g>
</g>
<g>
</g>
<g>
</g>
<g>
</g>
<g>
</g>
<g>
</g>
<g>
</g>
<g>
</g>
<g>
</g>
<g>
</g>
<g>
</g>
<g>
</g>
</svg>
