<?xml version="1.0" encoding="iso-8859-1"?>
<!-- Generator: Adobe Illustrator 19.0.0, SVG Export Plug-In . SVG Version: 6.00 Build 0)  -->
<svg version="1.1" id="Capa_1" xmlns="http://www.w3.org/2000/svg" xmlns:xlink="http://www.w3.org/1999/xlink" x="0px" y="0px"
	 viewBox="0 0 512 512" style="enable-background:new 0 0 512 512;" xml:space="preserve">
<g>
	<polygon style="fill:#F0785A;" points="406.069,198.621 406.069,145.655 176.552,30.897 44.138,97.103 44.138,150.069 0,172.138 
		0,233.931 0,269.241 0,313.379 35.31,331.034 70.621,313.379 70.621,304.552 300.138,419.31 300.138,463.448 335.448,481.103 
		370.759,463.448 370.759,419.31 441.379,384 441.379,392.828 476.69,410.483 512,392.828 512,348.69 512,313.379 512,251.586 	"/>
	<polygon style="fill:#C03A2B;" points="512,251.586 512,313.379 335.448,401.655 335.448,339.862 	"/>
	<polygon style="fill:#802F34;" points="512,313.379 512,348.69 335.448,436.966 335.448,401.655 	"/>
	<polygon style="fill:#E64C3C;" points="335.448,339.862 335.448,401.655 218.924,343.393 220.69,339.862 220.69,282.483 	"/>
	<polygon style="fill:#C03A2B;" points="406.069,145.655 406.069,198.621 361.931,220.69 361.931,167.724 	"/>
	<g>
		<polygon style="fill:#E64C3C;" points="88.276,119.172 88.276,172.138 44.138,150.069 44.138,97.103 		"/>
		<polygon style="fill:#E64C3C;" points="361.931,167.724 361.931,220.69 346.041,212.745 240.11,159.779 176.552,128 
			176.552,75.034 		"/>
	</g>
	<polygon style="fill:#C03A2B;" points="176.552,75.034 176.552,128 88.276,172.138 88.276,119.172 	"/>
	<polygon style="fill:#804169;" points="335.448,401.655 335.448,436.966 0,269.241 0,233.931 112.993,290.428 218.924,343.393 	"/>
	<polygon style="fill:#A5A5A4;" points="335.448,436.966 335.448,481.103 300.138,463.448 300.138,419.31 	"/>
	<polygon style="fill:#5E5F62;" points="370.759,419.31 370.759,463.448 335.448,481.103 335.448,436.966 	"/>
	<polygon style="fill:#A5A5A4;" points="476.69,366.345 476.69,410.483 441.379,392.828 441.379,384 	"/>
	<polygon style="fill:#5E5F62;" points="512,348.69 512,392.828 476.69,410.483 476.69,366.345 	"/>
	<polygon style="fill:#A5A5A4;" points="35.31,286.897 35.31,331.034 0,313.379 0,269.241 	"/>
	<polygon style="fill:#5E5F62;" points="70.621,304.552 70.621,313.379 35.31,331.034 35.31,286.897 	"/>
	<g>
		<polygon style="fill:#E64C3C;" points="220.69,282.483 220.69,339.862 218.924,343.393 112.993,290.428 114.759,286.897 
			114.759,229.517 		"/>
		<polygon style="fill:#E64C3C;" points="114.759,229.517 114.759,286.897 112.993,290.428 0,233.931 0,172.138 		"/>
	</g>
</g>
<g>
</g>
<g>
</g>
<g>
</g>
<g>
</g>
<g>
</g>
<g>
</g>
<g>
</g>
<g>
</g>
<g>
</g>
<g>
</g>
<g>
</g>
<g>
</g>
<g>
</g>
<g>
</g>
<g>
</g>
</svg>
