<?xml version="1.0" encoding="iso-8859-1"?>
<!-- Generator: Adobe Illustrator 19.0.0, SVG Export Plug-In . SVG Version: 6.00 Build 0)  -->
<svg version="1.1" id="Capa_1" xmlns="http://www.w3.org/2000/svg" xmlns:xlink="http://www.w3.org/1999/xlink" x="0px" y="0px"
	 viewBox="0 0 512 512" style="enable-background:new 0 0 512 512;" xml:space="preserve">
<g>
	<polygon style="fill:#CBB292;" points="512,185.379 370.759,256 0,70.621 141.241,0 	"/>
	<polygon style="fill:#CB8252;" points="370.759,256 370.759,282.483 256,225.103 116.524,155.366 0,97.103 0,70.621 	"/>
	<polygon style="fill:#59474E;" points="512,211.862 512,441.379 370.759,512 370.759,282.483 	"/>
	<path style="fill:#AF8066;" d="M256,225.103v229.517L370.759,512V282.483L256,225.103z M344.276,459.034l-61.793-30.897V278.069
		l61.793,30.897V459.034z"/>
	<polygon style="fill:#A5A5A4;" points="344.276,388.414 344.276,459.034 282.483,428.138 282.483,357.517 	"/>
	<polygon style="fill:#D1D4D1;" points="344.276,308.966 344.276,388.414 282.483,357.517 282.483,278.069 	"/>
	<path style="fill:#AF8066;" d="M0,97.103v229.517L114.759,384V158.897l1.766-3.531L0,97.103z M88.276,331.034l-61.793-30.897
		V150.069l61.793,30.897V331.034z"/>
	<polygon style="fill:#A5A5A4;" points="88.276,260.414 88.276,331.034 26.483,300.138 26.483,229.517 	"/>
	<polygon style="fill:#D1D4D1;" points="88.276,180.966 88.276,260.414 26.483,229.517 26.483,150.069 	"/>
	<polygon style="fill:#59474E;" points="256,225.103 256,313.379 114.759,384 114.759,158.897 116.524,155.366 	"/>
	<polygon style="fill:#805333;" points="512,185.379 512,211.862 370.759,282.483 370.759,256 	"/>
	<g>
		<path style="fill:#464F5D;" d="M317.789,326.621c-0.684-0.001-1.358-0.16-1.97-0.465l-8.828-4.414
			c-1.415-0.703-2.346-2.108-2.441-3.685c-0.096-1.577,0.658-3.084,1.977-3.954c1.319-0.869,3.002-0.968,4.413-0.258l8.828,4.414
			c1.832,0.916,2.794,2.971,2.322,4.965C321.618,325.216,319.837,326.623,317.789,326.621z"/>
		<path style="fill:#464F5D;" d="M317.789,406.069c-0.684-0.001-1.358-0.16-1.97-0.465l-8.828-4.414
			c-1.415-0.703-2.346-2.108-2.441-3.685c-0.096-1.577,0.658-3.084,1.977-3.954c1.319-0.869,3.002-0.968,4.413-0.258l8.828,4.414
			c1.832,0.916,2.794,2.971,2.322,4.965C321.618,404.665,319.837,406.072,317.789,406.069z"/>
		<path style="fill:#464F5D;" d="M61.789,198.621c-0.684-0.001-1.358-0.16-1.97-0.465l-8.828-4.414
			c-1.414-0.703-2.346-2.108-2.441-3.685c-0.096-1.577,0.658-3.084,1.977-3.954c1.319-0.869,3.002-0.968,4.413-0.258l8.828,4.414
			c1.832,0.916,2.794,2.971,2.322,4.965C65.618,197.216,63.837,198.623,61.789,198.621z"/>
		<path style="fill:#464F5D;" d="M61.789,278.069c-0.684-0.001-1.358-0.16-1.97-0.465l-8.828-4.414
			c-1.414-0.703-2.346-2.108-2.441-3.685c-0.096-1.577,0.658-3.084,1.977-3.954c1.319-0.869,3.002-0.968,4.413-0.258l8.828,4.414
			c1.832,0.916,2.794,2.971,2.322,4.965C65.618,276.665,63.837,278.072,61.789,278.069L61.789,278.069z"/>
	</g>
</g>
<g>
</g>
<g>
</g>
<g>
</g>
<g>
</g>
<g>
</g>
<g>
</g>
<g>
</g>
<g>
</g>
<g>
</g>
<g>
</g>
<g>
</g>
<g>
</g>
<g>
</g>
<g>
</g>
<g>
</g>
</svg>
