<?xml version="1.0" encoding="iso-8859-1"?>
<!-- Generator: Adobe Illustrator 19.0.0, SVG Export Plug-In . SVG Version: 6.00 Build 0)  -->
<svg version="1.1" id="Capa_1" xmlns="http://www.w3.org/2000/svg" xmlns:xlink="http://www.w3.org/1999/xlink" x="0px" y="0px"
	 viewBox="0 0 512 512" style="enable-background:new 0 0 512 512;" xml:space="preserve">
<g>
	<polygon style="fill:#CBB292;" points="194.207,22.069 0,119.172 0,154.483 8.828,158.897 8.828,322.207 26.483,331.034 
		44.138,322.207 44.138,176.552 132.414,220.69 132.414,260.414 150.069,269.241 167.724,260.414 167.724,238.345 317.793,313.379 
		326.621,308.966 326.621,481.103 344.276,489.931 361.931,481.103 361.931,291.31 450.207,247.172 450.207,419.31 467.862,428.138 
		485.517,419.31 485.517,229.517 512,216.276 512,180.966 	"/>
	<polygon style="fill:#CB8252;" points="317.793,278.069 317.793,313.379 0,154.483 0,119.172 	"/>
	<polygon style="fill:#805333;" points="512,180.966 512,216.276 317.793,313.379 317.793,278.069 	"/>
	<polygon style="fill:#5E5F62;" points="485.517,229.517 485.517,419.31 467.862,428.138 467.862,238.345 	"/>
	<polygon style="fill:#A5A5A4;" points="467.862,238.345 467.862,428.138 450.207,419.31 450.207,247.172 	"/>
	<polygon style="fill:#5E5F62;" points="361.931,291.31 361.931,481.103 344.276,489.931 344.276,300.138 	"/>
	<polygon style="fill:#A5A5A4;" points="344.276,300.138 344.276,489.931 326.621,481.103 326.621,308.966 	"/>
	<polygon style="fill:#5E5F62;" points="167.724,238.345 167.724,260.414 150.069,269.241 150.069,229.517 	"/>
	<g>
		<polygon style="fill:#A5A5A4;" points="150.069,229.517 150.069,269.241 132.414,260.414 132.414,220.69 		"/>
		<polygon style="fill:#A5A5A4;" points="26.483,167.724 26.483,331.034 8.828,322.207 8.828,158.897 		"/>
	</g>
	<polygon style="fill:#5E5F62;" points="44.138,176.552 44.138,322.207 26.483,331.034 26.483,167.724 	"/>
</g>
<g>
</g>
<g>
</g>
<g>
</g>
<g>
</g>
<g>
</g>
<g>
</g>
<g>
</g>
<g>
</g>
<g>
</g>
<g>
</g>
<g>
</g>
<g>
</g>
<g>
</g>
<g>
</g>
<g>
</g>
</svg>
