<?xml version="1.0" encoding="iso-8859-1"?>
<!-- Generator: Adobe Illustrator 19.0.0, SVG Export Plug-In . SVG Version: 6.00 Build 0)  -->
<svg version="1.1" id="Capa_1" xmlns="http://www.w3.org/2000/svg" xmlns:xlink="http://www.w3.org/1999/xlink" x="0px" y="0px"
	 viewBox="0 0 512 512" style="enable-background:new 0 0 512 512;" xml:space="preserve">
<g>
	<path style="fill:#CBB292;" d="M256,256l254.234-127.117L512,128L256,0L0,128l1.766,0.883L0,132.414v256l35.31,17.655l35.31-17.655
		v-48.552l150.069,75.034v79.448L256,512l35.31-17.655v-79.448l150.069-75.034v48.552l35.31,17.655L512,388.414V163.293
		l-37.076,18.556l-35.31,17.655l1.766,3.531V256L384,227.31l55.614-27.807L512,163.293V128L256,256z M70.621,256v-52.966
		l1.766-3.531L128,227.31L70.621,256z"/>
	<polygon style="fill:#A5A5A4;" points="220.69,379.586 220.69,414.897 35.31,322.207 35.31,291.31 39.724,289.103 	"/>
	<g>
		<polygon style="fill:#D1D4D1;" points="220.69,273.655 220.69,379.586 39.724,289.103 70.621,273.655 70.621,256 128,227.31 		"/>
		<polygon style="fill:#D1D4D1;" points="472.276,289.103 291.31,379.586 291.31,273.655 384,227.31 441.379,256 441.379,273.655 		
			"/>
	</g>
	<polygon style="fill:#805333;" points="512,163.293 439.614,199.503 384,227.31 256,291.31 256,256 512,128 512,132.414 
		512,158.897 	"/>
	<polygon style="fill:#CB8252;" points="256,256 256,291.31 128,227.31 72.386,199.503 37.076,181.848 0,163.31 0,132.414 
		1.766,128.883 	"/>
	<polygon style="fill:#AF8066;" points="256,291.31 256,512 220.69,494.345 220.69,273.655 	"/>
	<g>
		<polygon style="fill:#59474E;" points="291.31,273.655 291.31,494.345 256,512 256,291.31 		"/>
		<polygon style="fill:#59474E;" points="70.621,339.862 70.621,388.414 35.31,406.069 35.31,322.207 		"/>
	</g>
	<polygon style="fill:#AF8066;" points="37.076,181.848 35.31,185.379 35.31,406.069 0,388.414 0,163.31 	"/>
	<polygon style="fill:#59474E;" points="72.386,199.503 70.621,203.034 70.621,273.655 35.31,291.31 35.31,286.897 35.31,185.379 
		37.076,181.848 	"/>
	<polygon style="fill:#5E5F62;" points="476.69,282.483 476.69,322.207 291.31,414.897 291.31,379.586 472.276,289.103 	"/>
	<polygon style="fill:#59474E;" points="512,167.724 512,388.414 476.69,406.069 476.69,185.379 474.924,181.848 512,163.293 	"/>
	<g>
		<polygon style="fill:#AF8066;" points="476.69,322.207 476.69,406.069 441.379,388.414 441.379,339.862 		"/>
		<polygon style="fill:#AF8066;" points="476.69,185.379 476.69,286.897 472.276,289.103 441.379,273.655 441.379,203.034 
			439.614,199.503 474.924,181.848 		"/>
	</g>
</g>
<g>
</g>
<g>
</g>
<g>
</g>
<g>
</g>
<g>
</g>
<g>
</g>
<g>
</g>
<g>
</g>
<g>
</g>
<g>
</g>
<g>
</g>
<g>
</g>
<g>
</g>
<g>
</g>
<g>
</g>
</svg>
