<?xml version="1.0" encoding="iso-8859-1"?>
<!-- Generator: Adobe Illustrator 19.0.0, SVG Export Plug-In . SVG Version: 6.00 Build 0)  -->
<svg version="1.1" id="Capa_1" xmlns="http://www.w3.org/2000/svg" xmlns:xlink="http://www.w3.org/1999/xlink" x="0px" y="0px"
	 viewBox="0 0 512 512" style="enable-background:new 0 0 512 512;" xml:space="preserve">
<g>
	<g>
		<polygon style="fill:#7D6599;" points="476.69,167.724 476.69,97.103 282.483,0 211.862,35.31 211.862,70.621 0,176.552 
			0,326.621 0,379.586 35.31,397.241 70.621,379.586 70.621,361.931 229.517,441.379 229.517,494.345 264.828,512 300.138,494.345 
			300.138,441.379 441.379,370.759 441.379,397.241 476.69,414.897 512,397.241 512,335.448 512,185.379 		"/>
		<polygon style="fill:#7D6599;" points="335.448,238.345 229.517,291.31 229.517,361.931 35.31,264.828 211.862,176.552 		"/>
	</g>
	<polygon style="fill:#894B9D;" points="512,185.379 512,335.448 264.828,459.034 264.828,308.966 	"/>
	<polygon style="fill:#5E5F62;" points="512,335.448 512,397.241 476.69,414.897 476.69,353.103 	"/>
	<g>
		<polygon style="fill:#A5A5A4;" points="476.69,353.103 476.69,414.897 441.379,397.241 441.379,370.759 		"/>
		<polygon style="fill:#A5A5A4;" points="264.828,459.034 264.828,512 229.517,494.345 229.517,441.379 		"/>
	</g>
	<polygon style="fill:#5E5F62;" points="300.138,441.379 300.138,494.345 264.828,512 264.828,459.034 	"/>
	<polygon style="fill:#A5A5A4;" points="35.31,344.276 35.31,397.241 0,379.586 0,326.621 	"/>
	<polygon style="fill:#5E5F62;" points="70.621,361.931 70.621,379.586 35.31,397.241 35.31,344.276 	"/>
	<g>
		<polygon style="fill:#7D6599;" points="512,185.379 264.828,308.966 229.517,291.31 476.69,167.724 		"/>
		<polygon style="fill:#7D6599;" points="211.862,70.621 211.862,105.931 35.31,194.207 0,176.552 		"/>
	</g>
	<polygon style="fill:#804169;" points="229.517,406.069 229.517,441.379 35.31,344.276 35.31,308.966 	"/>
	<polygon style="fill:#CC66A1;" points="264.828,308.966 264.828,459.034 229.517,441.379 229.517,291.31 	"/>
	<polygon style="fill:#894B9D;" points="476.69,97.103 476.69,167.724 406.069,203.034 406.069,132.414 	"/>
	<polygon style="fill:#CC66A1;" points="35.31,194.207 35.31,344.276 0,326.621 0,176.552 	"/>
	<polygon style="fill:#894B9D;" points="211.862,105.931 211.862,176.552 35.31,264.828 35.31,194.207 	"/>
	<g>
		<polygon style="fill:#CC66A1;" points="406.069,132.414 406.069,203.034 335.448,238.345 211.862,176.552 211.862,35.31 		"/>
		<polygon style="fill:#CC66A1;" points="229.517,361.931 229.517,406.069 35.31,308.966 35.31,264.828 		"/>
	</g>
</g>
<g>
</g>
<g>
</g>
<g>
</g>
<g>
</g>
<g>
</g>
<g>
</g>
<g>
</g>
<g>
</g>
<g>
</g>
<g>
</g>
<g>
</g>
<g>
</g>
<g>
</g>
<g>
</g>
<g>
</g>
</svg>
