<?xml version="1.0" encoding="iso-8859-1"?>
<!-- Generator: Adobe Illustrator 19.0.0, SVG Export Plug-In . SVG Version: 6.00 Build 0)  -->
<svg version="1.1" id="Capa_1" xmlns="http://www.w3.org/2000/svg" xmlns:xlink="http://www.w3.org/1999/xlink" x="0px" y="0px"
	 viewBox="0 0 512 512" style="enable-background:new 0 0 512 512;" xml:space="preserve">
<g>
	<polygon style="fill:#CB8252;" points="344.276,194.207 344.276,512 61.793,370.759 61.793,52.966 	"/>
	<polygon style="fill:#CBB292;" points="450.207,141.241 344.276,194.207 61.793,52.966 167.724,0 	"/>
	<polygon style="fill:#805333;" points="450.207,141.241 450.207,459.034 344.276,512 344.276,194.207 	"/>
	<polygon style="fill:#D1D4D1;" points="317.793,211.862 317.793,273.655 88.276,158.897 88.276,97.103 	"/>
	<polygon style="fill:#A5A5A4;" points="317.793,273.655 317.793,335.448 88.276,220.69 88.276,158.897 	"/>
	<polygon style="fill:#D1D4D1;" points="317.793,335.448 317.793,397.241 88.276,282.483 88.276,220.69 	"/>
	<polygon style="fill:#A5A5A4;" points="317.793,397.241 317.793,467.862 88.276,353.103 88.276,282.483 	"/>
	<g>
		<path style="fill:#464F5D;" d="M220.69,189.793c-0.685-0.001-1.361-0.16-1.974-0.465l-35.31-17.655
			c-2.174-1.094-3.053-3.741-1.965-5.918c1.088-2.177,3.734-3.062,5.913-1.979l35.31,17.655c1.831,0.915,2.793,2.97,2.323,4.962
			C224.516,188.386,222.737,189.794,220.69,189.793z"/>
		<path style="fill:#464F5D;" d="M220.69,251.586c-0.685-0.001-1.361-0.16-1.974-0.465l-35.31-17.655
			c-2.174-1.094-3.053-3.741-1.965-5.918c1.088-2.177,3.734-3.062,5.913-1.979l35.31,17.655c1.831,0.915,2.793,2.97,2.323,4.962
			C224.516,250.179,222.737,251.587,220.69,251.586z"/>
		<path style="fill:#464F5D;" d="M220.69,313.379c-0.685-0.001-1.361-0.16-1.974-0.465l-35.31-17.655
			c-2.174-1.094-3.053-3.741-1.965-5.918c1.088-2.177,3.734-3.062,5.913-1.979l35.31,17.655c1.831,0.915,2.793,2.97,2.323,4.962
			C224.516,311.972,222.737,313.38,220.69,313.379z"/>
		<path style="fill:#464F5D;" d="M220.69,375.172c-0.685-0.001-1.361-0.16-1.974-0.465l-35.31-17.655
			c-2.174-1.094-3.053-3.741-1.965-5.918c1.088-2.177,3.734-3.062,5.913-1.979l35.31,17.655c1.831,0.915,2.793,2.97,2.323,4.962
			C224.516,373.765,222.737,375.173,220.69,375.172z"/>
	</g>
</g>
<g>
</g>
<g>
</g>
<g>
</g>
<g>
</g>
<g>
</g>
<g>
</g>
<g>
</g>
<g>
</g>
<g>
</g>
<g>
</g>
<g>
</g>
<g>
</g>
<g>
</g>
<g>
</g>
<g>
</g>
</svg>
