<?xml version="1.0" encoding="iso-8859-1"?>
<!-- Generator: Adobe Illustrator 19.0.0, SVG Export Plug-In . SVG Version: 6.00 Build 0)  -->
<svg version="1.1" id="Capa_1" xmlns="http://www.w3.org/2000/svg" xmlns:xlink="http://www.w3.org/1999/xlink" x="0px" y="0px"
	 viewBox="0 0 512 512" style="enable-background:new 0 0 512 512;" xml:space="preserve">
<g>
	<polygon style="fill:#CBB292;" points="450.207,123.586 308.966,194.207 61.793,70.621 203.034,0 	"/>
	<polygon style="fill:#805333;" points="450.207,123.586 450.207,441.379 308.966,512 308.966,194.207 	"/>
	<polygon style="fill:#CB8252;" points="308.966,194.207 308.966,512 61.793,388.414 61.793,70.621 	"/>
	<polygon style="fill:#59474E;" points="282.483,392.828 282.483,459.034 88.276,361.931 88.276,295.724 88.276,185.379 
		88.276,119.172 282.483,216.276 282.483,282.483 	"/>
	<polygon style="fill:#5E5F62;" points="282.483,216.276 282.483,260.414 194.207,216.276 194.207,172.138 	"/>
	<polygon style="fill:#D1D4D1;" points="282.483,260.414 282.483,366.345 88.276,269.241 194.207,216.276 	"/>
	<polygon style="fill:#A5A5A4;" points="282.483,366.345 282.483,459.034 88.276,361.931 180.966,315.586 	"/>
</g>
<g>
</g>
<g>
</g>
<g>
</g>
<g>
</g>
<g>
</g>
<g>
</g>
<g>
</g>
<g>
</g>
<g>
</g>
<g>
</g>
<g>
</g>
<g>
</g>
<g>
</g>
<g>
</g>
<g>
</g>
</svg>
